<?xml version="1.0" encoding="UTF-8"?>
<svg width="23px" height="23px" viewBox="0 0 23 23" version="1.1"
    xmlns="http://www.w3.org/2000/svg"
    xmlns:xlink="http://www.w3.org/1999/xlink">
    <!-- Generator: Sketch 52.6 (67491) - http://www.bohemiancoding.com/sketch -->
    <title>group (3)</title>
    <desc>Created with Sketch.</desc>
    <g id="Wrap-Around" stroke="none" stroke-width="1" fill="none" fill-rule="evenodd">
        <g transform="translate(-1010.000000, -3881.000000)" fill="#F2C744" fill-rule="nonzero" id="Group-9">
            <g transform="translate(1002.000000, 3872.000000)">
                <g id="group-(3)" transform="translate(8.500000, 9.500000)">
                    <path d="M22.3917138,4.58550814 C22.3911981,4.58499543 22.3906356,4.58443611 22.3901199,4.58392341 L17.8896852,0.109371024 C17.8181001,0.0370790372 17.7195593,-0.00244617551 17.6175964,0.000117370126 C17.515774,0.00193515703 17.4191084,0.0449095039 17.3498674,0.119205717 L15.9566547,1.61072318 C15.8207509,1.75623935 15.8233293,1.98211103 15.9625146,2.12450433 L16.0681342,2.23249952 L15.5149558,2.78249658 L14.6410745,2.56548079 C13.8572956,2.374753 13.0303876,2.6082687 12.464458,3.18017243 L10.8703665,5.02727697 L9.01806255,3.18562579 C8.49001154,2.65762861 7.7062327,2.47356603 6.99638288,2.71076391 C6.95400379,2.72493333 6.91448434,2.74637389 6.8795591,2.7741068 L6.77773676,2.85567416 L6.53086916,2.61027293 L7.01579101,2.12813991 C7.16224265,1.98262373 7.16228953,1.7465911 7.01593164,1.60102831 C7.01588476,1.6009817 7.01583788,1.60093509 7.01579101,1.60088848 L5.51564609,0.109371024 C5.36928821,-0.036238368 5.13189027,-0.0362849779 4.98548551,0.109231194 C4.98543863,0.109277804 4.98539175,0.109324414 4.98534487,0.109371024 L0.109873906,4.95680277 C-0.0365777408,5.10231894 -0.0366246204,5.33835158 0.109733268,5.48391436 C0.109780147,5.48396097 0.109827027,5.48400758 0.109873906,5.48405419 L1.61001882,6.97557165 C1.75637671,7.12118105 1.99377464,7.12122766 2.14022628,6.97571148 C2.14027316,6.97566487 2.14032004,6.97561826 2.14036692,6.97557165 L2.30974266,6.80717001 L3.19843788,7.69075428 L2.9801668,8.55960981 C2.7887108,9.32741503 3.01373254,10.1389404 3.57384914,10.7007763 L6.75068727,13.9502336 L6.75068727,16.8652646 C6.75757856,17.5336043 7.13477125,18.1436349 7.73150077,18.4514468 C8.05145355,18.6207341 8.2512541,18.9518975 8.25083218,19.3122854 L8.25083218,19.3898444 L7.87579596,19.3898444 C7.66877596,19.3897045 7.50090037,19.5564748 7.50075973,19.7623042 C7.50075973,19.7624441 7.50075973,19.7625839 7.50075973,19.7627237 L7.50075973,21.6271205 C7.50061909,21.83295 7.66835404,21.9998601 7.87537404,21.9999999 C7.87551468,21.9999999 7.87565532,21.9999999 7.87579596,21.9999999 L15.0014843,21.9999999 C15.2085043,22.0001397 15.3763799,21.8333694 15.3765205,21.62754 C15.3765205,21.6274002 15.3765205,21.6272604 15.3765205,21.6271205 L15.3765205,19.7627237 C15.3766612,19.5568943 15.2089262,19.3899842 15.0019062,19.3898444 C15.0017656,19.3898444 15.0016249,19.3898444 15.0014843,19.3898444 L14.6264481,19.3898444 L14.6264481,19.0151472 L15.2208805,18.4700442 C15.7897167,18.0421651 16.1247647,17.3745712 16.126593,16.6653547 L16.126593,12.2972593 C16.5706827,12.2442173 16.9835039,12.0428624 17.297503,11.726148 L19.2799913,9.58572721 C19.7460207,9.1257339 19.9082708,8.44224603 19.6982505,7.82363916 C19.6381509,7.64381809 19.9611978,7.05532123 20.3460787,6.60399737 C20.4147572,6.67176819 20.5072036,6.71045442 20.603963,6.71189933 L20.6076196,6.71189933 C20.7063479,6.71189933 20.8011383,6.67316649 20.8713169,6.60409059 L22.3886666,5.11257313 C22.5359152,4.96789593 22.5372747,4.7319099 22.3917138,4.58550814 Z M1.87521631,6.18469452 L0.905419504,5.22042848 L5.25054236,0.900248158 L6.22038605,1.86446759 L1.87521631,6.18469452 Z M6.78392486,12.9143281 L4.10785385,10.1771139 C3.73136436,9.8004125 3.57966221,9.25582219 3.70754956,8.74022325 L3.97748189,7.66675017 C4.00959436,7.53973813 3.97213762,7.40531512 3.87894112,7.31279443 L2.84009077,6.27991859 L6.00061482,3.13757096 L6.48553666,3.61970398 C6.62097162,3.75426682 6.83657057,3.76587269 6.98583499,3.64664451 L7.29383349,3.40012464 C7.71940585,3.28182866 8.17610621,3.40147633 8.4878082,3.71292382 L10.5551954,5.76842132 L10.5516326,5.77107808 C10.3843195,5.92391201 10.25962,6.11724996 10.1897695,6.33221492 C9.95734078,6.20697406 9.69247144,6.1540718 9.42943041,6.1803598 C8.74869278,6.26863899 8.24220635,6.84953843 8.25083218,7.5320475 L8.25083218,11.4316199 C7.50493201,11.5847335 6.92564167,12.1702473 6.78392486,12.9143281 Z M14.6264481,21.2542412 L8.25083218,21.2542412 L8.25083218,20.1356031 L14.6264481,20.1356031 L14.6264481,21.2542412 Z M15.3765205,16.6653547 C15.3721607,17.152708 15.1367786,17.6094386 14.7414435,17.8976277 L13.9976061,18.5771072 C13.9203017,18.6477212 13.8763287,18.7473266 13.8763756,18.8516862 L13.8763756,19.389891 L9.00090464,19.389891 L9.00090464,19.3123321 C9.00174847,18.6763397 8.6490269,18.0919445 8.08417546,17.7935012 C7.73225084,17.614892 7.50797917,17.2580464 7.50075973,16.8653112 L7.50075973,13.2584957 C7.50221299,12.786011 7.80257013,12.3655429 8.25083218,12.2085607 L8.25083218,14.5424592 L9.00090464,14.5424592 L9.00090464,7.53200089 C8.98941915,7.23150673 9.20544002,6.96979202 9.5041095,6.92243634 C9.66321862,6.90612287 9.82185894,6.95758022 9.94069855,7.06408389 C10.0592569,7.16960875 10.1267165,7.32057829 10.1260133,7.47881897 L10.1260133,13.0508951 L10.8760858,13.0508951 L10.8760858,6.73306024 C10.8758514,6.42426951 11.1274538,6.1737878 11.4380307,6.17355475 C11.4553761,6.17355475 11.4726747,6.17434712 11.4899263,6.17588524 C11.7936588,6.22622396 12.0125393,6.49297254 12.0011945,6.79892005 L12.0011945,13.0508485 L12.7512669,13.0508485 L12.7512669,7.85169833 C12.7510325,7.54290761 13.0026349,7.29242589 13.3132118,7.29219284 C13.3305573,7.29219284 13.3478558,7.29298521 13.3651075,7.29452334 C13.6688399,7.34486205 13.8877204,7.61161063 13.8763756,7.91755815 L13.8763756,13.0508485 L14.6264481,13.0508485 L14.6264481,9.97119125 C15.0747101,10.1281735 15.3750672,10.5486416 15.3765205,11.0211263 L15.3765205,16.6653547 Z M18.9869474,8.05962519 C19.1060683,8.41563176 19.0097308,8.80799407 18.7390016,9.06938251 L16.7565132,11.2098033 C16.584981,11.3821668 16.3656786,11.4996704 16.1265461,11.5473523 L16.1265461,11.0211729 C16.1253741,10.1355844 15.4988292,9.37258004 14.6264012,9.1942971 L14.6264012,7.91760476 C14.6395743,7.22446863 14.12254,6.63410737 13.4302231,6.55170104 C13.1950754,6.53203165 12.9588495,6.57477295 12.7456883,6.67549698 C12.7015277,6.03032246 12.2010419,5.50810491 11.555042,5.43306294 C11.5391029,5.43171125 11.5233983,5.43469429 11.5074593,5.43394853 L13.0141673,3.68668243 C13.3930945,3.31249799 13.9407881,3.16166829 14.4593694,3.28868032 L15.5390518,3.55706024 C15.6667986,3.58889482 15.8019522,3.5517001 15.895055,3.45908619 L16.5909816,2.76716192 L19.8223875,6.07110614 C19.476229,6.47036672 18.7651135,7.39823041 18.9869474,8.05962519 Z M20.6127763,5.80957788 L16.7488249,1.85864135 L17.6344261,0.910036241 L21.5931679,4.84601099 L20.6127763,5.80957788 Z" id="Shape"></path>
                </g>
            </g>
        </g>
    </g>
</svg>
