<?xml version="1.0" encoding="UTF-8"?>
<svg width="20px" height="22px" viewBox="0 0 20 22" version="1.1"
    xmlns="http://www.w3.org/2000/svg"
    xmlns:xlink="http://www.w3.org/1999/xlink">
    <!-- Generator: Sketch 52.6 (67491) - http://www.bohemiancoding.com/sketch -->
    <title>strong</title>
    <desc>Created with Sketch.</desc>
    <g id="Wrap-Around" stroke="none" stroke-width="1" fill="none" fill-rule="evenodd">
        <g transform="translate(-1015.000000, -4304.000000)" fill="#F2C744" fill-rule="nonzero" id="Group-7">
            <g transform="translate(1005.000000, 4296.000000)">
                <g id="strong" transform="translate(10.500000, 8.500000)">
                    <path d="M18.1816128,10.512593 C18.0528429,10.5042324 17.9222616,10.5 17.793532,10.5 C16.5832399,10.5 15.4178302,10.8672443 14.494986,11.536721 C12.9559463,11.2996392 11.2774696,11.3028655 9.72558918,11.6527987 C9.56425447,11.6891901 9.46768712,11.8313906 9.5099127,11.9703995 C9.55209802,12.109443 9.71689449,12.1925292 9.87843046,12.1562766 C11.3878841,11.8158488 13.1194547,11.8245564 14.5215933,12.0710742 C14.6149404,12.087518 14.7119908,12.0649338 14.7830779,12.0101906 C15.6868824,11.3144178 16.8894458,10.9505733 18.1361267,11.0316126 C18.2819237,11.0410834 18.3961219,11.1490087 18.3961219,11.2772285 L18.3961219,12.239779 C18.3961219,12.3835406 18.5312921,12.5 18.698061,12.5 C18.8648701,12.5 19,12.3835406 19,12.239779 L19,11.2772285 C19.0000403,10.8783109 18.6405392,10.5424624 18.1816128,10.512593 Z" id="Shape"></path>
                    <path d="M18.6907272,14 C18.5198436,14 18.3814131,14.1331984 18.3814131,14.2976233 L18.3814131,19.2838551 C18.3814131,19.6921001 18.0249659,19.8351387 17.9387819,19.8637067 C13.8419068,20.5603698 10.6067483,20.4581994 8.61317572,20.2494148 C7.10821298,20.0918145 5.55570471,19.7579653 5.25092666,19.6267111 C5.18288664,19.5973495 5.10692924,19.5929056 5.0368274,19.6128239 C4.96738535,19.6290124 3.52060714,19.9488156 2.02962353,19.2863151 C1.6409707,19.1136373 1.3250176,18.8154982 1.14007245,18.4468119 C0.961890079,18.0915764 0.726347906,17.4935127 0.616164312,16.6617069 C0.594556452,16.4986311 0.439631392,16.3832083 0.270232364,16.4041186 C0.1007921,16.4248701 -0.0191232781,16.5738999 0.00252581865,16.7369758 C0.123183451,17.6482958 0.384787013,18.3104789 0.582969031,18.7055906 C0.830098625,19.1982304 1.25182303,19.5964369 1.77028797,19.8268063 C2.88593809,20.3225806 4.20265678,20.3922549 5.10243447,20.2080705 C6.99440059,20.7896282 9.701115,21 11.7214499,21 C14.8223016,20.9999206 17.878618,20.5033131 18.1024491,20.4383208 C18.4358039,20.3419434 19,19.9903186 19,19.2838551 L19,14.2976233 C19.0000412,14.1332381 18.8615695,14 18.6907272,14 Z" id="Shape"></path>
                    <path d="M11.3560845,3.16226696 C11.1069373,2.75072071 10.7161563,2.71577266 10.2708072,2.72858969 C10.5501393,2.2366382 10.7876832,1.89840866 10.7876832,1.32741193 C10.7876832,1.00274125 10.6832532,0.733707212 10.477233,0.527645599 C9.7847653,-0.164845059 8.08333456,0.0233304062 5.76258579,0.0233304062 C3.6088683,0.0233304062 3.16124721,2.64624747 3.26644811,4.82312357 C3.27809202,5.06425687 3.21549079,5.29953802 3.08529809,5.50358023 C2.49178329,6.43440175 2.91932167,7.06276603 2.29180828,8.16601991 C0.858796019,10.6858237 0.0877826009,13.0450644 0.000270711632,15.1780081 C-0.00695094636,15.3536963 0.131234262,15.5 0.304554054,15.5 C0.466757361,15.5 0.601534596,15.3699339 0.608350543,15.2037246 C0.69176475,13.171545 1.43551438,10.9076697 2.81898931,8.47511233 C3.50764337,7.2643355 3.12611263,6.57674911 3.59625068,5.83958429 C3.79626626,5.52612337 3.89246037,5.1640319 3.87448737,4.79262645 C3.79038345,3.05334279 4.05016029,0.641432822 5.76262636,0.641432822 C8.43869693,0.641432822 10.1790354,0.432939681 10.1790354,1.3272883 C10.1790354,1.81705554 9.90481522,2.07335497 9.53253469,2.81187979 C8.40972916,3.00462983 8.06763354,3.24073522 7.54097993,3.03005783 C7.35930249,2.95740051 7.26416323,2.7724396 7.3195428,2.59971876 C7.33317469,2.58706657 7.33548725,2.34325447 7.72712019,2.3028664 L8.54694066,2.20910836 C8.71397193,2.18998585 8.83410299,2.03692328 8.81531857,1.86733457 C8.79649357,1.69762223 8.64544732,1.57567496 8.47886233,1.59471506 L7.66240927,1.68814339 C6.34806752,1.82336102 6.29804333,3.73248066 7.97659196,3.73248066 C8.57947869,3.73248066 9.7215555,3.26385534 10.6268999,3.35629458 C10.8952372,3.39763054 10.9344695,3.67593735 10.8546661,3.91414458 C10.7687771,4.17168038 9.46835119,4.59629094 9.21449774,4.68160045 C8.2775079,4.9964626 8.13583358,5.58382062 6.8227901,6.37344872 C6.31045809,6.68151083 6.02994942,7.25382636 6.0409442,7.67839571 C6.04195847,7.71701165 6.13912629,11.5150569 5.79836951,13.849941 L5.44373742,14.2638776 C5.33602112,14.3895752 5.34579876,14.5793991 5.46584868,14.6930627 C5.58597974,14.8066439 5.772972,14.8030996 5.88888367,14.6850675 C6.33950701,14.2257562 7.11417183,13.5713045 8.24545673,13.0617554 C8.3991401,12.9925187 8.46843556,12.8099069 8.40031666,12.6538358 C8.33215719,12.4977235 8.15238659,12.4274153 7.99874379,12.4965283 C7.39849418,12.7669224 6.890909,13.07585 6.47209341,13.3791727 C6.72927369,11.0644413 6.65693539,7.95526009 6.64979488,7.67649994 C6.67328555,7.36122567 6.85313729,7.07376972 7.13283454,6.90554102 C8.51282036,6.07577211 8.62552691,5.530904 9.4057094,5.26862877 C10.4866861,4.90538336 11.2646778,4.60989101 11.4309788,4.11340616 C11.544375,3.7747645 11.5171112,3.42812766 11.3560845,3.16226696 Z" id="Shape"></path>
                </g>
            </g>
        </g>
    </g>
</svg>
