<?xml version="1.0" encoding="UTF-8"?>
<svg width="28px" height="52px" viewBox="0 0 28 52" version="1.1"
    xmlns="http://www.w3.org/2000/svg"
    xmlns:xlink="http://www.w3.org/1999/xlink">
    <!-- Generator: Sketch 52.6 (67491) - http://www.bohemiancoding.com/sketch -->
    <title>down-arrow copy 2</title>
    <desc>Created with Sketch.</desc>
    <g id="Ways-To-Give" stroke="none" stroke-width="1" fill="none" fill-rule="evenodd">
        <g transform="translate(-583.000000, -1277.000000)" fill="#C4C4C4" fill-rule="nonzero" id="down-arrow-copy-2">
            <g transform="translate(597.000000, 1303.000000) rotate(-180.000000) translate(-597.000000, -1303.000000) translate(583.000000, 1277.000000)">
                <path d="M39.4679477,12.5410628 C38.7512487,11.8196457 37.5866128,11.8196457 36.8699138,12.5410628 L14.0251328,35.5813205 L-8.86444183,12.5410628 C-9.58114084,11.8196457 -10.7457767,11.8196457 -11.4624757,12.5410628 C-12.1791748,13.2624799 -12.1791748,14.4347826 -11.4624757,15.1561997 L12.6813222,39.4589372 C13.0396717,39.8196457 13.4876086,40 13.9803391,40 C14.428276,40 14.9210066,39.8196457 15.2793561,39.4589372 L39.423154,15.1561997 C40.1846467,14.4347826 40.1846467,13.2624799 39.4679477,12.5410628 Z" id="Shape" transform="translate(14.000000, 26.000000) rotate(-270.000000) translate(-14.000000, -26.000000) "></path>
            </g>
        </g>
    </g>
</svg>
