<?xml version="1.0" encoding="UTF-8"?>
<svg width="29px" height="25px" viewBox="0 0 29 25" version="1.1" xmlns="http://www.w3.org/2000/svg" xmlns:xlink="http://www.w3.org/1999/xlink">
    <!-- Generator: Sketch 52.6 (67491) - http://www.bohemiancoding.com/sketch -->
    <title>two-thin-arrows-forming-a-circle</title>
    <desc>Created with Sketch.</desc>
    <g id="Wrap-Around" stroke="none" stroke-width="1" fill="none" fill-rule="evenodd">
        <g transform="translate(-1011.000000, -4402.000000)" fill="#F2C744" fill-rule="nonzero" id="Group-10">
            <g transform="translate(1005.000000, 4395.000000)">
                <g id="two-thin-arrows-forming-a-circle" transform="translate(6.000000, 7.500000)">
                    <path d="M22.3470441,20.023612 C20.2404999,22.0989151 17.4427763,23.2421825 14.4654625,23.2421825 C8.32461117,23.2421825 3.32763599,18.3176452 3.32181145,12.2641991 L5.59435518,14.507977 C5.74498442,14.655552 5.98735025,14.655552 6.13781769,14.507977 C6.28650541,14.3594448 6.28650541,14.1196554 6.13781769,13.9720804 L3.12507122,11 L0.112971925,13.9720804 C-0.0376573085,14.1196554 -0.0376573085,14.3596043 0.112971925,14.507977 C0.187234888,14.5821634 0.285766793,14.6183791 0.38332794,14.6183791 C0.482830603,14.6183791 0.581200715,14.5812061 0.654654713,14.507977 L2.56801811,12.6202936 C2.7678324,18.92709 8.01866071,24 14.4617412,24 C17.6446939,24 20.6364073,22.7777601 22.8877561,20.5587109 C23.0374146,20.4111359 23.0374146,20.171187 22.8877561,20.0237715 C22.7419807,19.8750798 22.4976733,19.8750798 22.3470441,20.023612 Z" id="Shape"></path>
                    <path d="M28.8868952,9.49283847 C28.7382193,9.34525081 28.4949022,9.34525081 28.3444468,9.49283847 L26.4330161,11.3797268 C26.2312765,5.07238853 20.9808684,0 14.5392741,0 C11.3546349,0 8.36413157,1.22234496 6.11296288,3.44158474 C5.96234571,3.5891724 5.96234571,3.82914197 6.11296288,3.97657007 C6.2616387,4.12511506 6.5059265,4.12511506 6.65541122,3.97657007 C8.76081613,1.90108865 11.5592866,0.757723038 14.5363621,0.757723038 C20.6757513,0.757723038 25.6732973,5.68172613 25.6810627,11.7366496 L23.4067595,9.49267892 C23.257113,9.34509125 23.0137958,9.34509125 22.8633404,9.49267892 C22.7146646,9.6412239 22.7146646,9.88103391 22.8633404,10.0286216 L25.8761694,13 L28.8880276,10.0286216 C29.0375123,9.88119347 29.0375123,9.6412239 28.8868952,9.49283847 Z" id="Shape"></path>
                </g>
            </g>
        </g>
    </g>
</svg>