<?xml version="1.0" encoding="UTF-8"?>
<svg width="38px" height="39px" viewBox="0 0 38 39" version="1.1" xmlns="http://www.w3.org/2000/svg" xmlns:xlink="http://www.w3.org/1999/xlink">
    <!-- Generator: Sketch 52.6 (67491) - http://www.bohemiancoding.com/sketch -->
    <title>noun_focus_511228_4c9c2e</title>
    <desc>Created with Sketch.</desc>
    <g id="Wrap-Around" stroke="none" stroke-width="1" fill="none" fill-rule="evenodd">
        <g transform="translate(-1021.000000, -2531.000000)" fill="#BBBBBB" fill-rule="nonzero" id="noun_focus_511228_4c9c2e">
            <g transform="translate(1021.000000, 2531.000000)">
                <path d="M32.0131463,14.9964286 C31.9102683,15.0985714 31.8083171,15.1877143 31.7068293,15.2698929 C32.5854634,17.2417143 33.079,19.4229286 33.079,21.7183571 C33.079,30.46875 25.973,37.5876429 17.238561,37.5876429 C8.50365854,37.5876429 1.39765854,30.46875 1.39765854,21.7183571 C1.39765854,12.9688929 8.50365854,5.85046429 17.238561,5.85046429 C19.0579268,5.85046429 20.8045366,6.16339286 22.433439,6.73121429 L22.433439,6.73075 C22.5886829,6.48375 22.769878,6.23767857 23.0178049,5.98742857 L23.4098537,5.59417857 C21.4931707,4.85735714 19.4138293,4.44971429 17.2390244,4.44971429 C7.71956098,4.45017857 0,12.1819286 0,21.7178929 C0,31.25525 7.71956098,38.987 17.238561,38.987 C26.7589512,38.987 34.4766585,31.25525 34.4766585,21.7178929 C34.4766585,19.0361786 33.8663415,16.4960714 32.7763902,14.2312857 L32.0131463,14.9964286 Z" id="Shape"></path>
                <path d="M17.238561,10.9840714 C18.8271463,10.9840714 20.3332439,11.3480714 21.6766829,11.9976071 L21.6766829,10.4636071 C20.3086829,9.89810714 18.81,9.58378571 17.238561,9.58378571 C10.805439,9.58378571 5.59063415,14.8079286 5.59063415,21.2512857 C5.59063415,27.6946429 10.805439,32.9197143 17.238561,32.9197143 C23.6702927,32.9197143 28.8860244,27.6946429 28.8860244,21.2512857 C28.8860244,19.4962857 28.4962927,17.8332143 27.8039512,16.3400714 L26.2371463,16.3400714 C27.0342195,17.80025 27.4879024,19.4735357 27.4879024,21.2512857 C27.4879024,26.91325 22.8899024,31.5194286 17.238561,31.5194286 C11.5867561,31.5194286 6.9887561,26.91325 6.9887561,21.2512857 C6.9887561,15.59025 11.5867561,10.9840714 17.238561,10.9840714 Z" id="Shape"></path>
                <path d="M37.878122,5.77153571 C37.7692195,5.55982143 37.593122,5.41171429 37.418878,5.32257143 C37.2432439,5.2325 37.0639024,5.19025 36.8803902,5.17121429 L33.5535366,4.83878571 C33.485878,4.83367857 33.3792927,4.78678571 33.295878,4.70135714 C33.2106098,4.61778571 33.1638049,4.511 33.1591707,4.44321429 L32.8259756,1.10871429 C32.8000244,0.864964286 32.7356098,0.622607143 32.566,0.396964286 C32.4816585,0.285535714 32.3662683,0.181535714 32.2267805,0.109107143 C32.0877561,0.0366785714 31.9274146,-0.000464285714 31.7763415,1.28859122e-17 C31.5821707,0.000464285714 31.4097805,0.05525 31.2647317,0.13 C31.1196829,0.206142857 30.9964146,0.303642857 30.8851951,0.414607143 L24.1703171,7.14210714 C23.8973659,7.41928571 23.7031951,7.75264286 23.5539756,8.10921429 C23.4084634,8.46717857 23.3097561,8.84092857 23.3069756,9.23046429 L23.3069756,13.0724286 C23.3079024,13.3356786 23.375561,13.5808214 23.4863171,13.8008929 L20.5969268,16.7820714 C19.6608293,16.0754286 18.5009024,15.6506071 17.238561,15.6506071 C14.1503659,15.6506071 11.6479268,18.1586786 11.6479268,21.2512857 C11.6479268,24.3438929 14.1503659,26.8519643 17.238561,26.8519643 C20.3253659,26.8519643 22.8291951,24.3438929 22.8291951,21.2512857 C22.8291951,19.9280714 22.3680976,18.7139643 21.6016098,17.7552143 L24.5943415,14.6681786 C24.705561,14.6918571 24.819561,14.7057857 24.9381951,14.70625 L28.7752683,14.70625 C29.1640732,14.7034643 29.537122,14.6050357 29.8939512,14.45925 C30.2503171,14.3092857 30.5830488,14.11475 30.8601707,13.8412857 L37.5736585,7.11564286 C37.6844146,7.00421429 37.7812683,6.88071429 37.8572683,6.73492857 C37.931878,6.58960714 37.9870244,6.41689286 37.9870244,6.22282143 C37.9884146,6.07192857 37.9513415,5.91082143 37.878122,5.77153571 Z M21.4315366,21.25175 C21.4315366,23.5680714 19.5505366,25.4521429 17.238561,25.4521429 C14.926122,25.4521429 13.045122,23.5680714 13.045122,21.25175 C13.045122,18.9358929 14.926122,17.0513571 17.238561,17.0513571 C18.120439,17.0513571 18.9388293,17.3271429 19.6149512,17.7951429 L16.7371463,20.7647143 C16.4683659,21.0418929 16.4748537,21.4852857 16.7515122,21.7545714 C17.0281707,22.0238571 17.4711951,22.0173571 17.7399756,21.7401786 L20.6159268,18.7733929 C21.1261463,19.4688929 21.4315366,20.3241071 21.4315366,21.25175 Z M24.705561,12.5445357 L24.705561,9.23092857 C24.7027805,9.10742857 24.7532927,8.86553571 24.846439,8.64546429 C24.9349512,8.42446429 25.0702683,8.21785714 25.1597073,8.13242857 L31.490878,1.78982143 L31.7693902,4.58342857 C31.7888537,4.77146429 31.8426098,4.94557143 31.9139756,5.10853571 L24.705561,12.5445357 Z M29.8721707,12.8518929 C29.7859756,12.9410357 29.5806829,13.0761429 29.3600976,13.16575 C29.140439,13.2590714 28.899,13.3096786 28.7757317,13.3068929 L25.9146098,13.3068929 L32.9070732,6.09282143 C33.065561,6.16060714 33.2328537,6.21214286 33.4149756,6.23164286 L36.2019512,6.51021429 L29.8721707,12.8518929 Z" id="Shape"></path>
            </g>
        </g>
    </g>
</svg>