<?xml version="1.0" encoding="UTF-8"?>
<svg width="27px" height="27px" viewBox="0 0 27 27" version="1.1"
    xmlns="http://www.w3.org/2000/svg"
    xmlns:xlink="http://www.w3.org/1999/xlink">
    <!-- Generator: Sketch 52.6 (67491) - http://www.bohemiancoding.com/sketch -->
    <title>Shape</title>
    <desc>Created with Sketch.</desc>
    <g id="Event-Landing" stroke="none" stroke-width="1" fill="none" fill-rule="evenodd">
        <g transform="translate(-702.000000, -429.000000)" fill="#F2C744" fill-rule="nonzero" id="Shape">
            <path d="M711.813164,442.140663 C711.813164,442.389435 711.614473,442.588452 711.366108,442.588452 L709.688267,442.588452 C709.439902,442.588452 709.24121,442.389435 709.24121,442.140663 L709.24121,440.460074 C709.24121,440.211302 709.439902,440.012285 709.688267,440.012285 L711.366108,440.012285 C711.614473,440.012285 711.813164,440.211302 711.813164,440.460074 L711.813164,442.140663 Z M715.317866,440.465602 C715.317866,440.21683 715.119174,440.017813 714.870809,440.017813 L713.192968,440.017813 C712.944603,440.017813 712.745912,440.21683 712.745912,440.465602 L712.745912,442.146192 C712.745912,442.394963 712.944603,442.59398 713.192968,442.59398 L714.870809,442.59398 C715.119174,442.59398 715.317866,442.394963 715.317866,442.146192 L715.317866,440.465602 Z M718.822567,440.465602 C718.822567,440.21683 718.623876,440.017813 718.375511,440.017813 L716.69767,440.017813 C716.449305,440.017813 716.250613,440.21683 716.250613,440.465602 L716.250613,442.146192 C716.250613,442.394963 716.449305,442.59398 716.69767,442.59398 L718.375511,442.59398 C718.623876,442.59398 718.822567,442.394963 718.822567,442.146192 L718.822567,440.465602 Z M711.813164,443.882064 C711.813164,443.633292 711.614473,443.434275 711.366108,443.434275 L709.688267,443.434275 C709.439902,443.434275 709.24121,443.633292 709.24121,443.882064 L709.24121,445.562654 C709.24121,445.811425 709.439902,446.010442 709.688267,446.010442 L711.366108,446.010442 C711.614473,446.010442 711.813164,445.811425 711.813164,445.562654 L711.813164,443.882064 Z M715.317866,443.882064 C715.317866,443.633292 715.119174,443.434275 714.870809,443.434275 L713.192968,443.434275 C712.944603,443.434275 712.745912,443.633292 712.745912,443.882064 L712.745912,445.562654 C712.745912,445.811425 712.944603,446.010442 713.192968,446.010442 L714.870809,446.010442 C715.119174,446.010442 715.317866,445.811425 715.317866,445.562654 L715.317866,443.882064 Z M718.375511,443.434275 L716.69767,443.434275 C716.449305,443.434275 716.250613,443.633292 716.250613,443.882064 L716.250613,445.562654 C716.250613,445.811425 716.449305,446.010442 716.69767,446.010442 L718.375511,446.010442 C718.623876,446.010442 718.822567,445.811425 718.822567,445.562654 L718.822567,443.882064 C718.822567,443.633292 718.623876,443.434275 718.375511,443.434275 Z M707.855887,446.850737 L706.183565,446.850737 C705.9352,446.850737 705.736509,447.049754 705.736509,447.298526 L705.736509,448.979115 C705.736509,449.227887 705.9352,449.426904 706.183565,449.426904 L707.861406,449.426904 C708.109771,449.426904 708.308463,449.227887 708.308463,448.979115 L708.308463,447.298526 C708.308463,447.049754 708.104252,446.850737 707.855887,446.850737 Z M708.308463,443.882064 C708.308463,443.633292 708.109771,443.434275 707.861406,443.434275 L706.183565,443.434275 C705.9352,443.434275 705.736509,443.633292 705.736509,443.882064 L705.736509,445.562654 C705.736509,445.811425 705.9352,446.010442 706.183565,446.010442 L707.861406,446.010442 C708.109771,446.010442 708.308463,445.811425 708.308463,445.562654 L708.308463,443.882064 Z M714.870809,446.850737 L713.192968,446.850737 C712.944603,446.850737 712.745912,447.049754 712.745912,447.298526 L712.745912,448.979115 C712.745912,449.227887 712.944603,449.426904 713.192968,449.426904 L714.870809,449.426904 C715.119174,449.426904 715.317866,449.227887 715.317866,448.979115 L715.317866,447.298526 C715.317866,447.049754 715.119174,446.850737 714.870809,446.850737 Z M711.366108,446.850737 L709.688267,446.850737 C709.439902,446.850737 709.24121,447.049754 709.24121,447.298526 L709.24121,448.979115 C709.24121,449.227887 709.439902,449.426904 709.688267,449.426904 L711.366108,449.426904 C711.614473,449.426904 711.813164,449.227887 711.813164,448.979115 L711.813164,447.298526 C711.813164,447.049754 711.614473,446.850737 711.366108,446.850737 Z M721.880213,442.59398 C722.128577,442.59398 722.327269,442.394963 722.327269,442.146192 L722.327269,440.465602 C722.327269,440.21683 722.128577,440.017813 721.880213,440.017813 L720.202371,440.017813 C719.954007,440.017813 719.755315,440.21683 719.755315,440.465602 L719.755315,442.146192 C719.755315,442.394963 719.954007,442.59398 720.202371,442.59398 L721.880213,442.59398 Z M704.632666,453.075553 L717.365495,453.075553 C717.161284,452.434275 717.04538,451.748771 717.039861,451.041155 L704.632666,451.041155 C704.301513,451.041155 704.03659,450.77027 704.03659,450.444103 L704.03659,438.431204 L723.999591,438.431204 L723.999591,444.02027 C724.706051,444.025799 725.390433,444.130835 726.030662,444.335381 L726.030662,434.224201 C726.030662,432.77027 724.84955,431.587224 723.397997,431.587224 L720.450736,431.587224 L720.450736,429.961916 C720.450736,429.431204 720.020237,429 719.490392,429 L717.994685,429 C717.464841,429 717.034342,429.431204 717.034342,429.961916 L717.034342,431.592752 L710.996321,431.592752 L710.996321,429.961916 C710.996321,429.431204 710.565822,429 710.035977,429 L708.54027,429 C708.010425,429 707.579926,429.431204 707.579926,429.961916 L707.579926,431.592752 L704.632666,431.592752 C703.181112,431.592752 702,432.775799 702,434.22973 L702,450.444103 C702,451.892506 703.181112,453.075553 704.632666,453.075553 Z M729,450.963759 C729,453.744472 726.74816,456 723.971995,456 C721.19583,456 718.94399,453.744472 718.94399,450.963759 C718.94399,448.183047 721.19583,445.927518 723.971995,445.927518 C726.74816,445.927518 729,448.183047 729,450.963759 Z M726.510834,449.659091 C726.510834,449.498771 726.450123,449.34398 726.334219,449.233415 C726.096893,448.9957 725.716067,448.9957 725.478741,449.233415 L723.293132,451.422604 L722.454211,450.58231 C722.216885,450.344595 721.836059,450.344595 721.598733,450.58231 C721.482829,450.698403 721.422118,450.847666 721.422118,451.007985 C721.422118,451.168305 721.482829,451.323096 721.598733,451.433661 L722.862633,452.699631 C723.099959,452.937346 723.480785,452.937346 723.718111,452.699631 L726.3287,450.084767 C726.450123,449.974201 726.510834,449.81941 726.510834,449.659091 Z"></path>
        </g>
    </g>
</svg>
