<?xml version="1.0" encoding="UTF-8"?>
<svg width="18px" height="35px" viewBox="0 0 18 35" version="1.1" xmlns="http://www.w3.org/2000/svg" xmlns:xlink="http://www.w3.org/1999/xlink">
    <!-- Generator: Sketch 52.6 (67491) - http://www.bohemiancoding.com/sketch -->
    <title>noun_iPhone_739246_000000 Copy</title>
    <desc>Created with Sketch.</desc>
    <g id="Leaders" stroke="none" stroke-width="1" fill="none" fill-rule="evenodd">
        <g transform="translate(-462.000000, -4650.000000)" fill="#4C9C2E" fill-rule="nonzero" id="Group-Copy-41">
            <g transform="translate(441.000000, 4638.000000)">
                <g id="noun_iPhone_739246_000000-Copy" transform="translate(21.000000, 12.000000)">
                    <path d="M15.6055237,0 L2.39419824,0 C1.0723984,0 0,0.930724976 0,2.07921824 L0,32.9210423 C0,34.069275 1.07212036,35 2.39419824,35 L15.6055237,35 C16.9278796,35 18,34.069275 18,32.9210423 L18,2.07921824 C18,0.930724976 16.9278796,0 15.6055237,0 Z M7.78371615,1.57751762 L10.2201764,1.57751762 C10.3021981,1.57751762 10.3686495,1.63977434 10.3686495,1.71661841 C10.3686495,1.79346249 10.3021981,1.8559797 10.2201764,1.8559797 L7.78371615,1.8559797 C7.7016945,1.8559797 7.63496501,1.79372297 7.63496501,1.71661841 C7.63496501,1.64003483 7.7016945,1.57751762 7.78371615,1.57751762 Z M6.22169017,1.34828785 C6.45329709,1.34828785 6.6412518,1.5241175 6.6412518,1.74136481 C6.6412518,1.95861212 6.45329709,2.13444177 6.22169017,2.13444177 C5.98980522,2.13444177 5.80185051,1.95861212 5.80185051,1.74136481 C5.80185051,1.5241175 5.98980522,1.34828785 6.22169017,1.34828785 Z M9.03906455,34.2570871 C8.23247193,34.2570871 7.57852299,33.6444185 7.57852299,32.8887417 C7.57852299,32.1333254 8.23247193,31.5203962 9.03906455,31.5203962 C9.84537914,31.5203962 10.4993281,32.1333254 10.4993281,32.8887417 C10.4993281,33.6444185 9.8451011,34.2570871 9.03906455,34.2570871 Z M17.2150945,30.3544503 C17.2150945,30.56232 17.0229692,30.730856 16.7855234,30.730856 L1.22031542,30.730856 C0.983147716,30.730856 0.791022413,30.5625805 0.791022413,30.3544503 L0.791022413,3.90628372 C0.791022413,3.698414 0.983147716,3.52987802 1.22031542,3.52987802 L16.7855234,3.52987802 C17.0229692,3.52987802 17.2150945,3.698414 17.2150945,3.90602324 L17.2150945,30.3544503 Z" id="Shape"></path>
                </g>
            </g>
        </g>
    </g>
</svg>