<?xml version="1.0" encoding="UTF-8"?>
<svg width="22px" height="23px" viewBox="0 0 22 23" version="1.1" xmlns="http://www.w3.org/2000/svg" xmlns:xlink="http://www.w3.org/1999/xlink">
    <!-- Generator: Sketch 52.6 (67491) - http://www.bohemiancoding.com/sketch -->
    <title>bar-chart</title>
    <desc>Created with Sketch.</desc>
    <g id="Wrap-Around" stroke="none" stroke-width="1" fill="none" fill-rule="evenodd">
        <g transform="translate(-1013.000000, -4519.000000)" fill-rule="nonzero" id="Group-11">
            <g transform="translate(1005.000000, 4512.000000)">
                <g id="bar-chart" transform="translate(8.500000, 7.000000)">
                    <path d="M21.0565163,21.624118 L20.0838236,21.624118 L20.0838236,7.67727305 C20.0838236,7.02811308 19.5489823,6.5 18.8916507,6.5 L16.7175164,6.5 C16.0601405,6.5 15.5253435,7.02815687 15.5253435,7.67727305 L15.5253435,21.624118 L13.0554942,21.624118 L13.0554942,13.9962802 C13.0554942,13.3471203 12.5206973,12.8190072 11.8633214,12.8190072 L9.68918704,12.8190072 C9.03181119,12.8190072 8.49701422,13.3471641 8.49701422,13.9962802 L8.49701422,21.624118 L6.02716492,21.624118 L6.02716492,17.6737148 C6.02716492,17.0245548 5.49232361,16.4964417 4.8349921,16.4964417 L2.66081337,16.4964417 C2.00343751,16.4964417 1.46864055,17.0245986 1.46864055,17.6737148 L1.46864055,21.624118 L0.443483678,21.624118 C0.198547643,21.624118 0,21.8201842 0,22.062059 C0,22.3039338 0.198547643,22.5 0.443483678,22.5 L21.0565163,22.5 C21.3014524,22.5 21.5,22.3039338 21.5,22.062059 C21.5,21.8201842 21.3014524,21.624118 21.0565163,21.624118 Z M5.14010887,21.624118 L2.35556355,21.624118 L2.35556355,17.6737148 C2.35556355,17.5075162 2.49246697,17.3723238 2.66076902,17.3723238 L4.8349034,17.3723238 C5.00320546,17.3723238 5.14010887,17.5075162 5.14010887,17.6737148 L5.14010887,21.624118 Z M12.1684825,21.624118 L9.38393723,21.624118 L9.38393723,13.9962802 C9.38393723,13.8300816 9.52084064,13.6948892 9.68914269,13.6948892 L11.8632771,13.6948892 C12.0315348,13.6948892 12.1684825,13.8300816 12.1684825,13.9962802 L12.1684825,21.624118 Z M19.1968562,21.624118 L16.4123109,21.624118 L16.4123109,7.67727305 C16.4123109,7.51107443 16.5492143,7.37588204 16.7175164,7.37588204 L18.8916507,7.37588204 C19.0599528,7.37588204 19.1968562,7.51107443 19.1968562,7.67727305 L19.1968562,21.624118 Z" id="Shape" fill="#F2C744"></path>
                    <path d="M19.998954,0.453246557 C20.0050556,0.335624852 19.9632164,0.216020516 19.8723904,0.126198737 C19.7815645,0.0363769584 19.660623,-0.00504277741 19.5416863,0.00103441588 C19.5346695,0.000732711247 19.5277399,0 19.5205924,0 L16.8838506,0 C16.6431444,0 16.4480255,0.192961662 16.4480255,0.431006616 C16.4480255,0.66905157 16.6431444,0.862013232 16.8838506,0.862013232 L18.5119624,0.862013232 L14.2035262,5.12285844 L12.5787703,3.51606577 C12.4970531,3.43525203 12.3861792,3.38982393 12.2705984,3.38982393 C12.1550175,3.38982393 12.0441436,3.43525203 11.9624264,3.51606577 L4.12764227,11.2642717 C3.95745258,11.4325798 3.95745258,11.7054932 4.12764227,11.8738444 C4.21275892,11.9579338 4.32428656,12 4.4358142,12 C4.54734184,12 4.65891307,11.9579338 4.74398612,11.8737582 L12.2705984,4.43031701 L13.8953543,6.03710967 C14.065544,6.20541775 14.3415085,6.20541775 14.5117417,6.03710967 L19.1283498,1.47158589 L19.1283498,2.92881926 C19.1283498,3.16686421 19.3234687,3.35982587 19.5641749,3.35982587 C19.8048811,3.35982587 20,3.16686421 20,2.92881926 L20,0.474107278 C20,0.46708187 19.9992591,0.460228865 19.998954,0.453246557 Z" id="Shape" fill="#F2C744"></path>
                    <circle id="Oval" fill="#FFFFFF" cx="3" cy="13.5" r="1"></circle>
                </g>
            </g>
        </g>
    </g>
</svg>