<?xml version="1.0" encoding="UTF-8"?>
<svg width="21px" height="19px" viewBox="0 0 21 19" version="1.1" xmlns="http://www.w3.org/2000/svg" xmlns:xlink="http://www.w3.org/1999/xlink">
    <!-- Generator: Sketch 52.6 (67491) - http://www.bohemiancoding.com/sketch -->
    <title>noun_Check_702760_4c9c2e</title>
    <desc>Created with Sketch.</desc>
    <g id="Careers" stroke="none" stroke-width="1" fill="none" fill-rule="evenodd">
        <g transform="translate(-425.000000, -1420.000000)" fill="#4C9C2E" fill-rule="nonzero" id="noun_Check_702760_4c9c2e">
            <g transform="translate(425.000000, 1420.000000)">
                <path d="M9.3006208,0.2400745 C8.62284961,0.2571745 7.9418387,0.347472 7.2722117,0.514672 C2.29496543,1.7576045 -0.733057906,6.8052775 0.515819659,11.7588198 C1.76468011,16.7123573 6.82905634,19.7259473 11.8063026,18.4830385 C16.7835484,17.2401298 19.8115742,12.1998573 18.5626947,7.246315 C18.5244756,6.975788 18.3342147,6.75082136 18.0729019,6.66717859 C17.8115892,6.58353581 17.5252299,6.65594258 17.3357211,6.85357688 C17.1462123,7.05121117 17.0869179,7.3392786 17.1830782,7.595155 C18.2436068,11.8017123 15.682516,16.0470723 11.4558055,17.1025698 C7.22911255,18.1580673 2.95598386,15.616556 1.89543614,11.4099798 C0.834905591,7.2034225 3.39599877,2.95062875 7.62270886,1.8951645 C9.88995286,1.3289645 12.2892119,1.79334825 14.1777515,3.16428375 C14.3804324,3.34685933 14.6698866,3.39863612 14.9237627,3.29772824 C15.1776388,3.19682036 15.351622,2.96084161 15.3721701,2.6895394 C15.3927183,2.41823719 15.2562446,2.15896817 15.0204361,2.0213245 C13.3471514,0.806607 11.3339172,0.1884895 9.3006208,0.2400745 Z M20.0094276,0.70023075 C19.823978,0.71142284 19.6501615,0.793920941 19.5246975,0.930297 C16.9860147,3.57378125 12.8804598,8.07253 10.2104219,10.8756048 L6.6756208,7.77328 C6.48379354,7.60357881 6.21557015,7.54861975 5.9719878,7.62910537 C5.72840545,7.70959099 5.5464701,7.91329361 5.49471504,8.16348041 C5.44295998,8.4136672 5.52924804,8.67232885 5.72107534,8.84203 L9.77789352,12.4045348 C10.0648815,12.6592345 10.5027694,12.6428457 10.7697259,12.3674135 C13.4369049,9.59020725 17.9179422,4.6620775 20.5538168,1.91741825 C20.7648682,1.70892384 20.8244572,1.39229767 20.7035297,1.12191852 C20.5826021,0.85153937 20.3063344,0.68369848 20.0094276,0.70023075 Z" id="Shape"></path>
            </g>
        </g>
    </g>
</svg>