<?xml version="1.0" encoding="UTF-8"?>
<svg width="29px" height="38px" viewBox="0 0 29 38" version="1.1"
    xmlns="http://www.w3.org/2000/svg"
    xmlns:xlink="http://www.w3.org/1999/xlink">
    <!-- Generator: Sketch 52.6 (67491) - http://www.bohemiancoding.com/sketch -->
    <title>noun_Results_1688637_4c9c2e</title>
    <desc>Created with Sketch.</desc>
    <g id="Wrap-Around" stroke="none" stroke-width="1" fill="none" fill-rule="evenodd">
        <g transform="translate(-1022.000000, -2975.000000)" fill="#B9B9B9" fill-rule="nonzero" id="noun_Results_1688637_4c9c2e">
            <g transform="translate(1022.000000, 2975.000000)">
                <path d="M27.1446073,1.87317647 L16.9551309,1.87317647 C16.7624456,0.805709108 15.8171185,0.0278214229 14.7125654,0.0278214229 C13.6080124,0.0278214229 12.6626853,0.805709108 12.47,1.87317647 L1.84172775,1.87317647 C0.824281275,1.87809037 0.00165701525,2.6881371 0,3.6867451 L0,36.0538039 C0.000838060551,37.0548282 0.827881357,37.8658827 1.84780105,37.8658824 L27.1446073,37.8658824 C27.6357257,37.8678629 28.1074431,37.6778703 28.4555727,37.3378678 C28.8037023,36.9978653 28.9996006,36.5358277 29,36.0538039 L29,3.6867451 C28.9991957,3.20470741 28.8032166,2.74274842 28.455219,2.40259532 C28.1072214,2.06244222 27.635743,1.87198951 27.1446073,1.87317647 Z M13.1319895,2.56760784 L13.1319895,2.23529412 C13.1584636,1.3968442 13.8586382,0.730607599 14.7133246,0.730607599 C15.568011,0.730607599 16.2681856,1.3968442 16.2946597,2.23529412 L16.2946597,2.57356863 L19.0580105,2.57356863 L19.0580105,6.44807843 C19.0580105,7.02418723 18.5821665,7.49121569 17.9951832,7.49121569 L11.7563874,7.49121569 C11.1694042,7.49121569 10.6935602,7.02418723 10.6935602,6.44807843 L10.6935602,2.57356863 L13.1319895,2.56760784 Z M28.3015707,36.0627451 C28.3007329,36.6892986 27.7829881,37.1967849 27.1446073,37.1967843 L1.84780105,37.1967843 C1.20942031,37.1967849 0.691675466,36.6892986 0.690837696,36.0627451 L0.690837696,3.6867451 C0.691674143,3.05994988 1.20917462,2.55203664 1.84780105,2.55121569 L10.0087958,2.55121569 L10.0087958,6.44658824 C10.0104673,7.39319532 10.7919125,8.16016335 11.7563874,8.16180392 L18.0012565,8.16180392 C18.9657315,8.16016335 19.7471766,7.39319532 19.7488482,6.44658824 L19.7488482,2.55121569 L27.1446073,2.55121569 C27.7838266,2.55121515 28.3022512,3.05936854 28.303089,3.6867451 L28.3015707,36.0627451 Z" id="Shape"></path>
                <path d="M15.0145628,13.2433725 L24.6547042,13.2433725 C24.7300911,13.2433725 24.7912042,13.3044857 24.7912042,13.3798725 L24.7912042,15.1618529 C24.7912042,15.2372398 24.7300911,15.2983529 24.6547042,15.2983529 L15.0145628,15.2983529 C14.939176,15.2983529 14.8780628,15.2372398 14.8780628,15.1618529 L14.8780628,13.3798725 C14.8780628,13.3044857 14.939176,13.2433725 15.0145628,13.2433725 Z" id="Rectangle-path"></path>
                <path d="M15.0145628,21.7404706 L24.6547042,21.7404706 C24.7300911,21.7404706 24.7912042,21.8015837 24.7912042,21.8769706 L24.7912042,23.658951 C24.7912042,23.7343378 24.7300911,23.795451 24.6547042,23.795451 L15.0145628,23.795451 C14.939176,23.795451 14.8780628,23.7343378 14.8780628,23.658951 L14.8780628,21.8769706 C14.8780628,21.8015837 14.939176,21.7404706 15.0145628,21.7404706 Z" id="Rectangle-path"></path>
                <path d="M15.0145628,30.3329412 L24.6547042,30.3329412 C24.7300911,30.3329412 24.7912042,30.3940543 24.7912042,30.4694412 L24.7912042,32.2514216 C24.7912042,32.3268084 24.7300911,32.3879216 24.6547042,32.3879216 L15.0145628,32.3879216 C14.939176,32.3879216 14.8780628,32.3268084 14.8780628,32.2514216 L14.8780628,30.4694412 C14.8780628,30.3940543 14.939176,30.3329412 15.0145628,30.3329412 Z" id="Rectangle-path"></path>
                <path d="M11.9142932,10.2003922 C11.8888313,10.1745318 11.8537612,10.1599282 11.8171204,10.1599282 C11.7804796,10.1599282 11.7454095,10.1745318 11.7199476,10.2003922 L6.28890052,15.5308235 L4.3621466,13.6397647 C4.3366847,13.6139044 4.30161463,13.5993008 4.26497382,13.5993008 C4.22833302,13.5993008 4.19326294,13.6139044 4.16780105,13.6397647 L2.88481675,14.9019608 C2.83155712,14.9547986 2.83155712,15.0398681 2.88481675,15.0927059 L4.90874346,17.0791373 L6.1947644,18.3413333 C6.24859955,18.3936063 6.33527479,18.3936063 6.38910995,18.3413333 L7.67513089,17.0791373 L13.2003141,11.6533333 C13.2537531,11.5999874 13.2537531,11.5144439 13.2003141,11.461098 L11.9142932,10.2003922 Z" id="Shape"></path>
                <path d="M11.9142932,18.4203137 C11.8888313,18.3944534 11.8537612,18.3798498 11.8171204,18.3798498 C11.7804796,18.3798498 11.7454095,18.3944534 11.7199476,18.4203137 L6.28890052,23.7507451 L4.3621466,21.8596863 C4.30831144,21.8074133 4.2216362,21.8074133 4.16780105,21.8596863 L2.88481675,23.1218824 C2.83155712,23.1747202 2.83155712,23.2597896 2.88481675,23.3126275 L4.90874346,25.2990588 L6.1947644,26.5612549 C6.22022629,26.5871152 6.25529637,26.6017188 6.29193717,26.6017188 C6.32857798,26.6017188 6.36364805,26.5871152 6.38910995,26.5612549 L7.67513089,25.2990588 L13.2033508,19.8732549 C13.2566104,19.8204171 13.2566104,19.7353476 13.2033508,19.6825098 L11.9142932,18.4203137 Z" id="Shape"></path>
                <path d="M11.9142932,26.6402353 C11.860458,26.5879623 11.7737828,26.5879623 11.7199476,26.6402353 L6.28890052,31.9706667 L4.3621466,30.0796078 C4.30831144,30.0273349 4.2216362,30.0273349 4.16780105,30.0796078 L2.88481675,31.3418039 C2.83137775,31.3951498 2.83137775,31.4806933 2.88481675,31.5340392 L4.90874346,33.5204706 L6.19324607,34.7826667 C6.24759891,34.8351157 6.33475711,34.8351157 6.38910995,34.7826667 L7.67513089,33.5204706 L13.2033508,28.0946667 C13.2567898,28.0413208 13.2567898,27.9557773 13.2033508,27.9024314 L11.9142932,26.6402353 Z" id="Shape"></path>
            </g>
        </g>
    </g>
</svg>
