<?xml version="1.0" encoding="UTF-8"?>
<svg width="90px" height="111px" viewBox="0 0 90 111" version="1.1" xmlns="http://www.w3.org/2000/svg" xmlns:xlink="http://www.w3.org/1999/xlink">
    <!-- Generator: Sketch 52.6 (67491) - http://www.bohemiancoding.com/sketch -->
    <title>noun_directory_2008990</title>
    <desc>Created with Sketch.</desc>
    <g id="Independent-Practice-Association" stroke="none" stroke-width="1" fill="none" fill-rule="evenodd">
        <g transform="translate(-643.000000, -2757.000000)" fill="#000000" fill-rule="nonzero" id="noun_directory_2008990">
            <g transform="translate(644.000000, 2758.000000)">
                <g id="Group" transform="translate(0.640000, 0.000000)">
                    <g id="Shape">
                        <path d="M84.55024,0.581066176 L2.16976,0.581066176 C0.98848,0.581066176 0.028,1.54331176 0.028,2.72676324 L0.028,106.275449 C0.028,107.4589 0.98848,108.421146 2.16976,108.421146 L84.55024,108.421146 C85.73152,108.421146 86.692,107.4589 86.692,106.275449 L86.692,2.72676324 C86.692,1.54331176 85.73152,0.581066176 84.55024,0.581066176 Z M1.132,106.273237 L1.132,2.72676324 C1.132,2.15384 1.597888,1.68709559 2.16976,1.68709559 L11.337376,1.68709559 L11.337376,107.312904 L2.16976,107.312904 C1.597888,107.312904 1.132,106.84616 1.132,106.273237 Z M85.588,106.273237 C85.588,106.84616 85.122112,107.312904 84.55024,107.312904 L12.443584,107.312904 L12.443584,1.68709559 L84.552448,1.68709559 C85.12432,1.68709559 85.590208,2.15384 85.590208,2.72676324 L85.590208,106.273237 L85.588,106.273237 Z" stroke-opacity="0.28" stroke="#000000" stroke-width="1.6"></path>
                        <path d="M73.784032,38.2789726 L23.236288,38.2789726 C22.055008,38.2789726 21.094528,39.2412182 21.094528,40.4246697 L21.094528,68.5775424 C21.094528,69.7609938 22.055008,70.7232394 23.236288,70.7232394 L73.784032,70.7232394 C74.965312,70.7232394 75.925792,69.7609938 75.925792,68.5775424 L75.925792,40.4246697 C75.925792,39.2412182 74.965312,38.2789726 73.784032,38.2789726 Z M74.821792,68.5753303 C74.821792,69.1482535 74.355904,69.6149979 73.784032,69.6149979 L23.236288,69.6149979 C22.664416,69.6149979 22.198528,69.1482535 22.198528,68.5753303 L22.198528,40.4246697 C22.198528,39.8517465 22.664416,39.3850021 23.236288,39.3850021 L73.784032,39.3850021 C74.355904,39.3850021 74.821792,39.8517465 74.821792,40.4246697 L74.821792,68.5753303 Z" stroke-opacity="0.28" stroke="#000000" stroke-width="1.6"></path>
                        <path d="M71.326528,47.3108088 L25.693792,47.3108088 C25.389088,47.3108088 25.141792,47.5585594 25.141792,47.8638235 C25.141792,48.1690876 25.389088,48.4168382 25.693792,48.4168382 L71.326528,48.4168382 C71.631232,48.4168382 71.878528,48.1690876 71.878528,47.8638235 C71.878528,47.5585594 71.631232,47.3108088 71.326528,47.3108088 Z"></path>
                        <path d="M63.322528,55.0530147 C63.627232,55.0530147 63.874528,54.8052641 63.874528,54.5 C63.874528,54.1947359 63.627232,53.9469853 63.322528,53.9469853 L33.697792,53.9469853 C33.393088,53.9469853 33.145792,54.1947359 33.145792,54.5 C33.145792,54.8052641 33.393088,55.0530147 33.697792,55.0530147 L63.322528,55.0530147 Z"></path>
                        <path d="M68.842528,60.5831618 L28.177792,60.5831618 C27.873088,60.5831618 27.625792,60.8309124 27.625792,61.1361765 C27.625792,61.4414406 27.873088,61.6891912 28.177792,61.6891912 L68.842528,61.6891912 C69.147232,61.6891912 69.394528,61.4414406 69.394528,61.1361765 C69.394528,60.8309124 69.147232,60.5831618 68.842528,60.5831618 Z"></path>
                    </g>
                </g>
            </g>
        </g>
    </g>
</svg>