<?xml version="1.0" encoding="UTF-8"?>
<svg width="23px" height="44px" viewBox="0 0 23 44" version="1.1"
    xmlns="http://www.w3.org/2000/svg"
    xmlns:xlink="http://www.w3.org/1999/xlink">
    <!-- Generator: Sketch 52.6 (67491) - http://www.bohemiancoding.com/sketch -->
    <title>noun_Money_427261_000000</title>
    <desc>Created with Sketch.</desc>
    <g id="About" stroke="none" stroke-width="1" fill="none" fill-rule="evenodd">
        <g transform="translate(-1034.000000, -985.000000)" fill="#4C9C2E" fill-rule="nonzero" id="noun_Money_427261_000000">
            <g transform="translate(1034.000000, 985.000000)">
                <path d="M10.2556006,39.3374486 L10.2556006,43.0493827 C10.2556006,43.5925926 10.699566,44 11.187928,44 L12.919393,44 C13.4521515,44 13.8517204,43.5473251 13.8517204,43.0493827 L13.8517204,39.382716 C16.6487023,39.1111111 18.8685293,38.1152263 20.5112013,36.4855967 C22.1538733,34.8559671 22.9974075,32.6831276 22.9974075,30.0123457 C22.9974075,27.2057613 22.1538733,25.0329218 20.5112013,23.4938272 C18.8685293,21.9547325 16.29353,20.4609053 12.7862034,18.9218107 C11.2767211,18.2427984 10.2556006,17.563786 9.67844563,16.9300412 C9.14568716,16.2510288 8.83491138,15.3909465 8.83491138,14.3497942 C8.83491138,13.308642 9.10129062,12.4485597 9.58965255,11.7695473 C10.122411,11.090535 10.8771522,10.7736626 11.9870657,10.7736626 C13.0525826,10.7736626 13.8961169,11.18107 14.5176684,11.9958848 C15.0060304,12.6748971 15.3168062,13.5802469 15.4499958,14.8024691 C15.4943923,15.345679 15.9827543,15.7530864 16.5155127,15.7530864 L21.9318906,15.6625514 C22.5090456,15.6625514 23.0418041,15.1646091 22.9974075,14.5308642 C22.8642179,12.1316872 22.1094767,10.0946502 20.6887875,8.41975309 C19.090512,6.51851852 16.9594781,5.38683128 14.2068927,4.97942387 L14.2068927,0.950617284 C14.2068927,0.407407407 13.7629273,0 13.2745653,0 L11.5431003,0 C11.0103418,0 10.610773,0.452674897 10.610773,0.950617284 L10.610773,4.8436214 C7.72499789,5.11522634 5.46077437,6.11111111 3.72930933,7.78600823 C1.99784428,9.46090535 1.15431003,11.6337449 1.15431003,14.2139918 C1.15431003,17.1111111 1.95344774,19.2839506 3.59611971,20.7777778 C5.23879167,22.2716049 7.81379097,23.7201646 11.3655141,25.1687243 C12.8305999,25.8024691 13.8517204,26.4814815 14.4288754,27.1604938 C15.0060304,27.8395062 15.2724096,28.7901235 15.2724096,30.0123457 C15.2724096,31.0534979 15.0060304,31.9135802 14.4288754,32.5473251 C13.8517204,33.18107 13.0525826,33.4979424 11.9426692,33.4979424 C10.6551695,33.4979424 9.58965255,33.090535 8.7461183,32.2304527 C8.08017021,31.5514403 7.68060135,30.5102881 7.54741173,29.0617284 C7.50301519,28.5185185 7.01465326,28.1111111 6.48189478,28.1111111 L1.06551695,28.2016461 C0.488361936,28.2016461 0,28.6995885 0,29.3333333 C0.133189619,32.2757202 1.06551695,34.5390947 2.79698199,36.1234568 C4.9280159,37.9794239 7.32542903,39.0205761 10.2556006,39.3374486 Z" id="Shape"></path>
            </g>
        </g>
    </g>
</svg>
