<?xml version="1.0" encoding="UTF-8"?>
<svg width="19px" height="35px" viewBox="0 0 19 35" version="1.1"
    xmlns="http://www.w3.org/2000/svg"
    xmlns:xlink="http://www.w3.org/1999/xlink">
    <!-- Generator: Sketch 52.6 (67491) - http://www.bohemiancoding.com/sketch -->
    <title>noun_Facebook_2060938</title>
    <desc>Created with Sketch.</desc>
    <g id="Symbols" stroke="none" stroke-width="1" fill="none" fill-rule="evenodd">
        <g id="Footer" transform="translate(-815.000000, -399.000000)" fill="#FFFFFF" fill-rule="nonzero">
            <g id="Group-8">
                <g id="Group-9" transform="translate(345.000000, 110.000000)">
                    <g id="noun_Facebook_2060938" transform="translate(470.000000, 289.000000)">
                        <path d="M18.2845158,0.0071102708 L13.7272797,0 C8.60738132,0 5.29867806,3.30094322 5.29867806,8.4100283 L5.29867806,12.2876145 L0.716581039,12.2876145 C0.320633455,12.2876145 0,12.5997554 0,12.9847765 L0,18.602957 C0,18.9879782 0.320999057,19.2997635 0.716581039,19.2997635 L5.29867806,19.2997635 L5.29867806,33.4762215 C5.29867806,33.8612426 5.61931151,34.173028 6.0152591,34.173028 L11.9935923,34.173028 C12.3895399,34.173028 12.7101734,33.8608871 12.7101734,33.4762215 L12.7101734,19.2997635 L18.0677134,19.2997635 C18.463661,19.2997635 18.7842945,18.9879782 18.7842945,18.602957 L18.7864881,12.9847765 C18.7864881,12.7999095 18.7108084,12.6228637 18.5766322,12.4920348 C18.4424561,12.3612058 18.2596548,12.2876145 18.0695415,12.2876145 L12.7101734,12.2876145 L12.7101734,9.00053629 C12.7101734,7.42063412 13.0973465,6.61859557 15.2138198,6.61859557 L18.2837846,6.61752903 C18.6793665,6.61752903 19,6.30538814 19,5.92072249 L19,0.703916809 C19,0.319606672 18.6797321,0.00782129788 18.2845158,0.0071102708 Z" id="Shape"></path>
                    </g>
                </g>
            </g>
        </g>
    </g>
</svg>
