<?xml version="1.0" encoding="UTF-8"?>
<svg width="39px" height="40px" viewBox="0 0 39 40" version="1.1" xmlns="http://www.w3.org/2000/svg" xmlns:xlink="http://www.w3.org/1999/xlink">
    <!-- Generator: Sketch 52.6 (67491) - http://www.bohemiancoding.com/sketch -->
    <title>Group 7</title>
    <desc>Created with Sketch.</desc>
    <g id="About" stroke="none" stroke-width="1" fill="none" fill-rule="evenodd">
        <g transform="translate(-1428.000000, -988.000000)" fill="#4C9C2E" fill-rule="nonzero" id="Group-8">
            <g transform="translate(1411.000000, 975.000000)">
                <g id="Group-7" transform="translate(17.000000, 13.000000)">
                    <circle id="Oval" cx="35" cy="21" r="3"></circle>
                    <path d="M35.8163265,25.0126582 C35.8163265,25.0126582 32.2183776,25.0126582 31.6377551,25.0126582 L29.4625102,22.7985823 L26.9446224,11.097519 C26.520398,9.32658228 24.9476633,8 23.0816327,8 L18.3061224,8 C16.3294592,8 14.6819082,9.48860759 14.3806531,11.4179241 L13.4231633,16.0781772 L12.6379898,12.7959494 C12.2420204,10.9853165 10.6485918,9.62025316 8.75510204,9.62025316 L3.97959184,9.62025316 C1.79081633,9.62025316 0,11.443038 0,13.6708861 L0,22.1772152 C0,23.8294684 0.986142857,25.2569114 2.3877551,25.8851646 L2.3877551,36.7594937 C2.3877551,38.5417722 3.82040816,40 5.57142857,40 L7.16326531,40 C8.91428571,40 10.3469388,38.5417722 10.3469388,36.7594937 L10.3469388,19.1392405 L11.495449,24.2535696 C11.7226837,25.2662278 12.5524286,25.8450633 13.5310102,25.8450633 C14.5259082,25.8450633 15.317449,25.2613671 15.522398,24.2438481 L16.7142857,18.3291139 L16.7142857,36.7594937 C16.7142857,38.5417722 18.1469388,40 19.8979592,40 L21.4897959,40 C23.2408163,40 24.6734694,38.5417722 24.6734694,36.7594937 L24.6734694,17.9240506 L25.8096429,23.2749367 C25.9895204,24.147038 26.6457551,24.7923038 26.8666224,25.017519 L31.0408163,29.2658228 L31.0408163,37.164557 C31.0408163,38.7240506 32.2943878,40 33.8265306,40 L34.622449,40 C36.1545918,40 37.4081633,38.7240506 37.4081633,37.164557 L37.4081633,33.8884051 C38.3572959,33.3257722 39,32.2811139 39,31.0886076 L39,28.2531646 C39,26.4708861 37.5673469,25.0126582 35.8163265,25.0126582 Z" id="Shape"></path>
                    <circle id="Oval" cx="6.5" cy="5.5" r="3.5"></circle>
                    <circle id="Oval" cx="20.5" cy="3.5" r="3.5"></circle>
                </g>
            </g>
        </g>
    </g>
</svg>