<?xml version="1.0" encoding="UTF-8"?>
<svg width="102px" height="115px" viewBox="0 0 102 115" version="1.1" xmlns="http://www.w3.org/2000/svg" xmlns:xlink="http://www.w3.org/1999/xlink">
    <!-- Generator: Sketch 52.6 (67491) - http://www.bohemiancoding.com/sketch -->
    <title>noun_documents_2034866_000000</title>
    <desc>Created with Sketch.</desc>
    <g id="Programs-details" stroke="none" stroke-width="1" fill="none" fill-rule="evenodd">
        <g id="Program-details" transform="translate(-1298.000000, -4166.000000)" fill="#000000" fill-rule="nonzero">
            <g id="noun_documents_2034866_000000" transform="translate(1298.000000, 4166.000000)">
                <path d="M101.401045,20.6723207 C100.678043,19.4140055 99.5935402,18.3354496 98.147536,17.975931 L79.3494812,11.6843552 L79.3494812,5.57253861 C79.3494812,2.51663034 76.8189738,0 73.7462149,0 L5.60326633,0 C2.53050737,7.982917e-16 0,2.51663034 0,5.57253861 L0,96.3509902 C0,99.4068985 2.53050737,101.923529 5.60326633,101.923529 L27.112579,101.923529 L65.9739422,114.68644 C67.4199464,115.225718 68.8659506,115.045958 70.3119549,114.326921 C71.5772085,113.607884 72.6617117,112.529328 73.0232128,111.091254 L76.2767222,101.204492 C78.0842275,100.305695 79.3494812,98.508102 79.3494812,96.3509902 L79.3494812,92.2165261 L101.762546,24.9865441 C102.124048,23.5484696 102.124048,22.1103951 101.401045,20.6723207 Z M3.61501053,96.3509902 L3.61501053,5.57253861 C3.61501053,4.49398275 4.51876317,3.5951862 5.60326633,3.5951862 L73.7462149,3.5951862 C74.830718,3.5951862 75.7344707,4.49398275 75.7344707,5.57253861 C75.7344707,129.246944 75.7344707,78.9143372 75.7344707,96.3509902 C75.7344707,97.4295461 74.830718,98.3283427 73.7462149,98.3283427 L5.60326633,98.3283427 C4.51876317,98.3283427 3.61501053,97.4295461 3.61501053,96.3509902 Z M69.5889528,110.012698 C69.4082022,110.551976 69.0467012,110.911494 68.6852001,111.091254 C68.1429485,111.271013 67.600697,111.450772 67.2391959,111.271013 L38.6806127,101.923529 L72.3002107,101.923529 L69.5889528,110.012698 Z M98.3282865,23.9079882 L79.3494812,80.8916896 L79.3494812,15.63906 L97.0630328,21.3913579 C97.9667854,21.7508765 98.509037,22.8294324 98.3282865,23.9079882 Z" id="Shape"></path>
                <path d="M66.2108626,49 L13.7891374,49 C12.715655,49 12,49.8 12,51 C12,52.2 12.715655,53 13.7891374,53 L66.2108626,53 C67.284345,53 68,52.2 68,51 C68,49.8 67.1054313,49 66.2108626,49 Z" id="Shape"></path>
                <path d="M66.2108626,24 L13.7891374,24 C12.715655,24 12,24.8 12,26 C12,27.2 12.715655,28 13.7891374,28 L66.2108626,28 C67.284345,28 68,27.2 68,26 C68,24.8 67.1054313,24 66.2108626,24 Z" id="Shape"></path>
                <path d="M66.2108626,62 L13.7891374,62 C12.715655,62 12,62.8 12,64 C12,65.2 12.715655,66 13.7891374,66 L66.2108626,66 C67.284345,66 68,65.2 68,64 C68,62.8 67.1054313,62 66.2108626,62 Z" id="Shape"></path>
                <path d="M66.2108626,74 L13.7891374,74 C12.715655,74 12,74.8 12,76 C12,77.2 12.715655,78 13.7891374,78 L66.2108626,78 C67.284345,78 68,77.2 68,76 C68,74.8 67.1054313,74 66.2108626,74 Z" id="Shape"></path>
                <path d="M66.2108626,36 L13.7891374,36 C12.715655,36 12,36.8 12,38 C12,39.2 12.715655,40 13.7891374,40 L66.2108626,40 C67.284345,40 68,39.2 68,38 C68,36.8 67.1054313,36 66.2108626,36 Z" id="Shape"></path>
                <path d="M66.2108626,87 L13.7891374,87 C12.715655,87 12,87.8 12,89 C12,90.2 12.715655,91 13.7891374,91 L66.2108626,91 C67.284345,91 68,90.2 68,89 C68,87.8 67.1054313,87 66.2108626,87 Z" id="Shape"></path>
                <path d="M13.8018018,15 L50.1981982,15 C51.2792793,15 52,14.2 52,13 C52,11.8 51.2792793,11 50.1981982,11 L13.8018018,11 C12.7207207,11 12,11.8 12,13 C12,14.2 12.7207207,15 13.8018018,15 Z" id="Shape"></path>
            </g>
        </g>
    </g>
</svg>