<?xml version="1.0" encoding="UTF-8"?>
<svg width="110px" height="110px" viewBox="0 0 110 110" version="1.1" xmlns="http://www.w3.org/2000/svg" xmlns:xlink="http://www.w3.org/1999/xlink">
    <!-- Generator: Sketch 52.6 (67491) - http://www.bohemiancoding.com/sketch -->
    <title>Shape</title>
    <desc>Created with Sketch.</desc>
    <g id="Programs-details" stroke="none" stroke-width="1" fill="none" fill-rule="evenodd">
        <g id="Program-details" transform="translate(-631.000000, -4165.000000)" fill="#000000">
            <g id="noun_website_1276202_ffffff" transform="translate(631.000000, 4165.000000)">
                <path d="M54.99375,0 C24.648875,0 0,24.648961 0,54.9937813 C0,85.350389 24.648875,110 54.99375,110 C85.338375,110 110,85.351139 110,54.9937813 C110,24.648236 85.338375,0 54.99375,0 Z M57.49325,5.85038418 C59.12975,6.34750889 60.759375,7.34424583 62.397625,8.88359495 C64.867625,11.2044436 67.251,14.7458791 69.271375,19.2355391 C69.957625,20.7604382 70.600875,22.3954248 71.198,24.1242113 L57.49325,24.1242113 L57.49325,5.85038418 Z M52.49375,5.85117168 L52.49375,24.1242113 L38.792875,24.1242113 C39.390375,22.3955373 40.03375,20.7603757 40.72025,19.2355391 C42.741375,14.7457791 45.125625,11.2045936 47.59525,8.88359495 C49.23225,7.34510833 50.859875,6.34850889 52.49375,5.85117168 Z M42.967875,6.45155883 C40.35175,9.26344474 38.088625,12.9027802 36.161625,17.1831902 C35.19125,19.3388515 34.306625,21.6600002 33.516375,24.1242113 L15.644875,24.1242113 C22.419,15.4964287 31.973625,9.1591198 42.967875,6.45155883 Z M67.02575,6.45273383 C78.019,9.16111979 87.57425,15.4978037 94.35,24.1242113 L76.4745,24.1242113 C75.68475,21.6601252 74.8005,19.339189 73.830375,17.1835902 C71.904375,12.9037177 69.641875,9.26458224 67.02575,6.45273383 Z M12.188625,29.1238085 L32.094875,29.1238085 C30.334625,36.138467 29.28225,44.063075 29.108125,52.4941577 L5.060875,52.4941577 C5.4795,43.9637375 8.028625,36.0002045 12.188625,29.1238085 Z M37.27025,29.1238085 L52.49375,29.1238085 L52.49375,52.4941577 L34.108875,52.4941577 C34.29675,43.9566125 35.440125,35.9826171 37.27025,29.1238085 Z M57.49325,29.1238085 L72.719875,29.1238085 C74.54875,35.9825296 75.6905,43.9565625 75.878,52.4941577 L57.49325,52.4941577 L57.49325,29.1238085 Z M77.89525,29.1238085 L97.807375,29.1238085 C101.96925,36.000317 104.520125,43.96375 104.939,52.4941577 L80.878875,52.4941577 C80.704875,44.063125 79.65425,36.1385295 77.89525,29.1238085 Z M5.060875,57.4932798 L29.108125,57.4932798 C29.279625,65.7996501 30.30225,73.6145207 32.014375,80.5515167 L11.996375,80.5515167 C7.950125,73.7467706 5.47275,65.8955251 5.060875,57.4932798 Z M34.108875,57.4932798 L52.49375,57.4932798 L52.49375,80.5515167 L37.185125,80.5515167 C35.4045,73.7633956 34.29375,65.9020251 34.108875,57.4932798 Z M57.49325,57.4932798 L75.878,57.4932798 C75.6935,65.9020251 74.584375,73.7635206 72.805,80.5515167 L57.49325,80.5515167 L57.49325,57.4932798 Z M80.878875,57.4932798 L104.939,57.4932798 C104.526875,65.8956501 102.04775,73.7470206 97.9995,80.5518917 C97.994875,80.5517667 97.990125,80.5516417 97.9855,80.5515167 L77.97575,80.5515167 C79.68675,73.6145207 80.707625,65.7996501 80.878875,57.4932798 Z M15.3945,85.5511389 L33.4155,85.5511389 C34.231375,88.1350124 35.149375,90.565761 36.161625,92.8148848 C38.08875,97.0963823 40.352125,100.736505 42.96875,103.548754 C31.837625,100.807755 22.182875,94.3452589 15.3945,85.5511389 Z M38.682,85.5511389 L52.49375,85.5511389 L52.49375,104.148753 C50.859875,103.651504 49.23225,102.655004 47.59525,101.11638 C45.125625,98.7952564 42.741875,95.2533834 40.720625,90.7628859 C39.991625,89.1431369 39.31025,87.4000128 38.682,85.5511389 Z M57.49325,85.5511389 L71.308875,85.5511389 C70.681,87.4001378 70.00025,89.1435119 69.271375,90.7632609 C67.251,95.2536334 64.867625,98.7953814 62.397625,101.11638 C60.759375,102.655879 59.12975,103.652504 57.49325,104.149628 L57.49325,85.5511389 Z M76.575,85.5511389 L94.6,85.5511389 C87.810125,94.3436339 78.155,100.805255 67.025375,103.547254 C69.64175,100.73513 71.90475,97.0952573 73.83075,92.8143848 C74.842625,90.565511 75.759625,88.1348874 76.575,85.5511389 Z" id="Shape"></path>
            </g>
        </g>
    </g>
</svg>