<?xml version="1.0" encoding="UTF-8"?>
<svg width="42px" height="48px" viewBox="0 0 42 48" version="1.1"
    xmlns="http://www.w3.org/2000/svg"
    xmlns:xlink="http://www.w3.org/1999/xlink">
    <!-- Generator: Sketch 52.6 (67491) - http://www.bohemiancoding.com/sketch -->
    <title>noun_Money_2149809_4c9c2e</title>
    <desc>Created with Sketch.</desc>
    <g id="Wrap-Around" stroke="none" stroke-width="1" fill="none" fill-rule="evenodd">
        <g transform="translate(-1019.000000, -2783.000000)" fill="#B9B9B9" fill-rule="nonzero" id="noun_Money_2149809_4c9c2e">
            <g transform="translate(1019.000000, 2783.000000)">
                <path d="M21.5530326,26.1811475 C21.465101,26.1618852 21.3744403,26.1587531 21.2854047,26.1719016 C20.3908366,26.0673058 19.7156326,25.3049696 19.7143116,24.3980656 C19.7143116,23.9634809 19.364469,23.6111803 18.9329163,23.6111803 C18.5013635,23.6111803 18.1515209,23.9634809 18.1515209,24.3980656 C18.1534388,25.9122506 19.1592649,27.2387163 20.6093023,27.6393443 L20.6093023,28.4262295 C20.6093023,28.8608142 20.9591449,29.2131148 21.3906977,29.2131148 C21.8222504,29.2131148 22.172093,28.8608142 22.172093,28.4262295 L22.172093,27.6870492 C23.8453798,27.3340082 24.9830248,25.7645277 24.8069349,24.052055 C24.630845,22.3395823 23.19799,21.038148 21.4883721,21.0378689 C20.5085856,21.0378689 19.7143116,20.2380145 19.7143116,19.2513443 C19.7143116,18.264674 20.5085856,17.4648197 21.4883721,17.4648197 C22.4681586,17.4648197 23.2624326,18.264674 23.2624326,19.2513443 C23.2624326,19.685929 23.6122752,20.0382295 24.0438279,20.0382295 C24.4753806,20.0382295 24.8252233,19.685929 24.8252233,19.2513443 C24.8231732,17.6615688 23.7168443,16.2900134 22.172093,15.9621639 L22.172093,15.2459016 C22.172093,14.8113169 21.8222504,14.4590164 21.3906977,14.4590164 C20.9591449,14.4590164 20.6093023,14.8113169 20.6093023,15.2459016 L20.6093023,16.0101639 C18.9968519,16.4534652 17.9589327,18.0298498 18.1810872,19.6981201 C18.4032418,21.3663905 19.8169117,22.6117067 21.4883721,22.611541 C22.4560812,22.6098802 23.2463375,23.3899735 23.263987,24.3643208 C23.2816365,25.3386681 22.520158,26.1472662 21.5530326,26.1811475 Z" id="Shape"></path>
                <path d="M10.1573581,21.8852459 C10.1573581,28.1871589 15.2304259,33.2958689 21.4883721,33.2958689 C27.7463183,33.2958689 32.819386,28.1871589 32.819386,21.8852459 C32.819386,15.5833329 27.7463183,10.474623 21.4883721,10.474623 C15.233349,10.4817239 10.1644096,15.5862765 10.1573581,21.8852459 Z M21.4883721,12.0483934 C26.8832128,12.0483934 31.2565953,16.4525023 31.2565953,21.8852459 C31.2565953,27.3179895 26.8832128,31.7220984 21.4883721,31.7220984 C16.0935314,31.7220984 11.7201488,27.3179895 11.7201488,21.8852459 C11.7262314,16.4550415 16.0960528,12.0545187 21.4883721,12.0483934 Z" id="Shape"></path>
                <path d="M36.6714698,35.2356393 L30.5503116,38.148 C29.7050479,36.5651023 28.0841039,35.5578834 26.300107,35.5070164 L20.6494465,35.3508197 C19.7544513,35.3248574 18.8767119,35.0965357 18.0811953,34.6827541 L17.5062837,34.3829508 C14.5621645,32.837626 11.0533683,32.8413 8.11244651,34.3927869 L8.14829302,33.0810492 C8.15399276,32.8724323 8.07716416,32.6700798 7.93470877,32.5185072 C7.79225338,32.3669346 7.59584051,32.2785581 7.38867907,32.2728197 L1.19231163,32.1009836 C0.98513376,32.0952441 0.784178522,32.1726259 0.633660618,32.3161032 C0.483142714,32.4595806 0.395393909,32.6573986 0.38972093,32.8660328 L0.0155302326,46.5590164 C0.0037165787,46.9934381 0.343851003,47.3552507 0.77524186,47.3671475 L6.97151163,47.5388852 L6.9933907,47.5388852 C7.41642359,47.5386736 7.76246897,47.1994833 7.77410233,46.7736393 L7.79197674,46.118459 L9.40165116,45.2505246 C10.0332994,44.9082695 10.7723601,44.8267897 11.4625814,45.0233115 L21.0748186,47.7404262 C21.0916186,47.7452459 21.1085163,47.749377 21.1256093,47.7530164 C21.82042,47.8992706 22.5283821,47.9728089 23.2382093,47.972459 C24.7415408,47.9734141 26.2272977,47.6469696 27.5936093,47.0155082 C27.6271768,46.9998976 27.6595901,46.9818843 27.6906,46.9616066 L41.6276651,37.882918 C41.9748292,37.6568392 42.0870386,37.1975623 41.8836698,36.835082 C40.8489532,34.9861014 38.5542713,34.2819435 36.6714698,35.2356393 Z M1.59922326,45.8156066 L1.93053488,33.6958033 L6.5646,33.8243607 L6.23328837,45.9442623 L1.59922326,45.8156066 Z M26.8897674,45.6098361 C25.1921549,46.3811481 23.2963618,46.5941856 21.4716698,46.2186885 L11.8852186,43.5088525 C10.8064962,43.2017672 9.65147352,43.3290256 8.6642093,43.8637377 L7.8417907,44.3072459 L8.06204651,36.2488525 C10.6685198,34.5030431 14.0117891,34.3235781 16.7877907,35.780459 L17.3627023,36.0803607 C18.3676385,36.602883 19.476347,36.8912686 20.6068605,36.9241967 L26.2573256,37.0806885 C27.8446195,37.1267594 29.1926574,38.2647126 29.5148651,39.8305574 L21.0976744,39.5967541 C21.0903488,39.5967541 21.0831209,39.5967541 21.0757953,39.5967541 C20.6442426,39.5909144 20.289699,39.9384809 20.2839,40.3730656 C20.278101,40.8076503 20.6232426,41.1646848 21.0547953,41.1705246 L30.3436326,41.4279344 L30.3655116,41.4279344 C30.7885445,41.4277228 31.1345899,41.0885325 31.1462233,40.6626885 C31.1556695,40.3206304 31.1304036,39.978495 31.0708186,39.6416066 L37.3488419,36.6545902 L37.3672047,36.6456393 C38.257611,36.1914042 39.3346903,36.3433096 40.0669256,37.0263934 L26.8897674,45.6098361 Z" id="Shape"></path>
                <path d="M22.2697674,8.26229508 L22.2697674,0.786885246 C22.2697674,0.352300525 21.9199248,0 21.4883721,0 C21.0568194,0 20.7069767,0.352300525 20.7069767,0.786885246 L20.7069767,8.26229508 C20.7069767,8.6968798 21.0568194,9.04918033 21.4883721,9.04918033 C21.9199248,9.04918033 22.2697674,8.6968798 22.2697674,8.26229508 Z" id="Shape"></path>
                <path d="M28.1302326,8.26229508 L28.1302326,4.72131148 C28.1302326,4.28672675 27.7803899,3.93442623 27.3488372,3.93442623 C26.9172845,3.93442623 26.5674419,4.28672675 26.5674419,4.72131148 L26.5674419,8.26229508 C26.5674419,8.6968798 26.9172845,9.04918033 27.3488372,9.04918033 C27.7803899,9.04918033 28.1302326,8.6968798 28.1302326,8.26229508 Z" id="Shape"></path>
                <path d="M16.4093023,8.26229508 L16.4093023,4.72131148 C16.4093023,4.28672675 16.0594597,3.93442623 15.627907,3.93442623 C15.1963542,3.93442623 14.8465116,4.28672675 14.8465116,4.72131148 L14.8465116,8.26229508 C14.8465116,8.6968798 15.1963542,9.04918033 15.627907,9.04918033 C16.0594597,9.04918033 16.4093023,8.6968798 16.4093023,8.26229508 Z" id="Shape"></path>
            </g>
        </g>
    </g>
</svg>
