<?xml version="1.0" encoding="UTF-8"?>
<svg width="21px" height="18px" viewBox="0 0 21 18" version="1.1"
    xmlns="http://www.w3.org/2000/svg"
    xmlns:xlink="http://www.w3.org/1999/xlink">
    <!-- Generator: Sketch 52.6 (67491) - http://www.bohemiancoding.com/sketch -->
    <title>charity</title>
    <desc>Created with Sketch.</desc>
    <g id="Wrap-Around" stroke="none" stroke-width="1" fill="none" fill-rule="evenodd">
        <g transform="translate(-1012.000000, -3773.000000)" fill="#FFFFFF" fill-rule="nonzero" id="Group-8">
            <g transform="translate(1002.000000, 3762.000000)">
                <g id="charity" transform="translate(10.000000, 11.500000)">
                    <path d="M14.5266909,0.766226395 C13.4943214,-0.210186306 11.7253296,-0.433028882 10.125,1.1733275 C8.52702382,-0.431454023 6.75567859,-0.210186306 5.7233091,0.765438966 C4.52070847,1.90169988 4.49952764,3.80255492 5.65898213,4.96637587 L10.125,9.45 L14.5910179,4.9671633 C15.7504724,3.80334235 15.7292915,1.9024873 14.5266909,0.766226395 Z M14.0363938,4.40966314 L10.125,8.33657455 L6.21360616,4.41045057 C5.36480389,3.55766432 5.38127787,2.1710008 6.26145916,1.33947514 C6.63643835,0.983556964 7.13850254,0.788274424 7.67508364,0.788274424 C8.79845227,0.788274424 9.30365436,1.46231416 10.125,2.28675295 C10.9243803,1.48436219 11.4389961,0.788274424 12.5749164,0.788274424 C13.1114975,0.788274424 13.6135617,0.983556964 13.9893253,1.33868771 C14.8671532,2.16863851 14.8875495,3.55530203 14.0363938,4.40966314 Z" id="Shape"></path>
                    <path d="M18.863577,1.05 C18.1488675,1.05 17.5558451,1.567 17.4844553,2.2532 L16.9709353,7.14981667 C16.7235046,7.20073333 16.4963552,7.31666667 16.3203143,7.48665 L12.2227003,11.1698833 C11.6588829,11.6657333 11.3319499,12.3730833 11.3262712,13.11255 L11.3262712,17.5 L16.1937596,17.5 L16.1937596,15.4351333 C16.1937596,15.1163167 16.3324831,14.8061167 16.58397,14.5758167 L19.6626564,11.57565 C20.0415092,11.2059167 20.25,10.7163333 20.25,10.1969833 L20.25,2.38871667 C20.25,1.65081667 19.6277727,1.05 18.863577,1.05 Z M19.4387519,10.1969833 C19.4387519,10.50875 19.3138197,10.8025 19.085859,11.0249667 L16.0169076,14.0157333 C15.6137173,14.3839 15.3825116,14.9009 15.3825116,15.4351333 L15.3825116,16.7166667 L12.1375193,16.7166667 L12.1375193,13.11725 C12.1415755,12.5979 12.3711587,12.1004833 12.7727265,11.7479833 L16.8833205,8.05143333 C16.9936502,7.9449 17.1445424,7.89241667 17.3043582,7.90808333 C17.3927843,7.91591667 17.5201502,7.94646667 17.6288575,8.05143333 C17.728641,8.14778333 17.7838059,8.27625 17.7838059,8.41176667 C17.7838059,8.54728333 17.7278297,8.67575 17.6426487,8.75878333 L14.47797,11.5302167 L15.0231287,12.1098833 L18.2024099,9.32513333 C18.4555193,9.08073333 18.5950539,8.75643333 18.5950539,8.41098333 C18.5950539,8.06553333 18.4563305,7.74123333 18.2032211,7.49761667 C18.0799114,7.37698333 17.9363205,7.28455 17.7789384,7.2211 L18.2908359,2.3331 C18.3208521,2.04796667 18.5674715,1.83333333 18.863577,1.83333333 C19.180775,1.83333333 19.4387519,2.08243333 19.4387519,2.38871667 L19.4387519,10.1969833 Z" id="Shape"></path>
                    <path d="M8.02729969,11.1698833 L3.92968567,7.48665 C3.75364484,7.31666667 3.52649538,7.19995 3.27906471,7.14981667 L2.76554468,2.2532 C2.69415485,1.567 2.10113251,1.05 1.38642296,1.05 C0.622227273,1.05 0,1.65081667 0,2.38871667 L0,10.1969833 C0,10.7163333 0.208490755,11.2059167 0.587343606,11.5748667 L3.66603005,14.5750333 C3.91751695,14.8053333 4.05624037,15.1163167 4.05624037,15.4351333 L4.05624037,17.5 L8.92372881,17.5 L8.92372881,13.11255 C8.91886133,12.3730833 8.5911171,11.6665167 8.02729969,11.1698833 Z M8.11248074,16.7166667 L4.86748844,16.7166667 L4.86748844,15.4351333 C4.86748844,14.9016833 4.63628274,14.3839 4.23309245,14.0157333 L1.16414099,11.0249667 C0.936180277,10.8025 0.811248074,10.50875 0.811248074,10.1969833 L0.811248074,2.38871667 C0.811248074,2.08243333 1.06922496,1.83333333 1.38642296,1.83333333 C1.68252851,1.83333333 1.92914792,2.04796667 1.9591641,2.33153333 L2.47106163,7.21953333 C2.31367951,7.28376667 2.1700886,7.3762 2.04677889,7.49605 C1.79448074,7.73966667 1.65494607,8.06396667 1.65494607,8.40941667 C1.65494607,8.75486667 1.79448074,9.07916667 2.04759014,9.32356667 L5.22687134,12.1083167 L5.77203005,11.52865 L2.60735131,8.75721667 C2.52135901,8.67418333 2.46619414,8.5465 2.46619414,8.4102 C2.46619414,8.2739 2.52135901,8.14621667 2.62114253,8.04986667 C2.72903852,7.9449 2.85721572,7.91435 2.94564176,7.90651667 C3.10626888,7.89163333 3.25634977,7.94333333 3.36667951,8.04986667 L7.4772735,11.7464167 C7.87884129,12.0989167 8.1084245,12.5963333 8.11248074,13.1156833 L8.11248074,16.7166667 Z" id="Shape"></path>
                </g>
            </g>
        </g>
    </g>
</svg>
