<?xml version="1.0" encoding="UTF-8"?>
<svg width="46px" height="28px" viewBox="0 0 46 28" version="1.1"
    xmlns="http://www.w3.org/2000/svg"
    xmlns:xlink="http://www.w3.org/1999/xlink">
    <!-- Generator: Sketch 52.6 (67491) - http://www.bohemiancoding.com/sketch -->
    <title>noun_Handshake_765970_FFFFFF</title>
    <desc>Created with Sketch.</desc>
    <g id="Wrap-Around" stroke="none" stroke-width="1" fill="none" fill-rule="evenodd">
        <g transform="translate(-1016.000000, -2412.000000)" id="noun_Handshake_765970_FFFFFF">
            <g transform="translate(1016.000000, 2412.000000)">
                <path d="M14.8,23.4 L16.6,20.5 L16,19.9 C15.4,19.3 14.7,19.7 14.6,19.9 C14.4,20.1 13.4,21.6 12.7,22.9 C12.6,23 12.6,23.2 12.6,23.4 C12.7,23.6 12.9,23.8 13.2,23.9 C13.6,24.1 14.4,23.7 14.8,23.5 C14.8,23.5 14.8,23.5 14.8,23.4 Z" id="Shape"></path>
                <path d="M13.5,19.1 C13.3,18.8 13.1,18.5 12.9,18.4 C12.8,18.3 12.4,18.4 11.9,18.5 C11.7,19.4 10.9,20.3 10.6,20.7 C10.5,21 10.2,21.8 10.6,22.1 C10.8,22.2 11.2,22.2 11.6,22.1 C12.1,21.3 13.1,19.7 13.5,19.1 Z" id="Shape"></path>
                <path d="M10.8,17.9 C10.7,17.7 10.6,17.4 10.2,17.3 C9.8,17.2 9.3,17.4 8.8,17.9 C8.8,17.9 8.8,17.9 8.8,17.9 C8.7,18.2 8.6,19 8.8,19.5 C8.9,19.6 9.4,19.7 9.8,19.7 C10.4,19 10.8,18.1 10.8,17.9 Z" id="Shape"></path>
                <path d="M19.6,22.6 C19.2,22.2 18.9,21.9 18.7,21.7 C18.3,21.4 18,21.2 17.8,21.1 L15.9,24.1 C15.9,24.1 15.9,24.1 15.9,24.1 C15.9,24.1 15.9,24.1 15.9,24.1 C15.9,24.2 15.8,24.8 16.5,25.1 C16.8,25.3 17.7,24.8 18.3,24.3 L19.6,22.6 Z" id="Shape"></path>
                <path d="M19.6,24.9 C19.7,25.2 20,25.8 20.6,26.1 C21,26.3 21.7,25.8 22.2,25.3 C21.8,24.9 21.1,24.2 20.5,23.6 L19.6,24.9 Z" id="Shape"></path>
                <polygon id="Rectangle-path" transform="translate(38.234005, 9.879100) rotate(-21.482210) translate(-38.234005, -9.879100) " points="34.8841177 2.77933895 41.5838923 2.77933895 41.5838923 16.978861 34.8841177 16.978861"></polygon>
                <path d="M28.9,7.9 C27.5,7.9 26.1,7.3 24.9,6.8 C24.1,6.4 23.3,6.1 22.7,6 C21.3,5.8 17.5,7.9 17,8.4 C16.9,8.5 16.8,8.8 16.8,9.1 C16.7,9.6 16.5,10.3 15.9,11 C14.8,12.3 15.1,12.6 15.3,12.8 C15.6,13 17.7,12.4 20.4,9.5 C20.6,9.2 21,9.2 21.3,9.4 L32.1,18.3 C32.6,17.8 33.7,17 34.9,16.6 C35.2,16.5 35.5,16.4 35.9,16.4 L32.1,7 C30.8,7.5 29.7,7.9 28.9,7.9 Z" id="Shape"></path>
                <path d="M45.3,15.4 L39.7,1 C39.6,0.8 39.5,0.7 39.4,0.6 C39.2,0.5 39.1,0.5 38.9,0.6 L31.5,3.5 C31.2,3.6 31,4 31.1,4.3 L31.7,5.7 C30.6,6.2 29.6,6.5 29,6.5 C27.8,6.5 26.7,6 25.5,5.5 C24.6,5.1 23.7,4.7 22.9,4.6 C22,4.5 20.6,4.9 19.4,5.5 C19.3,5.4 19.1,5.3 19,5.3 L9.8,5.3 C9.2,5.3 7.2,4 5.8,2.8 C5.5,2.7 5,2.7 4.8,3 C4.6,3.3 4.6,3.7 4.9,3.9 C5.5,4.4 8.3,6.7 9.7,6.7 L17.1,6.7 C16.5,7 16.1,7.3 16,7.5 C15.6,7.9 15.5,8.3 15.4,8.8 C15.3,9.3 15.2,9.7 14.8,10.2 C14.3,10.8 12.9,12.4 14.2,13.7 C14.4,13.9 14.8,14.1 15.3,14.1 C16.7,14.1 18.7,12.8 20.7,10.8 L31.4,19.6 C31.8,20.1 32.2,20.8 32.1,21 C31.7,21.4 31.4,21.5 31,21.6 C30.7,21.6 30.4,21.5 30,21.3 C30,21.3 30,21.3 30,21.3 C29.6,21.1 29.3,20.8 28.9,20.4 C26.8,18.3 22.8,15.2 22.7,15.1 C22.4,14.9 22,14.9 21.8,15.2 C21.6,15.5 21.6,15.9 21.9,16.1 C21.9,16.1 26,19.3 28,21.3 C28.4,21.7 28.8,22 29.1,22.2 C29.1,22.3 29,22.6 28.5,23.1 C28,23.6 27.1,23.3 26.7,23.1 C26.6,23.1 26.6,23 26.5,23 L19.9,17.2 C19.6,17 19.2,17 19,17.3 C18.8,17.6 18.8,18 19.1,18.2 L26,24 C26,24.2 25.8,24.4 25.5,24.8 C24.9,25.4 23.9,24.9 23.6,24.7 C23.1,24.2 20.5,21.5 19.6,20.7 C18.8,20 18.2,19.8 17.9,19.7 L16.9,18.8 C16.2,18.2 15.3,18.1 14.7,18.3 C14.5,17.9 14.2,17.5 13.8,17.2 C13.3,16.8 12.5,16.9 11.9,17.1 C11.6,16.5 11.1,16.1 10.6,16 C9.8,15.8 9,16.1 8.1,16.8 C6.8,16.3 2.8,14.8 1.6,14.5 C1.3,14.4 0.9,14.6 0.8,15 C0.7,15.3 0.9,15.7 1.3,15.8 C2.2,16.1 6,17.5 7.4,18 C7.3,18.5 7.3,19.3 7.6,20 C7.9,20.7 8.6,20.9 9.3,20.9 C9.2,21.6 9.3,22.5 10,23 C10.4,23.3 10.9,23.4 11.4,23.3 C11.4,23.4 11.4,23.6 11.5,23.7 C11.6,24.1 12,24.6 12.8,25 C13.5,25.3 14.3,25.1 14.9,24.9 C15.1,25.4 15.4,25.9 16.1,26.2 C17,26.6 18,26.1 18.7,25.7 C19,26.2 19.4,26.8 20.2,27.1 C20.4,27.2 20.7,27.2 20.9,27.2 C21.9,27.2 22.8,26.4 23.3,25.9 C23.7,26.1 24.2,26.2 24.7,26.2 C25.3,26.2 25.9,26 26.4,25.5 C26.9,25 27.1,24.6 27.2,24.3 C27.5,24.4 27.7,24.4 28,24.4 C28.6,24.4 29.2,24.2 29.7,23.7 C30.2,23.2 30.4,22.8 30.5,22.5 C30.7,22.6 30.9,22.6 31.2,22.6 C31.2,22.6 31.3,22.6 31.3,22.6 C32,22.6 32.7,22.3 33.3,21.7 C34.1,20.9 33.4,19.7 33,19 C33.5,18.6 34.3,17.9 35.3,17.6 C35.6,17.5 36,17.4 36.4,17.3 L36.9,18.6 C37,18.8 37.1,18.9 37.2,19 C37.3,19 37.4,19.1 37.5,19.1 C37.6,19.1 37.7,19.1 37.7,19.1 L45.1,16.2 C45.3,16.1 45.4,15.8 45.3,15.4 Z M8.7,19.5 C8.5,19 8.6,18.2 8.7,17.9 C8.7,17.9 8.7,17.9 8.7,17.9 C9.3,17.4 9.8,17.2 10.1,17.3 C10.5,17.4 10.6,17.8 10.7,17.9 C10.8,18.1 10.3,18.9 9.7,19.7 C9.3,19.7 8.8,19.7 8.7,19.5 Z M10.6,22.1 C10.2,21.8 10.5,21 10.6,20.7 C11,20.3 11.7,19.4 11.9,18.5 C12.3,18.4 12.7,18.3 12.9,18.4 C13.1,18.5 13.3,18.8 13.5,19.1 C13,19.7 12.1,21.3 11.6,22 C11.3,22.1 10.8,22.2 10.6,22.1 Z M13.2,24 C12.9,23.9 12.7,23.7 12.6,23.5 C12.5,23.3 12.6,23.1 12.7,23 C13.5,21.7 14.4,20.2 14.6,20 C14.7,19.9 15.4,19.5 16,20 L16.7,20.6 L14.9,23.5 C14.9,23.5 14.9,23.6 14.9,23.6 C14.4,23.8 13.6,24.2 13.2,24 Z M16.5,25.2 C15.8,24.8 15.8,24.3 15.9,24.2 C15.9,24.2 15.9,24.2 15.9,24.2 C15.9,24.2 15.9,24.2 15.9,24.2 L17.8,21.2 C18,21.3 18.3,21.5 18.7,21.8 C18.9,22 19.2,22.3 19.6,22.7 L18.4,24.4 C17.8,24.9 16.9,25.3 16.5,25.2 Z M20.6,26 C20,25.7 19.7,25.2 19.6,24.8 L20.5,23.5 C21.1,24.2 21.8,24.8 22.2,25.2 C21.7,25.7 21,26.2 20.6,26 Z M34.8,16.6 C33.5,17 32.5,17.8 32,18.3 L21.2,9.4 C20.9,9.2 20.5,9.2 20.3,9.5 C17.6,12.4 15.5,13 15.2,12.8 C15,12.6 14.7,12.3 15.8,11 C16.4,10.3 16.6,9.6 16.7,9.1 C16.8,8.8 16.8,8.5 16.9,8.4 C17.4,7.9 21.2,5.8 22.6,6 C23.2,6.1 24,6.4 24.8,6.8 C26,7.3 27.4,7.9 28.8,7.9 C29.6,7.9 30.7,7.5 32,7 L35.7,16.3 C35.4,16.4 35,16.5 34.8,16.6 Z M37.7,17.7 L32.5,4.5 L38.7,2.1 L43.9,15.3 L37.7,17.7 Z" id="Shape" fill="#B7B7B7" fill-rule="nonzero"></path>
            </g>
        </g>
    </g>
</svg>
