<?xml version="1.0" encoding="UTF-8"?>
<svg width="50px" height="33px" viewBox="0 0 50 33" version="1.1" xmlns="http://www.w3.org/2000/svg" xmlns:xlink="http://www.w3.org/1999/xlink">
    <!-- Generator: Sketch 50 (54983) - http://www.bohemiancoding.com/sketch -->
    <title>noun_Handshake_1035261</title>
    <desc>Created with Sketch.</desc>
    <defs></defs>
    <g id="Home" stroke="none" stroke-width="1" fill="none" fill-rule="evenodd">
        <g id="Desktop" transform="translate(-240.000000, -216.000000)" fill="#FFFFFF" fill-rule="nonzero">
            <g id="noun_Handshake_1035261" transform="translate(240.000000, 216.000000)">
                <path d="M9.0221875,0.82 C8.84768561,0.854372091 8.69319308,0.954792239 8.5909375,1.1003125 L0.979375,11.4503125 C0.769126555,11.7404891 0.815965991,12.1433083 1.0871875,12.3775 L8.828125,18.9325 C7.41614626,19.3649879 6.37,20.6613909 6.37,22.21 C6.37,24.107224 7.9227898,25.66 9.82,25.66 C10.3291703,25.66 10.8069284,25.5368881 11.243125,25.3365625 C11.42421,26.6822067 12.5678146,27.73 13.96,27.73 C14.2047037,27.73 14.4450348,27.6830013 14.6715625,27.6221875 C14.6701087,27.6586519 14.65,27.693203 14.65,27.73 C14.65,29.246137 15.8938678,30.49 17.41,30.49 C17.932871,30.49 18.4145351,30.3366751 18.833125,30.0803125 C18.9761358,31.4658863 20.1290409,32.56 21.55,32.56 C22.2592282,32.56 22.891696,32.2722948 23.3828125,31.826875 C24.1074201,32.3285885 24.7974112,32.56 25.69,32.56 C26.5962612,32.56 27.4326219,32.105773 28.061875,31.481875 C28.6124715,30.9359643 29.0239179,30.2401096 29.1184375,29.455 C29.5388145,29.6772076 30.0173171,29.8 30.52,29.8 C31.9399131,29.8 33.1265033,28.8158006 33.495625,27.4928125 C33.8546154,27.6459835 34.2498612,27.73 34.66,27.73 C36.2095123,27.73 37.4898694,26.5605639 37.721875,25.05625 C37.7691876,25.09203 37.8445763,25.1533385 37.894375,25.185625 C38.4474804,25.544356 39.0902478,25.66 39.6840625,25.66 C40.5282872,25.66 41.3572131,25.3919005 41.9696875,24.8190625 C42.5821619,24.2462935 42.94,23.361265 42.94,22.339375 C42.9189619,21.2371 42.1957853,20.2506415 41.30125,19.6009375 L41.30125,19.579375 L41.258125,19.5578125 L40.6759375,19.0834375 L48.89125,12.3775 C49.169476,12.1494151 49.2257879,11.7458471 49.020625,11.4503125 L41.4090625,1.1003125 C41.2572106,0.887957853 40.9985228,0.779475886 40.740625,0.82 C40.7041712,0.824308571 40.6681193,0.831518951 40.6328125,0.8415625 C36.4411439,2.2760656 33.9684924,2.2 29.14,2.2 C27.5898481,2.2 26.2645651,2.61320512 25,3.4290625 C23.734028,2.6080177 22.4143692,2.2 20.86,2.2 C16.0315077,2.2 13.5588561,2.2760311 9.3671875,0.8415625 C9.25587928,0.805221717 9.13715443,0.797801414 9.0221875,0.82 Z M9.431875,2.28625 C13.5020367,3.5997547 16.2444603,3.58 20.86,3.58 C22.063389,3.58 22.9805418,3.83026576 23.9434375,4.399375 L18.2725,10.695625 C18.106864,10.8848666 18.0572952,11.1492335 18.143125,11.385625 C18.5453025,12.592159 19.3536093,13.3166797 20.17,13.6496875 C20.9863908,13.9826953 21.779503,13.9577035 22.3046875,13.9084375 C22.8933382,13.8532375 23.4135989,13.5879601 24.0296875,13.24 C24.6457761,12.8920399 25.3141598,12.4418149 25.9271875,12.0109375 C26.9069102,11.3223175 27.4316959,10.8961528 27.7384375,10.6525 L40.43875,20.6790625 C40.4528694,20.6867502 40.4672532,20.693942 40.481875,20.700625 C41.0756511,21.120628 41.5416708,21.914266 41.56,22.339375 C41.560207,22.346275 41.5599103,22.3561075 41.56,22.3609375 C41.554894,23.0593555 41.336923,23.510098 41.0209375,23.805625 C40.7011625,24.104671 40.2405516,24.28 39.6840625,24.28 C39.3543274,24.28 38.7977189,24.117643 38.6490625,24.02125 C38.7152611,24.06403 38.4700772,23.889391 38.19625,23.67625 C37.9224228,23.463109 37.5327702,23.15806 37.0965625,22.81375 C36.2241472,22.125199 35.107592,21.24331 33.9915625,20.355625 C31.7595036,18.580186 29.57125,16.8409375 29.57125,16.8409375 C29.3786615,16.6868667 29.1185066,16.6472442 28.8887832,16.7369953 C28.6590597,16.8267464 28.4946682,17.0322359 28.4575332,17.2760578 C28.4203982,17.5198797 28.5161615,17.7649917 28.70875,17.9190625 C28.70875,17.9190625 30.8955925,19.657207 33.1290625,21.43375 C34.2457978,22.321987 35.3805946,23.2227475 36.255625,23.9134375 C36.368785,24.0027408 36.4329964,24.0485616 36.5359375,24.1290625 C36.4381149,24.2515026 36.384883,24.4035936 36.385,24.5603125 C36.385,25.5632275 35.6078461,26.35 34.66,26.35 C34.2970069,26.35 33.9677292,26.2245925 33.6896875,26.0265625 C33.7343098,26.0583025 33.5742112,25.939795 33.3878125,25.789375 C33.2014138,25.638955 32.9303094,25.427746 32.633125,25.185625 C32.0387562,24.701314 31.2806643,24.0622705 30.52,23.4390625 C28.9986714,22.1927155 27.50125,20.9809375 27.50125,20.9809375 C27.3651271,20.8603327 27.1868972,20.7983397 27.0053125,20.8084375 C26.7236862,20.8334095 26.4857836,21.0276464 26.4049775,21.2985843 C26.3241715,21.5695222 26.4168116,21.862342 26.63875,22.0375 C26.63875,22.0375 28.1136236,23.2700125 29.6359375,24.5171875 C30.3970944,25.1407405 31.174434,25.77799 31.770625,26.26375 C31.9615011,26.4192705 32.0981397,26.5150632 32.245,26.6303125 C32.245,27.6332275 31.4678461,28.42 30.52,28.42 C30.1570069,28.42 29.8277761,28.2945925 29.5496875,28.0965625 C29.4536354,28.0282525 26.4816867,25.8590305 24.74125,24.4309375 C24.599762,24.3048045 24.4126202,24.2424239 24.22375,24.2584375 C23.9458223,24.2908844 23.7150007,24.4879528 23.6393788,24.7573558 C23.5637569,25.0267588 23.6583065,25.3151594 23.87875,25.4875 C25.1988394,26.5707082 26.7556995,27.7407385 27.76,28.4846875 L27.76,29.11 C27.76,29.552428 27.5096397,30.0970795 27.0915625,30.5115625 C26.6734853,30.9261145 26.1144176,31.18 25.69,31.18 C24.9341554,31.18 24.7019911,31.1167415 24.1375,30.705625 C24.237263,30.4214934 24.31,30.1165692 24.31,29.8 C24.31,28.283863 23.0661322,27.04 21.55,27.04 C21.027129,27.04 20.5454649,27.1933249 20.126875,27.4496875 C19.9838642,26.0641137 18.8309591,24.97 17.41,24.97 C17.1652963,24.97 16.9249652,25.0169987 16.6984375,25.0778125 C16.6998913,25.0413481 16.72,25.006797 16.72,24.97 C16.72,23.453863 15.4761322,22.21 13.96,22.21 C13.7225738,22.21 13.4904302,22.2604473 13.27,22.3178125 C13.2711668,22.2811714 13.27,22.2469109 13.27,22.21 C13.27,20.7396514 12.3303118,19.4913103 11.0275,18.9971875 C11.0082008,18.9668077 10.9865734,18.9379711 10.9628125,18.9109375 L2.48875,11.730625 L9.431875,2.28625 Z M40.568125,2.28625 L47.51125,11.7521875 L39.57625,18.2209375 L28.19125,9.229375 C27.9341426,9.03379635 27.5757633,9.04275583 27.32875,9.2509375 C27.32875,9.2509375 26.3104501,10.0595485 25.129375,10.8896875 C24.5388378,11.304757 23.9124876,11.721172 23.36125,12.0325 C22.8100125,12.343828 22.2924007,12.5390152 22.1753125,12.55 C21.7774626,12.587329 21.1928505,12.562075 20.6875,12.3559375 C20.2722539,12.1865563 19.9122809,11.8473454 19.6309375,11.2778125 L25.4096875,4.830625 C25.4185678,4.824415 25.4223904,4.8154105 25.43125,4.8090625 C26.6432812,3.9394831 27.6793038,3.58 29.14,3.58 C33.7555397,3.58 36.4979634,3.599734 40.568125,2.28625 Z M9.82,20.14 C10.971403,20.14 11.89,21.058597 11.89,22.21 C11.89,23.361403 10.971403,24.28 9.82,24.28 C8.668597,24.28 7.75,23.361403 7.75,22.21 C7.75,21.058597 8.668597,20.14 9.82,20.14 Z M13.96,23.59 C14.7303257,23.59 15.34,24.199684 15.34,24.97 C15.34,25.740316 14.7303257,26.35 13.96,26.35 C13.1896743,26.35 12.58,25.740316 12.58,24.97 C12.58,24.199684 13.1896743,23.59 13.96,23.59 Z M17.41,26.35 C18.1803257,26.35 18.79,26.959684 18.79,27.73 C18.79,28.500316 18.1803257,29.11 17.41,29.11 C16.6396743,29.11 16.03,28.500316 16.03,27.73 C16.03,26.959684 16.6396743,26.35 17.41,26.35 Z M21.55,28.42 C22.3203257,28.42 22.93,29.029684 22.93,29.8 C22.93,30.570316 22.3203257,31.18 21.55,31.18 C20.7796743,31.18 20.17,30.570316 20.17,29.8 C20.17,29.029684 20.7796743,28.42 21.55,28.42 Z" id="Shape"></path>
            </g>
        </g>
    </g>
</svg>