<?xml version="1.0" encoding="UTF-8"?>
<svg width="132px" height="131px" viewBox="0 0 132 131" version="1.1"
    xmlns="http://www.w3.org/2000/svg"
    xmlns:xlink="http://www.w3.org/1999/xlink">
    <!-- Generator: Sketch 52.6 (67491) - http://www.bohemiancoding.com/sketch -->
    <title>Group 3</title>
    <desc>Created with Sketch.</desc>
    <g id="Independent-Practice-Association" stroke="none" stroke-width="1" fill="none" fill-rule="evenodd">
        <g transform="translate(-1273.000000, -2746.000000)" id="Group-3">
            <g transform="translate(1273.000000, 2747.000000)">
                <g id="noun_helping-hand_738547" stroke="#000000" stroke-width="2.6">
                    <g id="Group" transform="translate(0.856040, 0.286000)">
                        <g id="Shape">
                            <path d="M128.412166,3.257904 C128.412166,3.257904 112.779171,16.546062 105.524702,13.788684 C105.524702,13.788684 98.896699,10.654566 87.8888079,4.136964 C87.8888079,4.136964 67.7524218,-5.514756 51.7435473,5.01423 C51.7435473,5.01423 13.9730566,27.076842 15.9741659,35.474556 C15.9741659,35.474556 17.0982238,48.94929 39.6115984,28.016898 C39.6115984,28.016898 42.8638485,24.256674 46.8660671,21.937032 C50.5693723,19.791408 56.594179,18.566106 64.3766685,19.68018 C64.3766685,19.68018 88.8911525,29.9598 91.6404404,25.07115"></path>
                            <path d="M129.661517,24.31767 C129.661517,24.31767 110.527476,41.114892 98.769616,41.491632 C98.769616,41.491632 88.7640695,44.250804 67.6271287,31.463172 C67.6271287,31.463172 62.9375881,29.832426 52.6188089,30.209166 C52.6188089,30.209166 43.1126448,30.584112 44.3655754,24.567036 C44.3655754,24.567036 45.6775729,18.175014 64.2495855,19.615596"></path>
                            <path d="M26.3555917,38.108148 C26.3555917,38.108148 32.6703624,42.368898 39.3628022,36.665772 L47.6786822,29.52027"></path>
                            <path d="M36.7978741,38.545884 C36.7978741,38.545884 41.3621216,43.497324 49.9285877,36.228036 L58.3715507,30.14817"></path>
                            <path d="M48.5557337,37.229088 C48.5557337,37.229088 53.1826277,40.300416 57.6860186,36.414612 C57.6860186,36.414612 62.5008523,31.337592 64.6272547,31.023642"></path>
                            <path d="M1.2970297,124.884136 C1.2970297,124.884136 16.9318149,111.595978 24.1844937,114.353356 C24.1844937,114.353356 30.8142869,117.487474 41.8203881,124.00687 C41.8203881,124.00687 61.9567743,133.65859 77.9656487,123.129604 C77.9656487,123.129604 115.737929,101.066992 113.73503,92.6692776 C113.73503,92.6692776 112.609182,79.1927496 90.0958077,100.126936 C90.0958077,100.126936 86.8453475,103.888954 82.8431289,106.206802 C79.1398238,108.352426 73.1132271,109.577728 65.3325275,108.463654 C65.3325275,108.463654 40.8180436,98.1858276 38.0669657,103.072684"></path>
                            <path d="M0,103.224353 C0,103.224353 19.1358315,86.4271309 30.8919012,86.0503909 C30.8919012,86.0503909 40.8974477,83.2930129 62.0343885,96.0788509 C62.0343885,96.0788509 66.7239291,97.7078029 77.0427083,97.3328569 C77.0427083,97.3328569 86.5488725,96.9561169 85.2977317,102.974987 C85.2977317,102.974987 83.9857343,109.367009 65.4119317,107.926427"></path>
                            <path d="M104.334781,89.9298763 C104.334781,89.9298763 98.0200107,85.6673323 91.325781,91.3722523 L83.009901,98.5159603"></path>
                            <path d="M92.9103103,90.0463174 C92.9103103,90.0463174 88.3460628,85.0948774 79.7795966,92.3659594 L71.3366337,98.4476194"></path>
                            <path d="M82.2200358,90.852312 C82.2200358,90.852312 77.5931418,87.780984 73.0897509,91.666788 C73.0897509,91.666788 68.2749172,96.743808 66.1485149,97.057758"></path>
                        </g>
                    </g>
                </g>
                <g id="noun_Heart_682473_000000" transform="translate(45.396040, 50.700000)" fill="#000000" fill-rule="nonzero">
                    <path d="M18.1815022,29.8997058 C18.1661113,29.9000981 18.1511254,29.9000981 18.1357345,29.8997058 C17.9607644,29.8997058 17.7837692,29.8491055 17.6298603,29.7431978 C17.1442372,29.4093924 5.68085876,21.4910264 1.45727433,14.8113884 C1.45160401,14.8023666 1.4463387,14.7933449 1.44066837,14.7843231 C0.49817883,13.2702352 0,11.5317799 0,9.7544917 C0,4.37594939 4.51844149,0 10.0721229,0 C13.287604,0 16.2734368,1.47956984 18.1584158,3.9370208 C20.0433949,1.47956984 23.0296327,6.96777306e-16 26.2447088,6.96777306e-16 C31.7983902,6.96777306e-16 36.3168317,4.37594939 36.3168317,9.7544917 C36.3168317,11.5317799 35.8186529,13.2702352 34.8761633,14.7843231 C34.870898,14.7933449 34.8656327,14.8023666 34.8595573,14.8113884 C30.636378,21.4910264 19.1729996,29.4093924 18.6869714,29.7431978 C18.5338726,29.8491055 18.3568773,29.8997058 18.1815022,29.8997058 Z" id="Shape"></path>
                </g>
            </g>
        </g>
    </g>
</svg>
