<?xml version="1.0" encoding="UTF-8"?>
<svg width="42px" height="34px" viewBox="0 0 42 34" version="1.1" xmlns="http://www.w3.org/2000/svg" xmlns:xlink="http://www.w3.org/1999/xlink">
    <!-- Generator: Sketch 52.6 (67491) - http://www.bohemiancoding.com/sketch -->
    <title>noun_Heart_682473_000000</title>
    <desc>Created with Sketch.</desc>
    <g id="About" stroke="none" stroke-width="1" fill="none" fill-rule="evenodd">
        <g transform="translate(-1635.000000, -994.000000)" fill="#4C9C2E" fill-rule="nonzero" id="Group-9">
            <g transform="translate(1621.000000, 975.000000)">
                <g id="noun_Heart_682473_000000" transform="translate(14.000000, 19.000000)">
                    <path d="M21.0266991,33.9996655 C21.0088997,34.0001115 20.9915687,34.0001115 20.9737693,33.9996655 C20.7714184,33.9996655 20.5667254,33.9421266 20.3887315,33.8216965 C19.827114,33.4421184 6.5698481,24.4379565 1.68532108,16.8423814 C1.67876341,16.8321226 1.67267415,16.8218637 1.66611648,16.8116049 C0.576138113,15.0898995 0,13.1130607 0,11.0920641 C0,4.97599596 5.22552584,0 11.6482948,0 C15.3669618,0 18.8200433,1.68245399 21,4.47687984 C23.1799567,1.68245399 26.6335066,7.9232202e-16 30.3517052,7.9232202e-16 C36.7744742,7.9232202e-16 42,4.97599596 42,11.0920641 C42,13.1130607 41.4238619,15.0898995 40.3338835,16.8116049 C40.3277943,16.8218637 40.321705,16.8321226 40.3146789,16.8423814 C35.4306203,24.4379565 22.1733544,33.4421184 21.6112685,33.8216965 C21.4342114,33.9421266 21.2295184,33.9996655 21.0266991,33.9996655 Z" id="Shape"></path>
                </g>
            </g>
        </g>
    </g>
</svg>