<?xml version="1.0" encoding="UTF-8"?>
<svg width="32px" height="33px" viewBox="0 0 32 33" version="1.1" xmlns="http://www.w3.org/2000/svg" xmlns:xlink="http://www.w3.org/1999/xlink">
    <!-- Generator: Sketch 52.6 (67491) - http://www.bohemiancoding.com/sketch -->
    <title>noun_Camera_1841840</title>
    <desc>Created with Sketch.</desc>
    <g id="Symbols" stroke="none" stroke-width="1" fill="none" fill-rule="evenodd">
        <g id="Footer" transform="translate(-866.000000, -403.000000)" fill="#FFFFFF" fill-rule="nonzero">
            <g id="Group-8">
                <g id="noun_Camera_1841840" transform="translate(866.000000, 403.000000)">
                    <path d="M7.52941176,0 C3.35814588,0 0,3.46310633 0,7.7647036 L0,25.2352964 C0,29.5368937 3.35814588,33 7.52941176,33 L24.4705882,33 C28.6418541,33 32,29.5368937 32,25.2352964 L32,7.7647036 C32,3.46310633 28.6418541,5.51715374e-14 24.4705882,5.51715374e-14 L7.52941176,5.51715374e-14 Z M25.4117647,4.85293975 C26.4513412,4.85293975 27.2941176,5.7220042 27.2941176,6.79411565 C27.2941176,7.86617857 26.4513412,8.7352964 25.4117647,8.7352964 C24.3721412,8.7352964 23.5294118,7.86617857 23.5294118,6.79411565 C23.5294118,5.7220042 24.3721412,4.85293975 25.4117647,4.85293975 Z M16,8.24999757 C20.4071482,8.24999757 24,11.9551734 24,16.5000049 C24,21.0448315 20.4071482,24.7500024 16,24.7500024 C11.5928518,24.7500024 8,21.0448315 8,16.5000049 C8,11.9551734 11.5928518,8.24999757 16,8.24999757 Z M16,10.1911783 C12.61016,10.1911783 9.88235294,13.0042819 9.88235294,16.5000049 C9.88235294,19.9957229 12.61016,22.8088265 16,22.8088265 C19.38984,22.8088265 22.1176471,19.9957229 22.1176471,16.5000049 C22.1176471,13.0042819 19.38984,10.1911783 16,10.1911783 Z" id="Shape"></path>
                </g>
            </g>
        </g>
    </g>
</svg>