<?xml version="1.0" encoding="UTF-8"?>
<svg width="34px" height="34px" viewBox="0 0 34 34" version="1.1" xmlns="http://www.w3.org/2000/svg" xmlns:xlink="http://www.w3.org/1999/xlink">
    <!-- Generator: Sketch 52.6 (67491) - http://www.bohemiancoding.com/sketch -->
    <title>linkedin-logo</title>
    <desc>Created with Sketch.</desc>
    <g id="Symbols" stroke="none" stroke-width="1" fill="none" fill-rule="evenodd">
        <g id="Footer" transform="translate(-988.000000, -398.000000)" fill="#FFFFFF" fill-rule="nonzero">
            <g id="Group-8">
                <g id="Group-9" transform="translate(345.000000, 110.000000)">
                    <g id="linkedin-logo" transform="translate(643.000000, 288.000000)">
                        <path d="M33.9303434,20.3309 L33.9303434,33.1325169 L26.6579722,33.1325169 L26.6579722,21.1882751 C26.6579722,18.1877842 25.6061021,16.1400665 22.9737448,16.1400665 C20.9642738,16.1400665 19.7684362,17.5200782 19.2423434,18.8550072 C19.0504919,19.3322391 19.001109,19.9964835 19.001109,20.6645115 L19.001109,33.1325169 L11.7262923,33.1325169 C11.7262923,33.1325169 11.8242691,12.9028918 11.7262923,10.8069518 L19.0003991,10.8069518 L19.0003991,13.9715112 C18.9856473,13.9951796 18.966478,14.0206996 18.952594,14.0436435 L19.0003991,14.0436435 L19.0003991,13.9715112 C19.9668353,12.4524679 21.6927889,10.2824636 25.5560093,10.2824636 C30.3422784,10.2823831 33.9303434,13.4733481 33.9303434,20.3309 Z M4.11652436,0.044921626 C1.62781903,0.044921626 0,1.71080551 0,3.90149957 C0,6.04445435 1.5807239,7.76089519 4.01996752,7.76089519 L4.06856148,7.76089519 C6.60546636,7.76089519 8.18319258,6.04477637 8.18319258,3.90149957 C8.13538747,1.71080551 6.60546636,0.044921626 4.11652436,0.044921626 Z M0.432060325,33.1325169 L7.70411601,33.1325169 L7.70411601,10.8069518 L0.432060325,10.8069518 L0.432060325,33.1325169 Z" id="LinkedIn"></path>
                    </g>
                </g>
            </g>
        </g>
    </g>
</svg>