<?xml version="1.0" encoding="UTF-8"?>
<svg width="101px" height="69px" viewBox="0 0 101 69" version="1.1"
    xmlns="http://www.w3.org/2000/svg"
    xmlns:xlink="http://www.w3.org/1999/xlink">
    <!-- Generator: Sketch 52.6 (67491) - http://www.bohemiancoding.com/sketch -->
    <title>noun_Book_729118</title>
    <desc>Created with Sketch.</desc>
    <g id="Home" stroke="none" stroke-width="1" fill="none" fill-rule="evenodd">
        <g id="Home-Copy-2" transform="translate(-497.000000, -991.000000)" fill="#0081C3" fill-rule="nonzero">
            <g id="noun_Book_729118" transform="translate(497.000000, 991.000000)">
                <g id="Group" transform="translate(0.722835, 0.721622)">
                    <g id="Shape">
                        <g transform="translate(0.000000, 0.058378)">
                            <path d="M97.3128189,3.31945946 L89.4435591,3.31945946 C76.6975748,-1.10648649 62.8432441,-1.10648649 50.0972598,3.31945946 L49.5430866,3.31945946 C36.7971024,-1.10648649 22.9427717,-1.10648649 10.1967874,3.31945946 L2.4383622,3.31945946 C1.10834646,3.31945946 0,4.42594595 0,5.75372973 L0,64.1762162 C0,65.504 1.10834646,66.3891892 2.4383622,66.3891892 L45.1097008,66.3891892 C46.2180472,67.4956757 47.8805669,68.1595676 49.8755906,68.1595676 C51.8706142,68.1595676 53.5331339,67.4956757 54.6414803,66.3891892 L97.3128189,66.3891892 C98.6428346,66.3891892 99.7511811,65.504 99.7511811,64.1762162 L99.7511811,5.75372973 C99.7511811,4.42594595 98.6428346,3.31945946 97.3128189,3.31945946 Z M88.6677165,60.5248108 C75.3675591,56.3201622 63.175748,56.3201622 50.983937,60.5248108 L50.983937,5.86437838 C63.175748,1.32778378 75.3675591,1.32778378 88.6677165,5.86437838 L88.6677165,60.5248108 Z M48.7672441,60.5248108 C42.1171654,58.4224865 36.1320945,57.316 29.9253543,57.316 C23.7186142,57.316 17.7335433,58.4224865 11.0834646,60.5248108 L11.0834646,5.86437838 C24.383622,1.32778378 36.5754331,1.32778378 48.7672441,5.86437838 L48.7672441,60.5248108 Z M47.9914016,63.0697297 L11.8593071,63.0697297 C23.6077795,58.6437838 36.2429291,58.6437838 47.9914016,63.0697297 Z M87.891874,63.0697297 L51.7597795,63.0697297 C63.3974173,58.6437838 76.1434016,58.6437838 87.891874,63.0697297 Z M3.32503937,6.63891892 L8.86677165,6.63891892 L8.86677165,63.0697297 L3.32503937,63.0697297 L3.32503937,6.63891892 Z M96.4261417,63.0697297 L90.8844094,63.0697297 L90.8844094,6.63891892 L96.4261417,6.63891892 L96.4261417,63.0697297 Z"></path>
                            <path d="M42.7821732,13.4991351 C34.4695748,10.1796757 25.2702992,10.1796757 16.9577008,13.4991351 C16.4035276,13.7204324 16.1818583,14.2736757 16.4035276,14.8269189 C16.6251969,15.3801622 17.1793701,15.6014595 17.7335433,15.3801622 C25.6028031,12.282 34.2479055,12.282 42.0063307,15.3801622 C42.1171654,15.3801622 42.228,15.4908108 42.3388346,15.4908108 C42.7821732,15.4908108 43.1146772,15.2695135 43.2255118,14.8269189 C43.5580157,14.3843243 43.3363465,13.7204324 42.7821732,13.4991351 Z"></path>
                            <path d="M42.7821732,21.9084324 C34.4695748,18.588973 25.2702992,18.588973 16.9577008,21.9084324 C16.4035276,22.1297297 16.1818583,22.682973 16.4035276,23.2362162 C16.6251969,23.7894595 17.1793701,24.0107568 17.7335433,23.7894595 C25.6028031,20.6912973 34.2479055,20.6912973 42.0063307,23.7894595 C42.1171654,23.7894595 42.228,23.9001081 42.3388346,23.9001081 C42.7821732,23.9001081 43.1146772,23.6788108 43.2255118,23.2362162 C43.5580157,22.7936216 43.3363465,22.1297297 42.7821732,21.9084324 Z"></path>
                            <path d="M42.7821732,30.3177297 C34.4695748,26.9982703 25.2702992,26.9982703 16.9577008,30.3177297 C16.4035276,30.539027 16.1818583,31.0922703 16.4035276,31.6455135 C16.6251969,32.1987568 17.1793701,32.4200541 17.7335433,32.1987568 C25.6028031,29.1005946 34.2479055,29.1005946 42.0063307,32.1987568 C42.1171654,32.1987568 42.228,32.3094054 42.3388346,32.3094054 C42.7821732,32.3094054 43.1146772,32.0881081 43.2255118,31.6455135 C43.5580157,31.2029189 43.3363465,30.539027 42.7821732,30.3177297 Z"></path>
                            <path d="M42.7821732,47.1363243 C34.4695748,43.8168649 25.2702992,43.8168649 16.9577008,47.1363243 C16.4035276,47.3576216 16.1818583,47.9108649 16.4035276,48.4641081 C16.6251969,49.0173514 17.1793701,49.2386486 17.7335433,49.0173514 C25.6028031,45.9191892 34.2479055,45.9191892 42.0063307,49.0173514 C42.1171654,49.0173514 42.228,49.128 42.3388346,49.128 C42.7821732,49.128 43.1146772,48.9067027 43.2255118,48.4641081 C43.5580157,47.9108649 43.3363465,47.3576216 42.7821732,47.1363243 Z"></path>
                            <path d="M42.7821732,38.727027 C34.4695748,35.4075676 25.2702992,35.4075676 16.9577008,38.727027 C16.4035276,38.9483243 16.1818583,39.5015676 16.4035276,40.0548108 C16.6251969,40.6080541 17.1793701,40.8293514 17.7335433,40.6080541 C25.6028031,37.5098919 34.2479055,37.5098919 42.0063307,40.6080541 C42.1171654,40.6080541 42.228,40.7187027 42.3388346,40.7187027 C42.7821732,40.7187027 43.1146772,40.4974054 43.2255118,40.0548108 C43.5580157,39.6122162 43.3363465,38.9483243 42.7821732,38.727027 Z"></path>
                            <path d="M82.6826457,13.4991351 C74.3700472,10.1796757 65.1707717,10.1796757 56.8581732,13.4991351 C56.304,13.7204324 56.0823307,14.2736757 56.304,14.8269189 C56.5256693,15.3801622 57.0798425,15.6014595 57.6340157,15.3801622 C65.5032756,12.282 74.148378,12.282 81.9068031,15.3801622 C82.0176378,15.3801622 82.1284724,15.4908108 82.2393071,15.4908108 C82.6826457,15.4908108 83.0151496,15.2695135 83.1259843,14.8269189 C83.4584882,14.3843243 83.2368189,13.7204324 82.6826457,13.4991351 Z"></path>
                            <path d="M82.6826457,21.9084324 C74.3700472,18.588973 65.1707717,18.588973 56.8581732,21.9084324 C56.304,22.1297297 56.0823307,22.682973 56.304,23.2362162 C56.5256693,23.7894595 57.0798425,24.0107568 57.6340157,23.7894595 C65.5032756,20.6912973 74.148378,20.6912973 81.9068031,23.7894595 C82.0176378,23.7894595 82.1284724,23.9001081 82.2393071,23.9001081 C82.6826457,23.9001081 83.0151496,23.6788108 83.1259843,23.2362162 C83.4584882,22.7936216 83.2368189,22.1297297 82.6826457,21.9084324 Z"></path>
                            <path d="M82.6826457,30.3177297 C74.3700472,26.9982703 65.1707717,26.9982703 56.8581732,30.3177297 C56.304,30.539027 56.0823307,31.0922703 56.304,31.6455135 C56.5256693,32.1987568 57.0798425,32.4200541 57.6340157,32.1987568 C65.5032756,29.1005946 74.148378,29.1005946 81.9068031,32.1987568 C82.0176378,32.1987568 82.1284724,32.3094054 82.2393071,32.3094054 C82.6826457,32.3094054 83.0151496,32.0881081 83.1259843,31.6455135 C83.4584882,31.2029189 83.2368189,30.539027 82.6826457,30.3177297 Z"></path>
                            <path d="M82.6826457,47.1363243 C74.3700472,43.8168649 65.1707717,43.8168649 56.8581732,47.1363243 C56.304,47.3576216 56.0823307,47.9108649 56.304,48.4641081 C56.5256693,49.0173514 57.0798425,49.2386486 57.6340157,49.0173514 C65.5032756,45.9191892 74.148378,45.9191892 81.9068031,49.0173514 C82.0176378,49.0173514 82.1284724,49.128 82.2393071,49.128 C82.6826457,49.128 83.0151496,48.9067027 83.1259843,48.4641081 C83.4584882,47.9108649 83.2368189,47.3576216 82.6826457,47.1363243 Z"></path>
                            <path d="M82.6826457,38.727027 C74.3700472,35.4075676 65.1707717,35.4075676 56.8581732,38.727027 C56.304,38.9483243 56.0823307,39.5015676 56.304,40.0548108 C56.5256693,40.6080541 57.0798425,40.8293514 57.6340157,40.6080541 C65.5032756,37.5098919 74.148378,37.5098919 81.9068031,40.6080541 C82.0176378,40.6080541 82.1284724,40.7187027 82.2393071,40.7187027 C82.6826457,40.7187027 83.0151496,40.4974054 83.1259843,40.0548108 C83.4584882,39.6122162 83.2368189,38.9483243 82.6826457,38.727027 Z"></path>
                        </g>
                    </g>
                </g>
            </g>
        </g>
    </g>
</svg>
