<?xml version="1.0" encoding="UTF-8"?>
<svg width="68px" height="58px" viewBox="0 0 68 58" version="1.1" xmlns="http://www.w3.org/2000/svg" xmlns:xlink="http://www.w3.org/1999/xlink">
    <!-- Generator: Sketch 52.6 (67491) - http://www.bohemiancoding.com/sketch -->
    <title>noun_team_1803478_ffffff</title>
    <desc>Created with Sketch.</desc>
    <g id="Wrap-Around" stroke="none" stroke-width="1" fill="none" fill-rule="evenodd">
        <g transform="translate(-876.000000, -1582.000000)" fill="#FFFFFF" fill-rule="nonzero" id="noun_team_1803478_ffffff">
            <g transform="translate(876.000000, 1582.000000)">
                <path d="M51.06934,40.07031 C50.7234921,38.4708177 49.7146164,37.0934651 48.29395,36.28125 L40.24128,31.68225 C42.8576453,28.4768167 44.393854,24.5263968 44.63038,20.39551 C44.6248389,14.8320882 40.1132395,10.3249802 34.549815,10.3249802 C28.9863905,10.3249802 24.4747911,14.8320882 24.46925,20.39551 C24.7057329,24.526125 26.2417408,28.4763102 28.8578,31.68164 L20.80519,36.28125 C19.3845882,37.0935374 18.3757363,38.4708575 18.0298,40.07031 L15.14893,53.44238 C15.0316215,53.987817 15.2895172,54.5450343 15.78125,54.80859 C15.99414,54.92187 21.15332,57.60059 34.5498,57.60059 C47.9468,57.60059 53.10498,54.92188 53.31787,54.80859 C53.8096028,54.5450343 54.0674985,53.987817 53.95019,53.44238 L51.06934,40.07031 Z M26.96924,20.39551 C26.9740446,16.2122793 30.3665715,12.8236466 34.549805,12.8236466 C38.7330385,12.8236466 42.1255654,16.2122793 42.13037,20.39551 C41.914691,24.3215493 40.2998241,28.0404649 37.57837,30.87842 C37.4414702,30.9567502 37.3211285,31.0609823 37.22406,31.1853 C36.5152939,31.8957704 35.5529508,32.2950114 34.5493983,32.2949195 C33.5458458,32.2948275 32.583576,31.8954102 31.87494,31.18481 C31.7783214,31.0614215 31.6587571,30.957878 31.52283,30.87988 C28.800427,28.0418179 27.1849519,24.3222826 26.96924,20.39551 Z M34.5498,55.10059 C24.84033,55.10059 19.6958,53.64159 17.81201,52.95411 L20.47412,40.59766 C20.6696109,39.6918819 21.2408583,38.911875 22.04541,38.45215 L30.78033,33.46362 C32.9798517,35.2386856 36.1197483,35.2386856 38.31927,33.46362 L47.05419,38.45215 C47.8586759,38.9118437 48.4297785,39.691896 48.62499,40.59766 L51.2871,52.95313 C49.39795,53.64258 44.25488,55.10059 34.5498,55.10059 Z" id="Shape"></path>
                <path d="M64.46191,30.1543 C64.1160621,28.5548077 63.1071864,27.1774551 61.68652,26.36524 L53.634,21.76636 C56.2502615,18.5612098 57.786413,14.6110724 58.02292,10.48047 C58.0225311,5.45008719 54.3141119,1.18970548 49.3318208,0.495784351 C44.3495297,-0.198136776 39.6180782,2.88676072 38.24313,7.72559 C38.0569916,8.38904703 38.4428735,9.07800886 39.1058392,9.26588962 C39.7688049,9.45377038 40.4587782,9.06969984 40.6484,8.40723 C41.6831403,4.76888071 45.2413046,2.44980909 48.987716,2.97199167 C52.7341274,3.49417425 55.5225209,6.69784223 55.52291,10.48047 C55.3070092,14.4060977 53.6922276,18.1245738 50.97109,20.96228 C50.8339472,21.040644 50.7134092,21.1450099 50.61623,21.26953 C49.8784842,21.934948 48.9344666,22.3266149 47.94234,22.37891 C47.2519841,22.37891 46.69234,22.9385541 46.69234,23.62891 C46.69234,24.3192659 47.2519841,24.87891 47.94234,24.87891 C49.308106,24.8455185 50.6280114,24.3794043 51.71187,23.54773 L60.44673,28.53613 C61.2512159,28.9958237 61.8223185,29.775876 62.01753,30.68164 L64.68066,43.04 C62.3065261,43.8445377 59.8506715,44.383952 57.35791,44.6484 C56.6729471,44.7349651 56.1878499,45.3604121 56.274415,46.045375 C56.3609801,46.7303379 56.9864271,47.2154351 57.67139,47.12887 C63.96139,46.33492 66.60157,44.95114 66.71094,44.89352 C67.2026728,44.6299643 67.4605685,44.072747 67.34326,43.52731 L64.46191,30.1543 Z" id="Shape"></path>
                <path d="M10.64209,44.64844 C8.14930637,44.3841057 5.69343795,43.8446749 3.31934,43.04 L5.98243,30.6816 C6.17788818,29.7755604 6.74910727,28.9952396 7.55372,28.53512 L16.288,23.54773 C17.3718764,24.3794138 18.6918039,24.8455284 20.05759,24.87891 C20.7479459,24.87891 21.30759,24.3192659 21.30759,23.62891 C21.30759,22.9385541 20.7479459,22.37891 20.05759,22.37891 C19.0655916,22.3266502 18.1216835,21.9350731 17.384,21.26978 C17.286553,21.1446472 17.1655422,21.0398108 17.0278,20.96119 C14.3073309,18.1235861 12.6929703,14.405571 12.47708,10.48048 C12.4774691,6.69785223 15.2658626,3.49418425 19.012274,2.97200167 C22.7586854,2.44981909 26.3168497,4.76889071 27.35159,8.40724 C27.5412118,9.06970984 28.2311851,9.45378038 28.8941508,9.26589962 C29.5571165,9.07801886 29.9429984,8.38905703 29.75686,7.7256 C28.3819118,2.88677072 23.6504603,-0.198126776 18.6681692,0.495794351 C13.6858781,1.18971548 9.97745887,5.45009719 9.97707,10.48048 C10.2135616,14.6110372 11.7496893,18.5611341 14.36592,21.76625 L6.31398,26.36425 C4.89319587,27.1768868 3.88420535,28.5544946 3.5381,30.15425 L0.65675,43.52725 C0.539441526,44.072687 0.797337187,44.6299043 1.28907,44.89346 C1.39845,44.95108 4.03858,46.33487 10.32862,47.12881 C11.0135829,47.2153751 11.6390299,46.7302779 11.725595,46.045315 C11.8121601,45.3603521 11.3270629,44.7349051 10.6421,44.64834 L10.64209,44.64844 Z" id="Shape"></path>
            </g>
        </g>
    </g>
</svg>