<?xml version="1.0" encoding="UTF-8"?>
<svg width="26px" height="26px" viewBox="0 0 26 26" version="1.1" xmlns="http://www.w3.org/2000/svg" xmlns:xlink="http://www.w3.org/1999/xlink">
    <!-- Generator: Sketch 52.6 (67491) - http://www.bohemiancoding.com/sketch -->
    <title>teamwork</title>
    <desc>Created with Sketch.</desc>
    <g id="Wrap-Around" stroke="none" stroke-width="1" fill="none" fill-rule="evenodd">
        <g transform="translate(-1012.000000, -3986.000000)" fill="#F2C744" fill-rule="nonzero" id="Group-12">
            <g transform="translate(1005.000000, 3981.000000)">
                <g id="teamwork" transform="translate(7.500000, 5.500000)">
                    <path d="M12.5,0 C11.1192708,0 10,1.11927083 10,2.5 C10,3.88072917 11.1192708,5 12.5,5 C13.8801563,4.99864583 14.9986458,3.88015625 15,2.5 C15,1.11927083 13.8807292,0 12.5,0 Z M12.5,4.16666667 C11.5795313,4.16666667 10.8333333,3.42046875 10.8333333,2.5 C10.8333333,1.57953125 11.5795313,0.833333333 12.5,0.833333333 C13.4204687,0.833333333 14.1666667,1.57953125 14.1666667,2.5 C14.1666667,3.42046875 13.4204687,4.16666667 12.5,4.16666667 Z" id="Shape"></path>
                    <path d="M15,5.41666667 L13.1608333,5.41666667 L12.5,6.0775 L11.8391667,5.41666667 L10,5.41666667 C9.30963542,5.41666667 8.75,5.97630208 8.75,6.66666667 L8.75,10 C8.75,10.6903646 9.30963542,11.25 10,11.25 L15,11.25 C15.6903646,11.25 16.25,10.6903646 16.25,10 L16.25,6.66666667 C16.25,5.97630208 15.6903646,5.41666667 15,5.41666667 Z M15.4166667,10 C15.4166667,10.2301042 15.2301042,10.4166667 15,10.4166667 L10,10.4166667 C9.76989583,10.4166667 9.58333333,10.2301042 9.58333333,10 L9.58333333,6.66666667 C9.58333333,6.4365625 9.76989583,6.25 10,6.25 L11.4941667,6.25 L12.5,7.25583333 L13.5058333,6.25 L15,6.25 C15.2301042,6.25 15.4166667,6.4365625 15.4166667,6.66666667 L15.4166667,10 Z" id="Shape"></path>
                    <path d="M21.25,13.75 C19.8692708,13.75 18.75,14.8692708 18.75,16.25 C18.7513542,17.6301563 19.8698437,18.7486458 21.25,18.75 C22.6307292,18.75 23.75,17.6307292 23.75,16.25 C23.75,14.8692708 22.6307292,13.75 21.25,13.75 Z M21.25,17.9166667 C20.3295312,17.9166667 19.5833333,17.1704688 19.5833333,16.25 C19.5833333,15.3295313 20.3295312,14.5833333 21.25,14.5833333 C22.1704688,14.5833333 22.9166667,15.3295313 22.9166667,16.25 C22.9166667,17.1704688 22.1704688,17.9166667 21.25,17.9166667 Z" id="Shape"></path>
                    <path d="M23.75,19.1666667 L21.9108333,19.1666667 L21.25,19.8275 L20.5891667,19.1666667 L18.75,19.1666667 C18.0596354,19.1666667 17.5,19.7263021 17.5,20.4166667 L17.5,23.75 C17.5,24.4403646 18.0596354,25 18.75,25 L23.75,25 C24.4403646,25 25,24.4403646 25,23.75 L25,20.4166667 C25,19.7263021 24.4403646,19.1666667 23.75,19.1666667 Z M24.1666667,23.75 C24.1666667,23.9801042 23.9801042,24.1666667 23.75,24.1666667 L18.75,24.1666667 C18.5198958,24.1666667 18.3333333,23.9801042 18.3333333,23.75 L18.3333333,20.4166667 C18.3333333,20.1865625 18.5198958,20 18.75,20 L20.2441667,20 L21.25,21.0058333 L22.2558333,20 L23.75,20 C23.9801042,20 24.1666667,20.1865625 24.1666667,20.4166667 L24.1666667,23.75 Z" id="Shape"></path>
                    <path d="M3.75,13.75 C2.36984375,13.7513542 1.25135417,14.8698437 1.25,16.25 C1.25,17.6307292 2.36927083,18.75 3.75,18.75 C5.13072917,18.75 6.25,17.6307292 6.25,16.25 C6.25,14.8692708 5.13072917,13.75 3.75,13.75 Z M3.75,17.9166667 C2.82953125,17.9166667 2.08333333,17.1704688 2.08333333,16.25 C2.08333333,15.3295313 2.82953125,14.5833333 3.75,14.5833333 C4.67046875,14.5833333 5.41666667,15.3295313 5.41666667,16.25 C5.41666667,17.1704688 4.67046875,17.9166667 3.75,17.9166667 Z" id="Shape"></path>
                    <path d="M6.25,19.1666667 L4.41083333,19.1666667 L3.75,19.8275 L3.08916667,19.1666667 L1.25,19.1666667 C0.559635417,19.1666667 0,19.7263021 0,20.4166667 L0,23.75 C0,24.4403646 0.559635417,25 1.25,25 L6.25,25 C6.94036458,25 7.5,24.4403646 7.5,23.75 L7.5,20.4166667 C7.5,19.7263021 6.94036458,19.1666667 6.25,19.1666667 Z M6.66666667,23.75 C6.66666667,23.9801042 6.48010417,24.1666667 6.25,24.1666667 L1.25,24.1666667 C1.01989583,24.1666667 0.833333333,23.9801042 0.833333333,23.75 L0.833333333,20.4166667 C0.833333333,20.1865625 1.01989583,20 1.25,20 L2.74416667,20 L3.75,21.0058333 L4.75583333,20 L6.25,20 C6.48010417,20 6.66666667,20.1865625 6.66666667,20.4166667 L6.66666667,23.75 Z" id="Shape"></path>
                    <path d="M7.79458333,9.28875 C7.631875,9.12609375 7.368125,9.12609375 7.20541667,9.28875 L4.28875,12.2054167 C4.12322917,12.3652604 4.11864583,12.6290625 4.27854167,12.7945833 C4.43838542,12.9601042 4.7021875,12.9646875 4.86770833,12.8047917 C4.87119792,12.8014583 4.87458333,12.7980208 4.87791667,12.7945833 L7.79458333,9.87791667 C7.95723958,9.71520833 7.95723958,9.45145833 7.79458333,9.28875 Z" id="Shape"></path>
                    <path d="M20.71125,12.2054167 L17.7945833,9.28875 C17.6290625,9.12885417 17.3653125,9.1334375 17.2054167,9.29895833 C17.0494792,9.46041667 17.0494792,9.71640625 17.2054167,9.87791667 L20.1220833,12.7945833 C20.2002083,12.8727083 20.3061458,12.9166667 20.4166667,12.9166667 C20.6467708,12.9166146 20.8332813,12.7300521 20.8332292,12.4998958 C20.8332292,12.3894792 20.7893229,12.2835417 20.71125,12.2054167 Z" id="Shape"></path>
                    <path d="M16.25,21.6666667 L8.75,21.6666667 C8.51989583,21.6666667 8.33333333,21.8532292 8.33333333,22.0833333 C8.33333333,22.3134375 8.51989583,22.5 8.75,22.5 L16.25,22.5 C16.4801042,22.5 16.6666667,22.3134375 16.6666667,22.0833333 C16.6666667,21.8532292 16.4801042,21.6666667 16.25,21.6666667 Z" id="Shape"></path>
                </g>
            </g>
        </g>
    </g>
</svg>