<?xml version="1.0" encoding="UTF-8"?>
<svg width="63px" height="63px" viewBox="0 0 63 63" version="1.1" xmlns="http://www.w3.org/2000/svg" xmlns:xlink="http://www.w3.org/1999/xlink">
    <!-- Generator: Sketch 52.6 (67491) - http://www.bohemiancoding.com/sketch -->
    <title>Group 4</title>
    <desc>Created with Sketch.</desc>
    <g id="Wrap-Around" stroke="none" stroke-width="1" fill="none" fill-rule="evenodd">
        <g transform="translate(-367.000000, -1583.000000)" fill="#FFFFFF" id="Group-4">
            <g transform="translate(367.000000, 1583.000000)">
                <g id="noun_people-network_1914163" fill-rule="nonzero">
                    <g id="Group" transform="translate(0.450000, 0.450000)">
                        <g id="Shape">
                            <path d="M18.253674,3.742146 L17.84133,2.86281 C19.015641,2.311983 20.235285,1.83195 21.466728,1.435131 L21.764808,2.3598 C20.572488,2.744199 19.390725,3.209328 18.253674,3.742146 Z M3.742146,43.845705 C3.209328,42.709275 2.744199,41.528133 2.359179,40.334571 L1.435131,40.632651 C1.83195,41.864094 2.312604,43.084359 2.862189,44.258049 L3.742146,43.845705 Z M1.450656,25.418772 L0.4968,25.236198 C0.253989,26.504901 0.089424,27.804654 0.006831,29.099439 L0.976212,29.160918 C1.056321,27.906498 1.215918,26.64711 1.450656,25.418772 Z M0,32.991246 C0.077625,34.286031 0.238464,35.587026 0.476307,36.85635 L1.430784,36.677502 C1.199772,35.447922 1.044522,34.187913 0.969381,32.933493 L0,32.991246 Z M62.1,29.108754 C62.022375,27.813969 61.861536,26.512974 61.623072,25.24365 L60.668595,25.423119 C60.899607,26.652699 61.054857,27.912708 61.130619,29.167128 L62.1,29.108754 Z M36.863802,0.4968 C35.594478,0.253989 34.294725,0.089424 32.99994,0.007452 L32.938461,0.976833 C34.192881,1.056321 35.451648,1.215918 36.680607,1.451277 L36.863802,0.4968 Z M29.167128,0.970002 L29.108754,0 C27.813969,0.077625 26.512974,0.238464 25.24365,0.476307 L25.423119,1.431405 C26.652699,1.200393 27.912087,1.045143 29.167128,0.970002 Z M44.259912,2.908764 C43.087464,2.354832 41.868441,1.869831 40.636998,1.468044 L40.335813,2.391471 C41.529375,2.780838 42.709275,3.250314 43.844463,3.786858 L44.259912,2.908764 Z M40.286754,59.7402 L40.584213,60.664248 C41.816277,60.266808 43.036542,59.786775 44.209611,59.236569 L43.797888,58.357233 C42.660837,58.890672 41.479695,59.355801 40.286754,59.7402 Z M58.313142,43.845084 L59.191236,44.259912 C59.745168,43.088706 60.229548,41.869683 60.631956,40.637619 L59.708529,40.336434 C59.318541,41.529996 58.849686,42.709896 58.313142,43.845084 Z M58.357854,18.253674 C58.890672,19.390725 59.355801,20.571867 59.740821,21.765429 L60.664869,21.467349 C60.267429,20.235906 59.787396,19.016262 59.237811,17.841951 L58.357854,18.253674 Z M60.649344,36.681228 L61.6032,36.863802 C61.846011,35.594478 62.009955,34.294725 62.092548,32.99994 L61.123167,32.938461 C61.0443,34.193502 60.884703,35.452269 60.649344,36.681228 Z M60.303447,51.906285 C60.303447,56.434617 56.619054,60.118389 52.090722,60.118389 C47.563011,60.118389 43.879239,56.434617 43.879239,51.906285 C43.879239,49.820346 44.66232,47.914497 45.948411,46.464462 L39.068973,39.584403 C34.612677,43.77429 27.653751,43.814655 23.152743,39.699909 L16.252812,46.599219 C17.469351,48.031866 18.205236,49.884309 18.205236,51.906285 C18.205236,56.434617 14.521464,60.118389 9.993132,60.118389 C5.4648,60.118389 1.781028,56.434617 1.781028,51.906285 C1.781028,47.377953 5.4648,43.694181 9.993132,43.694181 C12.150486,43.694181 14.114709,44.53191 15.581511,45.896868 L22.464054,39.014946 C18.293418,34.522632 18.304596,27.530793 22.496346,23.050899 L15.5871,16.148484 C14.119677,17.516547 12.15297,18.356139 9.993753,18.356139 C5.465421,18.356139 1.781649,14.672367 1.781649,10.144035 C1.781649,5.615703 5.465421,1.931931 9.993753,1.931931 C14.522085,1.931931 18.205857,5.615703 18.205857,10.144035 C18.205857,12.163527 17.471835,14.013486 16.258401,15.445512 L23.186277,22.36842 C27.647541,18.322605 34.498413,18.334404 38.947257,22.400712 L45.862092,15.485877 C44.628786,14.048883 43.880481,12.182778 43.880481,10.144035 C43.880481,5.615703 47.564253,1.931931 52.091964,1.931931 C56.620296,1.931931 60.304689,5.615703 60.304689,10.144035 C60.304689,14.672367 56.620296,18.356139 52.091964,18.356139 C49.951998,18.356139 48.000195,17.532072 46.537119,16.185123 L39.635946,23.085054 C43.758765,27.525204 43.798509,34.408368 39.751452,38.89323 L46.634616,45.777015 C48.087135,44.482851 49.998573,43.694181 52.091343,43.694181 C56.619675,43.694181 60.303447,47.377953 60.303447,51.906285 Z M56.533977,13.324176 C56.533977,12.561588 55.837836,10.173222 52.091343,10.173222 C48.859659,10.173222 47.649951,12.01635 47.649951,13.324176 L47.649951,15.855372 C47.984049,16.116192 48.341745,16.348446 48.719934,16.548408 L48.719934,13.25835 L49.691178,13.25835 L49.691178,16.973793 C51.30702,17.543871 53.073765,17.478666 54.512622,16.966962 L54.512622,13.25835 L55.483866,13.25835 L55.483866,16.539093 C55.853982,16.341615 56.205468,16.112466 56.533977,15.855993 L56.533977,13.324176 Z M52.091343,9.340461 C54.006507,9.340461 54.515727,7.56378 54.515727,6.916077 C54.515727,5.579064 53.428356,4.491693 52.091343,4.491693 C50.754951,4.491693 49.666959,5.579064 49.666959,6.915456 C49.666959,8.25309 50.75433,9.340461 52.091343,9.340461 Z M46.678086,14.944986 L46.678086,13.324176 C46.678086,11.548116 48.103281,9.957114 49.912875,9.518067 C49.169538,8.894583 48.695094,7.959978 48.695094,6.916077 C48.695094,5.043762 50.218407,3.520449 52.091343,3.520449 C53.964279,3.520449 55.487592,5.043762 55.487592,6.915456 C55.487592,8.60706 54.346194,9.455967 54.269811,9.520551 C56.825226,10.211103 57.505221,12.280896 57.505221,13.324176 L57.505221,14.944986 C58.64103,13.665726 59.332203,11.984679 59.332203,10.144035 C59.332203,6.151005 56.084373,2.903175 52.091343,2.903175 C48.098934,2.903175 44.851104,6.151005 44.851104,10.144035 C44.851104,11.984679 45.542898,13.666347 46.678086,14.944986 Z M14.435766,13.324176 C14.435766,12.410685 13.598658,10.173222 10.021698,10.173222 C6.71301,10.173222 5.551119,12.01635 5.551119,13.324176 L5.551119,15.855372 C5.885838,16.116192 6.243534,16.348446 6.621723,16.548408 L6.621723,13.25835 L7.592346,13.25835 L7.592346,16.973793 C9.306306,17.578026 10.9917,17.473077 12.41379,16.966962 L12.41379,13.25835 L13.385034,13.25835 L13.385034,16.539093 C13.755771,16.341615 14.106636,16.112466 14.435766,15.855993 L14.435766,13.324176 Z M9.992511,9.340461 C11.907675,9.340461 12.417516,7.56378 12.416895,6.916077 C12.416895,5.579064 11.329524,4.491693 9.993132,4.491693 C8.655498,4.491693 7.568127,5.579064 7.568127,6.915456 C7.568748,8.25309 8.656119,9.340461 9.992511,9.340461 Z M17.233992,10.144035 C17.233992,6.151005 13.986162,2.903175 9.993132,2.903175 C6.000102,2.903175 2.752272,6.151005 2.752272,10.144035 C2.752272,11.984679 3.444066,13.666347 4.579254,14.944986 L4.579254,13.324176 C4.579254,11.548116 6.004449,9.957114 7.813422,9.518067 C7.070085,8.894583 6.596883,7.959978 6.596262,6.916077 C6.596262,5.043762 8.119575,3.520449 9.99189,3.520449 C11.864826,3.520449 13.387518,5.043762 13.387518,6.915456 C13.387518,8.60706 12.246741,9.455967 12.169737,9.520551 C14.725773,10.211103 15.405768,12.280896 15.405768,13.324176 L15.405768,14.944986 C16.542198,13.666347 17.233992,11.984679 17.233992,10.144035 Z M14.435766,55.086426 C14.435766,54.323838 13.837743,51.983289 9.993753,51.983289 C6.683823,51.983289 5.551119,53.7786 5.551119,55.086426 L5.551119,57.617622 C5.885838,57.879063 6.243534,58.111317 6.621723,58.310658 L6.621723,55.0206 L7.592346,55.0206 L7.592346,58.736043 C9.236754,59.316057 10.888614,59.272587 12.41379,58.729212 L12.41379,55.0206 L13.385034,55.0206 L13.385034,58.301343 C13.755771,58.103865 14.106636,57.874095 14.435766,57.618243 L14.435766,55.086426 Z M9.992511,51.102711 C11.907675,51.102711 12.417516,49.32603 12.416895,48.678948 C12.416895,47.341935 11.329524,46.254564 9.993132,46.254564 C8.655498,46.254564 7.568127,47.341935 7.568127,48.678327 C7.568748,50.01534 8.656119,51.102711 9.992511,51.102711 Z M9.993132,44.665425 C6.000723,44.665425 2.752272,47.913876 2.752272,51.906285 C2.752272,53.74755 3.444066,55.429218 4.579254,56.707236 L4.579254,55.086426 C4.579254,53.310366 6.004449,51.719364 7.813422,51.280317 C7.070085,50.656833 6.596883,49.722228 6.596262,48.678948 C6.596262,46.806012 8.119575,45.28332 9.99189,45.28332 C11.864826,45.28332 13.387518,46.806012 13.387518,48.678327 C13.387518,50.370552 12.246741,51.219459 12.169737,51.283422 C14.725773,51.973353 15.405768,54.043767 15.405768,55.086426 L15.405768,56.707236 C16.541577,55.428597 17.23275,53.746929 17.23275,51.906285 C17.233992,47.913876 13.985541,44.665425 9.993132,44.665425 Z M37.72575,35.672103 C37.72575,33.630255 35.922366,30.878604 31.05,30.878604 C26.198127,30.878604 24.373629,33.630255 24.373629,35.672103 L24.373629,39.463308 C25.000218,39.961971 25.670277,40.379283 26.369523,40.717107 L26.369523,35.575848 L27.340767,35.575848 L27.340767,41.12883 C29.749626,42.01065 32.383287,42.006303 34.78842,41.117652 L34.78842,35.575227 L35.759043,35.575227 L35.759043,40.702824 C36.447732,40.367484 37.107855,39.95514 37.72575,39.463929 L37.72575,35.672103 Z M34.768548,26.344683 C34.768548,24.279237 33.094953,22.605642 31.029507,22.605642 C28.964061,22.605642 27.290466,24.279237 27.290466,26.344683 C27.290466,28.409508 28.964682,30.083724 31.029507,30.083724 C33.094332,30.083724 34.768548,28.410129 34.768548,26.344683 Z M38.646072,23.453307 C34.457427,19.264662 27.641952,19.264662 23.453307,23.453307 C19.282671,27.624564 19.266525,34.399674 23.402385,38.592666 L23.402385,35.672103 C23.402385,33.042789 25.642953,30.704724 28.390257,30.261951 C27.133353,29.413044 26.306181,27.975429 26.306181,26.344683 C26.306181,23.735862 28.420686,21.621357 31.029507,21.621357 C33.638328,21.621357 35.752212,23.735862 35.752212,26.344683 C35.752212,27.972324 34.929387,29.406834 33.67683,30.256362 C36.438417,30.685473 38.696994,33.032232 38.696994,35.672103 L38.696994,38.592666 C42.834096,34.400295 42.817329,27.624564 38.646072,23.453307 Z M56.533977,55.086426 C56.533977,54.323838 55.953963,51.974595 52.091343,51.974595 C48.817431,51.974595 47.649951,53.777979 47.649951,55.086426 L47.649951,57.617622 C47.984049,57.879063 48.341745,58.111317 48.719934,58.310658 L48.719934,55.0206 L49.691178,55.0206 L49.691178,58.736043 C51.333723,59.315436 52.899885,59.303016 54.512622,58.729212 L54.512622,55.0206 L55.483866,55.0206 L55.483866,58.301343 C55.853982,58.103865 56.205468,57.874095 56.533977,57.618243 L56.533977,55.086426 Z M52.091343,51.102711 C54.006507,51.102711 54.515727,49.32603 54.515727,48.678948 C54.515727,47.341935 53.428356,46.254564 52.091343,46.254564 C50.754951,46.254564 49.666959,47.341935 49.666959,48.678327 C49.666959,50.01534 50.75433,51.102711 52.091343,51.102711 Z M59.332203,51.906285 C59.332203,47.913876 56.084373,44.665425 52.091343,44.665425 C48.098934,44.665425 44.851104,47.913876 44.851104,51.906285 C44.851104,53.74755 45.542898,55.429218 46.678086,56.707236 L46.678086,55.086426 C46.678086,53.310366 48.103281,51.719364 49.912875,51.280317 C49.169538,50.656833 48.695094,49.722228 48.695094,48.678948 C48.695094,46.806012 50.218407,45.28332 52.091343,45.28332 C53.964279,45.28332 55.487592,46.806012 55.487592,48.678327 C55.487592,50.370552 54.346194,51.219459 54.269811,51.283422 C56.825226,51.973353 57.505221,54.043767 57.505221,55.086426 L57.505221,56.707236 C58.64103,55.429218 59.332203,53.74755 59.332203,51.906285 Z M3.786858,18.254916 L2.908764,17.839467 C2.354832,19.011294 1.870452,20.230317 1.468044,21.462381 L2.391471,21.763566 C2.780838,20.570625 3.249693,19.390104 3.786858,18.254916 Z M32.884434,61.130619 L32.943429,62.1 C34.237593,62.022375 35.538588,61.861536 36.808533,61.623072 L36.629685,60.668595 C35.398863,60.899607 34.139475,61.054857 32.884434,61.130619 Z M17.79165,59.191236 C18.963477,59.745789 20.1825,60.230169 21.414564,60.631956 L21.715749,59.708529 C20.522808,59.319162 19.342287,58.849686 18.207099,58.313142 L17.79165,59.191236 Z M25.18776,61.6032 C26.457084,61.846011 27.756837,62.010576 29.051001,62.092548 L29.11248,61.123167 C27.858681,61.043679 26.599293,60.884082 25.369713,60.648723 L25.18776,61.6032 Z"></path>
                        </g>
                    </g>
                </g>
                <circle id="Oval-11" cx="31.5" cy="26.7" r="3.9"></circle>
                <path d="M24.3308874,39.3526556 C24.3308874,39.3526556 23.3137215,33.2381243 26.700262,32.2382623 C28.9579557,31.5716876 30.6238908,31.1955168 31.6980675,31.1097499 L36.2264118,31.7570144 C37.1793298,32.6629355 37.8046093,33.351746 38.1022503,33.8234461 C38.3998913,34.2951462 38.7037537,35.0788354 39.0138376,36.1745137 L38.6730268,39.940736 C37.3549243,42.0491316 35.0299378,42.9627251 31.6980675,42.6815165 C26.700262,42.2597037 24.3308874,39.3526556 24.3308874,39.3526556 Z" id="Path-16"></path>
            </g>
        </g>
    </g>
</svg>