<?xml version="1.0" encoding="UTF-8"?>
<svg width="20px" height="20px" viewBox="0 0 20 20" version="1.1" xmlns="http://www.w3.org/2000/svg" xmlns:xlink="http://www.w3.org/1999/xlink">
    <!-- Generator: Sketch 52.6 (67491) - http://www.bohemiancoding.com/sketch -->
    <title>user</title>
    <desc>Created with Sketch.</desc>
    <g id="Wrap-Around" stroke="none" stroke-width="1" fill="none" fill-rule="evenodd">
        <g transform="translate(-1015.000000, -4206.000000)" fill="#F2C744" fill-rule="nonzero" id="Group-6">
            <g transform="translate(1005.000000, 4197.000000)">
                <g id="user" transform="translate(10.500000, 9.000000)">
                    <path d="M16.6443164,12.6056836 C15.5823662,11.5437715 14.3183701,10.7576396 12.9392783,10.2817559 C14.4163271,9.26444238 15.3867187,7.56188672 15.3867187,5.63671875 C15.3867187,2.52863965 12.8580791,0 9.75,0 C6.6419209,0 4.11328125,2.52863965 4.11328125,5.63671875 C4.11328125,7.56188672 5.08367285,9.26444238 6.56075977,10.2817559 C5.18166797,10.7576396 3.91767187,11.5437715 2.85572168,12.6056836 C1.01419043,14.4472529 0,16.8956836 0,19.5 L1.5234375,19.5 C1.5234375,14.9638506 5.21385059,11.2734375 9.75,11.2734375 C14.2861494,11.2734375 17.9765625,14.9638506 17.9765625,19.5 L19.5,19.5 C19.5,16.8956836 18.4858096,14.4472529 16.6443164,12.6056836 Z M9.75,9.75 C7.48194434,9.75 5.63671875,7.9048125 5.63671875,5.63671875 C5.63671875,3.368625 7.48194434,1.5234375 9.75,1.5234375 C12.0180557,1.5234375 13.8632812,3.368625 13.8632812,5.63671875 C13.8632812,7.9048125 12.0180557,9.75 9.75,9.75 Z" id="Shape"></path>
                </g>
            </g>
        </g>
    </g>
</svg>