<?xml version="1.0" encoding="UTF-8"?>
<svg width="20px" height="20px" viewBox="0 0 20 20" version="1.1"
    xmlns="http://www.w3.org/2000/svg"
    xmlns:xlink="http://www.w3.org/1999/xlink">
    <!-- Generator: Sketch 52.6 (67491) - http://www.bohemiancoding.com/sketch -->
    <title>skills</title>
    <desc>Created with Sketch.</desc>
    <g id="Wrap-Around" stroke="none" stroke-width="1" fill="none" fill-rule="evenodd">
        <g transform="translate(-1015.000000, -4104.000000)" fill="#F2C744" fill-rule="nonzero" id="Group-5">
            <g transform="translate(1005.000000, 4095.000000)">
                <g id="skills" transform="translate(10.000000, 9.000000)">
                    <path d="M5.90841046,5.37814889 L2.21187123,5.37814889 C0.999879276,5.37814889 0,6.49923541 0,7.89299799 L0,14.1952918 C0,14.3771026 0.121207243,14.4982696 0.302977867,14.4982696 L1.60583501,14.4982696 L1.60583501,18.9522736 C1.60583501,19.5279678 2.06032193,19.9824547 2.6360161,19.9824547 L5.51444668,19.9824547 C6.09014085,19.9824547 6.54462777,19.5279678 6.54462777,18.9522736 L6.54462777,14.5285714 L7.84748491,14.5285714 C8.02929577,14.5285714 8.15046278,14.4073642 8.15046278,14.2255936 L8.15046278,7.89299799 C8.15054326,6.49923541 7.15066398,5.37814889 5.90841046,5.37814889 Z M7.54454728,13.9225755 L6.54466801,13.9225755 L6.54466801,10.7108249 C6.54466801,10.5290141 6.42346076,10.4078471 6.24169014,10.4078471 C6.05991952,10.4078471 5.93871227,10.5290543 5.93871227,10.7108249 L5.93871227,18.9825755 C5.93871227,19.2249497 5.75690141,19.4067606 5.51452716,19.4067606 L4.36313883,19.4067606 L4.36313883,14.437666 C4.36313883,14.2558551 4.24193159,14.1346881 4.06016097,14.1346881 C3.87839034,14.1346881 3.7571831,14.2558954 3.7571831,14.437666 L3.7571831,19.4067606 L2.63605634,19.4067606 C2.39368209,19.4067606 2.21187123,19.2249497 2.21187123,18.9825755 L2.21187123,10.7108652 C2.21187123,10.5290543 2.09066398,10.4078873 1.90889336,10.4078873 C1.72712274,10.4078873 1.60591549,10.5290946 1.60591549,10.7108652 L1.60591549,13.9226157 L0.605995976,13.9226157 L0.605995976,7.89299799 C0.605995976,6.83251509 1.3331992,5.98414487 2.21187123,5.98414487 L5.90841046,5.98414487 C6.81738431,5.98414487 7.54458753,6.83251509 7.54458753,7.89299799 L7.54458753,13.9225755 L7.54454728,13.9225755 Z" id="Shape"></path>
                    <path d="M4.06012072,4.98426559 C5.42358149,4.98426559 6.54466801,3.86317907 6.54466801,2.49971831 C6.54466801,1.13625755 5.42358149,0.0151710262 4.06012072,0.0151710262 C2.69665996,0.0151710262 1.60587525,1.13625755 1.60587525,2.49971831 C1.60587525,3.86317907 2.69665996,4.98426559 4.06012072,4.98426559 Z M4.06012072,0.621126761 C5.09030181,0.621126761 5.93867203,1.46949698 5.93867203,2.49967807 C5.93867203,3.52985915 5.09030181,4.37822938 4.06012072,4.37822938 C3.02993964,4.37822938 2.18156942,3.52985915 2.18156942,2.49967807 C2.21187123,1.46953722 3.02993964,0.621126761 4.06012072,0.621126761 Z" id="Shape"></path>
                    <path d="M16.4525956,8.74140845 C16.6041046,9.58977867 17.3312676,10.2260765 18.2099799,10.2260765 C19.2098592,10.2260765 19.997666,9.43830986 19.997666,8.43839034 C19.997666,7.43851107 19.1795976,6.65070423 18.2099799,6.65070423 C17.3313078,6.65070423 16.6041046,7.28700201 16.4525956,8.13537223 L13.1196378,8.13537223 L13.1196378,3.95408451 L16.4525956,3.95408451 C16.6041046,4.80245473 17.3312676,5.43875252 18.2099799,5.43875252 C19.2098592,5.43875252 19.997666,4.65098592 19.997666,3.6510664 C19.997666,2.65118712 19.1795976,1.86338028 18.2099799,1.86338028 C17.3313078,1.86338028 16.6041046,2.49967807 16.4525956,3.34804829 L12.81666,3.34804829 C12.6348491,3.34804829 12.5136821,3.46925553 12.5136821,3.65102616 L12.5136821,10.4987123 L11.2713883,10.4987123 L11.2713883,7.22635815 C11.2713883,7.04454728 11.1501811,6.92338028 10.9684105,6.92338028 L9.05955734,6.92338028 C8.87774648,6.92338028 8.75657948,7.04458753 8.75657948,7.22635815 C8.75657948,7.40816901 8.87778672,7.52933602 9.05955734,7.52933602 L10.6654326,7.52933602 L10.6654326,14.074004 L9.05955734,14.074004 C8.87774648,14.074004 8.75657948,14.1952113 8.75657948,14.3769819 C8.75657948,14.5587525 8.87778672,14.6799598 9.05955734,14.6799598 L10.9684105,14.6799598 C11.1502213,14.6799598 11.2713883,14.5587525 11.2713883,14.3769819 L11.2713883,11.1046278 L12.5136821,11.1046278 L12.5136821,17.9826157 C12.5136821,18.1644266 12.6348893,18.2855936 12.81666,18.2855936 L16.4525956,18.2855936 C16.6041046,19.1339638 17.3312676,19.7702616 18.2099799,19.7702616 C19.2098592,19.7702616 19.997666,18.982495 19.997666,17.9825755 C19.997666,16.9826559 19.1795976,16.1948893 18.2099799,16.1948893 C17.3313078,16.1948893 16.6041046,16.8311871 16.4525956,17.6795573 L13.1196378,17.6795573 L13.1196378,13.4983903 L16.4525956,13.4983903 C16.6041046,14.3467606 17.3312676,14.9830584 18.2099799,14.9830584 C19.2098592,14.9830584 19.997666,14.1952918 19.997666,13.1953722 C19.997666,12.195493 19.1795976,11.4076861 18.2099799,11.4076861 C17.3313078,11.4076861 16.6041046,12.0439839 16.4525956,12.8923541 L13.1196378,12.8923541 L13.1196378,8.74140845 L16.4525956,8.74140845 Z M18.2099799,7.2567002 C18.8765795,7.2567002 19.39167,7.77179074 19.39167,8.43839034 C19.39167,9.10498994 18.8462777,9.62008048 18.2099799,9.62008048 C17.5433803,9.62008048 17.0282897,9.10498994 17.0282897,8.43839034 C17.0282897,7.77179074 17.5433803,7.2567002 18.2099799,7.2567002 Z M18.2099799,2.4694165 C18.8765795,2.4694165 19.39167,2.98450704 19.39167,3.65110664 C19.39167,4.31770624 18.8462777,4.83279678 18.2099799,4.83279678 C17.5433803,4.83279678 17.0282897,4.31770624 17.0282897,3.65110664 C17.0282897,2.98450704 17.5433803,2.4694165 18.2099799,2.4694165 Z M18.2099799,16.8010463 C18.8765795,16.8010463 19.39167,17.3161368 19.39167,17.9827364 C19.39167,18.649336 18.8462777,19.1644266 18.2099799,19.1644266 C17.5433803,19.1644266 17.0282897,18.649336 17.0282897,17.9827364 C17.0282897,17.3161368 17.5433803,16.8010463 18.2099799,16.8010463 Z M18.2099799,12.0137223 C18.8765795,12.0137223 19.39167,12.5288129 19.39167,13.1954125 C19.39167,13.8620121 18.8462777,14.3771026 18.2099799,14.3771026 C17.5433803,14.3771026 17.0282897,13.8620121 17.0282897,13.1954125 C17.0282897,12.5288129 17.5433803,12.0137223 18.2099799,12.0137223 Z" id="Shape"></path>
                </g>
            </g>
        </g>
    </g>
</svg>
