<?xml version="1.0" encoding="UTF-8"?>
<svg width="40px" height="47px" viewBox="0 0 40 47" version="1.1"
    xmlns="http://www.w3.org/2000/svg"
    xmlns:xlink="http://www.w3.org/1999/xlink">
    <!-- Generator: Sketch 52.6 (67491) - http://www.bohemiancoding.com/sketch -->
    <title>noun_Mental Health_66159_000000</title>
    <desc>Created with Sketch.</desc>
    <g id="About" stroke="none" stroke-width="1" fill="none" fill-rule="evenodd">
        <g transform="translate(-1219.000000, -979.000000)" fill="#4C9C2E" fill-rule="nonzero" id="noun_Mental-Health_66159_000000">
            <g transform="translate(1219.000000, 979.000000)">
                <path d="M38.7724675,22.5824556 L33.6223377,22.5824556 C33.1844156,22.5824556 32.8301299,22.2257778 32.8301299,21.7860667 C32.8301299,21.3463556 33.1849351,20.9896778 33.6223377,20.9896778 L38.7724675,20.9896778 C39.2103896,20.9896778 39.5646753,21.3463556 39.5646753,21.7860667 C39.5646753,22.2257778 39.2103896,22.5824556 38.7724675,22.5824556 Z" id="Shape"></path>
                <path d="M20.7875325,6.90534444 C20.3501299,6.90534444 19.9953247,6.54866667 19.9953247,6.10895556 L19.9953247,0.931644444 C19.9953247,0.491933333 20.3501299,0.135255556 20.7875325,0.135255556 C21.2249351,0.135255556 21.5797403,0.491933333 21.5797403,0.931644444 L21.5797403,6.10895556 C21.5797403,6.54866667 21.2249351,6.90534444 20.7875325,6.90534444 Z" id="Shape"></path>
                <path d="M32.7438961,15.0958778 C32.4280519,15.0958778 32.1288312,14.9042222 32.0062338,14.5903667 C31.8462338,14.1809444 32.0467532,13.7187778 32.4535065,13.5574111 L37.0046753,11.7583556 C37.4119481,11.5980333 37.8722078,11.7985667 38.0327273,12.2079889 C38.1927273,12.6174111 37.9922078,13.0795778 37.5854545,13.2409444 L33.0337662,15.04 C32.9387013,15.0776 32.8405195,15.0958778 32.7438961,15.0958778 Z" id="Shape"></path>
                <path d="M28.5033766,9.16343333 C28.3444156,9.16343333 28.1844156,9.11591111 28.0451948,9.01616667 C27.6877922,8.76184444 27.6041558,8.26468889 27.8576623,7.90592222 L30.8384416,3.68427778 C31.0924675,3.32551111 31.587013,3.24143333 31.9433766,3.49575556 C32.3007792,3.75007778 32.3844156,4.24723333 32.1309091,4.606 L29.1501299,8.82764444 C28.9953247,9.04697778 28.7516883,9.16343333 28.5033766,9.16343333 Z" id="Shape"></path>
                <path d="M24.3184416,35.4917889 C22.1875325,33.0822556 31.0774026,31.1286222 31.0774026,21.7855444 C31.0774026,9.26996667 22.0135065,9.11591111 20.1080519,9.11591111 C18.2025974,9.11591111 9.1387013,10.2261556 9.1387013,21.7855444 C9.1387013,31.1286222 18.0285714,33.0822556 15.8976623,35.4917889 C13.0893506,38.6674222 3.37714286,34.6687667 3.37714286,47 L20.1080519,47 L36.838961,47 C36.8394805,34.6687667 27.1272727,38.6674222 24.3184416,35.4917889 Z M20.094026,24.9758 C19.0103896,24.3757667 16.0753247,22.4143 15.905974,19.8611556 C15.7080519,16.8782222 19.5205195,17.2772 20.094026,19.4872444 C20.6675325,17.2766778 24.48,16.8782222 24.2820779,19.8611556 C24.1127273,22.4137778 21.1776623,24.3757667 20.094026,24.9758 Z" id="Shape"></path>
                <path d="M6.3761039,22.5824556 L1.22649351,22.5824556 C0.789090909,22.5824556 0.434285714,22.2257778 0.434285714,21.7860667 C0.434285714,21.3463556 0.789090909,20.9896778 1.22649351,20.9896778 L6.3761039,20.9896778 C6.81350649,20.9896778 7.16831169,21.3463556 7.16831169,21.7860667 C7.16831169,22.2257778 6.81350649,22.5824556 6.3761039,22.5824556 Z" id="Shape"></path>
                <path d="M7.25506494,15.0958778 C7.15844156,15.0958778 7.06025974,15.0781222 6.96519481,15.0405222 L2.41402597,13.2414667 C2.00675325,13.0806222 1.80623377,12.6179333 1.96675325,12.2085111 C2.12727273,11.7990889 2.58701299,11.5975111 2.99428571,11.7588778 L7.54545455,13.5579333 C7.95272727,13.7187778 8.15324675,14.1814667 7.99272727,14.5908889 C7.86961039,14.9037 7.57090909,15.0958778 7.25506494,15.0958778 Z" id="Shape"></path>
                <path d="M13.0550649,8.64068889 C12.8067532,8.64068889 12.5625974,8.52371111 12.4083117,8.3049 L9.42753247,4.08325556 C9.17402597,3.72448889 9.25818182,3.22733333 9.61506494,2.97301111 C9.97246753,2.71816667 10.4664935,2.80276667 10.7194805,3.16153333 L13.7002597,7.38317778 C13.9537662,7.74194444 13.8696104,8.2391 13.5127273,8.49342222 C13.374026,8.59316667 13.214026,8.64068889 13.0550649,8.64068889 Z" id="Shape"></path>
            </g>
        </g>
    </g>
</svg>
