<?xml version="1.0" encoding="UTF-8"?>
<svg width="38px" height="48px" viewBox="0 0 38 48" version="1.1" xmlns="http://www.w3.org/2000/svg" xmlns:xlink="http://www.w3.org/1999/xlink">
    <!-- Generator: Sketch 52.6 (67491) - http://www.bohemiancoding.com/sketch -->
    <title>noun_care_1862777_000000 copy</title>
    <desc>Created with Sketch.</desc>
    <g id="About" stroke="none" stroke-width="1" fill="none" fill-rule="evenodd">
        <g transform="translate(-846.000000, -981.000000)" fill="#4C9C2E" fill-rule="nonzero" id="noun_care_1862777_000000-copy">
            <g transform="translate(846.000000, 981.000000)">
                <circle id="Oval" cx="26.5" cy="8.75" r="2.05"></circle>
                <path d="M24.75,17.55 L25.2,17.55 L25.2,22.85 C25.2,23.4 25.65,23.85 26.2,23.85 L26.85,23.85 C27.4,23.85 27.85,23.4 27.85,22.85 L27.85,17.55 L28.3,17.55 C28.8,17.55 29.2,17.15 29.2,16.65 L29.2,13.4 C29.2,12.3 28.3,11.35 27.15,11.35 L26,11.35 C24.9,11.35 23.95,12.25 23.95,13.4 L23.95,16.65 C23.9,17.15 24.3,17.55 24.75,17.55 Z" id="Shape"></path>
                <circle id="Oval" cx="34.05" cy="8.75" r="2.05"></circle>
                <path d="M37.85,18.6 L36.4,16.25 L36.4,13.4 C36.4,12.3 35.5,11.35 34.35,11.35 L33.75,11.35 C32.65,11.35 31.7,12.25 31.7,13.4 L31.7,16.25 L30.25,18.6 C29.95,19.1 30.3,19.75 30.9,19.75 L32.7,19.75 L32.7,22.85 C32.7,23.4 33.15,23.85 33.7,23.85 L34.35,23.85 C34.9,23.85 35.35,23.4 35.35,22.85 L35.35,19.75 L37.15,19.75 C37.8,19.75 38.15,19.1 37.85,18.6 Z" id="Shape"></path>
                <path d="M33.1,27.85 C30.25,28.5 25.15,29.15 23.35,28.6 C22.6,28.25 20.75,26.2 19.75,25.1 C18.8,24.05 17.9,23.1 17.05,22.3 C15.6,20.85 14.45,19.85 12.35,19.3 C9.8,18.65 3.4,17.9 1.6,22.15 C-0.3,26.6 1.55084279e-15,38.2 0.1,46.45 C0.1,47.15 0.55,47.75 1.3,47.75 C3.05,47.75 14.15,47.75 14.95,47.75 C15.75,47.75 16.1,47.3 16.15,46.65 C16.2,46.2 16.65,38.35 16.95,32.75 C18.25,34 19.55,35.05 21,35.5 C22.35,35.95 23.95,36.1 25.6,36.1 C29.5,36.1 33.6,35.25 34.65,35 C36.6,34.55 37.85,32.6 37.4,30.65 C37.05,28.65 35.1,27.4 33.1,27.85 Z" id="Shape"></path>
                <circle id="Oval" cx="9.55" cy="8.55" r="8.3"></circle>
            </g>
        </g>
    </g>
</svg>