<?xml version="1.0" encoding="UTF-8"?>
<svg width="43px" height="44px" viewBox="0 0 43 44" version="1.1"
    xmlns="http://www.w3.org/2000/svg"
    xmlns:xlink="http://www.w3.org/1999/xlink">
    <!-- Generator: Sketch 52.6 (67491) - http://www.bohemiancoding.com/sketch -->
    <title>phone-receiver</title>
    <desc>Created with Sketch.</desc>
    <g id="Symbols" stroke="none" stroke-width="1" fill="none" fill-rule="evenodd">
        <g id="Footer" transform="translate(-451.000000, -395.000000)" fill="#F2C744" fill-rule="nonzero">
            <g id="Group-8">
                <g id="Group-9" transform="translate(345.000000, 110.000000)">
                    <g id="phone-receiver" transform="translate(106.000000, 285.000000)">
                        <path d="M42.9795041,34.1080215 C43.0706207,34.8100958 42.8578914,35.4205302 42.3422087,35.9393246 L36.2879026,41.9824006 C36.014776,42.2876178 35.6582684,42.5472769 35.2182312,42.7607045 C34.7781939,42.9744313 34.3458178,43.1117791 33.921103,43.1727477 C33.8907556,43.1727477 33.7994902,43.1806026 33.6476789,43.1958634 C33.496165,43.2110495 33.2989069,43.2188295 33.0561277,43.2188295 C32.4793784,43.2188295 31.5461215,43.1196339 30.256357,42.9211679 C28.9665925,42.722702 27.3886022,42.2342796 25.5223859,41.4561254 C23.6557233,40.6778216 21.5390666,39.5102162 19.1720438,37.9537581 C16.8050211,36.3973748 14.2861126,34.2607049 11.6155414,31.544197 C9.49122348,29.4381984 7.73107433,27.4237649 6.33509396,25.5009714 C4.9391136,23.5780283 3.81625983,21.8001381 2.96653265,20.1672261 C2.11673109,18.5343141 1.47943571,17.0540107 1.05457212,15.7263159 C0.629708534,14.3986211 0.341408241,13.2540567 0.189671245,12.2926225 C0.037934249,11.3311883 -0.0227605494,10.5757758 0.0075868498,10.0263848 C0.037934249,9.47699388 0.0531079486,9.17177669 0.0531079486,9.11073325 C0.113802747,8.68342918 0.250366043,8.24849468 0.462797838,7.80592974 C0.675229632,7.36336481 0.933182526,7.00473461 1.23665652,6.73003913 L7.29096266,0.640956108 C7.71582625,0.213652036 8.20138464,0 8.74763782,0 C9.14215401,0 9.4911491,0.114456448 9.79462309,0.343369344 C10.0980971,0.572282239 10.35605,0.854608144 10.5684818,1.19034706 L15.4392393,10.4842106 C15.7123659,10.9725581 15.7882344,11.5066882 15.6668448,12.0866009 C15.5454552,12.6665136 15.2875023,13.1548611 14.8929862,13.5516434 L12.6624523,15.7949898 C12.6017575,15.8560332 12.5486496,15.9552288 12.5031285,16.0925766 C12.4576074,16.2299243 12.4348468,16.3443808 12.4348468,16.4359459 C12.5562364,17.076902 12.829363,17.8094233 13.2542266,18.6335097 C13.6183954,19.366031 14.1798223,20.2587913 14.9385073,21.3117906 C15.6971922,22.3647899 16.7745249,23.5779534 18.1705053,24.9514308 C19.5361382,26.3555795 20.7500342,27.4465814 21.8121932,28.2250348 C22.874129,29.0030395 23.762088,29.5755461 24.4752518,29.9418068 C25.1884157,30.3080674 25.7346689,30.5293499 26.113937,30.6054297 L26.682802,30.719961 C26.7434968,30.719961 26.842349,30.6969949 26.9787635,30.6512871 C27.1153268,30.6054297 27.2139559,30.5520915 27.274725,30.4909733 L29.8693533,27.8355837 C30.415904,27.347311 31.0529019,27.1031372 31.7813138,27.1031372 C32.2973684,27.1031372 32.7068351,27.1946276 33.0103091,27.3778327 L33.0557558,27.3778327 L41.8412535,32.5970467 C42.478772,32.9941283 42.8580401,33.4975871 42.9795041,34.1080215 Z" id="Shape"></path>
                    </g>
                </g>
            </g>
        </g>
    </g>
</svg>
