<?xml version="1.0" encoding="UTF-8"?>
<svg width="36px" height="32px" viewBox="0 0 36 32" version="1.1"
    xmlns="http://www.w3.org/2000/svg"
    xmlns:xlink="http://www.w3.org/1999/xlink">
    <!-- Generator: Sketch 52.6 (67491) - http://www.bohemiancoding.com/sketch -->
    <title>noun_plan_1528209_4c9c2e</title>
    <desc>Created with Sketch.</desc>
    <g id="Wrap-Around" stroke="none" stroke-width="1" fill="none" fill-rule="evenodd">
        <g transform="translate(-1023.000000, -2652.000000)" fill="#B9B9B9" fill-rule="nonzero" id="noun_plan_1528209_4c9c2e">
            <g transform="translate(1023.000000, 2652.000000)">
                <path d="M30.5052,4.12921519 C27.4704,4.12921519 25.0104,6.62035443 25.0104,9.69356962 C25.0104,12.7667848 27.4704,15.2579241 30.5052,15.2579241 C33.54,15.257519 36,12.7663797 36,9.69316456 C36,6.61994937 33.54,4.12921519 30.5052,4.12921519 Z M30.5052,13.4768608 C28.4448,13.4768608 26.7688,11.7796456 26.7688,9.69316456 C26.7688,7.60668354 28.4448,5.90946835 30.5052,5.90946835 C32.5656,5.90946835 34.2416,7.60668354 34.2416,9.69316456 C34.2416,11.7796456 32.5656,13.4768608 30.5052,13.4768608 Z" id="Shape"></path>
                <path d="M2.1968,19.8865823 C2.3724,20.0648101 2.6032,20.1539241 2.8336,20.1539241 C3.064,20.1539241 3.2948,20.0648101 3.4704,19.8865823 L7.4276,15.8792911 L11.3848,19.8865823 C11.5608,20.0648101 11.7912,20.1539241 12.0216,20.1539241 C12.252,20.1539241 12.4824,20.0648101 12.6584,19.8865823 C13.0104,19.5301266 13.0104,18.9529114 12.6584,18.5968608 L8.7012,14.5895696 L12.6584,10.5822785 C13.0104,10.2262278 13.0104,9.64860759 12.6584,9.29255696 C12.3064,8.93610127 11.7364,8.93610127 11.3848,9.29255696 L7.4276,13.2998481 L3.4704,9.29255696 C3.1188,8.93610127 2.548,8.93610127 2.1968,9.29255696 C1.8448,9.64860759 1.8448,10.2262278 2.1968,10.5822785 L6.154,14.5895696 L2.1968,18.5968608 C1.8452,18.9533165 1.8452,19.5305316 2.1968,19.8865823 Z" id="Shape"></path>
                <path d="M30.2416,21.1345823 C29.8896,20.7781266 29.3196,20.7781266 28.968,21.1345823 L25.0108,25.1418734 L21.0536,21.1345823 C20.702,20.7781266 20.1312,20.7781266 19.78,21.1345823 C19.428,21.4906329 19.428,22.0682532 19.78,22.4243038 L23.7372,26.4315949 L19.78,30.4388861 C19.428,30.7953418 19.428,31.372557 19.78,31.7286076 C19.9556,31.9068354 20.1864,31.9959494 20.4168,31.9959494 C20.6472,31.9959494 20.878,31.9068354 21.0536,31.7286076 L25.0108,27.7213165 L28.968,31.7286076 C29.144,31.9068354 29.3744,31.9959494 29.6048,31.9959494 C29.8352,31.9959494 30.0656,31.9068354 30.2416,31.7286076 C30.5936,31.3721519 30.5936,30.7949367 30.2416,30.4388861 L26.2844,26.4315949 L30.2416,22.4243038 C30.5932,22.0682532 30.5932,21.4906329 30.2416,21.1345823 Z" id="Shape"></path>
                <path d="M22.9424,5.83412658 L22.9268,3.27088608 L19.9276,0.270987342 L16.9652,3.3081519 L16.9808,5.87139241 L19.0964,3.70106329 C19.0152,13.3585823 16.8712,20.4188354 12.706,24.6869873 C8.9416,28.544 4.1968,29.3537215 0.8792,29.3537215 C0.3936,29.3533165 0,29.7518987 0,30.2436456 C0,30.7353924 0.3936,31.1339747 0.8792,31.1339747 C4.5316,31.1339747 9.7656,30.2323038 13.9564,25.9382278 C18.4492,21.3350886 20.7632,13.8681519 20.8536,3.744 L22.9424,5.83412658 Z" id="Shape"></path>
            </g>
        </g>
    </g>
</svg>
