<?xml version="1.0" encoding="UTF-8"?>
<svg width="83px" height="83px" viewBox="0 0 83 83" version="1.1"
    xmlns="http://www.w3.org/2000/svg"
    xmlns:xlink="http://www.w3.org/1999/xlink">
    <!-- Generator: Sketch 50 (54983) - http://www.bohemiancoding.com/sketch -->
    <title>noun_team_1132385</title>
    <desc>Created with Sketch.</desc>
    <defs></defs>
    <g id="Wrap-Around" stroke="none" stroke-width="1" fill="none" fill-rule="evenodd">
        <g transform="translate(-1208.000000, -3829.000000)" id="noun_team_1132385">
            <g transform="translate(1205.000000, 3826.000000)">
                <rect id="Rectangle-path" x="0.5" y="0.5" width="88.32" height="88.32"></rect>
                <path d="M79.16,3.95 L44.66,3.95 L10.16,3.95 C6.73622,3.95 3.95,6.73622 3.95,10.16 L3.95,44.66 L3.95,79.16 C3.95,82.58378 6.73622,85.37 10.16,85.37 L44.66,85.37 L79.16,85.37 C82.58378,85.37 85.37,82.58378 85.37,79.16 L85.37,44.66 L85.37,10.16 C85.37,6.73622 82.58378,3.95 79.16,3.95 Z M44.93048,18.82157 C45.18509,18.71324 45.35,18.46346 45.35,18.18677 L45.35,5.33 L79.16,5.33 C81.8234,5.33 83.99,7.4966 83.99,10.16 L83.99,43.97 L72.59051,43.97 C73.61999,42.49616 74.22374,40.76012 74.31689,38.95508 C74.45006,36.39104 73.48889,33.81251 71.6804,31.88189 C69.87467,29.95334 67.36928,28.82657 64.80731,28.79138 C62.21498,28.75412 59.74271,29.74289 57.8873,31.57208 C56.03189,33.40196 55.01,35.84456 55.01,38.45 C55.01,40.4441 55.61927,42.35816 56.74811,43.97 L45.35,43.97 L45.35,31.11323 C45.35,30.83654 45.18509,30.58676 44.93048,30.47843 C44.67725,30.3701 44.38193,30.42323 44.18252,30.61574 C42.62933,32.10821 40.59314,32.93 38.45,32.93 C36.21647,32.93 34.12301,32.0537 32.55464,30.46394 C32.35868,30.26522 32.17376,30.05822 32.00057,29.84432 C30.78824,28.34495 30.14378,26.48816 30.17138,24.53201 C30.20174,22.34333 31.16912,20.19812 32.82512,18.647 C34.48457,17.09312 36.69326,16.27271 38.88401,16.38104 C40.86155,16.48316 42.74318,17.3015 44.18252,18.68426 C44.38193,18.87608 44.67587,18.92921 44.93048,18.82157 Z M5.33,10.16 C5.33,7.4966 7.4966,5.33 10.16,5.33 L43.97,5.33 L43.97,16.72949 C42.49616,15.70001 40.76012,15.09626 38.95508,15.00311 C36.39104,14.86787 33.81251,15.83111 31.88189,17.6396 C29.95334,19.44533 28.82657,21.95072 28.79138,24.51269 C28.7555,27.11951 29.74289,29.57729 31.57208,31.4327 C33.40196,33.28811 35.84456,34.31 38.45,34.31 C40.4441,34.31 42.35816,33.70073 43.97,32.57189 L43.97,43.97 L31.11323,43.97 C30.83654,43.97 30.58676,44.13491 30.47843,44.38952 C30.3701,44.64413 30.42392,44.93807 30.61574,45.13748 C32.10821,46.69067 32.93,48.72686 32.93,50.87 C32.93,53.10353 32.0537,55.19699 30.46394,56.76536 C28.87418,58.33304 26.78555,59.18519 24.53201,59.14862 C22.34333,59.11826 20.19812,58.15088 18.647,56.49488 C17.09381,54.83612 16.26788,52.62743 16.38104,50.43599 C16.48316,48.45845 17.3015,46.57682 18.68426,45.13748 C18.87608,44.93807 18.9299,44.64344 18.82157,44.38883 C18.71324,44.13491 18.46346,43.97 18.18677,43.97 L5.33,43.97 L5.33,10.16 Z M44.38952,70.49843 C44.13491,70.60676 43.97,70.85654 43.97,71.13323 L43.97,83.99 L10.16,83.99 C7.4966,83.99 5.33,81.8234 5.33,79.16 L5.33,45.35 L16.72949,45.35 C15.70001,46.82384 15.09626,48.55988 15.00311,50.36492 C14.86994,52.92896 15.83111,55.50749 17.6396,57.43811 C19.44533,59.36666 21.95072,60.49343 24.51269,60.52862 C24.55892,60.53 24.60515,60.53 24.65138,60.53 C24.79628,60.53 24.93773,60.51551 25.08194,60.5093 C25.2365,60.5024 25.39175,60.50102 25.54493,60.48722 C25.70639,60.47273 25.86509,60.44513 26.02448,60.42305 C26.17835,60.40097 26.33291,60.3851 26.48471,60.35543 C26.64686,60.32438 26.80487,60.28091 26.96495,60.24158 C27.10985,60.2057 27.25613,60.17603 27.39896,60.13394 C27.56594,60.08495 27.72809,60.02216 27.89162,59.9642 C28.02272,59.91797 28.15589,59.87726 28.28423,59.82551 C28.45673,59.75582 28.62233,59.67233 28.79069,59.59229 C28.90523,59.53778 29.02322,59.49017 29.13569,59.43083 C29.31026,59.33906 29.47793,59.2328 29.64698,59.12999 C29.74703,59.06927 29.85053,59.01545 29.94851,58.95128 C30.13136,58.83122 30.30524,58.69598 30.4805,58.56281 C30.55778,58.50347 30.63989,58.45172 30.71579,58.39031 C30.9635,58.18952 31.20293,57.97631 31.4327,57.7493 C33.28811,55.91804 34.31,53.47544 34.31,50.87 C34.31,48.8759 33.70073,46.96184 32.57189,45.35 L43.97,45.35 L43.97,58.20677 C43.97,58.48346 44.13491,58.73324 44.38952,58.84157 C44.64413,58.94921 44.93876,58.89677 45.13817,58.70426 C46.69136,57.21179 48.72686,56.39 50.87,56.39 C53.10353,56.39 55.19699,57.2663 56.76536,58.85606 C56.96132,59.05478 57.14624,59.26178 57.31943,59.47568 C58.53176,60.97505 59.17622,62.83184 59.14862,64.78799 C59.11826,66.97667 58.15088,69.12188 56.49488,70.673 C54.83543,72.22619 52.62605,73.05005 50.43599,72.93896 C48.45845,72.83684 46.57682,72.0185 45.13748,70.63574 C44.93876,70.44392 44.64413,70.3901 44.38952,70.49843 Z M83.99,79.16 C83.99,81.8234 81.8234,83.99 79.16,83.99 L45.35,83.99 L45.35,72.59051 C46.82384,73.61999 48.55988,74.22374 50.36492,74.31689 C52.92758,74.44661 55.5068,73.48889 57.43811,71.6804 C59.36666,69.87467 60.49343,67.36928 60.52862,64.80731 C60.5645,62.20049 59.57711,59.74271 57.74792,57.8873 C55.91804,56.03189 53.47544,55.01 50.87,55.01 C48.8759,55.01 46.96184,55.61927 45.35,56.74811 L45.35,45.35 L58.20677,45.35 C58.48346,45.35 58.73324,45.18509 58.84157,44.93048 C58.9499,44.67587 58.89608,44.38124 58.70426,44.18183 C57.21179,42.62864 56.39,40.59314 56.39,38.45 C56.39,36.21647 57.2663,34.12301 58.85606,32.55464 C60.44651,30.98696 62.54549,30.13964 64.78799,30.17138 C66.97667,30.20174 69.12188,31.16912 70.673,32.82512 C72.22619,34.48388 73.05212,36.69257 72.93896,38.88401 C72.83684,40.86155 72.0185,42.74318 70.63574,44.18252 C70.44392,44.38193 70.3901,44.67656 70.49843,44.93117 C70.60676,45.18578 70.85654,45.35069 71.13323,45.35069 L83.99,45.35069 L83.99,79.16 Z" id="Shape" stroke="#F2C744" fill="#F2C744" fill-rule="nonzero"></path>
            </g>
        </g>
    </g>
</svg>
