<?xml version="1.0" encoding="UTF-8"?>
<svg width="86px" height="65px" viewBox="0 0 86 65" version="1.1"
    xmlns="http://www.w3.org/2000/svg"
    xmlns:xlink="http://www.w3.org/1999/xlink">
    <!-- Generator: Sketch 52.6 (67491) - http://www.bohemiancoding.com/sketch -->
    <title>“</title>
    <desc>Created with Sketch.</desc>
    <g id="Stories-Interior" stroke="none" stroke-width="1" fill="none" fill-rule="evenodd">
        <g id="Storie-Details" transform="translate(-1103.000000, -916.000000)" fill="#4C9C2E">
            <path d="M1124.71461,942.747029 C1133.11925,943.685822 1141.62941,949.621974 1141.62941,962.121092 C1141.62941,973.921838 1133.16488,980.999996 1122.80096,980.999996 C1110.91411,980.999996 1103,972.107216 1103,958.348739 C1103,941.696607 1111.20786,927.726331 1129.43741,916 L1138.23562,920.482167 C1135.48351,923.189787 1126.71952,932.26288 1124.71461,942.747029 L1124.71461,942.747029 Z M1172.13653,942.500881 C1180.59821,943.104801 1189,949.845224 1189,962.118231 C1189,973.918978 1180.53547,981 1170.1744,981 C1158.28755,981 1150.37059,972.10436 1150.37059,958.345882 C1150.37059,941.696611 1158.5813,927.726336 1176.808,916.000004 L1185.60906,920.479306 C1182.87976,923.166889 1174.227,932.119772 1172.13653,942.500881 L1172.13653,942.500881 Z" id="“"></path>
        </g>
    </g>
</svg>
