<?xml version="1.0" encoding="UTF-8"?>
<svg width="16px" height="16px" viewBox="0 0 16 16" version="1.1"
    xmlns="http://www.w3.org/2000/svg"
    xmlns:xlink="http://www.w3.org/1999/xlink">
    <!-- Generator: Sketch 52.6 (67491) - http://www.bohemiancoding.com/sketch -->
    <title>noun_expand_1777071 copy</title>
    <desc>Created with Sketch.</desc>
    <g id="Reviews-Page" stroke="none" stroke-width="1" fill="none" fill-rule="evenodd">
        <g transform="translate(-1468.000000, -1242.000000)" fill="#EA5C17" fill-rule="nonzero" id="Group-5-Copy">
            <g transform="translate(1360.000000, 1242.000000)">
                <g id="noun_expand_1777071-copy" transform="translate(108.000000, 0.000000)">
                    <path d="M13.99,15.37 L1.57,15.37 C0.807847045,15.37 0.19,14.752153 0.19,13.99 L0.19,1.57 C0.19,0.807847045 0.807847045,0.19 1.57,0.19 L7.09,0.19 C7.47107648,0.19 7.78,0.498923523 7.78,0.88 C7.78,1.26107648 7.47107648,1.57 7.09,1.57 L1.57,1.57 L1.57,13.99 L13.99,13.99 L13.99,8.47 C13.99,8.08892352 14.2989235,7.78 14.68,7.78 C15.0610765,7.78 15.37,8.08892352 15.37,8.47 L15.37,13.99 C15.37,14.752153 14.752153,15.37 13.99,15.37 Z" id="Shape"></path>
                    <path d="M14.68,5.71 C14.2989235,5.71 13.99,5.40107648 13.99,5.02 L13.99,1.57 L10.54,1.57 C10.1589235,1.57 9.85,1.26107648 9.85,0.88 C9.85,0.498923523 10.1589235,0.19 10.54,0.19 L14.68,0.19 C15.0610765,0.19 15.37,0.498923523 15.37,0.88 L15.37,5.02 C15.37,5.40107648 15.0610765,5.71 14.68,5.71 Z" id="Shape"></path>
                    <path d="M8.47,7.78 C8.28659594,7.78106036 8.11031599,7.70905869 7.9801,7.5799 C7.84947427,7.45034105 7.77599916,7.2739799 7.77599916,7.09 C7.77599916,6.9060201 7.84947427,6.72965895 7.9801,6.6001 L14.1901,0.3901 C14.4606643,0.119535701 14.8993357,0.119535701 15.1699,0.3901 C15.4404643,0.660664299 15.4404643,1.0993357 15.1699,1.3699 L8.9599,7.5799 C8.82968401,7.70905869 8.65340406,7.78106036 8.47,7.78 Z" id="Shape"></path>
                </g>
            </g>
        </g>
    </g>
</svg>
