<?xml version="1.0" encoding="UTF-8"?>
<svg width="32px" height="32px" viewBox="0 0 32 32" version="1.1" xmlns="http://www.w3.org/2000/svg" xmlns:xlink="http://www.w3.org/1999/xlink">
    <!-- Generator: Sketch 52.6 (67491) - http://www.bohemiancoding.com/sketch -->
    <title>magnifying-glass</title>
    <desc>Created with Sketch.</desc>
    <g id="Symbols" stroke="none" stroke-width="1" fill="none" fill-rule="evenodd">
        <g id="nav" transform="translate(-1731.000000, -52.000000)" fill="#FFFFFF" fill-rule="nonzero">
            <g id="Group-8">
                <g id="magnifying-glass" transform="translate(1731.000000, 52.000000)">
                    <path d="M31.7232202,30.368071 L23.9449989,22.5915743 C26.0314926,20.1933481 27.2947438,17.0643016 27.2947438,13.6443459 C27.2947438,6.11618625 21.1701042,0 13.6473719,0 C6.11754269,0 0,6.1232816 0,13.6443459 C0,21.1654102 6.12463961,27.2886918 13.6473719,27.2886918 C17.0680861,27.2886918 20.1978266,26.0257206 22.5965846,23.9396896 L30.3748059,31.7161863 C30.5593258,31.9006652 30.8077179,32 31.0490131,32 C31.2903083,32 31.5387004,31.9077605 31.7232202,31.7161863 C32.0922599,31.3472284 32.0922599,30.7370288 31.7232202,30.368071 Z M1.90907075,13.6443459 C1.90907075,7.17339246 7.17498337,1.91574279 13.640275,1.91574279 C20.1126636,1.91574279 25.3714793,7.1804878 25.3714793,13.6443459 C25.3714793,20.108204 20.1126636,25.3800443 13.640275,25.3800443 C7.17498337,25.3800443 1.90907075,20.1152993 1.90907075,13.6443459 Z" id="Shape"></path>
                </g>
            </g>
        </g>
    </g>
</svg>