<?xml version="1.0" encoding="UTF-8"?>
<svg width="25px" height="25px" viewBox="0 0 25 25" version="1.1" xmlns="http://www.w3.org/2000/svg" xmlns:xlink="http://www.w3.org/1999/xlink">
    <!-- Generator: Sketch 52.6 (67491) - http://www.bohemiancoding.com/sketch -->
    <title>maternity</title>
    <desc>Created with Sketch.</desc>
    <g id="Wrap-Around" stroke="none" stroke-width="1" fill="none" fill-rule="evenodd">
        <g transform="translate(-1011.000000, -3664.000000)" fill="#F2C744" fill-rule="nonzero" id="Group-4">
            <g transform="translate(1003.000000, 3657.000000)">
                <g id="maternity" transform="translate(8.000000, 7.000000)">
                    <path d="M19.3569973,24.1297738 L16.7346833,21.5316716 C16.6430834,21.4409777 16.5189158,21.3899956 16.3894261,21.3899956 C16.389182,21.3899956 16.3889378,21.3899956 16.3887425,21.3899956 L14.9817865,21.3919788 C14.9787104,21.3919788 14.9756343,21.3919788 14.9725582,21.3919788 C14.1959126,21.3919788 13.4178999,21.2504963 12.6897397,20.9805429 L13.534011,20.4196917 C13.8796099,20.1901273 14.1119786,19.8405567 14.1883932,19.4353606 C14.264759,19.030116 14.1754052,18.6210018 13.9367378,18.2832819 C13.639966,17.8634296 13.1620453,17.6355098 12.6754333,17.6355098 C12.6675233,17.6355098 12.6596133,17.6355581 12.6516545,17.6357033 L14.5963934,15.7091712 C15.1863725,15.1246671 15.1863725,14.1736146 14.5963934,13.5891105 C14.4528414,13.4469024 14.2855105,13.3368605 14.1032874,13.2624673 C14.2383434,13.0350312 14.3105589,12.7752355 14.3105589,12.5044114 C14.3105589,12.1040038 14.15314,11.7274911 13.8673543,11.4443326 C13.5815198,11.1611742 13.2014977,11.005229 12.7972572,11.005229 C12.5238737,11.005229 12.2616716,11.0768168 12.0320372,11.2106084 C11.956941,11.0300913 11.8458591,10.864327 11.7023071,10.7220706 C11.4164726,10.4389121 11.0364504,10.282967 10.63221,10.282967 C10.2279695,10.282967 9.84794738,10.4389121 9.5621129,10.7220706 L8.863835,11.4138111 C8.78956882,11.251723 8.68600631,11.1023562 8.55514939,10.972676 C8.26931492,10.6895175 7.88929276,10.5336207 7.4850523,10.5336207 C7.08081185,10.5336207 6.70078969,10.6895659 6.41495521,10.972676 L6.10543954,11.2792939 L4.84711356,10.0397622 C4.48159308,9.67766374 4.48159308,9.08846776 4.84711356,8.72636932 C5.18953877,8.38714993 5.73308325,8.36577035 6.10089861,8.66203711 L7.31952807,9.869306 C7.4148876,9.96377278 7.53983643,10.010982 7.66478525,10.010982 C7.78973408,10.010982 7.91473173,9.96372441 8.01004244,9.869306 C8.20071269,9.68042083 8.20071269,9.37414147 8.01004244,9.18525629 L5.90773817,7.102634 C5.54221769,6.74048719 5.54221769,6.15129121 5.90773817,5.78919277 C6.27325865,5.42704596 6.8680717,5.42709433 7.23359218,5.78919277 L10.9169703,9.44510038 C11.0123298,9.53956715 11.1372786,9.58677635 11.2622275,9.58677635 C11.3871763,9.58677635 11.5121739,9.53951878 11.6074846,9.44510038 C11.7981549,9.2562152 11.7981549,8.94993584 11.6074846,8.76105067 L8.80778137,5.98049645 C8.50871472,5.61607625 8.53034517,5.07766885 8.87272155,4.73849783 C9.23829086,4.37639939 9.83310391,4.37639939 10.1985756,4.73849783 L11.2243375,5.7547049 C11.4150566,5.94363845 11.7242305,5.94363845 11.9148519,5.7547049 C12.1055222,5.56581973 12.105571,5.25954037 11.9148519,5.07065519 L10.8890899,4.05444812 C10.1427661,3.31515977 8.92848223,3.31520814 8.18220718,4.05444812 C7.93558095,4.29876541 7.77103326,4.59382292 7.68739225,4.90595506 C7.36410731,4.6748428 6.97720051,4.54980614 6.57066518,4.54980614 C6.05939548,4.54980614 5.57874045,4.74705934 5.2172238,5.10514306 C4.54545907,5.77061866 4.4787611,6.81159122 5.01634866,7.55213718 C4.70121786,7.63494677 4.40327424,7.79800232 4.15659918,8.04236797 C3.45231554,8.74010642 3.41305846,9.85053841 4.03809555,10.5947121 C3.72994704,10.6790212 3.43898571,10.8404322 3.1972422,11.0799124 C2.45101598,11.8192008 2.45101598,13.0221164 3.1972422,13.7614531 L3.41515803,13.9773288 C2.5911989,14.9574034 2.14340457,16.1802475 2.14526,17.4715836 L2.14643186,18.2727856 L0.143002685,20.2576036 C-0.0476675618,20.4464888 -0.0476675618,20.7527681 0.143002685,20.9417017 C0.238362223,21.0361201 0.363311048,21.0833776 0.488259873,21.0833776 C0.613208699,21.0833776 0.738206351,21.0361201 0.833517061,20.9417017 L2.98025409,18.8150142 C3.07200041,18.7241269 3.12346429,18.6007831 3.12326898,18.4722638 L3.12180417,17.4702776 C3.12004639,16.2680875 3.59176604,15.1377271 4.44990422,14.2876229 L6.87300325,11.8871608 C6.87300325,11.8871608 6.87300325,11.8871124 6.87305208,11.8871124 L7.10546959,11.6568708 C7.20683487,11.5564061 7.34159796,11.5011191 7.48500347,11.5011191 C7.62840898,11.5011191 7.76317208,11.5564061 7.86453736,11.6568708 C7.96595147,11.7572871 8.02176097,11.8907885 8.02176097,12.0328514 C8.02176097,12.1547924 7.9803555,12.2703485 7.90447802,12.3641865 L7.25903116,13.0035906 C7.06836091,13.1924758 7.06836091,13.4987552 7.25903116,13.6876887 C7.2594706,13.688124 7.25995887,13.6884626 7.26034949,13.688898 C7.26078894,13.6893333 7.26113073,13.6897686 7.26157017,13.690204 C7.35692971,13.7846224 7.48187853,13.8318799 7.60682736,13.8318799 C7.73177618,13.8318799 7.85677384,13.7846224 7.95208455,13.690204 L10.2525296,11.406217 C10.3538949,11.3057524 10.488658,11.2504654 10.6320635,11.2504654 C10.775469,11.2504654 10.9102321,11.3058007 11.0115974,11.406217 C11.206418,11.5992136 11.2196501,11.9048158 11.0516845,12.1133876 L8.70856448,14.43965 C8.51789423,14.6285352 8.51789423,14.9348146 8.70856448,15.1237481 C8.80392402,15.2181665 8.92887284,15.2654241 9.05382167,15.2654241 C9.17877049,15.2654241 9.30376815,15.2181665 9.39907886,15.1237481 L12.417528,12.1284791 C12.5188933,12.0280144 12.6536564,11.9727274 12.7970619,11.9727274 C12.9404674,11.9727274 13.0752305,12.0280628 13.1765958,12.1284791 C13.3858692,12.3357933 13.3858692,12.6731262 13.1765958,12.8804404 L10.1530686,15.8705822 C9.96239835,16.0594674 9.96234953,16.3657467 10.1530686,16.5546803 C10.3437877,16.7435171 10.6529616,16.7435654 10.843583,16.5546803 L13.1918787,14.2334967 C13.4023728,14.0670553 13.7108631,14.0801636 13.9056837,14.2732569 C14.1149571,14.4805227 14.1149571,14.8179041 13.9056837,15.0251699 L10.6091147,18.2909728 C10.3768925,18.5209725 10.3554086,18.8736872 10.5580903,19.1296616 C10.7607232,19.3856361 11.1116932,19.4490493 11.3925473,19.2803828 L12.3884758,18.6822867 C12.6395453,18.5314204 12.9681525,18.5999609 13.1365575,18.8382803 C13.2235188,18.9612854 13.2560377,19.1102652 13.2282062,19.2578907 C13.2003747,19.4054195 13.1157571,19.5327295 12.9899294,19.616313 L10.6858223,21.1469359 C9.93608049,21.6450027 9.06300118,21.9080876 8.16038142,21.9080876 C8.15828185,21.9080876 8.15608462,21.9080876 8.15398505,21.9080876 L6.58902421,21.9058625 C6.58878007,21.9058625 6.58858476,21.9058625 6.58834063,21.9058625 C6.45885087,21.9058625 6.33463445,21.9568446 6.24308344,22.0475385 L4.09629758,24.1742259 C3.90562734,24.3631111 3.90562734,24.6693905 4.09629758,24.858324 C4.19165712,24.9527424 4.31660595,25 4.44155477,25 C4.5665036,25 4.69150125,24.9527424 4.78681196,24.858324 L6.79028996,22.8736028 L8.15261789,22.8755376 C8.15520573,22.8755376 8.15769592,22.8755376 8.16033259,22.8755376 C9.25723582,22.8755376 10.318544,22.5557146 11.2296597,21.9504598 L11.7230586,21.6227041 C12.7312917,22.1046636 13.8530479,22.3595255 14.972314,22.3595255 C14.9757808,22.3595255 14.9794428,22.3595255 14.9829584,22.3595255 L16.1872326,22.3578326 L18.6664829,24.8138719 C18.7618425,24.9082903 18.8867913,24.9555479 19.0117401,24.9555479 C19.136689,24.9555479 19.2616866,24.9082903 19.3569973,24.8138719 C19.5476676,24.6249867 19.5476676,24.3187074 19.3569973,24.1297738 Z M5.09535109,12.2801193 C5.09530226,12.2801677 5.09530226,12.2801677 5.09525343,12.280216 L4.08911998,13.27693 L3.8878054,13.0775001 C3.52228493,12.7153533 3.52228493,12.1261573 3.8878054,11.7640589 C4.23023061,11.4248395 4.77377509,11.4034599 5.14159045,11.6997267 L5.4114096,11.9670198 L5.09535109,12.2801193 Z" id="Shape"></path>
                    <path d="M24.8535,18.6465 C24.7605,18.553 24.6315,18.5 24.5,18.5 C24.3685,18.5 24.2395,18.553 24.1465,18.6465 C24.0535,18.7395 24,18.868 24,19 C24,19.1315 24.0535,19.2605 24.1465,19.35345 C24.2395,19.44645 24.3685,19.5 24.5,19.5 C24.6315,19.5 24.7605,19.4465 24.8535,19.35345 C24.9465,19.25995 25,19.1315 25,19 C25,18.86795 24.9465,18.7395 24.8535,18.6465 Z" id="Shape"></path>
                    <path d="M23.3611898,17.646988 L22.2290955,16.4535108 L22.2318445,14.4333034 C22.2338825,12.9069556 21.8087902,11.4301237 21.0023994,10.1623976 L18.9162766,6.88275851 C18.6313335,6.43476734 18.1974257,6.13352501 17.6945097,6.03449328 C17.1915463,5.93546155 16.6837959,6.05133167 16.2647229,6.36071839 C15.5780536,6.86761895 15.3050069,7.78218848 15.5478152,8.59292958 L14.3091279,7.28702982 C14.1240476,7.09196429 13.8239379,7.09196429 13.6388102,7.28702982 C13.4537299,7.48214532 13.4537299,7.79852722 13.6388102,7.99369267 L16.2997957,10.7989588 C16.5459691,11.0584799 16.9235708,11.0825134 17.1975181,10.8559196 C17.4714654,10.6293757 17.5393361,10.2370962 17.3588058,9.92316257 L16.5435993,8.50553983 C16.2876624,8.06044666 16.4039715,7.47789825 16.8083992,7.17935405 C17.01713,7.02531024 17.2701758,6.96760003 17.5204726,7.01691603 C17.770959,7.06623203 17.9870361,7.2162786 18.1289389,7.4393748 L20.2150616,10.7190139 C20.9160918,11.8211542 21.2856836,13.1050191 21.2838826,14.4319044 L21.2808967,16.6594688 C21.2807071,16.7922273 21.3306622,16.9196394 21.4197188,17.0135247 L22.6909195,18.3536509 C22.7834833,18.4511837 22.904769,18.5 23.0260546,18.5 C23.1473403,18.5 23.2686733,18.4511837 23.3611898,18.3536509 C23.5462701,18.1585354 23.5462701,17.8421535 23.3611898,17.646988 Z" id="Shape"></path>
                    <path d="M13.3530735,6.1465 C13.2606197,6.0535 13.1316842,6 13.0002499,6 C12.8683158,6 12.7398801,6.0535 12.6464268,6.1465 C12.5534733,6.2395 12.5,6.3685 12.5,6.5 C12.5,6.632 12.5534733,6.7605 12.6464268,6.8535 C12.7398801,6.9465 12.8683158,7 13.0002499,7 C13.1316842,7 13.2601199,6.9465 13.3530735,6.8535 C13.4465267,6.7605 13.5,6.6315 13.5,6.5 C13.5,6.3685 13.4465267,6.2395 13.3530735,6.1465 Z" id="Shape"></path>
                    <path d="M17.8347172,13.3759525 C18.0550943,13.1755779 18.0550943,12.8506683 17.8347172,12.6502425 C17.61434,12.4499192 17.2569961,12.4499192 17.0365626,12.6502425 L16.7903948,12.8740668 C15.7365351,13.8323242 15.7365351,15.3915001 16.7903948,16.3497062 C16.9006116,16.4498679 17.0450278,16.5 17.1894439,16.5 C17.3338601,16.5 17.4783326,16.4498679 17.588493,16.3497062 C17.8088701,16.1493317 17.8089265,15.8244221 17.588493,15.6239962 C16.9747102,15.0659235 16.9747102,14.1577982 17.588493,13.5997255 L17.8347172,13.3759525 Z" id="Shape"></path>
                    <path d="M23.3521227,2.5 C23.0502422,2.5 22.7551524,2.58322825 22.5,2.73542891 C22.2448476,2.58322825 21.9497578,2.5 21.6478773,2.5 C20.739244,2.5 20,3.23133823 20,4.13019408 C20,4.63962107 20.3770064,5.25142251 21.1525786,6.00066127 C21.6747554,6.50510565 22.1898566,6.88904438 22.2115586,6.90514563 C22.2966569,6.96839726 22.3983284,7 22.5,7 C22.6016716,7 22.7032957,6.96839726 22.7884414,6.90514563 C22.8101434,6.88904438 23.3252446,6.50505951 23.8474214,6.00066127 C24.6229936,5.25146864 25,4.63962107 25,4.13019408 C25,3.2312921 24.260756,2.5 23.3521227,2.5 Z M22.4998575,5.94843601 C21.7062399,5.30807677 20.9497578,4.49101898 20.9497578,4.13019408 C20.9497578,3.7400732 21.2629405,3.42270784 21.6478773,3.42270784 C21.8393485,3.42270784 22.0179979,3.49980008 22.150964,3.63986713 C22.2409061,3.73453695 22.3674138,3.78837696 22.5,3.78837696 C22.6325862,3.78837696 22.7591414,3.73453695 22.849036,3.63986713 C22.9820021,3.49984622 23.1606515,3.42270784 23.3521227,3.42270784 C23.7370595,3.42270784 24.0502422,3.7400732 24.0502422,4.13019408 C24.0502422,4.49009627 23.2935227,5.30738474 22.4998575,5.94843601 Z" id="Shape"></path>
                    <path d="M3.35212271,0 C3.05024219,0 2.75515244,0.0832282472 2.5,0.235428905 C2.24484756,0.0832282472 1.94975781,5.24210567e-18 1.64787729,5.24210567e-18 C0.739243993,-4.6135392e-05 0,0.731245963 0,1.63014794 C0,2.13957494 0.377006363,2.75137637 1.15257859,3.50061514 C1.67475544,4.00505951 2.18990407,4.38904438 2.21155855,4.40514563 C2.29665685,4.46839726 2.39832843,4.5 2.5,4.5 C2.60167157,4.5 2.70329566,4.46839726 2.78844145,4.40514563 C2.81014341,4.38904438 3.32524456,4.00505951 3.84742141,3.50066127 C4.62299364,2.75142251 5,2.13962107 5,1.63019408 C5,0.731292099 4.26075601,0 3.35212271,0 Z M2.49985754,3.44838987 C1.70619242,2.80803063 0.949757812,1.99101898 0.949757812,1.63014794 C0.949757812,1.24002707 1.26294045,0.922661705 1.64787729,0.922661705 C1.83934847,0.922661705 2.01799791,0.999753945 2.150964,1.13982099 C2.24090607,1.23449082 2.36741381,1.28833082 2.5,1.28833082 C2.63258619,1.28833082 2.75914142,1.23449082 2.849036,1.13982099 C2.98200209,0.99980008 3.16065153,0.922661705 3.35212271,0.922661705 C3.73705955,0.922661705 4.05024219,1.24002707 4.05024219,1.63014794 C4.05024219,1.990004 3.29352265,2.8073386 2.49985754,3.44838987 Z" id="Shape"></path>
                </g>
            </g>
        </g>
    </g>
</svg>