<?xml version="1.0" encoding="UTF-8"?>
<svg width="34px" height="28px" viewBox="0 0 34 28" version="1.1" xmlns="http://www.w3.org/2000/svg" xmlns:xlink="http://www.w3.org/1999/xlink">
    <!-- Generator: Sketch 52.6 (67491) - http://www.bohemiancoding.com/sketch -->
    <title>Twitter_Logo_Blue</title>
    <desc>Created with Sketch.</desc>
    <g id="Symbols" stroke="none" stroke-width="1" fill="none" fill-rule="evenodd">
        <g id="Footer" transform="translate(-927.000000, -406.000000)" fill="#FFFFFF" fill-rule="nonzero">
            <g id="Group-8">
                <g id="Twitter_Logo_Blue" transform="translate(927.000000, 406.000000)">
                    <path d="M10.69232,28 C23.52256,28 30.54016,17.2267238 30.54016,7.88418711 C30.54016,7.57819078 30.54016,7.27357281 30.51976,6.97033321 C31.8849707,5.96951963 33.0634434,4.73032896 34,3.31078249 C32.7268755,3.88252943 31.3763278,4.25748089 29.99344,4.4231205 C31.4496518,3.53956582 32.539528,2.14988752 33.06024,0.512707923 C31.6909342,1.33621754 30.1928787,1.91658604 28.63072,2.22876843 C26.4684326,-0.101498004 23.0325783,-0.671838908 20.249787,0.837560145 C17.4669957,2.3469592 16.029334,5.560718 16.74296,8.67674518 C11.1341782,8.39176823 5.90848706,5.70682097 2.3664,1.29010401 C0.514926949,4.5204945 1.46062352,8.65311934 4.52608,10.7277476 C3.41596803,10.6944017 2.33005995,10.3908941 1.36,9.84283931 C1.36,9.87178491 1.36,9.90210887 1.36,9.93243283 C1.36090866,13.2978314 3.70158202,16.1964467 6.9564,16.8628362 C5.92942265,17.1466961 4.8519096,17.1881907 3.80664,16.9841321 C4.72048918,19.8641128 7.3393414,21.8370462 10.32376,21.893857 C7.85363965,23.8613747 4.80224094,24.9294615 1.66056,24.9262531 C1.10554885,24.9251732 0.551077529,24.8911152 0,24.8242543 C3.19006489,26.8990701 6.90188223,27.9996098 10.69232,27.9944866" id="Shape"></path>
                </g>
            </g>
        </g>
    </g>
</svg>