<?xml version="1.0" encoding="UTF-8"?>
<svg width="1066px" height="154px" viewBox="0 0 1066 154" version="1.1" xmlns="http://www.w3.org/2000/svg" xmlns:xlink="http://www.w3.org/1999/xlink">
    <!-- Generator: Sketch 52.6 (67491) - http://www.bohemiancoding.com/sketch -->
    <title>At A Glance Copy</title>
    <desc>Created with Sketch.</desc>
    <g id="Home" stroke="none" stroke-width="1" fill="none" fill-rule="evenodd" opacity="0.0800000057">
        <g id="Home-Copy-2" transform="translate(-492.000000, -2770.000000)" fill="#0081C3">
            <path d="M498.181688,2922 C496.334278,2922 494.842161,2921.75169 493.705293,2921.25507 C492.568425,2920.75844 492,2920.08446 492,2919.23311 C492,2917.3885 494.344755,2915.75676 499.034335,2914.33784 C503.155481,2913.0608 506.70814,2911.2517 509.692418,2908.91047 C512.676696,2906.56925 515.23461,2902.91557 517.366237,2897.94932 C524.897987,2880.63843 531.470406,2864.92406 537.083691,2850.80574 C542.696976,2836.68743 549.411501,2819.05754 557.227468,2797.91554 C558.790661,2793.51687 559.785406,2789.40205 560.211731,2785.57095 C560.638056,2785.42905 561.668328,2785.1098 563.302575,2784.61318 C564.936823,2784.11655 566.464466,2783.37163 567.885551,2782.37838 C569.022419,2781.52702 569.910583,2780.25001 570.550072,2778.5473 C571.18956,2776.84459 571.651405,2775.70946 571.935622,2775.14189 C572.077731,2775 572.255364,2774.96453 572.468526,2775.03547 C572.681689,2775.10642 572.859322,2775.21284 573.001431,2775.35473 C573.285648,2776.06419 573.534334,2776.84459 573.747496,2777.69595 C573.960659,2778.5473 574.209345,2779.3277 574.493562,2780.03716 C585.00959,2813.09814 597.657055,2850.98289 612.436338,2893.69257 C615.136399,2901.49666 618.120632,2906.78208 621.389127,2909.54899 C624.657622,2912.31589 628.84976,2914.125 633.965665,2914.97635 C636.239401,2915.40203 637.980204,2916.07601 639.188126,2916.99831 C640.396048,2917.92061 641,2918.87837 641,2919.87162 C641,2921.29055 638.939458,2922 634.818312,2922 L623.307582,2921.57432 C615.349507,2921.00675 609.309987,2920.72297 605.188841,2920.72297 L582.806867,2920.93581 C578.685721,2920.93581 576.625179,2920.08447 576.625179,2918.38176 C576.625179,2917.5304 577.300184,2916.71453 578.650215,2915.93412 C580.000245,2915.15371 581.669995,2914.62162 583.659514,2914.33784 C592.328131,2912.91891 596.662375,2909.72638 596.662375,2904.76014 C596.662375,2900.21957 593.891301,2888.72644 588.34907,2870.28041 C588.064853,2869.28716 587.531954,2868.64865 586.750358,2868.36486 C585.968761,2868.08108 584.583224,2867.93919 582.593705,2867.93919 L542.306152,2867.93919 C540.742958,2867.93919 539.535054,2869.2162 538.682403,2871.77027 C537.11921,2876.31083 535.271828,2882.23476 533.1402,2889.54223 C531.008573,2896.8497 529.942775,2901.14189 529.942775,2902.41892 C529.942775,2905.39866 531.115153,2907.95269 533.459943,2910.08108 C535.804733,2912.20947 538.75344,2913.69932 542.306152,2914.55068 C544.864104,2915.26014 546.67596,2915.89865 547.741774,2916.46622 C548.807588,2917.03379 549.340486,2917.81418 549.340486,2918.80743 C549.340486,2920.36825 547.279944,2921.14865 543.158798,2921.14865 C540.600846,2921.14865 538.46925,2921.0777 536.763948,2920.93581 L523.761087,2920.72297 C521.345243,2920.72297 518.680749,2920.82939 515.767525,2921.04223 C512.854301,2921.25507 510.687179,2921.36149 509.266094,2921.36149 C505.287057,2921.78716 501.592292,2922 498.181688,2922 Z M581.052632,2861 C581.894741,2861 582.596488,2860.929 583.157895,2860.787 C583.719301,2860.64501 584,2860.36101 584,2859.93502 L583.578947,2857.80505 L567.157895,2805.83394 C566.315785,2803.27797 565.684213,2802 565.263158,2802 C564.982455,2802 564.421057,2803.20697 563.578947,2805.62094 L544.421053,2857.80505 L544,2859.50903 C544,2860.21902 544.315786,2860.64501 544.947368,2860.787 C545.578951,2860.929 546.736834,2861 548.421053,2861 L581.052632,2861 Z M679.95941,2923 C672.825303,2923 667.332123,2920.83779 663.479705,2916.51329 C659.627287,2912.1888 657.701107,2905.91483 657.701107,2897.69121 L657.701107,2848.34969 C657.701107,2847.07361 657.237397,2846.22291 656.309963,2845.79755 C655.382529,2845.37219 653.563359,2845.15951 650.852399,2845.15951 L649.568266,2845.15951 C648.854855,2845.15951 648.248465,2844.73416 647.749077,2843.88344 C647.24969,2843.03272 647,2842.04022 647,2840.90593 C647,2840.62236 647.17835,2840.23245 647.535055,2839.7362 C647.891761,2839.23994 648.212791,2838.85004 648.498155,2838.56646 C656.202991,2833.17857 662.552251,2827.50719 667.546125,2821.55215 C668.116854,2820.84321 668.687574,2820.24063 669.258303,2819.74438 C669.829031,2819.24812 670.471091,2819 671.184502,2819 C673.182052,2819 674.109472,2819.77981 673.96679,2821.33947 L672.896679,2830.91002 L672.896679,2831.76074 C672.896679,2833.03682 673.324719,2833.88752 674.180812,2834.31288 C675.036905,2834.73824 676.321025,2834.95092 678.03321,2834.95092 L702.431734,2834.95092 C703.002463,2834.95092 703.501843,2835.41172 703.929889,2836.33333 C704.357936,2837.25495 704.571956,2838.35378 704.571956,2839.62986 C704.571956,2840.90594 704.357936,2842.14655 703.929889,2843.35174 C703.501843,2844.55692 703.002463,2845.15951 702.431734,2845.15951 L681.243542,2845.15951 C677.391125,2845.15951 675.001235,2845.44308 674.073801,2846.01022 C673.146367,2846.57737 672.682657,2848.27879 672.682657,2851.11452 L672.682657,2893.01227 C672.682657,2898.82552 673.895437,2903.32718 676.321033,2906.51738 C678.74663,2909.70758 682.24229,2911.30266 686.808118,2911.30266 C690.803218,2911.30266 693.977848,2911.01909 696.332103,2910.45194 C698.686359,2909.8848 700.790889,2908.8923 702.645756,2907.47444 L703.501845,2907.04908 C704.50062,2907.04908 705,2908.04157 705,2910.02658 C705,2910.8773 703.71588,2912.40149 701.147601,2914.59918 C698.579323,2916.79688 695.404693,2918.74641 691.623616,2920.44785 C687.84254,2922.14929 683.95451,2923 679.95941,2923 Z M755.181688,2922 C753.334278,2922 751.842161,2921.75169 750.705293,2921.25507 C749.568425,2920.75844 749,2920.08446 749,2919.23311 C749,2917.3885 751.344755,2915.75676 756.034335,2914.33784 C760.155481,2913.0608 763.70814,2911.2517 766.692418,2908.91047 C769.676696,2906.56925 772.23461,2902.91557 774.366237,2897.94932 C781.897987,2880.63843 788.470406,2864.92406 794.083691,2850.80574 C799.696976,2836.68743 806.411501,2819.05754 814.227468,2797.91554 C815.790661,2793.51687 816.785406,2789.40205 817.211731,2785.57095 C817.638056,2785.42905 818.668328,2785.1098 820.302575,2784.61318 C821.936823,2784.11655 823.464466,2783.37163 824.885551,2782.37838 C826.022419,2781.52702 826.910583,2780.25001 827.550072,2778.5473 C828.18956,2776.84459 828.651405,2775.70946 828.935622,2775.14189 C829.077731,2775 829.255364,2774.96453 829.468526,2775.03547 C829.681689,2775.10642 829.859322,2775.21284 830.001431,2775.35473 C830.285648,2776.06419 830.534334,2776.84459 830.747496,2777.69595 C830.960659,2778.5473 831.209345,2779.3277 831.493562,2780.03716 C842.00959,2813.09814 854.657055,2850.98289 869.436338,2893.69257 C872.136399,2901.49666 875.120632,2906.78208 878.389127,2909.54899 C881.657622,2912.31589 885.84976,2914.125 890.965665,2914.97635 C893.239401,2915.40203 894.980204,2916.07601 896.188126,2916.99831 C897.396048,2917.92061 898,2918.87837 898,2919.87162 C898,2921.29055 895.939458,2922 891.818312,2922 L880.307582,2921.57432 C872.349507,2921.00675 866.309987,2920.72297 862.188841,2920.72297 L839.806867,2920.93581 C835.685721,2920.93581 833.625179,2920.08447 833.625179,2918.38176 C833.625179,2917.5304 834.300184,2916.71453 835.650215,2915.93412 C837.000245,2915.15371 838.669995,2914.62162 840.659514,2914.33784 C849.328131,2912.91891 853.662375,2909.72638 853.662375,2904.76014 C853.662375,2900.21957 850.891301,2888.72644 845.34907,2870.28041 C845.064853,2869.28716 844.531954,2868.64865 843.750358,2868.36486 C842.968761,2868.08108 841.583224,2867.93919 839.593705,2867.93919 L799.306152,2867.93919 C797.742958,2867.93919 796.535054,2869.2162 795.682403,2871.77027 C794.11921,2876.31083 792.271828,2882.23476 790.1402,2889.54223 C788.008573,2896.8497 786.942775,2901.14189 786.942775,2902.41892 C786.942775,2905.39866 788.115153,2907.95269 790.459943,2910.08108 C792.804733,2912.20947 795.75344,2913.69932 799.306152,2914.55068 C801.864104,2915.26014 803.67596,2915.89865 804.741774,2916.46622 C805.807588,2917.03379 806.340486,2917.81418 806.340486,2918.80743 C806.340486,2920.36825 804.279944,2921.14865 800.158798,2921.14865 C797.600846,2921.14865 795.46925,2921.0777 793.763948,2920.93581 L780.761087,2920.72297 C778.345243,2920.72297 775.680749,2920.82939 772.767525,2921.04223 C769.854301,2921.25507 767.687179,2921.36149 766.266094,2921.36149 C762.287057,2921.78716 758.592292,2922 755.181688,2922 Z M837.052632,2861 C837.894741,2861 838.596488,2860.929 839.157895,2860.787 C839.719301,2860.64501 840,2860.36101 840,2859.93502 L839.578947,2857.80505 L823.157895,2805.83394 C822.315785,2803.27797 821.684213,2802 821.263158,2802 C820.982455,2802 820.421057,2803.20697 819.578947,2805.62094 L800.421053,2857.80505 L800,2859.50903 C800,2860.21902 800.315786,2860.64501 800.947368,2860.787 C801.578951,2860.929 802.736834,2861 804.421053,2861 L837.052632,2861 Z M1011.46569,2924 C999.814054,2924 989.512454,2921.79009 980.560584,2917.37021 C971.608714,2912.95032 964.610731,2906.64139 959.566423,2898.44322 C954.522116,2890.24504 952,2880.51431 952,2869.25074 C952,2861.97931 952.994637,2854.77929 954.983942,2847.65044 C957.967898,2835.10367 963.900199,2823.59076 972.781022,2813.11136 C981.661845,2802.63195 992.780468,2794.32697 1006.13723,2788.19617 C1019.49398,2782.06536 1034.05832,2779 1049.83066,2779 C1054.09345,2779 1057.96543,2779.39208 1061.44672,2780.17625 C1064.928,2780.96043 1068.65789,2781.99409 1072.6365,2783.27729 C1073.20487,2783.41986 1074.37712,2783.81194 1076.15328,2784.45354 C1077.92945,2785.09514 1079.38588,2785.52286 1080.52263,2785.73673 C1081.65937,2785.95059 1082.7961,2786.05752 1083.93285,2786.05752 C1085.92215,2786.05752 1087.69829,2785.6298 1089.26131,2784.77434 C1091.6769,2783.34857 1093.66617,2782.63569 1095.2292,2782.63569 C1097.07641,2782.63569 1098,2783.34857 1098,2784.77434 C1098,2785.48722 1097.64477,2786.34267 1096.93431,2787.34071 C1094.37663,2790.76255 1091.53481,2795.93089 1088.40876,2802.84587 C1085.28271,2809.76085 1082.93821,2815.9985 1081.37518,2821.559 C1080.66472,2824.83827 1079.03067,2826.47788 1076.47299,2826.47788 C1073.48904,2826.47788 1072.21022,2823.55509 1072.6365,2817.70944 C1072.77859,2816.56882 1072.84964,2814.85793 1072.84964,2812.5767 C1072.84964,2805.733 1071.42872,2800.31516 1068.58686,2796.32301 C1066.59756,2793.47147 1063.75574,2791.11899 1060.06131,2789.26549 C1056.36689,2787.41199 1052.38834,2786.48525 1048.12555,2786.48525 C1039.17368,2786.48525 1030.57717,2789.22982 1022.33577,2794.71903 C1014.09436,2800.20824 1006.67011,2808.37064 1000.06277,2819.20649 C993.455441,2830.04234 988.16255,2843.15922 984.183942,2858.55752 C982.620917,2864.83091 981.839416,2870.5339 981.839416,2875.66667 C981.839416,2883.65097 983.331372,2890.74407 986.315328,2896.94617 C989.299285,2903.14826 993.455448,2907.96016 998.783942,2911.38201 C1004.11244,2914.80385 1010.18683,2916.51475 1017.0073,2916.51475 C1022.12265,2916.51475 1026.63404,2914.8395 1030.54161,2911.48894 C1034.44917,2908.13838 1037.11337,2904.03936 1038.53431,2899.19174 L1045.56788,2875.23894 C1045.85207,2874.09832 1045.99416,2873.24287 1045.99416,2872.67257 C1045.99416,2870.24876 1044.71534,2868.46657 1042.15766,2867.32596 C1039.3158,2866.18534 1035.12412,2865.04475 1029.58248,2863.90413 C1028.16155,2863.4764 1027.02482,2862.87046 1026.17226,2862.08628 C1025.3197,2861.30211 1025.03552,2860.33973 1025.31971,2859.19912 C1025.60389,2858.20108 1026.31435,2857.41692 1027.45109,2856.84661 C1028.58784,2856.2763 1029.79561,2855.99115 1031.07445,2855.99115 C1035.90562,2855.99115 1041.51822,2856.34759 1047.91241,2857.06047 C1055.58544,2857.63078 1060.77176,2857.91593 1063.47153,2857.91593 C1065.74502,2857.91593 1067.80534,2857.84464 1069.65255,2857.70206 C1071.49977,2857.55949 1073.13381,2857.41691 1074.55474,2857.27434 C1079.81219,2856.56145 1085.42479,2856.20501 1091.3927,2856.20501 C1093.95038,2856.20501 1094.87397,2857.27433 1094.1635,2859.41298 C1093.87932,2860.55359 1093.27543,2861.48033 1092.35182,2862.19322 C1091.42822,2862.9061 1090.18492,2863.4764 1088.6219,2863.90413 C1084.3591,2864.90217 1081.26862,2866.07841 1079.35036,2867.43289 C1077.43211,2868.78737 1075.69149,2870.96164 1074.12847,2873.95575 C1072.28126,2877.66275 1070.43407,2882.04693 1068.58686,2887.10841 C1066.73965,2892.16989 1065.81606,2895.41346 1065.81606,2896.83923 C1065.81606,2898.40758 1066.13576,2899.79768 1066.77518,2901.00959 C1067.4146,2902.22149 1068.51581,2903.61159 1070.07883,2905.17994 C1068.6579,2908.17406 1064.43069,2911.13248 1057.39708,2914.05531 C1050.36347,2916.97814 1042.47742,2919.36626 1033.73869,2921.21976 C1024.99996,2923.07326 1017.5757,2924 1011.46569,2924 Z M1108.07041,2924 C1104.96456,2924 1102.17639,2922.71846 1099.70583,2920.15534 C1097.23526,2917.59222 1096,2914.95794 1096,2912.25243 C1096,2910.97087 1096.35293,2909.40454 1097.05881,2907.5534 L1132.84652,2800.75728 C1134.11709,2797.055 1134.75237,2794.27833 1134.75237,2792.42718 C1134.75237,2790.86083 1134.36415,2789.61489 1133.58768,2788.68932 C1132.81122,2787.76375 1131.64654,2787.08738 1130.09362,2786.66019 C1128.39952,2786.23301 1127.23484,2785.69903 1126.59955,2785.05825 C1125.96426,2784.41747 1125.50545,2783.52751 1125.2231,2782.38835 L1125.2231,2781.53398 C1125.2231,2780.822 1125.43486,2780.25243 1125.85839,2779.82524 C1126.28191,2779.39806 1127.05836,2779.04207 1128.18776,2778.75728 C1132.42302,2777.61812 1137.64642,2776.40777 1143.85812,2775.12621 C1150.211,2773.84465 1154.72854,2772.7767 1157.41086,2771.92233 C1162.06964,2770.64077 1165.10486,2770 1166.51661,2770 C1167.36366,2770 1168.03424,2770.53398 1168.52835,2771.60194 C1169.02246,2772.66991 1169.12834,2773.55987 1168.84599,2774.27184 C1168.42246,2776.69257 1167.50484,2779.82522 1166.09309,2783.6699 L1127.55248,2895.37864 C1127.12895,2896.37541 1126.91719,2897.37216 1126.91719,2898.36893 C1126.91719,2900.22007 1127.76423,2901.14563 1129.45833,2901.14563 C1131.15243,2901.14563 1133.69355,2899.7573 1137.08175,2896.98058 C1140.46995,2894.20387 1143.78752,2891.03562 1147.03455,2887.47573 C1147.8816,2886.62135 1148.44629,2886.19417 1148.72864,2886.19417 C1150.28156,2886.19417 1151.05802,2887.33332 1151.05802,2889.61165 C1151.05802,2893.17154 1148.44632,2897.69253 1143.22284,2903.17476 C1137.99936,2908.65699 1131.96421,2913.49836 1125.11722,2917.69903 C1118.27023,2921.8997 1112.58801,2924 1108.07041,2924 Z M1168.1587,2923 C1165.18737,2923 1162.25145,2921.79724 1159.35086,2919.39168 C1156.45027,2916.98613 1155,2914.58061 1155,2912.17505 C1155,2905.94891 1157.90054,2898.3786 1163.70172,2889.46389 C1169.5029,2880.54919 1179.90241,2867.88484 1194.90057,2851.47046 C1201.12623,2844.81981 1206.89194,2839.44276 1212.1979,2835.33917 C1217.50385,2831.23557 1221.50094,2829.18381 1224.18929,2829.18381 C1227.86809,2829.18381 1232.04204,2831.02332 1236.71128,2834.70241 C1237.84322,2835.97594 1238.47992,2836.61269 1238.62141,2836.61269 L1239.04589,2836.61269 C1239.32887,2836.61269 1239.54111,2836.43582 1239.6826,2836.08206 C1239.82409,2835.7283 1239.96558,2835.40992 1240.10707,2835.12691 C1241.94647,2831.58933 1243.00765,2829.32531 1243.29063,2828.33479 C1244.13958,2826.77826 1245.90821,2826 1248.59656,2826 C1251.70938,2826 1255.10514,2827.06126 1258.78394,2829.18381 C1262.46273,2831.30636 1264.3021,2833.28737 1264.3021,2835.12691 C1264.3021,2835.69293 1264.16061,2836.40043 1263.87763,2837.24945 L1242.65392,2894.98249 C1242.22944,2895.97302 1242.01721,2896.82202 1242.01721,2897.52954 C1242.01721,2899.51059 1243.00764,2900.50109 1244.98853,2900.50109 C1246.54494,2900.50109 1248.98564,2899.29833 1252.31071,2896.89278 C1255.63577,2894.48722 1259.0669,2891.44495 1262.60421,2887.76586 C1263.02868,2887.34135 1263.38241,2887.1291 1263.66539,2887.1291 C1264.37285,2887.1291 1264.93881,2887.44748 1265.36329,2888.08425 C1265.78777,2888.72101 1266,2889.53464 1266,2890.52516 C1266,2892.50621 1264.69122,2895.23011 1262.07361,2898.69694 C1259.45601,2902.16377 1256.02488,2905.66592 1251.78011,2909.2035 C1246.54491,2913.4486 1241.45127,2916.80925 1236.49904,2919.28556 C1231.54682,2921.76187 1227.44361,2923 1224.18929,2923 C1220.93497,2923 1217.78682,2921.72649 1214.74474,2919.17943 C1211.70266,2916.63237 1210.18164,2914.0146 1210.18164,2911.32604 C1210.18164,2910.47702 1210.53537,2908.84976 1211.24283,2906.4442 C1211.52581,2905.31218 1212.23326,2903.43729 1213.3652,2900.81947 C1214.49714,2898.20166 1215.34608,2896.18527 1215.91205,2894.77024 L1218.45889,2888.82713 C1218.60038,2888.68563 1218.67113,2888.40263 1218.67113,2887.97812 C1218.67113,2887.41211 1218.49427,2887.05835 1218.14054,2886.91685 C1217.78681,2886.77535 1217.46845,2886.8461 1217.18547,2887.1291 C1206.14908,2899.58139 1196.74,2908.67284 1188.95793,2914.40372 C1181.17587,2920.1346 1174.24286,2923 1168.1587,2923 Z M1190.41921,2901 C1192.84426,2901 1196.69575,2898.73137 1201.9738,2894.19403 C1207.25185,2889.65669 1212.60114,2884.056 1218.02183,2877.39179 C1222.58663,2871.86191 1226.22415,2866.93472 1228.9345,2862.61007 C1231.64485,2858.28543 1233,2855.2015 1233,2853.35821 C1233,2852.08208 1231.57352,2850.23882 1228.72052,2847.82836 C1225.43958,2845.27611 1222.80059,2844 1220.80349,2844 C1218.66374,2844 1215.66814,2845.27611 1211.81659,2847.82836 C1207.96505,2850.38061 1204.32753,2853.35819 1200.90393,2856.76119 C1196.33913,2861.29853 1192.38066,2867.1828 1189.02838,2874.41418 C1185.67611,2881.64556 1184,2888.02609 1184,2893.55597 C1184,2895.96643 1184.57059,2897.8097 1185.71179,2899.08582 C1186.85299,2900.36195 1188.42212,2901 1190.41921,2901 Z M1295.75019,2923 C1294.32642,2923 1292.51114,2922.39784 1290.3043,2921.19351 C1288.09745,2919.98918 1286.21098,2918.3244 1284.64484,2916.19911 C1283.07869,2914.07381 1282.29563,2911.80687 1282.29563,2909.39821 C1282.29563,2907.83966 1282.58038,2906.49367 1283.14988,2905.36018 L1304.71991,2852.01566 C1305.14704,2850.74049 1305.3606,2849.7487 1305.3606,2849.04027 C1305.3606,2847.48172 1304.50635,2846.70246 1302.79783,2846.70246 C1295.53659,2846.70246 1289.77041,2849.18193 1285.49909,2854.14094 C1284.78721,2854.84937 1284.07533,2855.20358 1283.36345,2855.20358 C1281.93968,2855.20358 1281.15661,2854.49516 1281.01424,2853.0783 C1280.87186,2851.66144 1281.7973,2849.50076 1283.79058,2846.5962 C1285.78386,2843.69163 1287.63473,2841.46011 1289.34326,2839.90157 C1297.60113,2831.96715 1307.49619,2828 1319.02873,2828 C1322.87292,2828 1325.8272,2829.13347 1327.89166,2831.40045 C1329.95613,2833.66742 1330.98835,2836.5011 1330.98835,2839.90157 C1330.98835,2842.02686 1330.56123,2844.15211 1329.70696,2846.2774 L1318.38804,2874.11857 L1318.17448,2874.75615 C1318.17448,2875.03952 1318.35244,2875.28747 1318.70839,2875.5 C1319.06433,2875.71253 1319.45586,2875.81879 1319.88299,2875.81879 C1321.02201,2875.81879 1321.80507,2875.46458 1322.2322,2874.75615 C1330.63245,2859.73743 1338.60545,2848.1902 1346.15144,2840.11409 C1353.69742,2832.03799 1361.59923,2828 1369.85711,2828 C1375.26744,2828 1379.28953,2829.59394 1381.92351,2832.78188 C1384.55748,2835.96981 1385.87445,2839.97238 1385.87445,2844.78971 C1385.87445,2849.04029 1385.0202,2853.07828 1383.31167,2856.9038 L1367.29433,2894.52125 C1366.44007,2896.36317 1366.01294,2897.85085 1366.01294,2898.98434 C1366.01294,2900.4012 1366.72482,2901.10962 1368.14859,2901.10962 C1369.71474,2901.10962 1372.34867,2899.79904 1376.05048,2897.17785 C1379.75228,2894.55666 1382.67097,2892.2543 1384.80663,2890.27069 C1386.65753,2888.1454 1388.01009,2887.08277 1388.86435,2887.08277 C1389.29149,2887.08277 1389.7542,2887.36614 1390.25252,2887.93289 C1390.75084,2888.49963 1391,2889.06637 1391,2889.63311 C1391,2892.18346 1390.07456,2894.73377 1388.22366,2897.28412 C1381.81669,2904.79348 1374.342,2910.95672 1365.79938,2915.77405 C1357.25675,2920.59137 1349.35494,2923 1342.09371,2923 C1339.6733,2923 1337.28852,2922.04363 1334.9393,2920.13087 C1332.59007,2918.21811 1331.41548,2916.12827 1331.41548,2913.8613 C1331.41548,2912.72781 1331.55786,2911.94855 1331.84261,2911.52349 C1333.97827,2906.56448 1335.97152,2902.17228 1337.82242,2898.34676 C1339.67332,2894.52123 1341.31063,2891.12082 1342.7344,2888.14541 C1343.73104,2886.02012 1346.15142,2880.9195 1349.9956,2872.8434 C1353.83978,2864.7673 1357.11441,2857.04553 1359.81957,2849.67785 C1360.53146,2847.83593 1360.88739,2846.13573 1360.88739,2844.57718 C1360.88739,2842.73526 1359.96196,2841.81432 1358.11105,2841.81432 C1355.83302,2841.81432 1353.34146,2843.37284 1350.63629,2846.48993 C1347.93113,2849.60703 1345.29719,2853.07828 1342.7344,2856.9038 C1340.17162,2860.72933 1338.46312,2863.20879 1337.60885,2864.34228 C1335.18844,2867.60106 1331.02397,2874.0831 1325.11533,2883.78859 C1319.20668,2893.49408 1314.11677,2902.03054 1309.84546,2909.39821 C1307.28267,2913.79048 1304.89789,2917.15547 1302.69104,2919.49329 C1300.4842,2921.83111 1298.17061,2923 1295.75019,2923 Z M1429.53361,2923 C1424.42509,2923 1419.63593,2921.68942 1415.16598,2919.06823 C1410.69603,2916.44704 1407.18398,2912.94036 1404.62972,2908.5481 C1402.07546,2904.15583 1400.8693,2899.33858 1401.0112,2894.0962 C1401.29501,2882.61963 1404.02661,2871.81623 1409.20607,2861.68568 C1414.38554,2851.55513 1421.33869,2843.40831 1430.06574,2837.24497 C1438.79279,2831.08162 1448.33564,2828 1458.69458,2828 C1464.0869,2828 1468.48583,2829.20431 1471.89151,2831.61298 C1475.29719,2834.02164 1477,2837.06784 1477,2840.75168 C1477,2843.44371 1476.04217,2846.10029 1474.12647,2848.72148 C1472.21078,2851.34267 1470.25964,2852.65324 1468.273,2852.65324 C1467.13777,2852.65324 1466.17994,2852.26361 1465.39947,2851.48434 C1464.619,2850.70507 1463.44832,2848.96944 1461.88738,2846.2774 C1460.32645,2843.58537 1458.65911,2841.38927 1456.88532,2839.68904 C1455.11153,2837.98881 1453.37324,2837.1387 1451.6704,2837.1387 C1447.83901,2837.1387 1444.00768,2839.47649 1440.1763,2844.15213 C1436.34491,2848.82776 1433.18761,2854.77849 1430.7043,2862.00447 C1428.221,2869.23046 1426.97936,2876.45634 1426.97936,2883.68233 C1426.97936,2888.64134 1428.32742,2892.53764 1431.02359,2895.37136 C1433.71975,2898.20509 1437.33822,2899.62192 1441.87913,2899.62192 C1449.4,2899.62192 1455.8565,2896.36319 1461.24882,2889.84564 C1462.38405,2888.14541 1463.73211,2887.2953 1465.29304,2887.2953 C1465.86066,2887.2953 1466.35731,2887.50783 1466.78302,2887.93289 C1467.20873,2888.35794 1467.42158,2888.92468 1467.42158,2889.63311 C1467.42158,2894.16706 1465.47044,2899.09058 1461.5681,2904.4038 C1457.66576,2909.71703 1452.7347,2914.14465 1446.77476,2917.6868 C1440.81483,2921.22895 1435.06783,2923 1429.53361,2923 Z M1504.56992,2924 C1500.72294,2924 1496.62667,2922.78573 1492.281,2920.35714 C1487.93533,2917.92856 1484.30213,2914.71431 1481.38127,2910.71429 C1478.46041,2906.71427 1477,2902.42859 1477,2897.85714 C1477,2886.28566 1479.77834,2875.1072 1485.33509,2864.32143 C1490.89185,2853.53566 1498.12265,2844.78575 1507.0277,2838.07143 C1515.93276,2831.35711 1525.08702,2828 1534.49077,2828 C1542.32722,2828 1548.20447,2829.49998 1552.12269,2832.5 C1556.04092,2835.50001 1558,2839.28569 1558,2843.85714 C1558,2852.42861 1553.2982,2859.03569 1543.89446,2863.67857 C1534.49072,2868.32145 1522.45126,2872.21427 1507.77573,2875.35714 C1507.06332,2875.5 1506.56465,2875.71428 1506.27968,2876 C1505.99472,2876.28572 1505.70976,2876.78571 1505.4248,2877.5 C1504.85488,2879.64287 1504.42744,2881.92856 1504.14248,2884.35714 C1504,2889.64288 1505.35355,2894.07141 1508.20317,2897.64286 C1511.05278,2901.2143 1515.11343,2903 1520.38522,2903 C1524.23221,2903 1527.75856,2902.03572 1530.96438,2900.10714 C1534.1702,2898.17856 1537.55407,2895.35716 1541.11609,2891.64286 C1542.5409,2890.07142 1543.75197,2889.28571 1544.74934,2889.28571 C1546.17415,2889.28571 1546.88654,2889.99999 1546.88654,2891.42857 C1546.88654,2892.85715 1546.67283,2893.85714 1546.24538,2894.42857 C1541.54351,2903.1429 1535.7375,2910.24997 1528.82718,2915.75 C1521.91685,2921.25003 1513.83118,2924 1504.56992,2924 Z M1509.47101,2867.89369 C1517.17637,2865.76743 1523.58572,2862.89703 1528.69928,2859.28239 C1533.81283,2855.66776 1536.57971,2850.24588 1537,2843.01661 C1537,2841.17386 1536.47464,2839.54375 1535.42391,2838.12625 C1534.37318,2836.70874 1532.93721,2836 1531.11594,2836 C1527.8937,2836 1524.63649,2837.48836 1521.3442,2840.46512 C1518.05192,2843.44188 1515.17996,2847.30452 1512.72826,2852.05316 C1510.27656,2856.80179 1508.70049,2861.65667 1508,2866.61794 L1508,2867.04319 C1508,2867.89369 1508.49033,2868.17719 1509.47101,2867.89369 Z" id="At-A-Glance-Copy"></path>
        </g>
    </g>
</svg>