<?xml version="1.0" encoding="UTF-8"?>
<svg width="445px" height="445px" viewBox="0 0 445 445" version="1.1" xmlns="http://www.w3.org/2000/svg" xmlns:xlink="http://www.w3.org/1999/xlink">
    <!-- Generator: Sketch 51.3 (57544) - http://www.bohemiancoding.com/sketch -->
    <title>ican-about</title>
    <desc>Created with Sketch.</desc>
    <defs></defs>
    <g id="Page-1" stroke="none" stroke-width="1" fill="none" fill-rule="evenodd">
        <g id="ican-about">
            <circle id="Oval" fill="#0081C3" fill-rule="nonzero" cx="222.5" cy="222.5" r="222.5"></circle>
            <path d="M121.261,188.5 L132.275,188.5 C140.329,188.5 144.406,192.796 144.406,198.891 C144.406,204.709 140.329,209.481 132.265,209.481 L127.856,209.481 L127.856,220 L121.261,220 L121.261,188.5 Z M127.856,194.14 L127.856,203.822 L132.099,203.822 C135.515,203.822 137.369,201.929 137.369,198.669 C137.369,195.659 135.424,194.14 132.044,194.14 L127.856,194.14 Z M159.94,195.713 C161.05,195.713 162.151,195.97 163.014,196.458 L161.897,202.228 C161.305,201.964 160.506,201.578 159.484,201.578 C157.527,201.578 155.81,202.848 154.696,206.469 L154.696,220 L148.346,220 L148.346,196.42 L153.193,196.42 L154.178,199.913 L154.313,199.913 C155.71,196.713 157.664,195.713 159.94,195.713 Z M176.867,195.713 C183.034,195.713 188.99,199.515 188.99,208.21 C188.99,216.906 183.034,220.707 176.867,220.707 C170.7,220.707 164.743,216.906 164.743,208.21 C164.743,199.515 170.7,195.713 176.867,195.713 Z M176.867,201.27 C173.284,201.27 171.161,203.764 171.161,208.21 C171.161,212.656 173.284,215.15 176.867,215.15 C180.467,215.15 182.572,212.622 182.572,208.21 C182.572,203.798 180.466,201.27 176.867,201.27 Z M215.555,196.42 L205.827,220 L200.126,220 L190.719,196.42 L197.499,196.42 L203.046,213.3 L208.581,196.42 L215.555,196.42 Z M222.813,186.346 C224.766,186.346 226.618,187.366 226.618,189.752 C226.618,192.138 224.766,193.157 222.813,193.157 C220.96,193.157 219.107,192.137 219.107,189.752 C219.107,187.366 220.96,186.346 222.813,186.346 Z M225.982,220 L219.716,220 L219.716,196.42 L225.982,196.42 L225.982,220 Z M254.232,220 L249.744,220 L248.954,217.294 L248.847,217.294 C247.244,219.31 244.833,220.707 241.947,220.707 C237.035,220.707 231.478,217.116 231.478,208.144 C231.478,199.586 236.706,195.714 241.832,195.714 C244.937,195.714 246.78,196.826 247.932,197.829 L247.932,186.16 L254.232,186.16 L254.232,220 Z M243.183,201.437 C240.333,201.437 237.896,203.51 237.896,208.088 C237.896,212.708 240.556,214.928 243.222,214.928 C245.235,214.928 246.925,213.815 247.932,212.173 L247.932,203.613 C246.736,202.194 245.198,201.437 243.183,201.437 Z M263.853,186.347 C265.806,186.347 267.658,187.366 267.658,189.752 C267.658,192.138 265.806,193.157 263.853,193.157 C262,193.157 260.147,192.137 260.147,189.752 C260.147,187.366 262,186.346 263.853,186.346 L263.853,186.347 Z M267.022,220 L260.756,220 L260.756,196.42 L267.022,196.42 L267.022,220 Z M287.064,195.713 C292.018,195.713 295.148,198.584 295.148,203.797 L295.148,220 L288.848,220 L288.848,205.836 C288.848,202.658 287.529,201.716 285.509,201.716 C283.348,201.716 281.406,203.033 279.802,205.296 L279.802,220 L273.537,220 L273.537,196.42 L277.809,196.42 L278.799,199.887 L278.999,199.887 C281.192,197.113 283.525,195.713 287.064,195.713 Z M310.454,195.713 C313.731,195.713 315.867,196.982 317.243,198.561 L317.49,198.561 L318.601,196.365 L322.88,196.365 L322.88,218.324 C322.88,226.45 317.922,229.771 310.758,229.771 C307.128,229.771 303.723,228.605 301.632,227.02 L303.827,222.306 C305.664,223.648 308.171,224.357 310.745,224.357 C314.21,224.357 316.83,222.975 316.83,219.603 L316.83,216.856 C314.862,218.685 312.953,219.203 310.56,219.203 C304.65,219.203 300.013,214.933 300.013,207.521 C300.013,199.771 305.271,195.713 310.454,195.713 Z M311.882,201.465 C308.987,201.465 306.465,203.495 306.465,207.441 C306.465,211.487 308.775,213.563 311.869,213.563 C313.792,213.563 315.475,212.803 316.635,211.037 L316.635,203.482 C315.608,202.398 314.264,201.465 311.882,201.465 Z M146.406,245.192 C146.406,250.112 143.867,252.895 140.827,253.892 L145.832,256.243 L144.973,257.769 L138.364,254.312 L138.14,254.315 C134.075,254.315 129.85,251.52 129.85,245.192 C129.85,238.88 134.075,236.2 138.14,236.2 C142.204,236.2 146.407,238.88 146.407,245.193 L146.406,245.192 Z M138.05,252.64 C141.491,252.64 144.5,250.162 144.5,245.178 C144.5,240.241 141.536,237.875 138.14,237.875 C134.699,237.875 131.758,240.241 131.758,245.178 C131.758,250.049 134.654,252.64 138.05,252.64 Z M160.658,240.9 L160.658,254 L159.31,254 L158.922,252.003 C157.794,253.398 156.459,254.3 154.372,254.3 C152.113,254.3 150.238,253.03 150.238,249.633 L150.238,240.9 L152.033,240.9 L152.033,249.228 C152.033,251.864 153.213,252.685 154.649,252.685 C156.54,252.685 157.803,251.465 158.861,250.249 L158.861,240.9 L160.659,240.9 L160.658,240.9 Z M169.722,240.585 C173.112,240.585 174.579,241.93 174.579,245.208 L174.579,251.67 C174.579,252.28 174.786,252.747 175.404,252.747 C175.559,252.747 175.789,252.725 175.819,252.725 L175.609,253.911 C175.434,254.053 175.095,254.113 174.743,254.113 C173.793,254.113 173.239,253.738 172.971,252.58 C171.956,253.808 170.618,254.315 168.808,254.315 C166.11,254.315 164.143,253.188 164.143,250.501 C164.143,247.763 166.561,246.778 169.313,246.778 C171.089,246.778 172.72,247.056 172.779,247.068 L172.779,245.144 C172.779,242.826 171.519,242.154 169.608,242.154 C167.9,242.154 166.73,242.648 165.648,243.491 L164.823,242.302 C166.075,241.272 167.657,240.585 169.723,240.585 L169.722,240.585 Z M169.485,248.232 C167.379,248.232 165.948,248.802 165.948,250.464 C165.948,252.242 167.409,252.787 168.952,252.787 C170.623,252.787 172.026,252.152 172.786,250.881 L172.786,248.551 C171.697787,248.343594 170.592791,248.23681 169.485,248.232 Z M180.643,254 L178.843,254 L178.843,235.2 L180.643,235.2 L180.643,254 Z M185.904,236.056 C186.561,236.056 187.188,236.441 187.188,237.326 C187.188,238.21 186.561,238.595 185.904,238.595 C185.277,238.595 184.65,238.21 184.65,237.325 C184.65,236.441 185.277,236.056 185.904,236.056 Z M186.795,254 L185.04,254 L185.04,240.9 L186.795,240.9 L186.795,254 Z M193.828,240.9 L197.048,240.9 L197.048,242.428 L193.828,242.428 L193.828,251.41 C193.828,252.377 194.353,252.7 194.913,252.7 C195.465,252.7 196.065,252.53 196.653,252.267 L197.168,253.653 C196.483,254.035 195.668,254.315 194.739,254.315 C193.025,254.315 192.023,253.48 192.023,251.694 L192.023,242.428 L189.775,242.428 L189.775,240.9 L192.023,240.9 L192.023,238.85 L192.94,237.54 L193.828,237.54 L193.828,240.9 Z M211.328,240.895 L206.183,254.807 C205.171,257.562 203.651,259.18 201.501,259.18 C200.577,259.18 200.027,259.06 199.545,258.895 L199.875,257.487 C199.955,257.512 200.582,257.704 201.275,257.704 C202.477,257.704 203.598,256.738 204.195,255.13 L204.478,254.382 L198.893,240.895 L200.803,240.895 L205.351,252.539 L209.486,240.895 L211.328,240.895 Z M226.674,236.2 C229.339,236.2 230.999,237.068 232.151,237.797 L231.335,239.223 C229.967,238.333 228.342,237.79 226.729,237.79 C224.433,237.79 222.95,238.863 222.95,240.714 C222.95,242.733 225.25,243.501 228.11,244.661 C230.855,245.767 232.628,246.901 232.628,249.314 C232.628,252.258 230.395,254.3 226.558,254.3 C224.605,254.3 222.378,253.715 220.763,252.697 L221.47,251.182 C222.924,252.042 224.825,252.558 226.442,252.558 C229.492,252.558 230.724,251.214 230.724,249.496 C230.724,247.687 228.986,246.847 226.341,245.854 C223.514,244.758 221.058,243.677 221.058,240.674 C221.058,238.095 223.198,236.2 226.674,236.2 Z M246.724,246.883 C246.724,247.36 246.694,247.85 246.632,248.262 L236.834,248.262 C237.17,251.392 238.807,252.749 241.342,252.749 C243.228,252.749 244.598,252.037 245.52,251.247 L246.475,252.41 C245.202,253.52 243.595,254.315 241.05,254.315 C237.86,254.315 234.963,252.153 234.963,247.523 C234.963,243.093 237.408,240.585 240.97,240.585 C244.837,240.585 246.725,243.673 246.725,246.883 L246.724,246.883 Z M236.776,246.808 L245.074,246.808 C244.957,244.062 243.449,242.134 241.025,242.134 C238.56,242.134 236.888,243.802 236.776,246.808 Z M255.438,240.585 C255.873,240.585 256.433,240.65 256.783,240.882 L256.473,242.53 C256.042347,242.400439 255.595683,242.331773 255.146,242.326 C253.838,242.326 252.846,243.173 252.201,245.133 L252.201,254 L250.438,254 L250.438,240.9 L251.794,240.9 L252.134,242.827 L252.209,242.827 C252.816,241.283 254.019,240.585 255.439,240.585 L255.438,240.585 Z M269.83,240.9 L264.556,254 L262.725,254 L257.668,240.9 L259.553,240.9 L263.7,252.106 L267.928,240.9 L269.83,240.9 Z M273.354,236.056 C274.011,236.056 274.638,236.441 274.638,237.326 C274.638,238.21 274.011,238.595 273.354,238.595 C272.727,238.595 272.1,238.21 272.1,237.325 C272.1,236.441 272.727,236.056 273.354,236.056 Z M274.245,254 L272.49,254 L272.49,240.9 L274.245,240.9 L274.245,254 Z M284.125,240.585 C286.1,240.585 287.65,241.233 288.755,242.183 L287.823,243.456 C286.828,242.701 285.903,242.181 284.205,242.181 C281.596,242.181 279.658,243.969 279.658,247.375 C279.658,250.797 281.724,252.717 284.27,252.717 C285.948,252.717 287.15,252.057 288.103,251.294 L289.035,252.5 C288.135,253.362 286.488,254.315 284.2,254.315 C280.618,254.315 277.813,251.87 277.813,247.375 C277.813,242.972 280.773,240.585 284.125,240.585 Z M302.475,246.883 C302.475,247.36 302.445,247.85 302.382,248.262 L292.584,248.262 C292.92,251.392 294.557,252.749 297.092,252.749 C298.978,252.749 300.348,252.037 301.271,251.247 L302.225,252.41 C300.952,253.52 299.345,254.315 296.8,254.315 C293.61,254.315 290.713,252.153 290.713,247.523 C290.713,243.093 293.158,240.585 296.72,240.585 C300.587,240.585 302.474,243.673 302.474,246.883 L302.475,246.883 Z M292.526,246.808 L300.824,246.808 C300.707,244.062 299.199,242.134 296.775,242.134 C294.31,242.134 292.638,243.802 292.526,246.808 Z M310.189,240.585 C311.932,240.585 313.527,241.153 314.524,241.935 L313.744,243.261 C312.744,242.641 311.54,242.136 310.184,242.136 C308.444,242.136 307.323,242.989 307.323,244.18 C307.323,245.635 308.783,246.09 310.398,246.588 C312.48,247.238 314.694,247.905 314.694,250.373 C314.694,252.68 312.897,254.315 309.697,254.315 C308.147,254.315 306.41,253.772 305.303,252.872 L305.965,251.374 C306.912,252.227 308.398,252.724 309.613,252.724 C311.799,252.724 312.851,251.694 312.851,250.473 C312.851,249.003 311.341,248.724 309.311,248.014 C306.993,247.202 305.563,246.47 305.563,244.234 C305.563,241.942 307.573,240.585 310.19,240.585 L310.189,240.585 Z M145.14,299 L145.139,279.675 L136.519,298.082 L132.797,298.082 L124.315,279.84 L124.315,299 L117.998,299 L117.998,267.5 L124.301,267.5 L134.889,290.238 L145.099,267.5 L151.456,267.5 L151.456,299 L145.139,299 L145.14,299 Z M166.334,274.713 L166.335,274.713 C173.276,274.713 176.315,277.787 176.315,283.477 L176.315,292.866 C176.315,294.056 176.758,294.595 177.566,294.595 L178.686,294.578 L178.215,298.698 C177.485,299.351 176.163,299.552 175.091,299.552 C173.199,299.552 171.713,298.877 170.991,296.957 C169.49,298.49 167.432,299.707 164.081,299.707 C159.482,299.707 155.777,297.421 155.777,292.234 C155.777,287.423 159.825,285.324 165.037,285.324 C167.065,285.324 169.346,285.613 170.014,285.752 L170.014,283.947 C170.014,280.779 168.352,279.825 165.52,279.825 C163.077,279.825 160.784,280.669 159.232,281.882 L156.814,277.968 C159.324,275.834 162.944,274.713 166.334,274.713 Z M165.79,289.155 C163.355,289.155 161.667,289.901 161.667,292.049 C161.667,294.339 163.455,295.04 165.229,295.04 C167.255,295.04 169.103,294.27 170.098,292.498 L170.098,289.656 C169.098,289.376 167.572,289.155 165.79,289.155 Z M196.321,274.713 C201.275,274.713 204.405,277.584 204.405,282.797 L204.405,299 L198.105,299 L198.105,284.836 C198.105,281.658 196.787,280.716 194.767,280.716 C192.606,280.716 190.663,282.033 189.06,284.296 L189.06,299 L182.794,299 L182.794,275.42 L187.066,275.42 L188.056,278.887 L188.257,278.887 C190.449,276.113 192.783,274.713 196.321,274.713 Z M219.884,274.713 L219.885,274.713 C226.826,274.713 229.865,277.787 229.865,283.477 L229.865,292.866 C229.865,294.056 230.308,294.595 231.116,294.595 L232.236,294.578 L231.765,298.698 C231.035,299.351 229.713,299.552 228.641,299.552 C226.749,299.552 225.263,298.877 224.541,296.957 C223.04,298.49 220.982,299.707 217.631,299.707 C213.031,299.707 209.327,297.421 209.327,292.234 C209.327,287.423 213.375,285.324 218.587,285.324 C220.615,285.324 222.896,285.613 223.564,285.752 L223.564,283.947 C223.564,280.779 221.902,279.825 219.071,279.825 C216.627,279.825 214.334,280.669 212.782,281.882 L210.364,277.968 C212.874,275.834 216.494,274.713 219.884,274.713 Z M219.34,289.155 C216.905,289.155 215.217,289.901 215.217,292.049 C215.217,294.339 217.005,295.04 218.779,295.04 C220.805,295.04 222.653,294.27 223.648,292.498 L223.648,289.656 C222.648,289.376 221.122,289.155 219.34,289.155 Z M245.092,274.713 C248.368,274.713 250.504,275.982 251.88,277.561 L252.127,277.561 L253.239,275.365 L257.517,275.365 L257.517,297.324 C257.517,305.45 252.56,308.771 245.395,308.771 C241.765,308.771 238.361,307.605 236.269,306.02 L238.465,301.306 C240.301,302.648 242.808,303.357 245.382,303.357 C248.848,303.357 251.467,301.975 251.467,298.603 L251.467,295.856 C249.5,297.685 247.59,298.203 245.197,298.203 C239.287,298.203 234.651,293.933 234.651,286.521 C234.651,278.771 239.908,274.713 245.091,274.713 L245.092,274.713 Z M246.519,280.465 C243.625,280.465 241.103,282.495 241.103,286.441 C241.103,290.487 243.413,292.563 246.506,292.563 C248.429,292.563 250.112,291.803 251.272,290.037 L251.272,282.482 C250.246,281.398 248.902,280.465 246.519,280.465 Z M267.115,265.346 C269.068,265.346 270.921,266.366 270.921,268.752 C270.921,271.138 269.068,272.158 267.115,272.158 C265.263,272.158 263.41,271.138 263.41,268.752 C263.41,266.366 265.263,265.346 267.115,265.346 Z M270.285,299 L264.019,299 L264.019,275.42 L270.284,275.42 L270.284,299 L270.285,299 Z M290.326,274.713 C295.28,274.713 298.41,277.584 298.41,282.797 L298.41,299 L292.11,299 L292.11,284.836 C292.11,281.658 290.792,280.716 288.772,280.716 C286.611,280.716 284.668,282.033 283.065,284.296 L283.065,299 L276.799,299 L276.799,275.42 L281.071,275.42 L282.061,278.887 L282.262,278.887 C284.454,276.113 286.788,274.713 290.326,274.713 Z M313.716,274.713 C316.993,274.713 319.129,275.982 320.506,277.561 L320.752,277.561 L321.864,275.365 L326.142,275.365 L326.142,297.324 C326.142,305.45 321.185,308.771 314.02,308.771 C310.39,308.771 306.986,307.605 304.894,306.02 L307.09,301.306 C308.926,302.648 311.433,303.357 314.007,303.357 C317.473,303.357 320.092,301.975 320.092,298.603 L320.092,295.856 C318.125,297.685 316.215,298.203 313.823,298.203 C307.912,298.203 303.276,293.933 303.276,286.521 C303.276,278.771 308.533,274.713 313.716,274.713 Z M315.144,280.465 C312.25,280.465 309.728,282.495 309.728,286.441 C309.728,290.487 312.038,292.563 315.131,292.563 C317.054,292.563 318.737,291.803 319.897,290.037 L319.897,282.482 C318.871,281.398 317.527,280.465 315.144,280.465 Z M102.678,334 L100.831,334 L100.831,316.5 L102.678,316.5 L102.678,334 Z M121.021,320.595 C123.594,320.595 125.156,322.12 125.156,325.128 L125.156,334 L123.344,334 L123.344,325.205 C123.344,323.163 122.454,322.203 120.833,322.203 C119.279,322.203 118.139,323.096 117.106,324.741 L117.106,334 L115.291,334 L115.291,325.115 C115.291,322.871 114.001,322.203 112.76,322.203 C111.131,322.203 109.823,323.326 109.053,324.741 L109.053,334 L107.241,334 L107.238,320.9 L108.644,320.9 L108.949,322.805 L109.026,322.805 C110.046,321.383 111.091,320.595 112.969,320.595 C114.759,320.595 115.944,321.305 116.661,323.028 C117.999,321.188 119.419,320.595 121.021,320.595 Z M135.414,320.6 C138.344,320.6 140.754,322.657 140.754,327.138 C140.754,331.532 137.854,334.315 134.804,334.315 C133.224,334.315 132.216,333.987 131.264,333.372 L131.264,339.15 L129.464,339.15 L129.464,320.895 L130.742,320.895 L131.112,322.888 L131.184,322.888 C132.236,321.433 133.491,320.6 135.414,320.6 Z M135.125,322.208 C133.48,322.208 132.302,323.161 131.263,324.945 L131.263,331.689 C132.216,332.459 132.987,332.745 134.475,332.745 C136.571,332.745 138.902,330.844 138.902,327.232 C138.902,323.631 137.048,322.208 135.125,322.208 Z M149.72,320.585 C152.977,320.585 156.026,322.645 156.026,327.45 C156.026,332.255 152.977,334.315 149.72,334.315 C146.463,334.315 143.413,332.255 143.413,327.45 C143.413,322.645 146.463,320.585 149.72,320.585 Z M149.72,322.193 C147.029,322.193 145.265,324.137 145.265,327.45 C145.265,330.764 147.029,332.707 149.72,332.707 C152.433,332.707 154.174,330.719 154.174,327.45 C154.174,324.182 152.434,322.193 149.72,322.193 Z M163.49,320.585 C165.232,320.585 166.827,321.153 167.824,321.935 L167.044,323.261 C166.044,322.641 164.84,322.136 163.484,322.136 C161.744,322.136 160.623,322.989 160.623,324.18 C160.623,325.635 162.083,326.09 163.698,326.588 C165.78,327.238 167.994,327.905 167.994,330.373 C167.994,332.68 166.197,334.315 162.997,334.315 C161.447,334.315 159.71,333.772 158.603,332.872 L159.265,331.374 C160.212,332.227 161.698,332.724 162.913,332.724 C165.099,332.724 166.151,331.694 166.151,330.473 C166.151,329.003 164.641,328.724 162.611,328.014 C160.293,327.202 158.863,326.47 158.863,324.234 C158.863,321.943 160.873,320.585 163.489,320.585 L163.49,320.585 Z M175.29,320.585 C177.032,320.585 178.627,321.153 179.624,321.935 L178.844,323.261 C177.844,322.641 176.64,322.136 175.284,322.136 C173.544,322.136 172.423,322.989 172.423,324.18 C172.423,325.635 173.883,326.09 175.498,326.588 C177.581,327.238 179.794,327.905 179.794,330.373 C179.794,332.68 177.997,334.315 174.797,334.315 C173.247,334.315 171.51,333.772 170.403,332.872 L171.065,331.374 C172.012,332.227 173.498,332.724 174.713,332.724 C176.899,332.724 177.952,331.694 177.952,330.473 C177.952,329.003 176.442,328.724 174.411,328.014 C172.093,327.202 170.663,326.47 170.663,324.234 C170.663,321.943 172.673,320.585 175.289,320.585 L175.29,320.585 Z M184.029,316.056 C184.686,316.056 185.313,316.441 185.313,317.326 C185.313,318.21 184.686,318.594 184.029,318.594 C183.402,318.594 182.775,318.21 182.775,317.325 C182.775,316.441 183.402,316.056 184.029,316.056 Z M184.92,334 L183.165,334 L183.165,320.9 L184.92,320.9 L184.92,334 Z M191.113,322.52 L191.165,322.52 C192.188,321.28 193.706,320.585 195.377,320.585 C198.614,320.585 200.897,322.96 200.897,327.205 C200.897,331.72 198.479,334.315 194.807,334.315 C193.322,334.315 191.897,333.723 190.964,332.548 L190.881,332.548 L190.54,334 L189.314,334 L189.314,315.2 L191.114,315.2 L191.114,322.52 L191.113,322.52 Z M195.133,322.21 C193.674,322.21 192.416,322.82 191.113,324.502 L191.113,330.829 C191.828,331.966 193.096,332.707 194.833,332.707 C197.248,332.707 199.044,330.634 199.044,327.215 C199.044,324.006 197.361,322.211 195.132,322.211 L195.133,322.21 Z M206.193,334 L204.393,334 L204.393,315.2 L206.193,315.2 L206.193,334 Z M221.449,326.883 C221.449,327.36 221.419,327.85 221.357,328.262 L211.559,328.262 C211.895,331.392 213.532,332.749 216.067,332.749 C217.953,332.749 219.323,332.037 220.245,331.247 L221.2,332.41 C219.928,333.52 218.32,334.315 215.775,334.315 C212.585,334.315 209.688,332.152 209.688,327.522 C209.688,323.092 212.133,320.585 215.695,320.585 C219.562,320.585 221.45,323.673 221.45,326.883 L221.449,326.883 Z M211.501,326.808 L219.799,326.808 C219.682,324.062 218.174,322.134 215.75,322.134 C213.285,322.134 211.613,323.802 211.501,326.808 Z M237.624,316.2 C240.289,316.2 241.949,317.068 243.101,317.797 L242.285,319.223 C240.917,318.333 239.292,317.79 237.679,317.79 C235.383,317.79 233.9,318.863 233.9,320.714 C233.9,322.733 236.2,323.501 239.06,324.661 C241.805,325.767 243.578,326.901 243.578,329.313 C243.578,332.258 241.345,334.3 237.508,334.3 C235.555,334.3 233.328,333.715 231.713,332.697 L232.42,331.182 C233.875,332.042 235.775,332.557 237.392,332.557 C240.442,332.557 241.674,331.214 241.674,329.496 C241.674,327.688 239.936,326.847 237.291,325.854 C234.464,324.758 232.008,323.677 232.008,320.674 C232.008,318.095 234.148,316.2 237.624,316.2 Z M247.704,316.056 C248.361,316.056 248.988,316.441 248.988,317.326 C248.988,318.21 248.361,318.594 247.704,318.594 C247.077,318.594 246.45,318.21 246.45,317.325 C246.45,316.441 247.077,316.056 247.704,316.056 Z M248.595,334 L246.84,334 L246.84,320.9 L248.595,320.9 L248.595,334 Z M255.628,320.9 L258.848,320.9 L258.848,322.428 L255.628,322.428 L255.628,331.41 C255.628,332.377 256.153,332.7 256.713,332.7 C257.265,332.7 257.865,332.53 258.453,332.267 L258.968,333.653 C258.283,334.035 257.468,334.315 256.539,334.315 C254.825,334.315 253.823,333.48 253.823,331.694 L253.823,322.428 L251.575,322.428 L251.575,320.9 L253.823,320.9 L253.823,318.85 L254.739,317.54 L255.628,317.54 L255.628,320.9 Z M272.534,320.9 L272.534,334 L271.185,334 L270.797,332.003 C269.669,333.398 268.334,334.3 266.247,334.3 C263.988,334.3 262.113,333.03 262.113,329.633 L262.113,320.9 L263.908,320.9 L263.908,329.228 C263.908,331.865 265.088,332.685 266.524,332.685 C268.415,332.685 269.678,331.465 270.736,330.249 L270.736,320.9 L272.534,320.9 Z M281.597,320.585 C284.987,320.585 286.454,321.93 286.454,325.208 L286.454,331.67 C286.454,332.28 286.661,332.747 287.279,332.747 C287.434,332.747 287.664,332.725 287.694,332.725 L287.484,333.91 C287.309,334.053 286.971,334.112 286.618,334.112 C285.668,334.112 285.114,333.737 284.846,332.58 C283.831,333.808 282.493,334.315 280.683,334.315 C277.985,334.315 276.018,333.188 276.018,330.501 C276.018,327.763 278.436,326.778 281.188,326.778 C282.964,326.778 284.594,327.056 284.654,327.068 L284.654,325.145 C284.654,322.826 283.394,322.153 281.483,322.153 C279.775,322.153 278.605,322.648 277.523,323.491 L276.698,322.303 C277.95,321.273 279.532,320.585 281.598,320.585 L281.597,320.585 Z M281.36,328.233 C279.254,328.233 277.823,328.803 277.823,330.463 C277.823,332.242 279.284,332.787 280.827,332.787 C282.498,332.787 283.901,332.152 284.661,330.881 L284.661,328.551 C283.573084,328.343991 282.468426,328.237542 281.361,328.233 L281.36,328.233 Z M293.078,320.9 L296.298,320.9 L296.298,322.428 L293.078,322.428 L293.078,331.41 C293.078,332.377 293.603,332.7 294.163,332.7 C294.716,332.7 295.315,332.53 295.903,332.267 L296.418,333.653 C295.733,334.035 294.918,334.315 293.989,334.315 C292.275,334.315 291.273,333.48 291.273,331.694 L291.273,322.428 L289.025,322.428 L289.025,320.9 L291.273,320.9 L291.273,318.85 L292.189,317.54 L293.078,317.54 L293.078,320.9 Z M300.554,316.056 C301.211,316.056 301.838,316.441 301.838,317.326 C301.838,318.21 301.211,318.594 300.554,318.594 C299.927,318.594 299.3,318.21 299.3,317.325 C299.3,316.441 299.927,316.056 300.554,316.056 Z M301.445,334 L299.69,334 L299.69,320.9 L301.445,320.9 L301.445,334 Z M311.32,320.585 C314.577,320.585 317.627,322.645 317.627,327.45 C317.627,332.255 314.577,334.315 311.32,334.315 C308.063,334.315 305.013,332.255 305.013,327.45 C305.013,322.645 308.063,320.585 311.32,320.585 Z M311.32,322.193 C308.629,322.193 306.865,324.137 306.865,327.45 C306.865,330.764 308.629,332.707 311.32,332.707 C314.033,332.707 315.774,330.719 315.774,327.45 C315.774,324.182 314.034,322.193 311.32,322.193 Z M327.356,320.585 C330.044,320.585 331.666,322.038 331.666,324.895 L331.666,334 L329.866,334 L329.866,325.392 C329.866,322.926 328.783,322.232 327.155,322.232 C325.409,322.232 324.019,323.042 322.868,324.818 L322.868,334 L321.113,334 L321.113,320.9 L322.397,320.9 L322.674,322.93 L322.734,322.93 C323.874,321.57 325.131,320.585 327.356,320.585 Z M339.94,320.585 C341.682,320.585 343.277,321.153 344.274,321.935 L343.494,323.261 C342.494,322.641 341.29,322.136 339.934,322.136 C338.194,322.136 337.073,322.989 337.073,324.18 C337.073,325.635 338.533,326.09 340.148,326.588 C342.23,327.238 344.444,327.905 344.444,330.373 C344.444,332.68 342.647,334.315 339.447,334.315 C337.897,334.315 336.16,333.772 335.053,332.872 L335.715,331.374 C336.662,332.227 338.148,332.724 339.363,332.724 C341.549,332.724 342.601,331.694 342.601,330.473 C342.601,329.003 341.091,328.724 339.061,328.014 C336.743,327.202 335.313,326.47 335.313,324.234 C335.313,321.943 337.323,320.585 339.94,320.585 Z" id="Shape" fill="#FFFFFF" fill-rule="nonzero"></path>
            <path d="M111.5,173.5 L325.734,173.5 M113.5,355.5 L327.734,355.5" id="Shape" stroke="#FFFFFF" stroke-width="2" stroke-linecap="square"></path>
            <g id="Group" transform="translate(122.000000, 97.000000)" fill="#FFFFFF" fill-rule="nonzero">
                <path d="M74.574,42.426 C74.4266263,42.0967827 74.1490964,41.8435941 73.8077712,41.7269746 C73.4664459,41.6103551 73.0920116,41.6407893 72.774,41.811 C70.277,43.121 67.372,43.779 64.077,43.779 C54.418,43.779 48.208,37.368 48.208,28.35 C48.208,19.134 54.615,12.222 64.668,12.222 C67.851,12.222 70.388,12.856 72.661,14.103 C73.337,14.474 74.191,14.206 74.499,13.491 C75.778,10.514 77.449,7.821 79.449,5.484 C80.011,4.828 79.804,3.81 79.044,3.409 C74.824,1.179 69.914,-4.26325641e-14 64.57,-4.26325641e-14 C47.222,-4.26325641e-14 35,12.222 35,28.15 C35,43.678 46.533,56 64.372,56 C70.067,56 75.032,54.854 79.283,52.565 C80.041,52.156 80.242,51.135 79.673,50.483 C77.5779355,48.0687615 75.858633,45.3526005 74.573,42.426 L74.574,42.426 Z" id="Shape"></path>
                <path d="M115.942,48.987 C111.327,53.596 106.418,56 99.839,56 C86.585,56 75,44.379 75,28.05 C75,11.42 85.996,0 99.546,0 C105.83,0 111.229,2.404 115.942,7.213 L115.942,2.751 C115.942,2.006 116.534,1.403 117.263,1.403 L127.679,1.403 C128.409,1.403 129,2.006 129,2.751 L129,53.248 C129,53.993 128.408,54.597 127.679,54.597 L117.263,54.597 C116.533,54.597 115.943,53.993 115.943,53.248 L115.943,48.988 L115.942,48.987 Z M88.156,27.95 C88.156,37.066 94.047,43.779 102.196,43.779 C110.247,43.779 116.531,37.566 116.531,27.849 C116.531,18.534 110.444,12.222 102.197,12.222 C93.555,12.222 88.157,19.235 88.157,27.95 L88.156,27.95 Z M149.243,6.737 C154.32,2.477 159,0 164.877,0 C174.735,0 183,6.737 183,18.034 L183,52.667 C183,53.403 182.4,54 181.66,54 L171.097,54 C170.357,54 169.757,53.403 169.757,52.667 L169.757,29.13 C169.757,18.727 168.861,12.088 160.795,12.088 C157.11,12.088 153.923,13.872 151.832,17.141 C149.143,21.403 149.244,26.158 149.244,31.607 L149.244,52.667 C149.244,53.403 148.644,54 147.904,54 L137.34,54 C136.6,54 136,53.403 136,52.667 L136,2.72 C136,1.983 136.6,1.386 137.34,1.386 L147.904,1.386 C148.644,1.386 149.244,1.983 149.244,2.72 L149.244,6.736 L149.243,6.736 L149.243,6.737 Z M17,27.648 C17,32.266 13.2,36 8.5,36 C3.6,36 0,31.775 0,26.959 C0,22.439 3.9,19 8.5,19 C13.3,19 17,22.93 17,27.648 Z M29.544,0 L18.456,0 C17.652,0 17,0.62 17,1.384 L17,18.482 C19.84,20.798 21.646,24.228 21.646,28.063 C21.646,31.899 19.839,35.328 17,37.644 L17,54.616 C17,55.38 17.652,56 18.456,56 L29.544,56 C30.348,56 31,55.38 31,54.616 L31,1.384 C31,0.619 30.348,0 29.544,0 Z" id="Shape"></path>
            </g>
            <g id="Group" transform="translate(307.000000, 148.000000)" fill="#FFFFFF" fill-rule="nonzero">
                <polygon id="Shape" points="1.1 1.2 0.4 1.2 0.4 0.8 2.2 0.8 2.2 1.2 1.5 1.2 1.5 3 1.1 3 1.1 1.2"></polygon>
                <polygon id="Shape" points="2.6 0.8 3 0.8 3.7 1.9 4.4 0.8 4.8 0.8 4.8 3 4.4 3 4.4 1.4 3.7 2.5 3.7 2.5 3 1.5 3 3 2.6 3"></polygon>
            </g>
        </g>
    </g>
</svg>