<?xml version="1.0" encoding="utf-8"?>
<!-- Generator: Adobe Illustrator 23.0.3, SVG Export Plug-In . SVG Version: 6.00 Build 0)  -->
<svg version="1.1" id="Layer_1"
    xmlns="http://www.w3.org/2000/svg"
    xmlns:xlink="http://www.w3.org/1999/xlink" x="0px" y="0px" viewBox="0 0 1062 323" style="enable-background:new 0 0 1062 323;" xml:space="preserve">
    <style type="text/css">
	.st0{opacity:7.248884e-02;}
	.st1{fill:#FFFFFF;}
    </style>
    <title>Group Copy 2</title>
    <desc>Created with Sketch.</desc>
    <g id="Event-Interior-Fundraiser" class="st0">
        <g id="Group-Copy-2" transform="translate(-494.000000, -1388.000000)">
            <g transform="translate(494.000000, 1388.000000)">
                <path id="Shape" class="st1" d="M421.7,238.6c-1.7-3.9-6.4-5.4-10.2-3.5c-14.2,7.4-30.7,11.1-49.4,11.1
				c-54.8,0-90.1-36.1-90.1-86.8c0-51.8,36.4-90.7,93.5-90.7c18.1,0,32.5,3.6,45.4,10.6c3.8,2.1,8.7,0.6,10.4-3.4
				c7.3-16.7,16.8-31.9,28.1-45c3.2-3.7,2-9.4-2.3-11.7C423.1,6.6,395.2,0,364.9,0C266.4,0,197,68.8,197,158.3
				c0,87.3,65.5,156.7,166.8,156.7c32.3,0,60.5-6.4,84.7-19.3c4.3-2.3,5.4-8,2.2-11.7C439,270.7,429.2,255.4,421.7,238.6z"/>
                <path class="st1" d="M659.8,275.6c-26.3,25.9-54.4,39.4-91.9,39.4c-75.6,0-141.8-65.4-141.8-157.2C426.2,64.2,488.9,0,566.3,0
				c35.9,0,66.7,13.5,93.6,40.6V15.5c0-4.2,3.4-7.6,7.5-7.6h59.4c4.2,0,7.5,3.4,7.5,7.6v284c0,4.2-3.4,7.6-7.5,7.6h-59.4
				c-4.2,0-7.5-3.4-7.5-7.6V275.6z M501.3,157.2c0,51.3,33.6,89,80.1,89c45.9,0,81.8-34.9,81.8-89.6c0-52.4-34.7-87.9-81.8-87.9
				C532.1,68.8,501.3,108.2,501.3,157.2z"/>
                <path class="st1" d="M847.3,37.7C875.6,13.9,901.7,0,934.5,0c55,0,101.2,37.7,101.2,101v193.9c0,4.1-3.4,7.5-7.5,7.5h-59
				c-4.1,0-7.5-3.3-7.5-7.5V163.1c0-58.2-5-95.4-50-95.4c-20.6,0-38.4,10-50,28.3c-15,23.9-14.4,50.5-14.4,81v117.9
				c0,4.1-3.4,7.5-7.5,7.5h-59c-4.1,0-7.5-3.3-7.5-7.5V15.2c0-4.1,3.4-7.5,7.5-7.5h59c4.1,0,7.5,3.3,7.5,7.5L847.3,37.7L847.3,37.7z
				"/>
                <path class="st1" d="M91.7,152c0,24.9-20.5,45-45.8,45C19.4,197,0,174.2,0,148.2c0-24.4,21-42.9,45.8-42.9
				C71.7,105.3,91.7,126.5,91.7,152z"/>
                <path class="st1" d="M162.4,0H99.9c-4.5,0-8.2,3.5-8.2,7.8V104c16,13,26.2,32.3,26.2,53.9s-10.2,40.9-26.2,53.9v95.5
				c0,4.3,3.7,7.8,8.2,7.8h62.6c4.5,0,8.2-3.5,8.2-7.8V7.8C170.7,3.5,167,0,162.4,0z"/>
            </g>
        </g>
    </g>
    <g class="st0">
        <path class="st1" d="M1047.7,291.9h-2.3v-1.2h6v1.2h-2.3v6.2h-1.3V291.9z"/>
        <path class="st1" d="M1052.7,290.7h1.4l2.2,3.5l2.2-3.5h1.4v7.4h-1.3v-5.3l-2.3,3.5h0l-2.3-3.4v5.3h-1.3V290.7z"/>
    </g>
</svg>
