<?xml version="1.0" encoding="UTF-8"?>
<svg width="311px" height="311px" viewBox="0 0 311 311" version="1.1"
    xmlns="http://www.w3.org/2000/svg"
    xmlns:xlink="http://www.w3.org/1999/xlink">
    <!-- Generator: Sketch 52.6 (67491) - http://www.bohemiancoding.com/sketch -->
    <title>Group 4</title>
    <desc>Created with Sketch.</desc>
    <g id="Independent-Practice-Association" stroke="none" stroke-width="1" fill="none" fill-rule="evenodd" opacity="0.105580357">
        <g transform="translate(-869.000000, -1198.000000)" fill="#FFFFFF" id="Group-4">
            <g transform="translate(867.000000, 1196.000000)">
                <g id="noun_people-network_1914163" fill-rule="nonzero">
                    <g id="Group" transform="translate(2.250000, 2.250000)">
                        <g id="Shape">
                            <path d="M91.26837,18.71073 L89.20665,14.31405 C95.078205,11.559915 101.176425,9.15975 107.33364,7.175655 L108.82404,11.799 C102.86244,13.720995 96.953625,16.04664 91.26837,18.71073 Z M18.71073,219.228525 C16.04664,213.546375 13.720995,207.640665 11.795895,201.672855 L7.175655,203.163255 C9.15975,209.32047 11.56302,215.421795 14.310945,221.290245 L18.71073,219.228525 Z M7.25328,127.09386 L2.484,126.18099 C1.269945,132.524505 0.44712,139.02327 0.034155,145.497195 L4.88106,145.80459 C5.281605,139.53249 6.07959,133.23555 7.25328,127.09386 Z M0,164.95623 C0.388125,171.430155 1.19232,177.93513 2.381535,184.28175 L7.15392,183.38751 C5.99886,177.23961 5.22261,170.939565 4.846905,164.667465 L0,164.95623 Z M310.5,145.54377 C310.111875,139.069845 309.30768,132.56487 308.11536,126.21825 L303.342975,127.115595 C304.498035,133.263495 305.274285,139.56354 305.653095,145.83564 L310.5,145.54377 Z M184.31901,2.484 C177.97239,1.269945 171.473625,0.44712 164.9997,0.03726 L164.692305,4.884165 C170.964405,5.281605 177.25824,6.07959 183.403035,7.256385 L184.31901,2.484 Z M145.83564,4.85001 L145.54377,0 C139.069845,0.388125 132.56487,1.19232 126.21825,2.381535 L127.115595,7.157025 C133.263495,6.001965 139.560435,5.225715 145.83564,4.85001 Z M221.29956,14.54382 C215.43732,11.77416 209.342205,9.349155 203.18499,7.34022 L201.679065,11.957355 C207.646875,13.90419 213.546375,16.25157 219.222315,18.93429 L221.29956,14.54382 Z M201.43377,298.701 L202.921065,303.32124 C209.081385,301.33404 215.18271,298.933875 221.048055,296.182845 L218.98944,291.786165 C213.304185,294.45336 207.398475,296.779005 201.43377,298.701 Z M291.56571,219.22542 L295.95618,221.29956 C298.72584,215.44353 301.14774,209.348415 303.15978,203.188095 L298.542645,201.68217 C296.592705,207.64998 294.24843,213.54948 291.56571,219.22542 Z M291.78927,91.26837 C294.45336,96.953625 296.779005,102.859335 298.704105,108.827145 L303.324345,107.336745 C301.337145,101.17953 298.93698,95.08131 296.189055,89.209755 L291.78927,91.26837 Z M303.24672,183.40614 L308.016,184.31901 C309.230055,177.97239 310.049775,171.473625 310.46274,164.9997 L305.615835,164.692305 C305.2215,170.96751 304.423515,177.261345 303.24672,183.40614 Z M301.517235,259.531425 C301.517235,282.173085 283.09527,300.591945 260.45361,300.591945 C237.815055,300.591945 219.396195,282.173085 219.396195,259.531425 C219.396195,249.10173 223.3116,239.572485 229.742055,232.32231 L195.344865,197.922015 C173.063385,218.87145 138.268755,219.073275 115.763715,198.499545 L81.26406,232.996095 C87.346755,240.15933 91.02618,249.421545 91.02618,259.531425 C91.02618,282.173085 72.60732,300.591945 49.96566,300.591945 C27.324,300.591945 8.90514,282.173085 8.90514,259.531425 C8.90514,236.889765 27.324,218.470905 49.96566,218.470905 C60.75243,218.470905 70.573545,222.65955 77.907555,229.48434 L112.32027,195.07473 C91.46709,172.61316 91.52298,137.653965 112.48173,115.254495 L77.9355,80.74242 C70.598385,87.582735 60.76485,91.780695 49.968765,91.780695 C27.327105,91.780695 8.908245,73.361835 8.908245,50.720175 C8.908245,28.078515 27.327105,9.659655 49.968765,9.659655 C72.610425,9.659655 91.029285,28.078515 91.029285,50.720175 C91.029285,60.817635 87.359175,70.06743 81.292005,77.22756 L115.931385,111.8421 C138.237705,91.613025 172.492065,91.67202 194.736285,112.00356 L229.31046,77.429385 C223.14393,70.244415 219.402405,60.91389 219.402405,50.720175 C219.402405,28.078515 237.821265,9.659655 260.45982,9.659655 C283.10148,9.659655 301.523445,28.078515 301.523445,50.720175 C301.523445,73.361835 283.10148,91.780695 260.45982,91.780695 C249.75999,91.780695 240.000975,87.66036 232.685595,80.925615 L198.17973,115.42527 C218.793825,137.62602 218.992545,172.04184 198.75726,194.46615 L233.17308,228.885075 C240.435675,222.414255 249.992865,218.470905 260.456715,218.470905 C283.098375,218.470905 301.517235,236.889765 301.517235,259.531425 Z M282.669885,66.62088 C282.669885,62.80794 279.18918,50.86611 260.456715,50.86611 C244.298295,50.86611 238.249755,60.08175 238.249755,66.62088 L238.249755,79.27686 C239.920245,80.58096 241.708725,81.74223 243.59967,82.74204 L243.59967,66.29175 L248.45589,66.29175 L248.45589,84.868965 C256.5351,87.719355 265.368825,87.39333 272.56311,84.83481 L272.56311,66.29175 L277.41933,66.29175 L277.41933,82.695465 C279.26991,81.708075 281.02734,80.56233 282.669885,79.279965 L282.669885,66.62088 Z M260.456715,46.702305 C270.032535,46.702305 272.578635,37.8189 272.578635,34.580385 C272.578635,27.89532 267.14178,22.458465 260.456715,22.458465 C253.774755,22.458465 248.334795,27.89532 248.334795,34.57728 C248.334795,41.26545 253.77165,46.702305 260.456715,46.702305 Z M233.39043,74.72493 L233.39043,66.62088 C233.39043,57.74058 240.516405,49.78557 249.564375,47.590335 C245.84769,44.472915 243.47547,39.79989 243.47547,34.580385 C243.47547,25.21881 251.092035,17.602245 260.456715,17.602245 C269.821395,17.602245 277.43796,25.21881 277.43796,34.57728 C277.43796,43.0353 271.73097,47.279835 271.349055,47.602755 C284.12613,51.055515 287.526105,61.40448 287.526105,66.62088 L287.526105,74.72493 C293.20515,68.32863 296.661015,59.923395 296.661015,50.720175 C296.661015,30.755025 280.421865,14.515875 260.456715,14.515875 C240.49467,14.515875 224.25552,30.755025 224.25552,50.720175 C224.25552,59.923395 227.71449,68.331735 233.39043,74.72493 Z M72.17883,66.62088 C72.17883,62.053425 67.99329,50.86611 50.10849,50.86611 C33.56505,50.86611 27.755595,60.08175 27.755595,66.62088 L27.755595,79.27686 C29.42919,80.58096 31.21767,81.74223 33.108615,82.74204 L33.108615,66.29175 L37.96173,66.29175 L37.96173,84.868965 C46.53153,87.89013 54.9585,87.365385 62.06895,84.83481 L62.06895,66.29175 L66.92517,66.29175 L66.92517,82.695465 C68.778855,81.708075 70.53318,80.56233 72.17883,79.279965 L72.17883,66.62088 Z M49.962555,46.702305 C59.538375,46.702305 62.08758,37.8189 62.084475,34.580385 C62.084475,27.89532 56.64762,22.458465 49.96566,22.458465 C43.27749,22.458465 37.840635,27.89532 37.840635,34.57728 C37.84374,41.26545 43.280595,46.702305 49.962555,46.702305 Z M86.16996,50.720175 C86.16996,30.755025 69.93081,14.515875 49.96566,14.515875 C30.00051,14.515875 13.76136,30.755025 13.76136,50.720175 C13.76136,59.923395 17.22033,68.331735 22.89627,74.72493 L22.89627,66.62088 C22.89627,57.74058 30.022245,49.78557 39.06711,47.590335 C35.350425,44.472915 32.984415,39.79989 32.98131,34.580385 C32.98131,25.21881 40.597875,17.602245 49.95945,17.602245 C59.32413,17.602245 66.93759,25.21881 66.93759,34.57728 C66.93759,43.0353 61.233705,47.279835 60.848685,47.602755 C73.628865,51.055515 77.02884,61.40448 77.02884,66.62088 L77.02884,74.72493 C82.71099,68.331735 86.16996,59.923395 86.16996,50.720175 Z M72.17883,275.43213 C72.17883,271.61919 69.188715,259.916445 49.968765,259.916445 C33.419115,259.916445 27.755595,268.893 27.755595,275.43213 L27.755595,288.08811 C29.42919,289.395315 31.21767,290.556585 33.108615,291.55329 L33.108615,275.103 L37.96173,275.103 L37.96173,293.680215 C46.18377,296.580285 54.44307,296.362935 62.06895,293.64606 L62.06895,275.103 L66.92517,275.103 L66.92517,291.506715 C68.778855,290.519325 70.53318,289.370475 72.17883,288.091215 L72.17883,275.43213 Z M49.962555,255.513555 C59.538375,255.513555 62.08758,246.63015 62.084475,243.39474 C62.084475,236.709675 56.64762,231.27282 49.96566,231.27282 C43.27749,231.27282 37.840635,236.709675 37.840635,243.391635 C37.84374,250.0767 43.280595,255.513555 49.962555,255.513555 Z M49.96566,223.327125 C30.003615,223.327125 13.76136,239.56938 13.76136,259.531425 C13.76136,268.73775 17.22033,277.14609 22.89627,283.53618 L22.89627,275.43213 C22.89627,266.55183 30.022245,258.59682 39.06711,256.401585 C35.350425,253.284165 32.984415,248.61114 32.98131,243.39474 C32.98131,234.03006 40.597875,226.4166 49.95945,226.4166 C59.32413,226.4166 66.93759,234.03006 66.93759,243.391635 C66.93759,251.85276 61.233705,256.097295 60.848685,256.41711 C73.628865,259.866765 77.02884,270.218835 77.02884,275.43213 L77.02884,283.53618 C82.707885,277.142985 86.16375,268.734645 86.16375,259.531425 C86.16996,239.56938 69.927705,223.327125 49.96566,223.327125 Z M188.62875,178.360515 C188.62875,168.151275 179.61183,154.39302 155.25,154.39302 C130.990635,154.39302 121.868145,168.151275 121.868145,178.360515 L121.868145,197.31654 C125.00109,199.809855 128.351385,201.896415 131.847615,203.585535 L131.847615,177.87924 L136.703835,177.87924 L136.703835,205.64415 C148.74813,210.05325 161.916435,210.031515 173.9421,205.58826 L173.9421,177.876135 L178.795215,177.876135 L178.795215,203.51412 C182.23866,201.83742 185.539275,199.7757 188.62875,197.319645 L188.62875,178.360515 Z M173.84274,131.723415 C173.84274,121.396185 165.474765,113.02821 155.147535,113.02821 C144.820305,113.02821 136.45233,121.396185 136.45233,131.723415 C136.45233,142.04754 144.82341,150.41862 155.147535,150.41862 C165.47166,150.41862 173.84274,142.050645 173.84274,131.723415 Z M193.23036,117.266535 C172.287135,96.32331 138.20976,96.32331 117.266535,117.266535 C96.413355,138.12282 96.332625,171.99837 117.011925,192.96333 L117.011925,178.360515 C117.011925,165.213945 128.214765,153.52362 141.951285,151.309755 C135.666765,147.06522 131.530905,139.877145 131.530905,131.723415 C131.530905,118.67931 142.10343,108.106785 155.147535,108.106785 C168.19164,108.106785 178.76106,118.67931 178.76106,131.723415 C178.76106,139.86162 174.646935,147.03417 168.38415,151.28181 C182.192085,153.427365 193.48497,165.16116 193.48497,178.360515 L193.48497,192.96333 C214.17048,172.001475 214.086645,138.12282 193.23036,117.266535 Z M282.669885,275.43213 C282.669885,271.61919 279.769815,259.872975 260.456715,259.872975 C244.087155,259.872975 238.249755,268.889895 238.249755,275.43213 L238.249755,288.08811 C239.920245,289.395315 241.708725,290.556585 243.59967,291.55329 L243.59967,275.103 L248.45589,275.103 L248.45589,293.680215 C256.668615,296.57718 264.499425,296.51508 272.56311,293.64606 L272.56311,275.103 L277.41933,275.103 L277.41933,291.506715 C279.26991,290.519325 281.02734,289.370475 282.669885,288.091215 L282.669885,275.43213 Z M260.456715,255.513555 C270.032535,255.513555 272.578635,246.63015 272.578635,243.39474 C272.578635,236.709675 267.14178,231.27282 260.456715,231.27282 C253.774755,231.27282 248.334795,236.709675 248.334795,243.391635 C248.334795,250.0767 253.77165,255.513555 260.456715,255.513555 Z M296.661015,259.531425 C296.661015,239.56938 280.421865,223.327125 260.456715,223.327125 C240.49467,223.327125 224.25552,239.56938 224.25552,259.531425 C224.25552,268.73775 227.71449,277.14609 233.39043,283.53618 L233.39043,275.43213 C233.39043,266.55183 240.516405,258.59682 249.564375,256.401585 C245.84769,253.284165 243.47547,248.61114 243.47547,243.39474 C243.47547,234.03006 251.092035,226.4166 260.456715,226.4166 C269.821395,226.4166 277.43796,234.03006 277.43796,243.391635 C277.43796,251.85276 271.73097,256.097295 271.349055,256.41711 C284.12613,259.866765 287.526105,270.218835 287.526105,275.43213 L287.526105,283.53618 C293.20515,277.14609 296.661015,268.73775 296.661015,259.531425 Z M18.93429,91.27458 L14.54382,89.197335 C11.77416,95.05647 9.35226,101.151585 7.34022,107.311905 L11.957355,108.81783 C13.90419,102.853125 16.248465,96.95052 18.93429,91.27458 Z M164.42217,305.653095 L164.717145,310.5 C171.187965,310.111875 177.69294,309.30768 184.042665,308.11536 L183.148425,303.342975 C176.994315,304.498035 170.697375,305.274285 164.42217,305.653095 Z M88.95825,295.95618 C94.817385,298.728945 100.9125,301.150845 107.07282,303.15978 L108.578745,298.542645 C102.61404,296.59581 96.711435,294.24843 91.035495,291.56571 L88.95825,295.95618 Z M125.9388,308.016 C132.28542,309.230055 138.784185,310.05288 145.255005,310.46274 L145.5624,305.615835 C139.293405,305.218395 132.996465,304.42041 126.848565,303.243615 L125.9388,308.016 Z"></path>
                        </g>
                    </g>
                </g>
                <circle id="Oval-11" cx="157.5" cy="133.5" r="19.5"></circle>
                <path d="M121.654437,196.763278 C121.654437,196.763278 116.568608,166.190622 133.50131,161.191312 C144.789778,157.858438 153.119454,155.977584 158.490338,155.548749 L181.132059,158.785072 C185.896649,163.314677 189.023046,166.75873 190.511251,169.117231 C191.999456,171.475731 193.518769,175.394177 195.069188,180.872569 L193.365134,199.70368 C186.774621,210.245658 175.149689,214.813626 158.490338,213.407583 C133.50131,211.298518 121.654437,196.763278 121.654437,196.763278 Z" id="Path-16"></path>
            </g>
        </g>
    </g>
</svg>
