<?xml version="1.0" encoding="UTF-8"?>
<svg width="928px" height="733px" viewBox="0 0 928 733" version="1.1"
    xmlns="http://www.w3.org/2000/svg"
    xmlns:xlink="http://www.w3.org/1999/xlink">
    <!-- Generator: Sketch 52.6 (67491) - http://www.bohemiancoding.com/sketch -->
    <title>nys-map</title>
    <desc>Created with Sketch.</desc>
    <g id="Page-1" stroke="none" stroke-width="1" fill="none" fill-rule="evenodd">
        <g id="nys-map" transform="translate(2.000000, 2.000000)">
            <path d="M69.5,0 C31.177,0 0,31.518 0,70.26 C0,118.337 62.196,188.92 64.844,191.9 C66.0236864,193.234202 67.7190575,193.998219 69.5,193.998219 C71.2809425,193.998219 72.9763136,193.234202 74.156,191.9 C76.804,188.921 139,118.338 139,70.26 C139,31.52 107.822,0 69.5,0 Z M69.5,105.609 C50.219,105.609 34.533,89.751 34.533,70.259 C34.533,50.767 50.22,34.91 69.5,34.91 C88.78,34.91 104.466,50.768 104.466,70.26 C104.466,89.751 88.781,105.609 69.5,105.609 Z" id="Shape" stroke="#FFFFFF" stroke-width="3.922" fill="#EAEAEA" fill-rule="nonzero"></path>
            <circle id="Oval" fill="#FFFFFF" cx="70" cy="70" r="38"></circle>
            <path d="M412.16,148.466 L412.987,149.007 L415.697,148.27 L419.917,144.81 L422.524,143.337 L422.494,142.703 L422.321,142.168 L421.728,141.237 L420.996,141.153 L420.13,141.726 L419.115,142.117 L417.875,141.304 L416.578,142.478 L413.689,143.49 L412.492,144.624 L412.085,145.728 L411.92,147.163 L412.16,148.466 Z M425.448,138.584 L425.591,140.049 L425.481,141.837 L426.379,143.269 L427.431,143.015 L430.595,139.996 L432.578,139.146 L435.012,137.138 L437.229,134.648 L438.797,131.809 L439.106,131.372 L439.261,130.902 L439.281,130.188 L437.761,130.288 L436.585,131.018 L434.745,133.492 L434.078,131.075 L432.693,132.205 L430.179,136.789 L429.377,135.819 L429.689,135.504 L429.815,135.501 L429.92,135.301 L430.141,134.659 L428.827,134.675 L427.745,135.085 L426.87,135.718 L426.268,136.848 L426.004,136.762 L425.525,136.666 L424.862,136.688 L423.951,136.878 L423.985,138.104 L425.448,138.584 Z M684.945,651.917 L684.861,647.994 L682.711,634.782 L682.924,627.986 L682.669,625.216 L680.897,623.015 L678.51,621.379 L677.139,618.883 L676.236,616.858 L675.163,611.642 L674.213,609.077 L674.466,606.879 L676.271,604.274 L678.377,602.481 L678.752,605.587 L677.862,608.159 L677.546,610.812 L679.601,614.102 L683.575,617.465 L686.26,621.346 L687.693,626.636 L688.363,632.456 L688.779,645.132 L688.517,648.298 L687.13,654.733 L686.353,661.232 L683.819,668.096 L685.446,670.861 L683.639,675.964 L682.999,678.832 L683.723,680.822 L687.593,680.822 L690.806,679.441 L695.086,679.427 L698.835,678.934 L697.889,676.961 L696.061,675.031 L696.277,671.483 L698.206,669.808 L700.717,666.315 L702.162,663.794 L707.097,657.884 L709.58,656.57 L712.13,656.46 L714.75,652.116 L715.019,649.857 C715.535,648.212 715.189,647.3 714.841,646.387 L713.799,644.584 C710.538,640.614 708.538,637.681 706.509,634.742 L707.427,632.489 C715.38,627.091 723.31,621.659 731.263,616.266 L733.058,614.782 L731.183,612.312 C729.267,609.27 727.387,606.204 725.469,603.162 C726.43,563.773 727.267,524.389 728.049,484.962 L724.821,481.31 C732.341,446.865 740.254,412.501 747.841,378.038 L745.308,368.436 L746.122,366.102 L747.144,360.559 L747.344,358.005 C746.658,322.156 745.718,286.322 744.876,250.472 L742.848,248.284 L741.288,246.594 L739.408,241.029 L737.346,239.178 L734.666,238.854 L732.464,239.566 L731.164,241.68 L730.734,244.434 L729.508,246.658 L727.063,248.258 L725.27,246.46 L724.291,242.794 L724.127,239.418 L724.516,236.245 L729.806,220.502 L730.159,215.483 L729.797,212.626 L727.221,208.204 L727.694,203.83 L727.858,201.771 L727.646,199.572 L726.091,196.916 L724.965,193.658 L723.64,186.893 L723.432,184.509 L723.359,180.214 L722.835,177.859 L720.949,175.292 L719.837,173.069 L720.03,171.015 L721.253,168.667 L724.63,155.915 L724.967,153.765 L725.17,150.43 L726.156,148.006 L728.44,145.81 L730.894,144.024 L731.778,141.171 L732.025,137.785 L731.92,134.734 L729.801,126.184 L729.687,123.787 L732.215,117.735 L732.847,115.831 L733.283,113.202 L733.533,110.876 L733.403,107.944 L732.488,104.731 L731.292,102.301 L726.176,94.365 L724.452,90.989 L722.986,84.008 L722.678,80.57 L724.467,72.621 L724.612,67.243 L725.782,62.043 L726.369,58.351 L726.324,55.936 L725.51,53.773 L723.347,51.491 L721.651,48.589 L721.337,46.589 L721.585,43.797 L722.111,41.807 L724.221,37.672 L725.011,35.3 L725.339,33.213 L725.172,30.93 L724.51,28.641 L723.8,25.031 C673.31,25.728 623.327,27.934 573.355,29.769 L568.228,29.798 L554.02,28.435 L550.124,29.335 L546.118,32.181 L539.661,34.786 L533.102,39.934 L525.255,42.634 L509.777,52.699 C494.139667,67.902466 478.457933,83.0601974 462.732,98.172 L456.749,106.81 C455.386,108.471 454.055,110.11 452.693,111.77 L454.124,113.965 L454.979,116.853 L455.265,119.63 L454.102,121.834 L446.947,126.828 L446.587,129.255 L439.926,132.882 L438.293,135.426 L423.909,148.585 L409.431,155.54 L390.025,170.22 L389.075,172.467 L389.742,175.819 L393.312,177.474 L395.367,179.354 L395.671,182.352 L395.433,184.617 L398.163,184.854 L399.537,180.978 L406.834,177.134 L407.844,179.245 L412.304,178.333 L413.958,180.039 L412.411,183.384 L414.178,181.741 L414.361,185.338 L412.785,186.958 L409.844,188.551 L407.937,190.419 L406.789,192.249 L414.538,192.997 L416.62,192.262 L419.691,189.257 L423.358,189.027 L423.96,192.085 L422.701,193.988 L417.274,195.674 L415.777,197.216 L415.023,199.566 L414.49,203.458 L412.806,205.932 L407.918,210.225 L406.718,212.45 L403.595,210.29 L405.131,206.07 L399.569,208.886 L398.084,210.369 L396.828,212.896 L399.232,214.756 L401.031,216.367 L403.151,218.235 L404.086,220.109 L404.294,222.492 L405.87,225.529 L406.95,229.778 L407.745,231.716 L406.728,234.762 L406.641,238.304 L407.126,242.09 L407.97,245.664 L408.908,243.48 L411.18,241.5 L407.971,249.54 L407.461,252.997 L410.597,255.255 L408.457,257.355 L404.095,262.913 L401.799,264.075 L394.182,265.788 L391.222,265.288 L386.458,263.515 L378.624,270.027 L376.488,271.813 L364.679,277.745 L360.349,280.965 L356.442,285.021 L351.462,294.889 L348.689,292.989 L346.386,294.368 L338.471,298.488 L326.741,301.094 L325.488,302.964 L325.594,305.079 L325.058,307.285 L322.671,308.144 L320.703,307.062 L320.713,303.752 L276.958,301.999 L271.743,303.101 L257.453,308.501 L252.309,308.467 L247.565,306.292 L239.38,298.862 L236.267,297.892 L233.378,294.872 L192.596,287.186 L178.856,289.386 L161.42,286.841 L126.177,292.111 L118.773,295.713 L106.463,297.793 L91.733,303.51 L83.977,304.824 L84.51,307.614 L84.971,321.611 L84.593,325.347 L83.457,327.899 L82.972,331.704 L87.438,334.793 L100.153,336.449 L103.203,340.376 L102.567,343.841 L98.535,348.058 L97.552,351.548 L100.172,354.982 L101.451,362.737 L104.468,369.155 L105.101,371.125 L105.281,376.13 L104.869,379.89 L103.719,382.658 L101.948,384.643 L99.629,386.24 L90.646,390.24 L86.338,392.872 L83.076,396.837 L80.616,402.557 L78.761,405.245 L76.287,406.371 L73.817,411.216 L72.422,413.497 L70.288,414.941 L62.664,417.154 L60.246,420.477 L54.144,424.397 L48.405,426.709 L46.375,428.424 L44.205,431.144 L40.739,432.852 L35.239,440.176 L28.754,443.713 L26.861,445.83 L24.841,447.642 L16.921,450.546 L8.157,457.341 L4.915,458.871 L2.542,460.738 C1.006,475.205 0.795,489.128 0.614,503.055 C171.494,505.685 342.347,504.84 513.214,500.997 L513.2,503.087 L516.027,505.157 L519.693,506.801 L522.201,508.461 L522.941,511.296 L523.315,515.186 L524.06,518.614 L526.021,520.039 L532.384,518.822 L536.485,521.399 L539.672,522.479 L541.406,525.327 L544.035,526.545 L541.026,531.406 L543.456,532.676 L546.947,534.724 L547.549,538.092 L545.668,540.931 L547.103,548.221 L547.178,551.421 L546.685,559.445 L548.573,562.48 L554.819,575.049 L556.435,577.405 L558.492,579.131 L563.725,580.279 L566.408,583.383 L568.112,584.853 L570.944,585.358 L576.639,584.821 L578.93,586.155 L581.695,587.465 L584.169,586.495 L585.703,588.176 L586.672,590.653 L589.647,595.407 L590.376,598.459 C621.813,616.452 653.351,634.241 684.945,651.917 Z M875.235,632.837 L874.619,631.245 L874.808,629.69 L873.071,629.308 L871.884,629.008 L869.748,627.517 L869.066,625.939 L867.64,626.215 L867.575,628.235 L865.282,630.021 L864.137,631.822 L864.369,633.928 L865.911,635.272 L868.012,634.758 L870.7,634.58 L873.095,635.561 L874.502,636.625 L875.78,636.947 L875.706,635.777 L874.836,634.508 L875.236,632.838 L875.235,632.837 Z M678.482,695.074 L678.803,693.014 L678.751,690.94 L681.568,685.166 L682.982,682.011 L682.09,679.457 L682.165,677.224 L683.157,674.768 L684.555,671.706 L684.328,669.879 L683.145,669.548 L682.623,670.911 L681.973,673.218 L676.803,685.111 L675.013,688.717 L674.139,692.757 L673.713,697.515 L675.43,696.737 L678.482,695.074 Z M87.797,346.638 L88.942,347.618 L90.524,349.686 L92.358,351.584 L94.363,352.02 L100.346,342.605 L100.828,340.671 L99.834,339.252 L96.871,338.156 L95.077,337.296 L93.202,337.449 L91.193,337.982 L89.073,338.118 L89.246,340.37 L87.689,345.616 L87.797,346.638 Z M710.391,712.25 L710.27,709.913 L711.976,708.103 L715.229,707.29 L716.746,708.438 L716.739,709.873 L715.759,710.709 L717.135,711.014 L718.219,710.424 L720.09,708.894 L727.728,704.902 L734.33,703.734 L746.29,701.082 L749.802,700.228 L756.078,696.649 L761.061,695.935 L762.561,694.519 L764.216,692.665 L765.771,691.448 L768.358,692.718 L772.173,692.675 L774.723,693.346 L776.187,692.422 L776.437,690.722 L776.626,689.167 L777.885,688.483 L779.613,688.74 L781.514,689.842 L783.324,689.082 L786.642,688.25 L789.17,687.793 L790.314,685.212 L791.537,684.862 L799.266,685.703 L801.584,683.326 L803.44,682.948 L805.843,681.714 L807.2,684.738 L810.25,684.008 L812.527,682.311 L814.22,680.871 L814.6,678.823 L812.873,677.633 L815.993,678.573 L820.289,678.315 C821.722,676.945 823.175,675.614 824.599,674.279 L827.779,675.387 L830.246,675.071 L832.1,675.007 L833.638,675.441 L830.405,676.604 L825,678.794 L824.278,678.962 L823.558,679.597 L824.29,680.151 L825.22,680.025 L827.477,679.045 L838.927,674.573 L846.247,671.236 L850.741,668.143 L852.025,666.873 L851.88,665.436 L850.988,663.976 L850.645,662.406 L851.055,661.146 L852.425,660.548 L855.418,660.713 L856.864,661.596 L856.833,663.312 L855.49,665.789 L857.773,665.312 L861.781,663.995 L865.746,661.668 C871.578,658.438 877.362,655.137 883.086,651.822 L889.962,648.052 L898.232,643.252 L907.197,639.028 L916.237,633.821 L921.37,632.354 L923.57,629.643 L924.383,628.089 L922.263,627.599 L918.889,626.386 L915.699,627.493 L917.219,629.55 L917.272,630.53 L915.546,629.65 L914.084,628.386 L912.607,629.057 L912.744,632.709 L910.763,633.247 L908.718,632.397 L906.585,633.685 L902.314,637.696 L897.959,639.945 L895.519,640.609 L894.396,639.819 L893.779,638.229 L889.64,632.584 L888.3,632.407 L886.83,633.986 C886.656814,635.952701 886.499476,637.920764 886.358,639.89 L882.939,635.327 L880.581,634.787 L879.847,635.797 L879.667,637.165 L879.052,638.98 L877.316,639.379 L876.649,641.461 L873.294,641.067 L872.864,638.856 L872.109,636.547 L870.353,636.6 L869.15,637.452 L870.639,641.22 L870.081,642.294 L868.24,642.297 L865.333,643.244 L863.32,646.897 L860.885,650.313 L858.435,651.007 L857.113,651.677 L856.883,653.445 L856.257,655.32 L855.481,656.85 L852.791,658.898 L850.377,659.101 L847.713,658.379 L845.288,657.389 L842.967,657.141 L840.637,659.11 L839.575,658.332 L838.393,657.998 L837.152,657.968 L835.854,658.206 L836.734,655.072 L838.626,654.517 L840.9,654.069 C842.253,652.777 843.636,651.495 845.022,650.179 L844.892,648.653 L845.974,647.309 L847.436,645.636 L848.625,645.626 L849.894,644.913 L850.422,644.769 L853.027,644.546 L853.64,642.416 L854.99,642.378 L856.056,644.218 L857.156,645.281 L857.593,643.868 L857.236,641.925 L856.8,640.369 L856.878,638.884 L857.569,638.086 L859.768,637.403 L862.299,637.695 L862.836,635.647 L861.914,635.273 L861.067,634.667 L859.237,634.299 L859.505,632.664 L867.149,624.614 L871.586,621.634 L873.495,624.397 L874.998,623.762 L876.801,622.407 L878.291,620.737 L878.808,618.937 L878.076,617.603 L876.536,616.887 L874.701,616.703 L873.109,617.005 L866.941,620.514 L865.254,622.081 L862.567,625.663 L859.219,628.798 L855.498,629.61 L854.57,631.423 L852.627,634.407 L844.709,639.779 L837.399,645.398 L834.833,646.504 L826.907,647.282 L817.071,650.234 L811.304,649.884 L803.11,651.201 L790.345,651.191 L785.74,652.045 L782.436,650.783 L781.471,651.245 L782.17,652.887 L781.885,653.985 L780.842,654.527 L779.28,654.523 L779.806,651.285 L778.103,650.756 L775.521,651.64 L773.532,652.675 L774.202,655.248 L772.963,657.685 L770.781,659.526 L765.471,661.424 L764.228,661.548 L763.233,661.223 L760.886,660.78 L757.322,659.252 L753.471,658.693 L750.5,658.561 L747.765,657.886 L747.011,656.205 L745.162,655.145 L744.377,655.175 L743.739,656.325 L743.509,657.465 L744.847,659.67 L747.277,659.692 L749.401,659.525 L750.161,661.178 L749.851,663.336 L748.362,663.442 L746.25,662.611 L744.33,663.005 L742.583,663.619 L741.138,662.579 L740.072,661.52 L741.066,658.597 L737.448,658.275 L734.622,656.954 L733.754,659.872 C734.772,661.171 735.797,662.44 736.846,663.746 L737.02,664.904 L736.171,665.389 L736.568,666.689 L735.742,667.523 L734.184,666.895 L734.064,665.31 L732.39,665.097 L732.173,666.333 L732.033,667.649 L729.273,667.563 L727.523,665.71 L728.478,664.997 L729.934,665.507 L731.437,664.092 L731.707,663.366 L730.719,661.448 L725.493,662.145 L717.656,664.783 L715.432,669.803 L716.504,675.486 L715.715,676.606 L714.195,674.397 L713.04,671.602 L709.358,670.204 L707.608,670.351 L706.36,672.224 L706.236,673.916 L710.106,675.323 L710.622,677.113 L709.97,678.95 L708.635,679.835 L707.739,678.873 L706.787,676.932 L705.473,675.387 L703.659,675.71 L702.759,679.246 L704.533,682.073 L703.803,685.237 L701.129,682.072 L695.939,681.497 L691.631,684.909 L690.468,684.019 L688.508,684.466 L685.916,683.226 L683.481,685.702 L680.528,690.449 L680.349,693.351 L679.255,695.849 L677.994,696.532 L676.805,697.323 L675.994,697.941 L675.524,698.88 L674.011,700.824 L674.386,702.834 L673.206,705.284 L671.843,706.945 L671.46,709.933 L672.711,712.088 L675.724,713.258 L676.557,714.395 L676.293,715.403 L675.006,716.049 L675.989,717.373 L677.838,717.493 L683.286,716.467 L684.392,715.941 L685.046,715.011 L686.753,714.917 L688.432,714.945 L689.144,715.898 L690.784,715.041 L689.978,712.223 L688.811,710.113 L688.914,708.667 L689.864,707.36 L690.532,706.682 L691.475,706.027 L693.502,705.405 L696.061,704.485 L697.751,704.917 L699.809,706.02 L701.913,707.348 L703.058,708.171 L703.382,708.896 L702.562,710.168 L701.012,711.823 L693.986,715.095 L683.659,719.418 L683.739,721.495 L688.665,719.365 L698.448,714.493 L703.639,713.35 L705.522,713.917 L710.846,712.647 L710.391,712.25 Z M667.678,709.516 L667.292,707.877 L667.639,707.227 L667.429,706.247 L666.967,705.591 L666.174,705.495 C665.141,706.132 664.102,706.795 663.071,707.432 L661.241,708.154 L657.97,707.653 L655.916,706.833 L654.602,707.787 L653.526,709.257 L653.326,711.654 L653.049,715.971 L652.703,718.308 L652.091,719.811 L650.793,720.985 L649.153,721.842 L648.154,723.237 L648.534,725.06 L648.527,726.652 L647.518,727.326 L646.968,728.185 L647.252,729.115 L648.197,729.37 L649.914,728.904 L652.154,727.698 L654.107,727.31 L655.53,725.972 L657.471,724.709 L659.201,723.557 L660.178,723.505 L660.869,723.802 L664.511,720.284 L669.95,712.634 L668.946,710.806 L667.678,709.516 Z M403.458,191.11 L404.918,189.123 L406.278,185.616 L406.576,183.834 L405.315,183.736 L403.387,184.628 L401.704,185.696 L399.685,187.663 L399.043,189.313 L399.456,194.395 L403.457,191.11 L403.458,191.11 Z" id="Shape" stroke="#0081C3" stroke-width="1.497" fill="#FFFFFF" fill-rule="nonzero"></path>
            <path d="M446.377,313.752 C446.952,316.6 447.419,318.458 447.777,319.325 C448.404,320.845 448.54,321.605 450.341,321.605 L465.058,321.605 L466.803,323.168 L472.83,327.236 L479.433,335.249 L480.837,340.075 L485.311,344.856 L486.551,345.641 L487.808,355.92 L496.929,357 L498.966,362.48 L498.69,365.996 L520.245,367.077 L514.375,382.334 L444.665,389.434 C441.908,355.694 440.529,337.633 440.529,335.249 C440.529,333.775 439.517,333.819 438.377,334.168 C437.907,334.311 437.494,334.311 437.135,334.168 L437.135,321.605 C439.198,322.386 440.806,322.277 441.96,321.278 C443.115,320.279 444.587,317.771 446.377,313.752 Z M578.505,342.943 C582.228,343.006 585.655,343.574 588.785,344.649 C593.482,346.262 611.417,349.803 615.853,349.803 C618.811,349.803 629.396,350.235 647.608,351.099 L647.608,359.149 C647.433,361.687 646.502,363.557 644.815,364.759 C643.128,365.961 638.592,369.347 631.205,374.917 C628.006,377.157 626.406,379.457 626.406,381.814 C626.406,383.186 623.677,382.966 618.22,382.877 C615.605,382.834 610.273,382.319 602.224,381.332 L593.102,373.835 L587.888,372.899 L580.474,371.192 C580.474,371.192 578.381,370.022 576.804,368.34 C575.753,367.22 573.809,366.026 570.974,364.759 L574.215,357.484 L576.01,349.804 L578.505,342.944 L578.505,342.943 Z" id="Shape" fill="#F1F1F1" fill-rule="nonzero"></path>
            <path d="M571.343,364.87 L573.168,365.736 L574.769,366.602 L578.789,370.116 L585.763,371.969 L589.323,371.946 L587.663,375.814 C586.277,378.54 585.449,380.723 585.179,382.364 C584.990782,383.553296 584.97092,384.763167 585.12,385.958 C585.166,386.351 585.226,386.781 585.294,387.243 C585.52,388.765 585.995,390.635 586.476,392.679 C587.615,397.519 587.706,403.331 585.67,407.781 C584.867,409.534 585.31,411.076 583.373,412.264 C573.811,418.125 572.678,415.785 567.887,417.601 C563.095,419.416 537.387,433.533 536.583,433.533 C536.047,433.533 531.32,435.757 522.403,440.205 L517.805,445.045 L516.443,447.558 L505.891,449.82 L497.579,453.222 L498.099,446.756 L499.599,438.796 L502.035,427.719 L502.035,419.114 L506.717,408.304 C507.537,404.264 508.014,401.338 508.148,399.524 C508.222,398.529 508.259,397.562 508.259,396.622 C508.259,391.36 509.613,390.857 511.479,389.318 C513.345,387.779 514.739,386.284 514.739,382.555 C514.739,378.825 514.925,387.111 519.469,369.465 C520.716,364.621 520.264,367.988 521.474,367.72 C524.263,367.101 522.289,367.686 522.404,367.72 C522.782,367.833 523.401,367.987 524.263,368.182 L532.553,366.049 L537.717,360.242 L547.017,366.049 C552.73,369.183 556.422,370.322 558.093,369.466 C559.764,368.61 560.718,366.867 560.953,364.238 C562.592,362.687 564.552,362.404 566.833,363.391 C569.115,364.378 570.618,364.871 571.343,364.871 L571.343,364.87 Z" id="Path" fill="#F1F1F1"></path>
            <path d="M529.586,177.525 L531.481,202.689 L534.374,227.128 L533.951,247.442 L532.651,250.442 L537.559,289.28 L537.559,293.677 L534.374,296.717 L530.771,299.075 L528.79,301.792 L527.187,308.19 L530.771,309.056 L534.374,309.948 L535.343,312.278 C526.786,326.931 521.525,337.849 519.56,345.032 C517.595,352.215 517.595,359.446 519.56,366.727 L528.266,368.891 L537.559,361.196 L544.665,366.072 L551.671,369.027 L556.534,369.972 C558.794,369.89 559.924,368.999 559.924,367.3 C559.924,364.752 560.7,362.867 565.356,364.47 C570.013,366.072 570.734,366.31 572.234,361.196 C573.234,357.788 574.836,352.399 577.04,345.032 C577.364,340.945 576.644,337.977 574.88,336.126 C572.234,333.351 571.051,333.247 574.88,326.901 C578.71,320.555 581.246,320.808 581.246,312.278 C581.246,306.592 581.42,303.958 581.768,304.38 L563.424,296.074 L562.449,293.677 L571.634,271.184 C572.675,269.514 572.748,266.754 571.851,262.904 C570.506,257.126 562.383,233.945 561.567,205.735 C561.023,186.929 561.245,178.487 562.232,180.409 C553.86,181.309 547.784,181.593 544.004,181.259 C540.224,180.925 535.419,179.681 529.586,177.525 Z M411.37,243.476 L430.295,243.476 L433.438,240.233 L457.397,241.855 L458.722,265.735 L457.397,270.673 L452.747,270.673 L447.77,291.001 L447.159,292 L450.705,299.695 L447.499,311.225 L443.621,318.752 L441.104,320.464 L436.911,321.32 L422.841,312.672 L418.64,307.422 L413.332,306.566 L410.904,307.422 L408.809,312.535 L406.078,313.753 C403.939,313.361 402.87,312.88 402.87,312.31 C402.87,311.739 402.111,310.734 400.593,309.295 L383.383,311.454 L379.85,307.056 L366.68,304.832 L365.911,304.874 L363.74,300.854 L364.593,277.606 L378.447,270.673 L385.251,263.877 L392.721,265.735 L403.724,262.795 L409.662,255.282 L406.932,251.599 L408.332,249.089 L411.369,243.476 L411.37,243.476 Z" id="Shape" fill="#F1F1F1" fill-rule="nonzero"></path>
            <path d="M455.262,272.4 L473.226,278.124 L488.728,281.454 L530.621,249.964 L533.246,250.126 L538.594,292.366 L536.734,295.673 L532.971,297.399 L528.506,302.617 L528.506,308.082 L536.23,309.978 L528.506,330.814 C524.846,337.071 522.578,341.759 521.699,344.879 C520.821,347.999 520.531,355.282 520.831,366.729 L499.334,365.864 L499.334,359.051 L496.053,355.894 L488.728,355.894 L486.747,344.879 L481.537,339.837 L476.952,330.814 L468.345,322.568 L462.902,320.72 L458.061,321.585 L449.895,321.585 L447.302,318.141 L445.77,292.365 L448.781,281.453 L452.904,272.75 L455.262,272.4 Z" id="Path" fill="#F1F1F1"></path>
            <path d="M156.802,288.676 C156.003,302.626 155.204,318.074 154.405,332.024 C154.372,332.607 154.313,333.245 153.902,333.657 C153.51,334.048 152.906,334.12 152.352,334.127 C148.528,334.175 143.929,332.433 141.372,335.279 C140.599,332.849 137.948,331.413 135.402,331.266 C132.856,331.119 130.376,331.993 127.975,332.853 C123.167,334.575 117.775,336.873 116.162,341.723 C115.999,342.213 115.869,342.741 115.516,343.12 C114.715,343.979 113.308,343.627 112.209,343.212 L103.358,339.86 M154.634,333.274 L155.494,354.73 C155.617,357.81 155.724,360.992 154.613,363.867 C154.065,365.281 153.239,366.569 152.589,367.94 C150.823573,371.701009 150.421597,375.959054 151.452,379.984 L157.108,382.524 C157.771,382.822 158.476,383.156 158.847,383.782 C159.274,384.504 159.143,385.412 159,386.237 L154.735,410.737 C154.406,412.63 154.053,414.585 152.985,416.183 C151.212,418.835 147.927,419.913 144.984,421.136 C138.252,423.933 132.227,428.315 125.339,430.704 C118.452,433.094 109.929,433.018 104.841,427.794 C101.338,424.198 99.61,418.415 94.826,416.899 C92.879,416.282 90.776,416.534 88.745,416.321 C84.515,415.876 80.571,413.255 78.523,409.524" id="Shape" stroke="#E3E3E3" stroke-width="1.497"></path>
            <path d="M154.36,333.778 C156.948,330.074 161.172,327.771 165.54,326.627 C169.91,325.484 174.475,325.383 178.99,325.29 L204.83,324.756 C205.793,324.736 206.842,324.686 207.576,324.059 C208.282,323.455 208.51,322.473 208.683,321.559 C210.488,311.999 210.652,300.631 209.163,291.015" id="Path" stroke="#E3E3E3" stroke-width="1.497"></path>
            <path d="M152.664,366.804 C172.929,364.784 193.297,363.804 213.66,363.874 C214.447,362.03 212.88,359.644 214.024,357.997 C214.5,357.313 215.318,356.979 216.014,356.522 C219.476,354.243 219.566,349.286 219.276,345.149 C219.2,344.055 219.071,342.851 218.267,342.106 C216.844,340.789 214.006,341.57 213.082,339.863 C216.584441,335.622264 218.583859,330.341001 218.768,324.844 C215.459,324.57 210.652,324.296 207.342,324.022 M148.964,419.81 C167.829,419.478 188.191,419.145 207.054,418.812 C203.786,415.637 203.277,410.019 205.924,406.307 C208.364,402.882 212.873,401.257 214.94,397.594 C216.148,395.454 216.345,392.907 216.466,390.451 C216.87331,382.263158 216.747378,374.057487 216.089,365.886 C216.013,364.935 214.919,363.702 214.459,364.538" id="Shape" stroke="#E3E3E3" stroke-width="1.497"></path>
            <path d="M218.94,348.196 C225.014,347.11 232.721,346.796 238.873,347.266 C237.626,349.446 239.124,352.369 241.341,353.546 C243.558,354.721 246.204,354.631 248.71,354.513 L262.764,353.848 C263.74,353.801 264.778,353.735 265.569,353.163 C267.856,351.511 266.111,347.881 266.675,345.114 C267.523,340.966 272.896,340.139 276.952,338.934 C277.946,338.64 278.977,338.226 279.582,337.383 C280.025,336.765 280.182,335.994 280.32,335.246 C282.280724,324.596153 282.40316,313.689178 280.682,302.998 M278.82,338.833 L304.67,338.491 C303.536,340.201 304.668,342.666 306.455,343.671 C308.242,344.677 310.411,344.629 312.458,344.552 L348.445,343.228 C350.181,343.164 352.151,342.985 353.214,341.61 C353.844,340.794 354.007,339.721 354.14,338.7 C356.115333,323.544978 356.118694,308.197885 354.15,293.042 M174.433,419.412 C174.307,420.036 174.173,420.658 174.047,421.282 L174.047,504.819 M88.357,417.162 L88.357,503.302 M235.707,504.778 C239.401,496.467 239.571,487.078 239.678,477.981 C239.908,458.673 240.136,439.363 240.365,420.054 C243.621,419.594 247.715,418.267 247.854,414.98 C247.887,414.182 247.652,413.39 247.689,412.592 C247.855,409.062 252.526,408.012 256.057,407.983 L288.22,407.715 C293.122,407.675 298.134,407.65 302.768,409.247 C303.588,411.484 302.893,413.953 302.782,416.332 C302.672,418.712 303.602,421.585 305.93,422.086 C307.387,422.399 309.285,421.789 310.14,423.011 C310.487,423.509 310.508,424.157 310.514,424.764 L310.899,457.693 C314.401314,457.190894 317.950933,457.107307 321.473,457.444 C322.513,457.544 323.656,457.738 324.31,458.55 C324.862,459.234 324.919,460.18 324.952,461.059 L326.604,504.471 M239.517,428.55 L227.959,427.515 C228.26918,425.679856 228.393143,423.818067 228.329,421.958 C228.318,421.674 228.289,421.358 228.077,421.17 C227.903,421.018 227.655,420.992 227.424,420.976 C219.876,420.411 214.619,419.066 207.054,418.816" id="Shape" stroke="#E3E3E3" stroke-width="1.497"></path>
            <path d="M266.683,408.555 C266.524,405.198 266.366,400.343 266.207,396.985 L257.144,395.771 C256.241,395.649 255.236,395.47 254.701,394.731 C254.312,394.191 254.275,393.481 254.254,392.815 L253.674,375.02 C253.631,373.679 253.642,372.182 254.561,371.206 C256.461,369.18 260.591,370.971 262.236,368.732 C262.854,367.892 262.857,366.762 262.833,365.72 C262.753,362.159 262.675,357.099 262.595,353.538 M288.332,407.03 C288.149,401.408 287.967,395.786 287.782,390.165 C287.726,388.395 287.729,386.438 288.89,385.102 C290.17,383.628 292.36,383.46 294.312,383.4 L318.975,382.646 C321.701,382.562 324.849,382.258 326.377,379.998 C327.38,378.513 327.369,376.591 327.323,374.801 L326.553,345.251" id="Shape" stroke="#E3E3E3" stroke-width="1.497"></path>
            <path d="M322.975,381.583 L330.357,381.622 L331.303,394.938 C331.487,397.524 331.708,400.229 333.097,402.416 C333.551,403.129 334.124,403.779 334.414,404.573 C334.714,405.39 334.685,406.284 334.654,407.155 L333.852,429.272 C330.429,429.356 327.001,429.278 323.585,429.037 C322.743,428.977 321.84,428.884 321.197,428.336 C319.739,427.091 320.42,424.256 318.767,423.284 C315.759,424.204 313.282,422.85 310.141,423.013" id="Path" stroke="#E3E3E3" stroke-width="1.497"></path>
            <path d="M323.332,458.24 C331.564627,457.080482 339.856156,456.386712 348.167,456.162 L349.608,462.064 C353.92,462.085 358.231,462.104 362.543,462.126 C363.088,462.129 363.678,462.116 364.104,461.778 C364.565,461.414 364.7,460.783 364.804,460.207 L365.944,453.895 C364.074,454.059 362.182,453.975 360.334,453.65 C359.683,453.536 358.984,453.357 358.578,452.836 C358.143,452.276 358.178,451.494 358.231,450.786 C359.051,439.61 358.591,428.341 356.866,417.271 C349.449073,416.749495 342.010135,416.611978 334.579,416.859" id="Path" stroke="#E3E3E3" stroke-width="1.497"></path>
            <path d="M365.393,454.596 L371.278,455.699 C371.774,455.792 372.302,455.903 372.651,456.267 C373.076,456.712 373.103,457.392 373.106,458.006 L373.169,472.9 C373.17,473.42 373.157,473.99 372.819,474.386 C372.366,474.916 371.551,474.902 370.931,475.222 C369.719,475.846 369.571,477.492 369.582,478.857 L369.802,504.3 M353.807,338.004 C353.224,344.157 352.707,350.318 352.412,356.49 L352.412,363.885 C353.242,363.022 354.565,364.634 354.748,365.817 C355.208,368.817 355.184,371.887 354.675,374.879 C354.172,377.844 353.197,380.735 353.007,383.737 C352.632,389.656 355.314,395.297 358.035,400.565 C360.715253,405.753009 363.501167,410.885746 366.391,415.96 L353.401,416.395" id="Shape" stroke="#E3E3E3" stroke-width="1.497"></path>
            <path d="M360.38,405.799 C379.721428,403.727124 399.157963,402.668012 418.61,402.626 C416.664863,399.962184 415.347334,396.892965 414.756,393.648 C414.274,390.989 414.231,388.088 412.623,385.918 C409.663,381.917 403.089,382.498 399.747,378.808 C397.857,376.723 397.346,373.601 395.264,371.708 C393.29,369.911 390.419,369.658 387.803,369.131 C386.979,368.965 386.111,368.732 385.551,368.106 C385.121,367.624 384.939,366.978 384.775,366.354 C383.337082,360.880785 382.376484,355.293189 381.904,349.654 C381.738,347.673 381.568,345.524 380.245,344.042 C379.805,343.549 379.256,343.153 378.88,342.609 C378.45,341.986 378.286,341.221 378.175,340.472 C377.585115,336.403745 378.294854,332.253105 380.203,328.612 C381.01,327.082 382.025,325.654 382.639,324.038 C384.02,320.399 383.207,316.341 382.379,312.538 C382.019,310.888 381.601,309.132 380.376,307.973 C378.388,306.094 375.26,306.554 372.528,306.453 C370.248055,306.367003 368.011529,305.803528 365.963,304.799 C365.371,304.508 364.77,304.156 364.432,303.589 C364.08,303.001 364.07,302.277 364.068,301.591 C364.052,293.678 364.037,285.764 364.02,277.851 M382.59,311.47 L399.667,309.971 C400.248,309.921 400.886,309.884 401.359,310.224 C401.715,310.481 401.907,310.9 402.137,311.274 C403.15,312.921 405.234,313.832 407.129,313.459 C409.025,313.086 410.607,311.453 410.923,309.546 C411.089,308.546 411.076,307.27 411.996,306.848 C412.451,306.638 412.983,306.738 413.474,306.843 L417.104,307.618 C417.787,307.763 418.494,307.919 419.056,308.334 C419.618,308.747 419.976,309.374 420.354,309.959 C423.762,315.231 429.725,318.161 435.398,320.844 C436.355,321.297 437.342,321.758 438.401,321.814 C441.089,321.956 443.163,319.539 444.575,317.246 C447.602352,312.319368 449.718407,306.888147 450.822,301.212 C450.994,300.328 451.137,299.395 450.836,298.547 C450.559,297.767 449.944,297.163 449.496,296.467 C448.092,294.277 448.471,291.433 448.965,288.877 C450.165731,282.665049 451.742634,276.531758 453.687,270.511 C454.775,271.805 457.049,271.269 458.052,269.907 C459.054,268.546 459.142,266.736 459.172,265.043 C459.302,257.914 459.102,250.768 458.294,243.684 C458.194,242.808 458.008,241.811 457.249,241.364 C456.853,241.13 456.374,241.098 455.914,241.073 L435.23,239.913 C434.368,239.865 433.4,239.853 432.771,240.445 C432.298,240.89 432.143,241.57 431.807,242.126 C430.763,243.859 428.357,244.015 426.335,243.973 L412.038,243.672" id="Shape" stroke="#E3E3E3" stroke-width="1.497"></path>
            <path d="M437.456,321.785 L437.071,333.99 L441.249,334.053 C441.459998,348.898677 442.309785,363.728397 443.796,378.501 L408.518,381.975 M372.863,458.271 C376.17,458.145 380.971,458.019 384.278,457.894 C385.514,457.847 386.878,457.745 387.743,456.861 C389.756,454.805 387.613,450.192 390.241,449.021 C390.699,448.817 391.214,448.79 391.714,448.767 L397.244,448.511 C398.98,448.431 400.774,448.338 402.339,447.581 C403.905,446.824 405.201,445.225 405.047,443.491 C404.982,442.761 404.601,442.001 403.915,441.745 C403.574,441.617 403.201,441.628 402.839,441.593 C399.723,441.298 397.986,436.838 400.083,434.51 C401.966,432.42 405.75,432.305 406.814,429.7 C407.074,429.064 407.12,428.361 407.162,427.673 L408.662,402.929" id="Shape" stroke="#E3E3E3" stroke-width="1.497"></path>
            <path d="M399.045,438.083 C405.101,437.775 412.638,437.147 418.628,436.203 L420.659,452.043 C420.827,453.347 421.631,455.085 422.872,454.647 C423.208517,470.783485 423.033762,486.926581 422.348,503.052" id="Path" stroke="#E3E3E3" stroke-width="1.497"></path>
            <path d="M418.52,437.32 L450.698,437.093 C450.288936,444.19023 450.876312,451.309773 452.443,458.244 C452.583,458.861 452.755,459.517 453.231,459.934 C453.769,460.404 454.549,460.44 455.263,460.452 L471.907,460.734 C474.435,460.777 477.687,461.404 478.102,463.899 C478.288,465.019 477.802,466.309 478.464,467.231 C479.026,468.011 480.127,468.111 481.088,468.141 L498.813,468.686 C499.163,468.696 499.557,468.726 499.784,468.993 C499.967,469.205 499.989,469.51 500.001,469.79 L501.495,502.065 M443.662,378.714 C444.853,398.575 446.649,416.902 449.05,436.654 M444.949,389.332 L511.259,383.097 C512.315,382.998 513.423,382.882 514.304,382.291 C515.141,381.731 515.667,380.817 516.117,379.915 C518.240278,375.674235 519.424828,371.025738 519.59,366.286 C513.216,366.366 506.843,366.443 500.47,366.523 C500.01,366.529 499.494,366.513 499.177,366.18 C498.922,365.915 498.87,365.52 498.847,365.152 C498.757,363.641 498.979,362.119 498.81,360.615 C498.642,359.11 497.978,357.538 496.638,356.836 C494.263,355.595 490.97,357.593 488.812,356.003 C487.156,354.784 487.316,352.332 487.237,350.276 C487.111,347.016 485.755,343.598 482.955,341.929 C482.347,341.567 481.68,341.289 481.155,340.812 C480.036,339.792 479.839,338.141 479.454,336.676 C478.053,331.329 473.564,327.451 469.309,323.927 C468.264,323.063 467.188,322.179 465.899,321.755 C464.681,321.354 463.367,321.394 462.085,321.439 L454.834,321.694 C452.794,321.765 450.658,321.818 448.824,320.919 C446.991,320.02 447.022,313.083 447.731,311.167 M454.093,272.077 C463.495,275.971 474.76,278.983 484.723,281.057 C485.827,281.287 486.983,281.504 488.066,281.197 C489.02,280.927 489.813,280.281 490.579,279.652 C500.172206,271.781183 510.009353,264.212479 520.076,256.957 C524.189,253.992 528.41,251.044 533.198,249.381 L538.061,285.605 C538.486,288.772 538.802,292.353 536.765,294.813 C535.025,296.913 532.023,297.575 530.17,299.575 C528.587,301.283 528.076,303.697 527.629,305.985 C527.537,306.449 527.455,306.963 527.701,307.368 C527.913,307.717 528.319,307.894 528.712,308 C530.112,308.383 531.606,308.159 533.039,308.377 C534.473,308.597 536.017,309.522 536.119,310.971 C536.159,311.537 535.97,312.09 535.782,312.624 C532.281335,322.577706 528.14516,332.296366 523.399,341.72 C522.086,344.326 520.7,346.996 520.439,349.903 C520.287,351.573 520.516,353.249 520.663,354.917 C521.017437,358.934562 520.903674,362.979708 520.324,366.971" id="Shape" stroke="#E3E3E3" stroke-width="1.497"></path>
            <path d="M534.07,249.919 C535.596,236.827 534.36,223.589 533.072,210.472 C532.018047,199.731945 530.930375,188.995225 529.809,178.262 C523.8,173.854 519.075,171.677 514.509,167.685 C509.076157,162.938653 502.907661,159.107322 496.245,156.341 C492.255,162.064 488.264,169.285 484.273,175.007 C486.887458,176.230982 489.376533,177.70661 491.705,179.413 C492.501,179.996 493.33,180.685 493.543,181.65 C493.706,182.387 493.474,183.148 493.243,183.867 C492.504,186.184 491.765,188.502 491.025,190.817 C488.967,189.85 486.191,191.048 485.485,193.212 C485.23,193.989 485.205,194.862 484.746,195.541 C483.35,197.61 480.016,195.913 477.662,196.739 C476.766,197.054 476.055,197.736 475.369,198.393 C471.429285,202.174365 467.364352,205.823066 463.181,209.333 C462.228,210.133 461.243,210.941 460.074,211.366 C457.024,212.476 453.584,210.739 450.418,211.456 C449.10133,215.403854 448.376141,219.524827 448.266,223.685 C452.099182,224.008533 455.872827,224.837034 459.489,226.149 L458.953,243.131" id="Path" stroke="#E3E3E3" stroke-width="1.497"></path>
            <path d="M446.766,128.193 C471.986,141.633 497.285,155.122 520.626,171.619 C525.322,174.939 530.066,178.442 535.599,180.008 C539.528,181.119 543.667,181.194 547.749,181.181 C579.81,181.073 611.621,175.973 643.278,170.886 C644.372,170.711 645.553,170.491 646.31,169.68 C647.024,168.916 647.193,167.805 647.283,166.762 C647.743,161.444 646.999,156.103 646.256,150.818 L642.16,121.657 C660.787,123.841 679.912,123.793 698.233,119.783 C700.957,119.187 703.687,118.508 706.202,117.305 C709.172,115.884 711.75,113.775 714.366,111.775 C717.603279,109.301417 720.943589,106.965668 724.378,104.774 C725.453,104.088 726.573,103.402 727.83,103.192 C729.087,102.982 731.635,103.755 732.338,104.819 M599.996,177.196 C596.348,128.918 593.78,77.562 592.296,29.169" id="Shape" stroke="#E3E3E3" stroke-width="1.497"></path>
            <path d="M670.767,122.996 C668.944,111.687 667.12,100.362 666.263,88.94 C665.467,78.308 665.487,67.451 662.237,57.296 C661.013,53.47 659.337,49.796 658.215,45.938 C656.425,39.788 656.079,33.324 655.745,26.928 M626.26,173.207 C626.572,176.576 626.884,179.947 627.193,183.315 C627.449,186.079 627.703,188.887 627.187,191.615 C626.673,194.343 625.279,197.029 622.91,198.475 C621.504,199.333 619.638,199.925 619.196,201.514 C618.969,202.332 619.21,203.201 619.467,204.01 C620.84909,208.35588 622.730667,212.526758 625.074,216.439 C625.441,217.052 625.844,217.682 626.464,218.037 C627.18,218.447 628.057,218.419 628.88,218.379 L641.498,217.76 C642.298,217.721 643.192,217.714 643.785,218.253 C644.264,218.69 644.415,219.375 644.747,219.933 C645.704,221.54 647.936,221.805 649.781,221.508 C650.148,221.45 650.558,221.385 650.861,221.601 C651.206,221.847 651.246,222.334 651.255,222.758 C651.29,224.322 651.323,225.888 651.357,227.451 C651.369,228.017 651.392,228.618 651.698,229.093 C652.333,230.074 653.758,230.02 654.913,229.855 C679.461102,226.343384 704.11766,223.636932 728.843,221.74" id="Shape" stroke="#E3E3E3" stroke-width="1.497"></path>
            <path d="M561.858,181.724 C560.083,209.949 565.543,238.116 572.208,265.599 C572.55,267.004 572.895,268.459 572.636,269.882 C572.404,271.157 571.708,272.289 571.05,273.404 C567.589048,279.271944 564.855275,285.539373 562.909,292.068 C562.645,292.95 562.407,293.941 562.834,294.758 C563.205,295.464 563.981,295.845 564.708,296.176 C575.404063,301.058012 586.291832,305.508597 597.345,309.517 C599.699,310.371 602.117,311.215 604.619,311.224 C610.281,311.244 615.929,307.032 621.209,309.08 C620.786,310.232 621.482,311.558 622.503,312.24 C623.523,312.921 624.788,313.1 626.008,313.234 C627.494,313.397 629.076,313.499 630.41,312.822 C631.744,312.146 632.652,310.406 631.92,309.101 C634.957,308.971 638.575,308.481 639.905,305.745 C640.607,304.303 640.441,302.608 640.26,301.015 L633.177,238.719 C633.031,237.429 632.91,236.021 633.615,234.931 C634.448,233.64 636.131,233.25 637.648,233.003 C642.812,232.165 646.282,229.192 651.514,229.159" id="Path" stroke="#E3E3E3" stroke-width="1.497"></path>
            <path d="M639.805,288.656 C651.649518,286.319616 663.692263,285.13443 675.765,285.117 C674.481294,288.890644 674.659711,293.008529 676.265,296.657 C677.708,299.898 680.284,303.482 678.582,306.597 C678.137,307.408 677.398,308.21 677.595,309.114 C677.949,310.732 680.427,310.341 681.81,311.251 C682.494,311.701 682.891,312.485 683.532,312.994 C685.455,314.521 688.378,312.804 689.52,310.629 C690.662,308.454 690.92,305.843 692.365,303.858 C694.831,300.475 699.705,300.114 703.198,297.81 C703.684,297.488 704.163,297.106 704.402,296.573 C704.643,296.035 704.608,295.421 704.567,294.832 L702.581,265.915 C702.43,263.715 702.288,261.443 703.022,259.365 C703.727,257.37 705.17,255.742 706.535,254.128 C710.491795,249.448646 714.047367,244.444285 717.164,239.168 C718.201,237.412 719.199,235.596 719.654,233.607 C720.512,229.851 719.354,225.799 720.529,222.13 M520.522,366.929 C523.132,366.505 525.55,368.741 528.19,368.596 C530.25,368.482 531.947,366.944 533.207,365.309 C534.467,363.674 535.518,361.82 537.167,360.58 C542.708133,364.467838 548.780516,367.537036 555.197,369.693 C556.6,370.163 558.351,370.515 559.39,369.461 C560.745,368.084 559.722,365.451 561.035,364.031 C562.128,362.851 564.087,363.29 565.509,364.039 C566.931,364.789 568.427,365.795 570.002,365.467 C572.446,364.959 573.092,361.849 573.464,359.379 C573.84,356.884 574.454,354.426 575.294,352.049 C576.144,349.649 577.228,347.315 577.706,344.815 C578.185,342.315 577.976,339.54 576.44,337.512 C575.205,335.882 573.117,334.65 572.957,332.612 C572.885,331.686 573.252,330.782 573.683,329.96 C575.636,326.23 579.032,323.282 580.336,319.276 C580.969,317.33 581.063,315.256 581.153,313.212 L581.573,303.554 M578.167,342.689 C584.274,342.609 590.169,344.679 596.087,346.196 C612.021,350.278 628.663,350.401 645.111,350.5 C645.77,350.504 646.458,350.5 647.039,350.191 C648.106,349.625 648.431,348.271 648.589,347.072 C650.531,332.436 644.394,318.125 640.455,303.898" id="Shape" stroke="#E3E3E3" stroke-width="1.497"></path>
            <path d="M648.4,349.529 C647.425,353.702 649.082,358.394 647.138,362.213 C646.358,363.743 645.072,364.95 643.768,366.069 C641.33733,368.153074 638.752636,370.050477 636.036,371.745 C633.946,373.048 631.762,374.244 629.95,375.915 C628.14,377.586 626.707,379.838 626.63,382.302 C619.609313,382.727276 612.569921,382.746641 605.547,382.36 C604.326,382.293 603.072,382.204 601.967,381.679 C600.544,381.002 599.551,379.691 598.478,378.536 C595.234692,375.06632 590.937238,372.763636 586.252,371.985 C583.413,371.522 580.25,371.538 578.082,369.646 C577.072,368.766 576.401,367.558 575.437,366.628 C574.473,365.698 572.981,365.068 571.801,365.702" id="Path" stroke="#E3E3E3" stroke-width="1.497"></path>
            <path d="M648.265,353.003 C650.862,353.261 653.457,353.518 656.054,353.774 C657.328,353.9 658.777,354.128 659.474,355.204 C659.917,355.888 659.937,356.757 660.211,357.526 C660.799,359.178 662.536,360.198 664.271,360.441 C666.006,360.685 667.761,360.294 669.469,359.906 C669.245,366.016 673.434,371.297 677.395,375.953 C678.098,376.78 678.842,377.637 679.85,378.04 C681.961,378.885 684.243,377.465 686.073,376.113 L690.502,372.842 C691.144,374.389 691.786,375.935 692.43,377.482 C694.593,378.134 696.598,375.762 696.835,373.516 C697.071,371.269 696.263,369.034 696.278,366.773 C696.314,361.707 700.312,357.689 702.647,353.193 C705.513,347.673 705.89,341.24 706.211,335.028 C706.641,326.652 707.074,318.277 707.505,309.899 C707.743,305.287 707.833,300.201 704.905,296.631" id="Path" stroke="#E3E3E3" stroke-width="1.497"></path>
            <path d="M702.234,355.472 L722.584,351.562 C723.954,351.298 725.354,351.033 726.74,351.208 C727.932,351.358 729.054,351.827 730.208,352.159 C732.842,352.918 735.62,352.964 738.36,353.004 C741.516,353.051 744.673,353.099 747.83,353.145 M498.966,468.787 C497.791,459.573 496.62,450.18 498.312,441.047 C499.141,436.566 500.652,432.202 501.037,427.661 C501.32,424.313 500.989,420.886 501.827,417.631 C502.781,413.926 505.168,410.765 506.614,407.221 C507.957975,403.91451 508.465967,400.327654 508.093,396.778 C507.919,395.143 507.569,393.428 508.178,391.903 C508.837,390.256 510.446,389.238 511.798,388.092 C513.149,386.946 514.402,385.252 513.938,383.539" id="Shape" stroke="#E3E3E3" stroke-width="1.497"></path>
            <path d="M497.771,453.624 C502.452765,450.645906 507.728894,448.727127 513.23,448.002 C513.784,447.93 514.352,447.866 514.848,447.606 C515.604,447.212 516.066,446.436 516.545,445.731 C520.385,440.085 527.16,437.387 533.355,434.522 C547.369,428.045 560.451,419.175 575.407,415.347 C577.161,414.898 578.954,414.514 580.567,413.691 C584.094,411.89 586.339,408.137 587.103,404.248 C587.866,400.359 587.321,396.327 586.423,392.466 C585.845,389.986 585.119,387.508 585.08,384.959 C585.018,380.894 586.698,377.029 588.348,373.312 M533.91,518.697 C549.52377,506.273035 566.72095,495.981427 585.049,488.093 C593.599,484.415 602.608,481.127 609.418,474.78 L601.663,470.268 C601.027,469.898 600.355,469.49 600.033,468.828 C599.513,467.755 600.1,466.501 600.656,465.447 C603.195345,460.618776 605.240396,455.546353 606.76,450.307 C607.038,449.347 607.301,448.336 607.089,447.357 C606.889,446.429 606.284,445.647 605.685,444.908 C602.253232,440.674287 598.47629,436.732446 594.393,433.123 C592.113,431.107 589.71,429.167 587.943,426.686 C585.058,422.631 584.121,417.497 581.621,413.193 M607.969,448.642 C608.989,446.285 610.147,443.77 612.377,442.502 C616.507,440.154 621.724,443.283 626.394,442.416 C628.534,442.017 630.45,440.778 631.98,439.226 C632.317,438.885 632.652,438.496 632.724,438.022 C632.815,437.412 632.454,436.842 632.178,436.292 C630.712,433.394 631.358,429.895 632.372,426.81 C633.386,423.726 634.749,420.643 634.634,417.398 C634.524,414.365 633.116,411.436 633.364,408.411 C633.662,404.794 636.226,401.842 637.958,398.655 C639.699952,395.438606 640.637641,391.848422 640.691,388.191 C637.218878,389.152785 633.553246,389.172459 630.071,388.248 C629.686,388.144 629.257,387.993 629.088,387.63 C628.916,387.26 629.085,386.833 629.178,386.438 C629.579,384.728 628.253,382.822 626.512,382.604 M640.316,388.657 C652.068,382.117 667.135,384.543 679.118,378.437" id="Shape" stroke="#E3E3E3" stroke-width="1.497"></path>
            <path d="M631.042,437.492 C647.676911,435.512108 664.047991,431.733677 679.868,426.223 C680.498,426.003 681.148,425.768 681.625,425.299 C682.229,424.703 682.454,423.823 682.575,422.981 C683.153,418.991 682.017,414.808 683.174,410.946 C684.308,407.155 687.504,404.224 688.54,400.404 C688.927,398.975 688.993,397.48 689.28,396.027 C690.646,389.128 696.916,383.235 695.836,376.287" id="Path" stroke="#E3E3E3" stroke-width="1.497"></path>
            <path d="M680.511,425.83 C683.505,429.198 688.815,428.63 693.253,427.86 C707.833513,425.328994 722.546886,423.634225 737.321,422.784" id="Path" stroke="#E3E3E3" stroke-width="1.497"></path>
            <path d="M608.978,474.888 C614.252958,477.992136 619.632784,480.914519 625.108,483.65 C629.337,485.762 633.719,487.79 638.415,488.325 C639.209,488.415 640.046,488.457 640.78,488.135 C641.437,487.845 641.94,487.297 642.42,486.765 L649.893,478.487 C651.031,477.227 652.195,475.945 653.673,475.109 C658.401,472.431 664.184,475.106 669.475,476.342 C670.185,476.508 670.955,476.642 671.623,476.354 C672.351,476.041 672.789,475.307 673.18,474.616 L683.544,456.322 C683.963,455.584 684.386,454.829 684.548,453.994 C684.786,452.764 684.427,451.51 684.133,450.292 C682.33,442.812 682.945,434.768 685.868,427.651 M579.465,586.954 C579.895,584.632 580.405,582.324 580.995,580.037 C581.163,579.389 581.352,578.715 581.807,578.223 C582.311,577.678 583.064,577.446 583.789,577.285 C587.597,576.448 591.554,577.028 595.452,576.925 C599.349,576.821 603.579,575.813 605.935,572.705 C607.895,570.123 608.245,566.475 610.579,564.225 C611.236,563.592 612.024,563.1 612.661,562.449 C614.457,560.614 614.812,557.712 614.122,555.237 C613.432,552.762 611.853,550.638 610.174,548.695 C607.907687,546.072224 605.403693,543.66464 602.694,541.503 C600.779,539.975 598.667,538.453 597.754,536.176 C596.549,533.169 597.81,529.716 599.639,527.044 C601.469,524.371 603.871,522.082 605.341,519.195 C606.021,517.861 606.447,516.135 605.534,514.947 C605.17,514.475 604.644,514.163 604.13,513.862 L572.237,495.191" id="Shape" stroke="#E3E3E3" stroke-width="1.497"></path>
            <path d="M612.883,560.295 L628.295,552.55 C629.565,556.602 634.201,558.365 638.265,559.587 C639.139,559.851 640.069,560.117 640.953,559.887 C642.116,559.586 642.9,558.519 643.932,557.904 C648.543,555.149 654.458,562.345 659.272,559.962 C661.697,558.762 662.45,555.722 662.894,553.052 C665.464,537.599 666.672,521.892 666.007,506.239 C665.877,503.179 665.68,500.083 666.271,497.079 C666.753,494.632 667.745,492.32 668.453,489.931 C669.733,485.608 670.073,481.068 670.405,476.571" id="Path" stroke="#E3E3E3" stroke-width="1.497"></path>
            <path d="M668.877,487.12 C680.479904,494.04622 693.34202,498.600866 706.718,500.52 C707.173,500.585 707.644,500.647 708.089,500.53 C708.649,500.381 709.098,499.972 709.521,499.577 L714.224,495.18 C714.964,494.49 715.733,493.78 716.691,493.454 C718.435,492.863 720.3,493.674 722.097,494.07 C723.895,494.469 726.249,494.139 726.845,492.395 M660.565,560.278 C661.396,565.502 661.51,570.839 660.902,576.094 C660.745,577.454 660.542,578.849 660.895,580.171 C661.248,581.492 662.327,582.731 663.692,582.783 C664.587,582.818 665.418,582.353 666.172,581.871 C670.6,579.038 674.322,575.047 679.164,573 C683.786,571.045 688.962,571.055 693.976,570.889 C704.8645,570.528468 715.698963,569.19516 726.35,566.905 M662.462,582.942 C663.045,586.022 665.022,588.722 665.484,591.822 C666.254,596.994 662.629,601.851 658.441,604.978 C654.253,608.105 649.316,610.214 645.496,613.781 C642.243,616.816 639.966,620.765 638.25,624.871 M665.755,597.51 C669.378,599.347 673.198,601.23 677.257,601.102 C679.595,601.028 681.86,600.282 684.036,599.421 C691.593,596.426 699.251,591.824 707.249,593.27 C709.254837,599.504774 712.491393,605.273652 716.767,610.235 C717.052,610.565 717.352,610.917 717.414,611.348 C717.477,611.796 717.266,612.232 717.062,612.637 L712.9,620.84 C712.021,622.573 711.132,624.321 709.908,625.831 C708.888,627.09 707.648,628.167 706.731,629.501 C705.815,630.836 705.247,632.559 705.79,634.084" id="Shape" stroke="#E3E3E3" stroke-width="1.497"></path>
            <path d="M412.16,148.466 L412.987,149.007 L415.697,148.27 L419.917,144.81 L422.524,143.337 L422.494,142.703 L422.321,142.168 L421.728,141.237 L420.996,141.153 L420.13,141.726 L419.115,142.117 L417.875,141.304 L416.578,142.478 L413.689,143.49 L412.492,144.624 L412.085,145.728 L411.92,147.163 L412.16,148.466 Z M425.448,138.584 L425.591,140.049 L425.481,141.837 L426.379,143.269 L427.431,143.015 L430.595,139.996 L432.578,139.146 L435.012,137.138 L437.229,134.648 L438.797,131.809 L439.106,131.372 L439.261,130.902 L439.281,130.188 L437.761,130.288 L436.585,131.018 L434.745,133.492 L434.078,131.075 L432.693,132.205 L430.179,136.789 L429.377,135.819 L429.689,135.504 L429.815,135.501 L429.92,135.301 L430.141,134.659 L428.827,134.675 L427.745,135.085 L426.87,135.718 L426.268,136.848 L426.004,136.762 L425.525,136.666 L424.862,136.688 L423.951,136.878 L423.985,138.104 L425.448,138.584 Z M684.945,651.917 L684.861,647.994 L682.711,634.782 L682.924,627.986 L682.669,625.216 L680.897,623.015 L678.51,621.379 L677.139,618.883 L676.236,616.858 L675.163,611.642 L674.213,609.077 L674.466,606.879 L676.271,604.274 L678.377,602.481 L678.752,605.587 L677.862,608.159 L677.546,610.812 L679.601,614.102 L683.575,617.465 L686.26,621.346 L687.693,626.636 L688.363,632.456 L688.779,645.132 L688.517,648.298 L687.13,654.733 L686.353,661.232 L683.819,668.096 L685.446,670.861 L683.639,675.964 L682.999,678.832 L683.723,680.822 L687.593,680.822 L690.806,679.441 L695.086,679.427 L698.835,678.934 L697.889,676.961 L696.061,675.031 L696.277,671.483 L698.206,669.808 L700.717,666.315 L702.162,663.794 L707.097,657.884 L709.58,656.57 L712.13,656.46 L714.75,652.116 L715.019,649.857 C715.535,648.212 715.189,647.3 714.841,646.387 L713.799,644.584 C710.538,640.614 708.538,637.681 706.509,634.742 L707.427,632.489 C715.38,627.091 723.31,621.659 731.263,616.266 L733.058,614.782 L731.183,612.312 C729.267,609.27 727.387,606.204 725.469,603.162 C726.43,563.773 727.267,524.389 728.049,484.962 L724.821,481.31 C732.341,446.865 740.254,412.501 747.841,378.038 L745.308,368.436 L746.122,366.102 L747.144,360.559 L747.344,358.005 C746.658,322.156 745.718,286.322 744.876,250.472 L742.848,248.284 L741.288,246.594 L739.408,241.029 L737.346,239.178 L734.666,238.854 L732.464,239.566 L731.164,241.68 L730.734,244.434 L729.508,246.658 L727.063,248.258 L725.27,246.46 L724.291,242.794 L724.127,239.418 L724.516,236.245 L729.806,220.502 L730.159,215.483 L729.797,212.626 L727.221,208.204 L727.694,203.83 L727.858,201.771 L727.646,199.572 L726.091,196.916 L724.965,193.658 L723.64,186.893 L723.432,184.509 L723.359,180.214 L722.835,177.859 L720.949,175.292 L719.837,173.069 L720.03,171.015 L721.253,168.667 L724.63,155.915 L724.967,153.765 L725.17,150.43 L726.156,148.006 L728.44,145.81 L730.894,144.024 L731.778,141.171 L732.025,137.785 L731.92,134.734 L729.801,126.184 L729.687,123.787 L732.215,117.735 L732.847,115.831 L733.283,113.202 L733.533,110.876 L733.403,107.944 L732.488,104.731 L731.292,102.301 L726.176,94.365 L724.452,90.989 L722.986,84.008 L722.678,80.57 L724.467,72.621 L724.612,67.243 L725.782,62.043 L726.369,58.351 L726.324,55.936 L725.51,53.773 L723.347,51.491 L721.651,48.589 L721.337,46.589 L721.585,43.797 L722.111,41.807 L724.221,37.672 L725.011,35.3 L725.339,33.213 L725.172,30.93 L724.51,28.641 L723.8,25.031 C673.31,25.728 623.327,27.934 573.355,29.769 L568.228,29.798 L554.02,28.435 L550.124,29.335 L546.118,32.181 L539.661,34.786 L533.102,39.934 L525.255,42.634 L509.777,52.699 C494.139667,67.902466 478.457933,83.0601974 462.732,98.172 L456.749,106.81 C455.386,108.471 454.055,110.11 452.693,111.77 L454.124,113.965 L454.979,116.853 L455.265,119.63 L454.102,121.834 L446.947,126.828 L446.587,129.255 L439.926,132.882 L438.293,135.426 L423.909,148.585 L409.431,155.54 L390.025,170.22 L389.075,172.467 L389.742,175.819 L393.312,177.474 L395.367,179.354 L395.671,182.352 L395.433,184.617 L398.163,184.854 L399.537,180.978 L406.834,177.134 L407.844,179.245 L412.304,178.333 L413.958,180.039 L412.411,183.384 L414.178,181.741 L414.361,185.338 L412.785,186.958 L409.844,188.551 L407.937,190.419 L406.789,192.249 L414.538,192.997 L416.62,192.262 L419.691,189.257 L423.358,189.027 L423.96,192.085 L422.701,193.988 L417.274,195.674 L415.777,197.216 L415.023,199.566 L414.49,203.458 L412.806,205.932 L407.918,210.225 L406.718,212.45 L403.595,210.29 L405.131,206.07 L399.569,208.886 L398.084,210.369 L396.828,212.896 L399.232,214.756 L401.031,216.367 L403.151,218.235 L404.086,220.109 L404.294,222.492 L405.87,225.529 L406.95,229.778 L407.745,231.716 L406.728,234.762 L406.641,238.304 L407.126,242.09 L407.97,245.664 L408.908,243.48 L411.18,241.5 L407.971,249.54 L407.461,252.997 L410.597,255.255 L408.457,257.355 L404.095,262.913 L401.799,264.075 L394.182,265.788 L391.222,265.288 L386.458,263.515 L378.624,270.027 L376.488,271.813 L364.679,277.745 L360.349,280.965 L356.442,285.021 L351.462,294.889 L348.689,292.989 L346.386,294.368 L338.471,298.488 L326.741,301.094 L325.488,302.964 L325.594,305.079 L325.058,307.285 L322.671,308.144 L320.703,307.062 L320.713,303.752 L276.958,301.999 L271.743,303.101 L257.453,308.501 L252.309,308.467 L247.565,306.292 L239.38,298.862 L236.267,297.892 L233.378,294.872 L192.596,287.186 L178.856,289.386 L161.42,286.841 L126.177,292.111 L118.773,295.713 L106.463,297.793 L91.733,303.51 L83.977,304.824 L84.51,307.614 L84.971,321.611 L84.593,325.347 L83.457,327.899 L82.972,331.704 L87.438,334.793 L100.153,336.449 L103.203,340.376 L102.567,343.841 L98.535,348.058 L97.552,351.548 L100.172,354.982 L101.451,362.737 L104.468,369.155 L105.101,371.125 L105.281,376.13 L104.869,379.89 L103.719,382.658 L101.948,384.643 L99.629,386.24 L90.646,390.24 L86.338,392.872 L83.076,396.837 L80.616,402.557 L78.761,405.245 L76.287,406.371 L73.817,411.216 L72.422,413.497 L70.288,414.941 L62.664,417.154 L60.246,420.477 L54.144,424.397 L48.405,426.709 L46.375,428.424 L44.205,431.144 L40.739,432.852 L35.239,440.176 L28.754,443.713 L26.861,445.83 L24.841,447.642 L16.921,450.546 L8.157,457.341 L4.915,458.871 L2.542,460.738 C1.006,475.205 0.795,489.128 0.614,503.055 C171.494,505.685 342.347,504.84 513.214,500.997 L513.2,503.087 L516.027,505.157 L519.693,506.801 L522.201,508.461 L522.941,511.296 L523.315,515.186 L524.06,518.614 L526.021,520.039 L532.384,518.822 L536.485,521.399 L539.672,522.479 L541.406,525.327 L544.035,526.545 L541.026,531.406 L543.456,532.676 L546.947,534.724 L547.549,538.092 L545.668,540.931 L547.103,548.221 L547.178,551.421 L546.685,559.445 L548.573,562.48 L554.819,575.049 L556.435,577.405 L558.492,579.131 L563.725,580.279 L566.408,583.383 L568.112,584.853 L570.944,585.358 L576.639,584.821 L578.93,586.155 L581.695,587.465 L584.169,586.495 L585.703,588.176 L586.672,590.653 L589.647,595.407 L590.376,598.459 C621.813,616.452 653.351,634.241 684.945,651.917 Z M875.235,632.837 L874.619,631.245 L874.808,629.69 L873.071,629.308 L871.884,629.008 L869.748,627.517 L869.066,625.939 L867.64,626.215 L867.575,628.235 L865.282,630.021 L864.137,631.822 L864.369,633.928 L865.911,635.272 L868.012,634.758 L870.7,634.58 L873.095,635.561 L874.502,636.625 L875.78,636.947 L875.706,635.777 L874.836,634.508 L875.236,632.838 L875.235,632.837 Z M678.482,695.074 L678.803,693.014 L678.751,690.94 L681.568,685.166 L682.982,682.011 L682.09,679.457 L682.165,677.224 L683.157,674.768 L684.555,671.706 L684.328,669.879 L683.145,669.548 L682.623,670.911 L681.973,673.218 L676.803,685.111 L675.013,688.717 L674.139,692.757 L673.713,697.515 L675.43,696.737 L678.482,695.074 Z M87.797,346.638 L88.942,347.618 L90.524,349.686 L92.358,351.584 L94.363,352.02 L100.346,342.605 L100.828,340.671 L99.834,339.252 L96.871,338.156 L95.077,337.296 L93.202,337.449 L91.193,337.982 L89.073,338.118 L89.246,340.37 L87.689,345.616 L87.797,346.638 Z M710.391,712.25 L710.27,709.913 L711.976,708.103 L715.229,707.29 L716.746,708.438 L716.739,709.873 L715.759,710.709 L717.135,711.014 L718.219,710.424 L720.09,708.894 L727.728,704.902 L734.33,703.734 L746.29,701.082 L749.802,700.228 L756.078,696.649 L761.061,695.935 L762.561,694.519 L764.216,692.665 L765.771,691.448 L768.358,692.718 L772.173,692.675 L774.723,693.346 L776.187,692.422 L776.437,690.722 L776.626,689.167 L777.885,688.483 L779.613,688.74 L781.514,689.842 L783.324,689.082 L786.642,688.25 L789.17,687.793 L790.314,685.212 L791.537,684.862 L799.266,685.703 L801.584,683.326 L803.44,682.948 L805.843,681.714 L807.2,684.738 L810.25,684.008 L812.527,682.311 L814.22,680.871 L814.6,678.823 L812.873,677.633 L815.993,678.573 L820.289,678.315 C821.722,676.945 823.175,675.614 824.599,674.279 L827.779,675.387 L830.246,675.071 L832.1,675.007 L833.638,675.441 L830.405,676.604 L825,678.794 L824.278,678.962 L823.558,679.597 L824.29,680.151 L825.22,680.025 L827.477,679.045 L838.927,674.573 L846.247,671.236 L850.741,668.143 L852.025,666.873 L851.88,665.436 L850.988,663.976 L850.645,662.406 L851.055,661.146 L852.425,660.548 L855.418,660.713 L856.864,661.596 L856.833,663.312 L855.49,665.789 L857.773,665.312 L861.781,663.995 L865.746,661.668 C871.578,658.438 877.362,655.137 883.086,651.822 L889.962,648.052 L898.232,643.252 L907.197,639.028 L916.237,633.821 L921.37,632.354 L923.57,629.643 L924.383,628.089 L922.263,627.599 L918.889,626.386 L915.699,627.493 L917.219,629.55 L917.272,630.53 L915.546,629.65 L914.084,628.386 L912.607,629.057 L912.744,632.709 L910.763,633.247 L908.718,632.397 L906.585,633.685 L902.314,637.696 L897.959,639.945 L895.519,640.609 L894.396,639.819 L893.779,638.229 L889.64,632.584 L888.3,632.407 L886.83,633.986 C886.656814,635.952701 886.499476,637.920764 886.358,639.89 L882.939,635.327 L880.581,634.787 L879.847,635.797 L879.667,637.165 L879.052,638.98 L877.316,639.379 L876.649,641.461 L873.294,641.067 L872.864,638.856 L872.109,636.547 L870.353,636.6 L869.15,637.452 L870.639,641.22 L870.081,642.294 L868.24,642.297 L865.333,643.244 L863.32,646.897 L860.885,650.313 L858.435,651.007 L857.113,651.677 L856.883,653.445 L856.257,655.32 L855.481,656.85 L852.791,658.898 L850.377,659.101 L847.713,658.379 L845.288,657.389 L842.967,657.141 L840.637,659.11 L839.575,658.332 L838.393,657.998 L837.152,657.968 L835.854,658.206 L836.734,655.072 L838.626,654.517 L840.9,654.069 C842.253,652.777 843.636,651.495 845.022,650.179 L844.892,648.653 L845.974,647.309 L847.436,645.636 L848.625,645.626 L849.894,644.913 L850.422,644.769 L853.027,644.546 L853.64,642.416 L854.99,642.378 L856.056,644.218 L857.156,645.281 L857.593,643.868 L857.236,641.925 L856.8,640.369 L856.878,638.884 L857.569,638.086 L859.768,637.403 L862.299,637.695 L862.836,635.647 L861.914,635.273 L861.067,634.667 L859.237,634.299 L859.505,632.664 L867.149,624.614 L871.586,621.634 L873.495,624.397 L874.998,623.762 L876.801,622.407 L878.291,620.737 L878.808,618.937 L878.076,617.603 L876.536,616.887 L874.701,616.703 L873.109,617.005 L866.941,620.514 L865.254,622.081 L862.567,625.663 L859.219,628.798 L855.498,629.61 L854.57,631.423 L852.627,634.407 L844.709,639.779 L837.399,645.398 L834.833,646.504 L826.907,647.282 L817.071,650.234 L811.304,649.884 L803.11,651.201 L790.345,651.191 L785.74,652.045 L782.436,650.783 L781.471,651.245 L782.17,652.887 L781.885,653.985 L780.842,654.527 L779.28,654.523 L779.806,651.285 L778.103,650.756 L775.521,651.64 L773.532,652.675 L774.202,655.248 L772.963,657.685 L770.781,659.526 L765.471,661.424 L764.228,661.548 L763.233,661.223 L760.886,660.78 L757.322,659.252 L753.471,658.693 L750.5,658.561 L747.765,657.886 L747.011,656.205 L745.162,655.145 L744.377,655.175 L743.739,656.325 L743.509,657.465 L744.847,659.67 L747.277,659.692 L749.401,659.525 L750.161,661.178 L749.851,663.336 L748.362,663.442 L746.25,662.611 L744.33,663.005 L742.583,663.619 L741.138,662.579 L740.072,661.52 L741.066,658.597 L737.448,658.275 L734.622,656.954 L733.754,659.872 C734.772,661.171 735.797,662.44 736.846,663.746 L737.02,664.904 L736.171,665.389 L736.568,666.689 L735.742,667.523 L734.184,666.895 L734.064,665.31 L732.39,665.097 L732.173,666.333 L732.033,667.649 L729.273,667.563 L727.523,665.71 L728.478,664.997 L729.934,665.507 L731.437,664.092 L731.707,663.366 L730.719,661.448 L725.493,662.145 L717.656,664.783 L715.432,669.803 L716.504,675.486 L715.715,676.606 L714.195,674.397 L713.04,671.602 L709.358,670.204 L707.608,670.351 L706.36,672.224 L706.236,673.916 L710.106,675.323 L710.622,677.113 L709.97,678.95 L708.635,679.835 L707.739,678.873 L706.787,676.932 L705.473,675.387 L703.659,675.71 L702.759,679.246 L704.533,682.073 L703.803,685.237 L701.129,682.072 L695.939,681.497 L691.631,684.909 L690.468,684.019 L688.508,684.466 L685.916,683.226 L683.481,685.702 L680.528,690.449 L680.349,693.351 L679.255,695.849 L677.994,696.532 L676.805,697.323 L675.994,697.941 L675.524,698.88 L674.011,700.824 L674.386,702.834 L673.206,705.284 L671.843,706.945 L671.46,709.933 L672.711,712.088 L675.724,713.258 L676.557,714.395 L676.293,715.403 L675.006,716.049 L675.989,717.373 L677.838,717.493 L683.286,716.467 L684.392,715.941 L685.046,715.011 L686.753,714.917 L688.432,714.945 L689.144,715.898 L690.784,715.041 L689.978,712.223 L688.811,710.113 L688.914,708.667 L689.864,707.36 L690.532,706.682 L691.475,706.027 L693.502,705.405 L696.061,704.485 L697.751,704.917 L699.809,706.02 L701.913,707.348 L703.058,708.171 L703.382,708.896 L702.562,710.168 L701.012,711.823 L693.986,715.095 L683.659,719.418 L683.739,721.495 L688.665,719.365 L698.448,714.493 L703.639,713.35 L705.522,713.917 L710.846,712.647 L710.391,712.25 Z M667.678,709.516 L667.292,707.877 L667.639,707.227 L667.429,706.247 L666.967,705.591 L666.174,705.495 C665.141,706.132 664.102,706.795 663.071,707.432 L661.241,708.154 L657.97,707.653 L655.916,706.833 L654.602,707.787 L653.526,709.257 L653.326,711.654 L653.049,715.971 L652.703,718.308 L652.091,719.811 L650.793,720.985 L649.153,721.842 L648.154,723.237 L648.534,725.06 L648.527,726.652 L647.518,727.326 L646.968,728.185 L647.252,729.115 L648.197,729.37 L649.914,728.904 L652.154,727.698 L654.107,727.31 L655.53,725.972 L657.471,724.709 L659.201,723.557 L660.178,723.505 L660.869,723.802 L664.511,720.284 L669.95,712.634 L668.946,710.806 L667.678,709.516 Z M403.458,191.11 L404.918,189.123 L406.278,185.616 L406.576,183.834 L405.315,183.736 L403.387,184.628 L401.704,185.696 L399.685,187.663 L399.043,189.313 L399.456,194.395 L403.457,191.11 L403.458,191.11 Z" id="Shape" stroke="#0081C3" stroke-width="1.497"></path>
            <g data-aos="fade-down" data-aos-delay="400" data-aos-anchor=".glance-map">
                <g id="pin-1" transform="translate(391.000000, 221.000000)">
                    <g id="Group" transform="translate(0.803000, 0.853000)">
                        <g fill-rule="nonzero" id="b-link">
                            <g fill="#000000">
                                <path d="M22.666,0 C10.168,0 0,10.363 0,23.102 C0,38.91 20.284,62.118 21.148,63.099 C21.958,64.019 23.375,64.018 24.185,63.099 C25.048,62.119 45.333,38.91 45.333,23.102 C45.333,10.363 35.164,0 22.666,0 Z M22.666,34.725 C16.378,34.725 11.262,29.511 11.262,23.102 C11.262,16.692 16.378,11.479 22.666,11.479 C28.954,11.479 34.07,16.693 34.07,23.102 C34.07,29.511 28.954,34.725 22.666,34.725 Z" id="b"></path>
                            </g>
                            <g fill="#F2C744" stroke="#FFFFFF" stroke-width="0.936">
                                <path d="M22.666,0 C10.168,0 0,10.363 0,23.102 C0,38.91 20.284,62.118 21.148,63.099 C21.958,64.019 23.375,64.018 24.185,63.099 C25.048,62.119 45.333,38.91 45.333,23.102 C45.333,10.363 35.164,0 22.666,0 Z M22.666,34.725 C16.378,34.725 11.262,29.511 11.262,23.102 C11.262,16.692 16.378,11.479 22.666,11.479 C28.954,11.479 34.07,16.693 34.07,23.102 C34.07,29.511 28.954,34.725 22.666,34.725 Z" id="b"></path>
                            </g>
                        </g>
                        <ellipse id="Oval" fill="#FFFFFF" cx="22.666" cy="22.704" rx="18.349" ry="18.38"></ellipse>
                    </g>
                    <g id="Group" transform="translate(14.000000, 10.000000)" fill="#4C9C2E" fill-rule="nonzero">
                        <path d="M7.7,12.12 C7.7,14.048 6.166,15.606 4.267,15.606 C2.288,15.606 0.834,13.843 0.834,11.833 C0.834,9.947 2.409,8.512 4.267,8.512 C6.206,8.512 7.7,10.152 7.7,12.121 L7.7,12.12 Z M12.767,0.583 L8.288,0.583 C7.96325657,0.583 7.7,0.846256567 7.7,1.171 L7.7,8.434 C8.89139552,9.45040953 9.57741866,10.9379504 9.577,12.504 C9.577,14.132 8.847,15.589 7.7,16.573 L7.7,23.781 C7.7,24.106 7.964,24.369 8.288,24.369 L12.767,24.369 C13.0917434,24.369 13.355,24.1057434 13.355,23.781 L13.355,1.171 C13.355,0.846256567 13.0917434,0.583 12.767,0.583 Z" id="Shape"></path>
                    </g>
                </g>
            </g>
            <g data-aos="fade-down" data-aos-delay="450" data-aos-anchor=".glance-map">
                <g id="pin-2" transform="translate(475.000000, 248.000000)">
                    <g id="Group" transform="translate(0.992000, 0.963000)">
                        <g fill-rule="nonzero" id="d-link">
                            <g fill="#000000">
                                <path d="M22.666,0 C10.168,0 0,10.363 0,23.102 C0,38.91 20.284,62.118 21.148,63.099 C21.958,64.019 23.375,64.018 24.185,63.099 C25.048,62.119 45.333,38.91 45.333,23.102 C45.333,10.363 35.164,0 22.666,0 Z M22.666,34.725 C16.378,34.725 11.262,29.511 11.262,23.102 C11.262,16.692 16.378,11.479 22.666,11.479 C28.954,11.479 34.07,16.693 34.07,23.102 C34.07,29.511 28.954,34.725 22.666,34.725 Z" id="d"></path>
                            </g>
                            <g fill="#F2C744" stroke="#FFFFFF" stroke-width="0.936">
                                <path d="M22.666,0 C10.168,0 0,10.363 0,23.102 C0,38.91 20.284,62.118 21.148,63.099 C21.958,64.019 23.375,64.018 24.185,63.099 C25.048,62.119 45.333,38.91 45.333,23.102 C45.333,10.363 35.164,0 22.666,0 Z M22.666,34.725 C16.378,34.725 11.262,29.511 11.262,23.102 C11.262,16.692 16.378,11.479 22.666,11.479 C28.954,11.479 34.07,16.693 34.07,23.102 C34.07,29.511 28.954,34.725 22.666,34.725 Z" id="d"></path>
                            </g>
                        </g>
                        <ellipse id="Oval" fill="#FFFFFF" cx="22.666" cy="22.704" rx="18.349" ry="18.38"></ellipse>
                    </g>
                    <g id="Group" transform="translate(15.000000, 10.000000)" fill="#4C9C2E">
                        <path d="M6.89,12.23 C6.89,14.158 5.355,15.716 3.456,15.716 C1.477,15.716 0.023,13.953 0.023,11.943 C0.023,10.058 1.598,8.623 3.456,8.623 C5.395,8.623 6.889,10.263 6.889,12.231 L6.89,12.23 Z" id="Path"></path>
                        <path d="M11.956,0.694 L7.477,0.694 C7.15225657,0.694 6.889,0.957256567 6.889,1.282 L6.889,8.544 C8.08039552,9.56040953 8.76641866,11.0479504 8.766,12.614 C8.766,14.242 8.036,15.699 6.889,16.683 L6.889,23.891 C6.889,24.216 7.153,24.479 7.477,24.479 L11.956,24.479 C12.2807434,24.479 12.544,24.2157434 12.544,23.891 L12.544,1.281 C12.5434484,0.95664716 12.2803533,0.693999531 11.956,0.694 Z" id="Path"></path>
                    </g>
                </g>
            </g>
            <g data-aos="fade-down" data-aos-delay="500" data-aos-anchor=".glance-map">
                <g id="pin-3" transform="translate(533.000000, 202.000000)">
                    <g id="Group" transform="translate(0.197000, 0.392000)">
                        <g fill-rule="nonzero" id="f-link">
                            <g fill="#000000">
                                <path d="M22.666,0 C10.168,0 0,10.363 0,23.102 C0,38.91 20.284,62.118 21.148,63.099 C21.958,64.019 23.375,64.018 24.185,63.099 C25.048,62.119 45.333,38.91 45.333,23.102 C45.333,10.363 35.164,0 22.666,0 Z M22.666,34.725 C16.378,34.725 11.262,29.511 11.262,23.102 C11.262,16.692 16.378,11.479 22.666,11.479 C28.954,11.479 34.07,16.693 34.07,23.102 C34.07,29.511 28.954,34.725 22.666,34.725 Z" id="f"></path>
                            </g>
                            <g fill="#F2C744" stroke="#FFFFFF" stroke-width="0.936">
                                <path d="M22.666,0 C10.168,0 0,10.363 0,23.102 C0,38.91 20.284,62.118 21.148,63.099 C21.958,64.019 23.375,64.018 24.185,63.099 C25.048,62.119 45.333,38.91 45.333,23.102 C45.333,10.363 35.164,0 22.666,0 Z M22.666,34.725 C16.378,34.725 11.262,29.511 11.262,23.102 C11.262,16.692 16.378,11.479 22.666,11.479 C28.954,11.479 34.07,16.693 34.07,23.102 C34.07,29.511 28.954,34.725 22.666,34.725 Z" id="f"></path>
                            </g>
                        </g>
                        <ellipse id="Oval" fill="#FFFFFF" cx="22.666" cy="22.704" rx="18.349" ry="18.38"></ellipse>
                    </g>
                    <g id="Group" transform="translate(14.000000, 10.000000)" fill="#4C9C2E" fill-rule="nonzero">
                        <path d="M7.095,11.66 C7.095,13.587 5.56,15.145 3.662,15.145 C1.682,15.145 0.229,13.382 0.229,11.372 C0.229,9.486 1.804,8.051 3.662,8.051 C5.6,8.051 7.095,9.691 7.095,11.66 Z M12.161,0.123 L7.683,0.123 C7.35864669,0.122999531 7.09555162,0.38564716 7.095,0.71 L7.095,7.973 C8.28602316,8.98959767 8.9716684,10.4771116 8.971,12.043 C8.971,13.671 8.241,15.128 7.095,16.112 L7.095,23.32 C7.095,23.645 7.358,23.908 7.683,23.908 L12.161,23.908 C12.4857434,23.908 12.749,23.6447434 12.749,23.32 L12.749,0.71 C12.7484484,0.38564716 12.4853533,0.122999531 12.161,0.123 Z" id="Shape"></path>
                    </g>
                </g>
            </g>
            <g data-aos="fade-down" data-aos-delay="600" data-aos-anchor=".glance-map">
                <g id="pin-5" transform="translate(580.000000, 299.000000)">
                    <g id="Group" transform="translate(0.688000, 0.697000)">
                        <g fill-rule="nonzero" id="h-link">
                            <g fill="#000000">
                                <path d="M22.666,0 C10.168,0 0,10.363 0,23.102 C0,38.91 20.284,62.118 21.148,63.099 C21.958,64.019 23.375,64.018 24.185,63.099 C25.048,62.119 45.333,38.91 45.333,23.102 C45.333,10.363 35.164,0 22.666,0 Z M22.666,34.725 C16.378,34.725 11.262,29.511 11.262,23.102 C11.262,16.692 16.378,11.479 22.666,11.479 C28.954,11.479 34.07,16.693 34.07,23.102 C34.07,29.511 28.954,34.725 22.666,34.725 Z" id="h"></path>
                            </g>
                            <g fill="#F2C744" stroke="#FFFFFF" stroke-width="0.936">
                                <path d="M22.666,0 C10.168,0 0,10.363 0,23.102 C0,38.91 20.284,62.118 21.148,63.099 C21.958,64.019 23.375,64.018 24.185,63.099 C25.048,62.119 45.333,38.91 45.333,23.102 C45.333,10.363 35.164,0 22.666,0 Z M22.666,34.725 C16.378,34.725 11.262,29.511 11.262,23.102 C11.262,16.692 16.378,11.479 22.666,11.479 C28.954,11.479 34.07,16.693 34.07,23.102 C34.07,29.511 28.954,34.725 22.666,34.725 Z" id="h"></path>
                            </g>
                        </g>
                        <ellipse id="Oval" fill="#FFFFFF" cx="22.666" cy="22.704" rx="18.349" ry="18.38"></ellipse>
                    </g>
                    <g id="Group" transform="translate(14.000000, 10.000000)" fill="#4C9C2E" fill-rule="nonzero">
                        <path d="M7.586,11.964 C7.586,13.891 6.051,15.45 4.153,15.45 C2.173,15.45 0.72,13.687 0.72,11.677 C0.72,9.791 2.295,8.356 4.153,8.356 C6.092,8.356 7.586,9.996 7.586,11.964 Z M12.652,0.427 L8.174,0.427 C7.84925657,0.427 7.586,0.690256567 7.586,1.015 L7.586,8.277 C8.77702316,9.29359767 9.4626684,10.7811116 9.462,12.347 C9.462,13.976 8.732,15.433 7.586,16.417 L7.586,23.625 C7.586,23.949 7.849,24.213 8.174,24.213 L12.652,24.213 C12.9767434,24.213 13.24,23.9497434 13.24,23.625 L13.24,1.015 C13.24,0.690256567 12.9767434,0.427 12.652,0.427 Z" id="Shape"></path>
                    </g>
                </g>
            </g>
            <g data-aos="fade-down" data-aos-delay="550" data-aos-anchor=".glance-map">
                <g id="pin-4" transform="translate(440.000000, 306.000000)">
                    <g id="Group" transform="translate(0.373000, 0.184000)">
                        <g fill-rule="nonzero" id="j-link">
                            <g fill="#000000">
                                <path d="M22.666,0 C10.168,0 0,10.363 0,23.102 C0,38.91 20.284,62.118 21.148,63.099 C21.958,64.019 23.375,64.018 24.185,63.099 C25.048,62.119 45.333,38.91 45.333,23.102 C45.333,10.363 35.164,0 22.666,0 Z M22.666,34.725 C16.378,34.725 11.262,29.511 11.262,23.102 C11.262,16.692 16.378,11.479 22.666,11.479 C28.954,11.479 34.07,16.693 34.07,23.102 C34.07,29.511 28.954,34.725 22.666,34.725 Z" id="j"></path>
                            </g>
                            <g fill="#F2C744" stroke="#FFFFFF" stroke-width="0.936">
                                <path d="M22.666,0 C10.168,0 0,10.363 0,23.102 C0,38.91 20.284,62.118 21.148,63.099 C21.958,64.019 23.375,64.018 24.185,63.099 C25.048,62.119 45.333,38.91 45.333,23.102 C45.333,10.363 35.164,0 22.666,0 Z M22.666,34.725 C16.378,34.725 11.262,29.511 11.262,23.102 C11.262,16.692 16.378,11.479 22.666,11.479 C28.954,11.479 34.07,16.693 34.07,23.102 C34.07,29.511 28.954,34.725 22.666,34.725 Z" id="j"></path>
                            </g>
                        </g>
                        <ellipse id="Oval" fill="#FFFFFF" cx="22.666" cy="22.704" rx="18.349" ry="18.38"></ellipse>
                    </g>
                    <g id="Group" transform="translate(14.000000, 9.000000)" fill="#4C9C2E" fill-rule="nonzero">
                        <path d="M7.27,12.451 C7.27,14.378 5.736,15.937 3.838,15.937 C1.858,15.937 0.405,14.174 0.405,12.164 C0.405,10.278 1.98,8.843 3.838,8.843 C5.777,8.843 7.271,10.483 7.271,12.451 L7.27,12.451 Z M12.337,0.914 L7.859,0.914 C7.7030527,0.914 7.5534926,0.975949822 7.44322121,1.08622121 C7.33294982,1.1964926 7.271,1.3460527 7.271,1.502 L7.271,8.764 C8.46202316,9.78059767 9.1476684,11.2681116 9.147,12.834 C9.147,14.463 8.417,15.92 7.271,16.904 L7.271,24.112 C7.271,24.436 7.534,24.7 7.859,24.7 L12.337,24.7 C12.4929473,24.7 12.6425074,24.6380502 12.7527788,24.5277788 C12.8630502,24.4175074 12.925,24.2679473 12.925,24.112 L12.925,1.502 C12.925,1.17725657 12.6617434,0.914 12.337,0.914 Z" id="Shape"></path>
                    </g>
                </g>
            </g>
            <g data-aos="fade-down" data-aos-delay="650" data-aos-anchor=".glance-map">
                <g id="pin-6" transform="translate(518.000000, 332.000000)">
                    <g id="Group" transform="translate(0.086000, 0.132000)">
                        <g fill-rule="nonzero" id="l-link">
                            <g fill="#000000">
                                <path d="M22.666,0 C10.168,0 0,10.363 0,23.102 C0,38.91 20.284,62.118 21.148,63.099 C21.958,64.019 23.375,64.018 24.185,63.099 C25.048,62.119 45.333,38.91 45.333,23.102 C45.333,10.363 35.164,0 22.666,0 Z M22.666,34.725 C16.378,34.725 11.262,29.511 11.262,23.102 C11.262,16.692 16.378,11.479 22.666,11.479 C28.954,11.479 34.07,16.693 34.07,23.102 C34.07,29.511 28.954,34.725 22.666,34.725 Z" id="l"></path>
                            </g>
                            <g fill="#F2C744" stroke="#FFFFFF" stroke-width="0.936">
                                <path d="M22.666,0 C10.168,0 0,10.363 0,23.102 C0,38.91 20.284,62.118 21.148,63.099 C21.958,64.019 23.375,64.018 24.185,63.099 C25.048,62.119 45.333,38.91 45.333,23.102 C45.333,10.363 35.164,0 22.666,0 Z M22.666,34.725 C16.378,34.725 11.262,29.511 11.262,23.102 C11.262,16.692 16.378,11.479 22.666,11.479 C28.954,11.479 34.07,16.693 34.07,23.102 C34.07,29.511 28.954,34.725 22.666,34.725 Z" id="l"></path>
                            </g>
                        </g>
                        <ellipse id="Oval" fill="#FFFFFF" cx="22.666" cy="22.704" rx="18.349" ry="18.38"></ellipse>
                    </g>
                    <g id="Group" transform="translate(14.000000, 9.000000)" fill="#4C9C2E" fill-rule="nonzero">
                        <path d="M6.984,12.4 C6.984,14.326 5.449,15.885 3.551,15.885 C1.571,15.885 0.118,14.122 0.118,12.112 C0.118,10.226 1.693,8.791 3.551,8.791 C5.49,8.791 6.984,10.431 6.984,12.399 L6.984,12.4 Z M12.05,0.862 L7.572,0.862 C7.4160527,0.862 7.2664926,0.923949822 7.15622121,1.03422121 C7.04594982,1.1444926 6.984,1.2940527 6.984,1.45 L6.984,8.712 C8.17502316,9.72859767 8.8606684,11.2161116 8.86,12.782 C8.86,14.411 8.13,15.868 6.984,16.852 L6.984,24.06 C6.984,24.384 7.247,24.648 7.572,24.648 L12.05,24.648 C12.3747434,24.648 12.638,24.3847434 12.638,24.06 L12.638,1.45 C12.638,1.12525657 12.3747434,0.862 12.05,0.862 Z" id="Shape"></path>
                    </g>
                </g>
            </g>
        </g>
    </g>
</svg>
