<svg width="462" height="215"
    xmlns="http://www.w3.org/2000/svg">
    <g fill="#FFF" fill-rule="evenodd">
        <path d="M47.1 159.8c-10.4 0-18.867-1.333-25.4-4-4.133-1.733-6.533-2.6-7.2-2.6-1.2 0-2.867.467-5 1.4-2.667 1.6-4.267 2.4-4.8 2.4-.8 0-1.767-.533-2.9-1.6-1.133-1.067-1.7-2.067-1.7-3 0-.8.8-3.133 2.4-7 4.4-10.4 7.067-19 8-25.8.4-2.4.967-4.1 1.7-5.1s1.9-1.5 3.5-1.5c1.733 0 2.8.9 3.2 2.7.4 1.8.6 5.1.6 9.9 0 7.2 2.133 13.367 6.4 18.5 4.267 5.133 10.333 7.7 18.2 7.7 7.867 0 14.067-2.1 18.6-6.3 4.533-4.2 6.8-9.567 6.8-16.1 0-4.533-1.3-8.7-3.9-12.5-2.6-3.8-7.9-9.3-15.9-16.5-6.933-6-11.933-11.767-15-17.3-3.067-5.533-4.6-12.1-4.6-19.7 0-7.333 2.033-14 6.1-20s9.733-10.7 17-14.1c7.267-3.4 15.433-5.1 24.5-5.1 7.2 0 14.733 1.267 22.6 3.8.533.133 2.067.6 4.6 1.4 2.533.8 4.733 1.2 6.6 1.2s3.533-.4 5-1.2c2.133-1.2 3.933-1.8 5.4-1.8 1.733 0 2.6.667 2.6 2 0 .933-.267 1.733-.8 2.4-2.267 3.067-4.7 7.667-7.3 13.8-2.6 6.133-4.633 12.067-6.1 17.8-.933 3.333-2.467 5-4.6 5-1.333 0-2.267-.667-2.8-2-.533-1.333-.8-3.4-.8-6.2 0-8.667-2.167-15.6-6.5-20.8-4.333-5.2-10.033-7.8-17.1-7.8-6.8 0-12.1 2.133-15.9 6.4-3.8 4.267-5.7 9.133-5.7 14.6 0 3.333.533 6.267 1.6 8.8 1.067 2.533 2.933 5.233 5.6 8.1s6.733 6.633 12.2 11.3c7.733 6.533 13.133 12.6 16.2 18.2s4.6 11.8 4.6 18.6c0 7.067-2.033 13.833-6.1 20.3-4.067 6.467-9.9 11.7-17.5 15.7s-16.4 6-26.4 6zm80.2 0c-2.933 0-5.733-1.4-8.4-4.2-2.667-2.8-4-5.4-4-7.8 0-1.733.733-4.467 2.2-8.2l18.8-50.4c.4-1.2.6-2.133.6-2.8 0-1.867-.933-2.8-2.8-2.8l-9.6-.4c-3.333-.133-5-1.467-5-4 0-.4.5-1.167 1.5-2.3 1-1.133 2.233-2.167 3.7-3.1 1.467-.933 2.933-1.4 4.4-1.4h9.8c1.867 0 3.167-.267 3.9-.8.733-.533 1.633-1.933 2.7-4.2l5.6-11.2c1.6-2.933 4-5.767 7.2-8.5 3.2-2.733 5.933-4.1 8.2-4.1 1.467 0 2.6.6 3.4 1.8.8 1.2 1.2 2.667 1.2 4.4 0 .667-.133 1.667-.4 3l-4.8 15.4c-.267 1.333-.4 2.067-.4 2.2 0 .933.267 1.567.8 1.9.533.333 1.4.5 2.6.5 3.067 0 7.267.333 12.6 1 2.667.4 4.367.9 5.1 1.5.733.6 1.1 1.5 1.1 2.7 0 .533-.467 1.233-1.4 2.1-.933.867-2.267 1.433-4 1.7-4.933.533-8.933.867-12 1-2.533.133-4.4.467-5.6 1-1.2.533-2.067 1.467-2.6 2.8l-15 41.4c-.933 2.8-1.4 4.933-1.4 6.4 0 2 1 3 3 3s4.967-1.567 8.9-4.7c3.933-3.133 7.7-6.5 11.3-10.1.8-.667 1.333-.867 1.6-.6.667.133 1.2.6 1.6 1.4.4.8.467 1.6.2 2.4-.667 3.467-3.633 7.933-8.9 13.4-5.267 5.467-11.267 10.267-18 14.4-6.733 4.133-12.633 6.2-17.7 6.2zm85 0c-5.067 0-9.833-1.2-14.3-3.6-4.467-2.4-8.033-5.767-10.7-10.1-2.667-4.333-4-9.233-4-14.7 0-8.533 2.433-17.567 7.3-27.1 4.867-9.533 11.7-17.567 20.5-24.1 8.8-6.533 18.867-9.8 30.2-9.8 9.067 0 16.267 2.533 21.6 7.6 5.333 5.067 8 12.067 8 21 0 8.533-2.433 17.567-7.3 27.1-4.867 9.533-11.767 17.533-20.7 24-8.933 6.467-19.133 9.7-30.6 9.7zm3.8-7.8c4.133 0 8.467-3.733 13-11.2 4.533-7.467 8.333-16.433 11.4-26.9 3.067-10.467 4.6-19.7 4.6-27.7 0-5.6-2.267-8.4-6.8-8.4-3.6 0-7.733 3.733-12.4 11.2-4.667 7.467-8.633 16.4-11.9 26.8-3.267 10.4-4.9 19.533-4.9 27.4 0 2.933.633 5.133 1.9 6.6 1.267 1.467 2.967 2.2 5.1 2.2zm75.6 8c-2.267 0-4.767-.933-7.5-2.8-2.733-1.867-4.1-4-4.1-6.4 0-1.733.467-3.933 1.4-6.6L301.7 92c.267-.533.4-1.267.4-2.2 0-1.6-.867-2.4-2.6-2.4-2.4 0-4.333.4-5.8 1.2-1.467.8-3.467 2.2-6 4.2-.533.533-1.267.8-2.2.8-1.333 0-2-.867-2-2.6 0-2.533 1.133-5.1 3.4-7.7 2.267-2.6 5.267-4.967 9-7.1a50.182 50.182 0 0 1 9.7-4.2c3.4-1.067 6.633-1.6 9.7-1.6 3.467 0 6.067.933 7.8 2.8 1.733 1.867 2.6 4.467 2.6 7.8 0 3.6-1 7.8-3 12.6l-7.6 18.2-.2.8c0 .533.267.8.8.8.8 0 1.4-.4 1.8-1.2 7.6-13.733 14.7-24.167 21.3-31.3 6.6-7.133 13.3-10.7 20.1-10.7 4.133 0 7.333 1.2 9.6 3.6 2.267 2.4 3.4 5.467 3.4 9.2 0 3.467-.8 6.867-2.4 10.2-1.6 3.333-3.567 6.033-5.9 8.1-2.333 2.067-4.567 3.1-6.7 3.1-1.467 0-2.6-.667-3.4-2-.8-1.333-1.467-3.467-2-6.4-1.067-5.867-2.867-8.8-5.4-8.8-2.267 0-4.5 1.367-6.7 4.1-2.2 2.733-5.033 7.033-8.5 12.9-4.267 6.8-10.267 17.067-18 30.8l-5.4 9.4c-2.667 4.667-5.4 8.433-8.2 11.3-2.8 2.867-5.333 4.3-7.6 4.3zm63.2 54.8c-4 0-7.467-1.1-10.4-3.3-2.933-2.2-4.4-5.3-4.4-9.3 0-3.6 1.233-6.967 3.7-10.1s5.233-4.7 8.3-4.7c2 0 5.067 1.533 9.2 4.6 2 1.467 3.833 2.6 5.5 3.4 1.667.8 3.5 1.2 5.5 1.2 4 0 7.967-1.967 11.9-5.9 3.933-3.933 7.3-9.167 10.1-15.7 4.8-10.933 7.2-25.067 7.2-42.4 0-10.267-.567-18.767-1.7-25.5-1.133-6.733-2.533-11.633-4.2-14.7-1.667-3.067-3.233-4.6-4.7-4.6-1.6 0-3.467 1.533-5.6 4.6-2.133 3.067-3.867 6-5.2 8.8-1.333 3.067-2.6 4.6-3.8 4.6-.4 0-.8-.533-1.2-1.6-.4-1.067-.6-2.4-.6-4 0-4.667 1.533-9.433 4.6-14.3 3.067-4.867 6.8-8.867 11.2-12 4.4-3.133 8.533-4.7 12.4-4.7 3.733 0 6.8 1.267 9.2 3.8 2.4 2.533 4.467 6.4 6.2 11.6 4 13.333 6 28.4 6 45.2 0 4.533-.067 8.067-.2 10.6v.8c0 1.733.267 2.6.8 2.6.667 0 1.4-.933 2.2-2.8 4.533-8.533 7.733-18.2 9.6-29s2.667-23.467 2.4-38c0-1.067.833-2.167 2.5-3.3s3.033-1.7 4.1-1.7c1.2 0 2.867.633 5 1.9s4 2.867 5.6 4.8c1.6 1.933 2.4 4.033 2.4 6.3 0 12.267-5.133 27.533-15.4 45.8-10.267 18.267-23.867 36.667-40.8 55.2-8.4 9.2-16.9 16.8-25.5 22.8-8.6 6-15.9 9-21.9 9zM187.577 46.26c-.433 0-.812-.076-1.137-.227-.325-.152-.488-.358-.488-.618 0-.65.585-1.105 1.756-1.365 1.733-.347 2.968-.834 3.704-1.462.737-.629 1.106-1.636 1.106-3.023V13.24c0-2.513-.087-4.182-.26-5.005-.174-.823-.477-1.3-.91-1.43-.737-.26-1.907-.39-3.51-.39h-2.016c-1.256 0-2.47.303-3.64.91s-2.08 1.387-2.73 2.34c-.39.65-.899 1.31-1.527 1.983-.628.671-1.202 1.007-1.723 1.007-.52 0-.78-.347-.78-1.04 0-.433.13-.953.39-1.56.737-1.517 1.279-2.827 1.625-3.933.347-1.105.607-2.394.78-3.867.174-1.04.65-1.56 1.43-1.56.217 0 .542.292.976.878.433.585.758 1.007.975 1.267.346.347.996.628 1.95.845.953.217 1.841.325 2.665.325l23.984-.065c2.037 0 3.705-.303 5.005-.91.304-.173.715-.477 1.236-.91.346-.303.639-.53.877-.683a1.48 1.48 0 0 1 .813-.227c.433 0 .65.412.65 1.235 0 .217-.065.715-.195 1.495l-.456 1.82c-.433 1.603-.65 2.925-.65 3.965v1.105c0 .65-.097 1.18-.292 1.592-.195.412-.466.618-.813.618-.346 0-.65-.195-.91-.585-.26-.39-.498-1.04-.714-1.95-.39-1.43-1.051-2.47-1.983-3.12-.932-.65-2.35-.975-4.257-.975h-4.42c-.91 0-1.571.162-1.983.487-.412.326-.704.975-.877 1.95-.174.976-.26 2.546-.26 4.713V39.5c0 1.343.368 2.34 1.105 2.99.736.65 1.971 1.17 3.704 1.56.607.13 1.051.292 1.333.488a.934.934 0 0 1 .422.812c0 .26-.151.466-.455.617-.303.152-.671.228-1.105.228-1.04 0-2.643-.043-4.81-.13-1.993-.087-3.444-.13-4.355-.13-.866 0-2.34.043-4.42.13a57.92 57.92 0 0 1-4.81.195zm33.476-.065c-.39 0-.705-.076-.943-.227-.238-.152-.358-.358-.358-.618 0-.303.12-.542.358-.715.238-.173.617-.347 1.137-.52.954-.347 1.625-.66 2.015-.943.39-.281.585-.812.585-1.592V9.925c0-1.343-.184-2.405-.552-3.185-.368-.78-1.072-1.278-2.112-1.495-.434-.087-.65-.412-.65-.975 0-.477.194-.78.585-.91 1.863-.433 4.896-1.43 9.1-2.99.26-.13.476-.195.65-.195.433 0 .65.217.65.65 0 .26-.076.877-.228 1.853-.152.975-.227 2.329-.227 4.062v13.845c0 1.04.13 1.712.39 2.015 1.56-1.257 3.087-2.286 4.582-3.088 1.495-.801 3.174-1.202 5.037-1.202 2.297 0 4.193.834 5.688 2.503 1.495 1.668 2.243 3.867 2.243 6.597v13.975c0 .823.194 1.408.585 1.755.39.347.996.672 1.82.975.52.173.888.347 1.105.52.216.173.325.412.325.715 0 .563-.455.845-1.365.845-1.3 0-2.405-.065-3.316-.195a34.005 34.005 0 0 0-2.794-.13c-.91 0-1.842.043-2.796.13-.78.13-1.82.195-3.12.195-.953 0-1.43-.303-1.43-.91 0-.303.109-.53.326-.682.216-.152.563-.315 1.04-.488.736-.26 1.31-.585 1.722-.975.412-.39.618-.997.618-1.82V28.385c0-1.473-.488-2.73-1.463-3.77-.975-1.04-2.07-1.56-3.282-1.56-.78 0-1.604.12-2.47.358-.867.238-1.625.595-2.276 1.072-.476.347-.79.726-.942 1.137-.152.412-.227 1.073-.227 1.983v13.91c.043.78.249 1.332.617 1.657.368.326.92.618 1.657.878.91.303 1.365.715 1.365 1.235 0 .607-.39.91-1.17.91-1.213 0-2.318-.065-3.315-.195-1.213-.087-2.166-.13-2.86-.13-.736 0-1.711.043-2.924.13-.954.13-2.08.195-3.38.195zm46.8.715c-2.34 0-4.431-.607-6.273-1.82-1.842-1.213-3.282-2.892-4.322-5.038-1.04-2.145-1.56-4.582-1.56-7.312 0-2.6.617-5.005 1.852-7.215s2.892-3.965 4.972-5.265c2.08-1.3 4.355-1.95 6.826-1.95 2.73 0 5.004.823 6.825 2.47 1.82 1.647 2.73 3.727 2.73 6.24 0 .78-.163 1.365-.488 1.755-.325.39-.834.585-1.528.585h-13.195c-.606 0-1.04.173-1.3.52-.26.347-.39.932-.39 1.755 0 1.82.39 3.467 1.17 4.94.78 1.473 1.853 2.643 3.218 3.51s2.892 1.3 4.583 1.3c2.253 0 4.42-.932 6.5-2.795.346-.347.628-.52.844-.52.174 0 .325.076.455.227a.82.82 0 0 1 .195.553c0 .563-.26 1.3-.78 2.21-.78 1.647-2.101 3.033-3.964 4.16-1.864 1.127-3.987 1.69-6.37 1.69zm.454-20.085c1.907 0 3.294-.108 4.16-.325.39-.087.586-.65.586-1.69 0-1.17-.445-2.156-1.333-2.957-.888-.802-1.982-1.203-3.283-1.203-.91 0-1.798.27-2.665.813a6.679 6.679 0 0 0-2.112 2.08c-.542.845-.813 1.679-.813 2.502 0 .52.304.78.91.78h4.55zm29.51 19.435c-.39 0-.736-.076-1.04-.227-.303-.152-.454-.358-.454-.618 0-.65.541-1.105 1.625-1.365 1.733-.347 2.946-.823 3.64-1.43.693-.607 1.04-1.582 1.04-2.925v-29.51c0-1.43-.304-2.448-.91-3.055-.607-.607-1.755-1.083-3.446-1.43-1.083-.173-1.625-.628-1.625-1.365 0-.26.152-.466.456-.618.303-.151.65-.227 1.04-.227 1.083 0 2.621.043 4.615.13 1.906.087 3.293.13 4.16.13.866 0 2.21-.043 4.03-.13 2.08-.087 3.64-.13 4.68-.13.433 0 .78.076 1.04.227.26.152.39.38.39.683 0 .347-.13.617-.39.813-.26.195-.672.357-1.236.487-1.733.433-2.903.953-3.51 1.56-.606.607-.91 1.603-.91 2.99v29.38c0 1.3.347 2.264 1.04 2.892.694.629 1.885 1.138 3.575 1.528.564.13.986.292 1.268.488a.934.934 0 0 1 .423.812c0 .563-.477.845-1.43.845-1.127 0-2.73-.043-4.81-.13-1.907-.087-3.294-.13-4.16-.13-.954 0-2.427.043-4.42.13a53.33 53.33 0 0 1-4.68.195zm46.865.65c-4.333 0-8.341-.91-12.024-2.73-3.684-1.82-6.62-4.366-8.808-7.638-2.188-3.271-3.283-7.03-3.283-11.277 0-4.03 1.105-7.757 3.315-11.18s5.298-6.153 9.263-8.19 8.417-3.055 13.358-3.055c2.036 0 3.975.173 5.817.52 1.842.347 3.824.867 5.947 1.56.954.303 1.495.953 1.625 1.95.347 2.773.52 5.33.52 7.67.044.347-.054.617-.292.813-.238.195-.51.292-.813.292-.303 0-.574-.087-.812-.26-.238-.173-.4-.433-.488-.78-.433-1.517-.877-2.74-1.332-3.673a7.42 7.42 0 0 0-1.918-2.437c-2.166-1.82-5.2-2.73-9.1-2.73-3.033 0-5.73.823-8.092 2.47-2.362 1.647-4.192 3.835-5.493 6.565-1.3 2.73-1.95 5.655-1.95 8.775 0 3.77.618 7.204 1.853 10.302 1.235 3.099 3.044 5.558 5.427 7.378 2.384 1.82 5.2 2.73 8.45 2.73 3.12 0 5.699-.672 7.736-2.015 2.036-1.343 3.748-3.423 5.135-6.24.173-.303.379-.542.617-.715.238-.173.487-.26.748-.26.26 0 .487.087.682.26.195.173.293.433.293.78 0 .737-.141 1.777-.423 3.12a35.687 35.687 0 0 1-1.072 3.965c-.217.52-.455.9-.715 1.137-.26.239-.65.466-1.17.683-1.604.693-3.532 1.235-5.786 1.625-2.253.39-4.658.585-7.214.585zm20.93-.585c-1.213 0-1.82-.325-1.82-.975 0-.347.141-.628.423-.845.282-.217.726-.433 1.333-.65 2.686-.693 4.528-2.21 5.524-4.55 3.9-8.97 7.757-18.72 11.57-29.25.39-1.17.705-2.177.943-3.022.238-.846.4-1.42.488-1.723 1.56-.39 2.794-.78 3.704-1.17a5.322 5.322 0 0 0 1.723-1.332c.455-.542.726-.856.813-.943.346-.26.606-.217.78.13.086.173.281.715.584 1.625a1553.85 1553.85 0 0 0 5.558 17.322 2742.631 2742.631 0 0 0 4.387 13.358l1.495 4.42c.564 1.647 1.3 2.85 2.21 3.608.91.758 2.102 1.31 3.575 1.657 1.17.26 1.756.737 1.756 1.43 0 .52-.499.78-1.495.78l-4.486-.13a83.266 83.266 0 0 0-5.525-.195c-.953 0-2.513.043-4.68.13-1.993.087-3.358.13-4.094.13-.477 0-.867-.076-1.17-.227-.304-.152-.456-.38-.456-.683 0-.693.585-1.148 1.755-1.365 1.474-.26 2.546-.617 3.218-1.072.672-.456 1.007-1.073 1.007-1.853 0-.303-.021-.52-.065-.65-.346-1.907-1.104-4.853-2.274-8.84-.087-.39-.228-.65-.423-.78-.195-.13-.51-.195-.943-.195h-11.7c-.52 0-.888.39-1.104 1.17-1.3 3.857-2.102 6.5-2.406 7.93-.043.217-.065.52-.065.91 0 .91.315 1.625.943 2.145.628.52 1.636.953 3.022 1.3 1.17.26 1.756.715 1.756 1.365 0 .26-.141.466-.423.618-.282.151-.66.227-1.137.227l-3.12-.065a64.242 64.242 0 0 0-3.64-.13c-.607 0-1.311.032-2.113.097-.802.066-1.397.098-1.788.098-1.213.13-2.426.195-3.64.195zm24.505-18.85c.347 0 .585-.022.715-.065.13-.043.195-.152.195-.325 0-.043-.043-.282-.13-.715l-4.55-15.015c-.216-.607-.368-.91-.454-.91-.044 0-.195.282-.455.845l-5.46 15.08c-.087.173-.13.347-.13.52 0 .39.411.585 1.234.585h9.036zm63.57 19.695c-.65 0-1.581-.368-2.795-1.105-1.213-.737-2.383-1.82-3.51-3.25a441.853 441.853 0 0 1-5.362-6.012 583.645 583.645 0 0 0-5.102-5.753c-6.717-7.583-11.44-12.87-14.17-15.86-.434-.52-.78-.78-1.04-.78-.174 0-.304.14-.39.422-.087.282-.13.575-.13.878v4.095l.065 19.11c0 1.387.39 2.502 1.17 3.348.78.845 2.014 1.44 3.704 1.787.65.13 1.138.292 1.463.488.325.195.488.465.488.812 0 .26-.174.466-.52.617-.347.152-.759.228-1.236.228-1.3 0-2.643-.043-4.03-.13a37.712 37.712 0 0 0-2.794-.13c-.477 0-1.755.065-3.835.195-1.04.087-1.755.13-2.146.13a2.89 2.89 0 0 1-1.17-.227c-.346-.152-.52-.358-.52-.618 0-.347.152-.617.456-.813.303-.195.758-.379 1.364-.552 2.037-.65 3.207-2.405 3.51-5.265.824-8.84 1.236-17.442 1.236-25.805 0-2.08-.51-3.63-1.528-4.648-1.018-1.018-2.524-1.895-4.517-2.632a4.424 4.424 0 0 1-1.3-.585c-.39-.26-.586-.563-.586-.91 0-.65.542-.975 1.625-.975.997 0 2.492.043 4.486.13 2.21.13 4.636.195 7.28.195.52 0 .974.282 1.364.845 1.3 1.473 5.07 5.85 11.31 13.13 6.717 7.887 11.18 13.065 13.39 15.535.564.693.975 1.04 1.236 1.04.173 0 .314-.097.422-.292.108-.196.163-.466.163-.813V22.795c0-5.937-.022-10.292-.065-13.065-.044-.997-.466-1.83-1.268-2.503-.802-.671-1.874-1.137-3.217-1.397-1.43-.347-2.145-.802-2.145-1.365 0-.26.205-.466.617-.617a3.825 3.825 0 0 1 1.332-.228l5.46.065 3.12-.065c1.387-.087 2.73-.13 4.03-.13.52 0 .943.076 1.268.227.325.152.488.358.488.618 0 .65-.629 1.105-1.885 1.365-1.56.303-2.644.726-3.25 1.268-.607.541-.932 1.397-.976 2.567 0 2.903-.064 6.673-.195 11.31-.173 7.28-.26 12.61-.26 15.99 0 .997.055 2.123.163 3.38.108 1.257.184 2.08.228 2.47.13.91.195 1.582.195 2.015 0 1.647-.564 2.47-1.69 2.47z"/>
    </g>
</svg>
