<?xml version="1.0" encoding="UTF-8"?>
<svg width="497px" height="103px" viewBox="0 0 497 103" version="1.1"
    xmlns="http://www.w3.org/2000/svg"
    xmlns:xlink="http://www.w3.org/1999/xlink">
    <!-- Generator: Sketch 52.6 (67491) - http://www.bohemiancoding.com/sketch -->
    <title>site-logo-footer</title>
    <desc>Created with Sketch.</desc>
    <g id="Page-1" stroke="none" stroke-width="1" fill="none" fill-rule="evenodd">
        <g id="site-logo-footer" fill="#FFFFFF">
            <path d="M136.1,77.6 C135.5,76.3 134,75.9 132.8,76.5 C128.2,78.9 122.9,80.1 116.8,80.1 C99.1,80.1 87.7,68.5 87.7,52.3 C87.7,35.7 99.5,23.2 117.9,23.2 C123.7,23.2 128.4,24.3 132.6,26.6 C133.8,27.3 135.4,26.8 136,25.5 C138.3,20.1 141.4,15.3 145.1,11 C146.1,9.8 145.8,8 144.4,7.3 C136.7,3.3 127.7,1.1 117.9,1.1 C86.1,1.1 63.7,23.2 63.7,51.9 C63.7,79.9 84.9,102.2 117.6,102.2 C128,102.2 137.2,100.1 145,96 C146.4,95.3 146.8,93.4 145.7,92.2 C141.6,87.9 138.5,83 136.1,77.6 Z" id="Path"></path>
            <path d="M213.6,89.4 C205.1,97.7 196.1,102.1 183.9,102.1 C159.5,102.1 138.2,81.1 138.2,51.7 C138.2,21.7 158.4,1.1 183.4,1.1 C195,1.1 204.9,5.4 213.6,14.1 L213.6,6 C213.6,4.7 214.7,3.6 216,3.6 L235.2,3.6 C236.5,3.6 237.6,4.7 237.6,6 L237.6,97.1 C237.6,98.4 236.5,99.5 235.2,99.5 L216,99.5 C214.7,99.5 213.6,98.4 213.6,97.1 L213.6,89.4 Z M162.4,51.5 C162.4,68 173.2,80.1 188.3,80.1 C203.1,80.1 214.7,68.9 214.7,51.4 C214.7,34.6 203.5,23.2 188.3,23.2 C172.4,23.1 162.4,35.7 162.4,51.5 Z M272.3,13.3 C281.5,5.5 290,1 300.7,1 C318.6,1 333.6,13.3 333.6,33.9 L333.6,97.1 C333.6,98.4 332.5,99.5 331.2,99.5 L312,99.5 C310.7,99.5 309.6,98.4 309.6,97.1 L309.6,54.2 C309.6,35.2 308,23.1 293.3,23.1 C286.6,23.1 280.8,26.4 277,32.3 C272.1,40.1 272.3,48.8 272.3,58.7 L272.3,97.1 C272.3,98.4 271.2,99.5 269.9,99.5 L250.7,99.5 C249.4,99.5 248.3,98.4 248.3,97.1 L248.3,6 C248.3,4.7 249.4,3.6 250.7,3.6 L269.9,3.6 C271.2,3.6 272.3,4.7 272.3,6 L272.3,13.3 Z M52.7,0.9 L33.7,0.9 C32.3,0.9 31.2,2 31.2,3.4 L31.2,34.4 C36,38.7 39,45 39,52.1 C39,59 36,65.1 31.2,69.4 L31.2,99.6 C31.2,101 32.3,102.1 33.7,102.1 L52.7,102.1 C54.1,102.1 55.2,101 55.2,99.6 L55.2,3.4 C55.2,2.1 54.1,0.9 52.7,0.9 Z" id="Shape" fill-rule="nonzero"></path>
            <path d="M31.2,49.4 C30,42 23.8,36.2 16.1,36.2 C7.8,36.2 0.7,42.5 0.7,50.8 C0.7,59.7 7.2,67.4 16.1,67.4 C23.7,67.4 30,61.9 31.2,54.6 C31.3,53.8 31.4,52.9 31.4,52 C31.4,51.2 31.3,50.3 31.2,49.4 Z M392.8,20.6 L390.9,20.6 L390.9,3.4 L392.8,3.4 L392.8,20.6 Z M397.5,11.1 C398.3,10.1 399.3,9.5 400.6,9.5 C403.6,9.5 404.2,11.6 404.2,14.2 L404.2,20.6 L402.4,20.6 L402.4,14.6 C402.4,12.9 402.3,11.3 400.1,11.3 C397.6,11.3 397.4,13.6 397.4,15.5 L397.4,20.6 L395.6,20.6 L395.6,9.9 L397.4,9.9 L397.4,11.1 L397.5,11.1 Z M409.1,20.6 L407.3,20.6 L407.3,11.6 L406.2,11.6 L406.2,9.9 L407.3,9.9 L407.3,6 L409.1,6 L409.1,9.9 L411,9.9 L411,11.6 L409.1,11.6 L409.1,20.6 Z M413,15.6 C413,17.6 414.4,19.2 416.5,19.2 C418.1,19.2 419.1,18.3 419.8,17 L421.4,17.9 C420.4,19.8 418.6,20.9 416.4,20.9 C413.2,20.9 411.2,18.5 411.2,15.4 C411.2,12.2 413,9.6 416.4,9.6 C419.8,9.6 421.7,12.5 421.5,15.6 L413,15.6 Z M419.5,14 C419.2,12.4 417.9,11.2 416.4,11.2 C414.8,11.2 413.4,12.5 413.1,14 L419.5,14 Z M433,20 C433,21.7 433,23.2 431.9,24.6 C430.9,25.9 429.3,26.5 427.7,26.5 C424.7,26.5 422.5,24.6 422.4,21.6 L424.2,21.6 C424.2,23.6 425.7,24.8 427.6,24.8 C430.4,24.8 431,22.7 431,20.3 L431,19 C430.1,20.1 428.7,20.8 427.3,20.8 C424.2,20.8 422.2,18.2 422.2,15.2 C422.2,12.2 424.2,9.5 427.4,9.5 C428.9,9.5 430.2,10.2 431,11.3 L431,9.8 L432.8,9.8 L432.8,20 L433,20 Z M424.2,15.1 C424.2,17.2 425.4,19.2 427.7,19.2 C430,19.2 431.3,17.3 431.3,15.1 C431.3,13 430,11.2 427.7,11.2 C425.6,11.2 424.2,13.1 424.2,15.1 Z M437.7,11 C438.4,10.2 438.9,9.5 440.1,9.5 C440.7,9.5 441.2,9.7 441.7,10 L440.8,11.7 C440.4,11.4 440.2,11.2 439.7,11.2 C437.7,11.2 437.6,13.8 437.6,15.2 L437.6,20.6 L435.8,20.6 L435.8,9.9 L437.6,9.9 L437.6,11 L437.7,11 Z M452.9,20.6 L451,20.6 L451,19.1 C450.1,20.3 448.8,20.9 447.3,20.9 C444.2,20.9 442.2,18.2 442.2,15.3 C442.2,12.2 444.1,9.6 447.4,9.6 C448.9,9.6 450.2,10.3 451.1,11.4 L451.1,9.9 L452.9,9.9 L452.9,20.6 Z M444,15.1 C444,17.2 445.2,19.2 447.5,19.2 C449.8,19.2 451.1,17.3 451.1,15.1 C451.1,13 449.8,11.2 447.5,11.2 C445.4,11.2 444,13.1 444,15.1 Z M457.6,20.6 L455.8,20.6 L455.8,11.6 L454.7,11.6 L454.7,9.9 L455.8,9.9 L455.8,6 L457.6,6 L457.6,9.9 L459.5,9.9 L459.5,11.6 L457.6,11.6 L457.6,20.6 Z M461.5,15.6 C461.5,17.6 462.9,19.2 465,19.2 C466.6,19.2 467.6,18.3 468.3,17 L469.9,17.9 C468.9,19.8 467.1,20.9 464.9,20.9 C461.7,20.9 459.7,18.5 459.7,15.4 C459.7,12.2 461.5,9.6 464.9,9.6 C468.3,9.6 470.2,12.5 470,15.6 L461.5,15.6 Z M468,14 C467.7,12.4 466.4,11.2 464.9,11.2 C463.3,11.2 461.9,12.5 461.6,14 L468,14 Z M479.8,19.1 C478.9,20.3 477.5,20.9 476.1,20.9 C473,20.9 471,18.2 471,15.3 C471,12.2 472.9,9.6 476.2,9.6 C477.6,9.6 479,10.3 479.9,11.4 L479.9,1.8 L481.7,1.8 L481.7,20.6 L479.9,20.6 L479.9,19.1 L479.8,19.1 Z M472.8,15.1 C472.8,17.2 474,19.2 476.3,19.2 C478.6,19.2 479.9,17.3 479.9,15.1 C479.9,13 478.6,11.2 476.3,11.2 C474.2,11.2 472.8,13.1 472.8,15.1 Z M403.9,33.5 C402.5,32.1 400.6,31.2 398.7,31.2 C394.9,31.2 391.8,34.5 391.8,38.3 C391.8,42.1 394.9,45.4 398.8,45.4 C400.7,45.4 402.6,44.5 404,43.1 L404,45.5 C402.5,46.6 400.7,47.2 398.9,47.2 C394,47.2 389.9,43.3 389.9,38.4 C389.9,33.5 393.9,29.4 398.9,29.4 C400.8,29.4 402.5,29.9 404,31.1 L404,33.5 L403.9,33.5 Z M405.6,41.6 C405.6,38.5 408.1,35.9 411.2,35.9 C414.3,35.9 416.8,38.4 416.8,41.6 C416.8,44.7 414.3,47.2 411.2,47.2 C408.1,47.2 405.6,44.7 405.6,41.6 Z M407.5,41.5 C407.5,43.7 409.1,45.5 411.3,45.5 C413.5,45.5 415.1,43.7 415.1,41.5 C415.1,39.3 413.5,37.5 411.3,37.5 C409.1,37.5 407.5,39.4 407.5,41.5 Z M420.7,37.3 C421.3,36.4 422.2,35.8 423.3,35.8 C424.6,35.8 425.7,36.5 426.3,37.6 C426.9,36.4 428.2,35.8 429.5,35.8 C432.2,35.8 432.9,38 432.9,40.3 L432.9,46.8 L431.1,46.8 L431.1,40.6 C431.1,39.2 431,37.5 429.1,37.5 C427,37.5 426.8,39.5 426.8,41.2 L426.8,46.9 L425,46.9 L425,40.8 C425,39.5 424.8,37.6 423.1,37.6 C421,37.6 420.7,39.8 420.7,41.4 L420.7,46.9 L418.9,46.9 L418.9,36.2 L420.7,36.2 L420.7,37.3 Z M437.6,37.3 C438.2,36.4 439.1,35.8 440.2,35.8 C441.5,35.8 442.6,36.5 443.2,37.6 C443.8,36.4 445.1,35.8 446.4,35.8 C449.1,35.8 449.8,38 449.8,40.3 L449.8,46.8 L448,46.8 L448,40.6 C448,39.2 447.9,37.5 446,37.5 C443.9,37.5 443.7,39.5 443.7,41.2 L443.7,46.9 L441.9,46.9 L441.9,40.8 C441.9,39.5 441.7,37.6 440,37.6 C437.9,37.6 437.6,39.8 437.6,41.4 L437.6,46.9 L435.8,46.9 L435.8,36.2 L437.6,36.2 L437.6,37.3 Z M454.4,42.2 C454.4,44 454.6,45.6 456.8,45.6 C459,45.6 459.2,44 459.2,42.2 L459.2,36.2 L461,36.2 L461,42.4 C461,45.3 459.9,47.2 456.8,47.2 C453.7,47.2 452.6,45.2 452.6,42.4 L452.6,36.2 L454.4,36.2 L454.4,42.2 Z M465.7,37.5 C466.5,36.5 467.5,35.9 468.8,35.9 C471.8,35.9 472.4,38 472.4,40.6 L472.4,47 L470.6,47 L470.6,41 C470.6,39.3 470.5,37.7 468.3,37.7 C465.8,37.7 465.6,40 465.6,41.9 L465.6,47 L463.8,47 L463.8,36.3 L465.6,36.3 L465.6,37.5 L465.7,37.5 Z M477.9,32.1 C477.9,32.8 477.3,33.4 476.6,33.4 C475.9,33.4 475.3,32.8 475.3,32.1 C475.3,31.4 475.9,30.8 476.6,30.8 C477.3,30.8 477.9,31.4 477.9,32.1 Z M477.5,46.9 L475.7,46.9 L475.7,36.2 L477.5,36.2 L477.5,46.9 Z M482.7,46.9 L480.9,46.9 L480.9,37.9 L479.8,37.9 L479.8,36.2 L480.9,36.2 L480.9,32.3 L482.7,32.3 L482.7,36.2 L484.6,36.2 L484.6,37.9 L482.7,37.9 L482.7,46.9 Z" id="Shape" fill-rule="nonzero"></path>
            <path d="M483.9,36.2 L486,36.2 L489.8,43.9 L493.3,36.2 L495.4,36.2 L487.5,52.9 L485.4,52.9 L488.9,45.9 L483.9,36.2 Z M393.4,68.4 L391.3,73.3 L389.2,73.3 L397.1,55.3 L404.8,73.3 L402.7,73.3 L400.7,68.4 L393.4,68.4 Z M397.1,59.7 L394.2,66.6 L400,66.6 L397.1,59.7 Z M408,73.3 L406.2,73.3 L406.2,54.5 L408,54.5 L408,73.3 Z M412.7,73.3 L410.9,73.3 L410.9,64.3 L409.8,64.3 L409.8,62.6 L410.9,62.6 L410.9,58.7 L412.7,58.7 L412.7,62.6 L414.6,62.6 L414.6,64.3 L412.7,64.3 L412.7,73.3 Z M416.6,68.3 C416.6,70.3 418,71.9 420.1,71.9 C421.7,71.9 422.7,71 423.4,69.7 L425,70.6 C424,72.5 422.2,73.6 420,73.6 C416.8,73.6 414.8,71.2 414.8,68.1 C414.8,64.9 416.6,62.3 420,62.3 C423.4,62.3 425.3,65.2 425.1,68.3 L416.6,68.3 Z M423.1,66.7 C422.8,65.1 421.5,63.9 420,63.9 C418.4,63.9 417,65.2 416.7,66.7 L423.1,66.7 Z M428.7,63.7 C429.4,62.9 429.9,62.2 431.1,62.2 C431.7,62.2 432.2,62.4 432.7,62.7 L431.8,64.4 C431.4,64.1 431.2,63.9 430.7,63.9 C428.7,63.9 428.6,66.5 428.6,67.9 L428.6,73.3 L426.8,73.3 L426.8,62.6 L428.6,62.6 L428.6,63.7 L428.7,63.7 Z M436,63.8 C436.8,62.8 437.8,62.2 439.1,62.2 C442.1,62.2 442.7,64.3 442.7,66.9 L442.7,73.3 L441,73.3 L441,67.3 C441,65.6 440.9,64 438.7,64 C436.2,64 436,66.3 436,68.2 L436,73.3 L434.2,73.3 L434.2,62.6 L436,62.6 L436,63.8 Z M455.5,73.3 L453.7,73.3 L453.7,71.8 C452.8,73 451.5,73.6 450,73.6 C446.9,73.6 444.9,70.9 444.9,68 C444.9,64.9 446.8,62.3 450.1,62.3 C451.6,62.3 452.9,63 453.8,64.1 L453.8,62.6 L455.6,62.6 L455.6,73.3 L455.5,73.3 Z M446.7,67.8 C446.7,69.9 447.9,71.9 450.2,71.9 C452.5,71.9 453.8,70 453.8,67.8 C453.8,65.7 452.5,63.9 450.2,63.9 C448,63.9 446.7,65.8 446.7,67.8 Z M460.2,73.3 L458.4,73.3 L458.4,64.3 L457.3,64.3 L457.3,62.6 L458.4,62.6 L458.4,58.7 L460.2,58.7 L460.2,62.6 L462.1,62.6 L462.1,64.3 L460.2,64.3 L460.2,73.3 Z M465.8,58.5 C465.8,59.2 465.2,59.8 464.5,59.8 C463.8,59.8 463.2,59.2 463.2,58.5 C463.2,57.8 463.8,57.2 464.5,57.2 C465.2,57.2 465.8,57.8 465.8,58.5 Z M465.4,73.3 L463.6,73.3 L463.6,62.6 L465.4,62.6 L465.4,73.3 Z M472.2,69.7 L475.4,62.5 L477.5,62.5 L472.3,73.9 L467,62.5 L469.1,62.5 L472.2,69.7 Z M479.5,68.3 C479.5,70.3 480.9,71.9 483,71.9 C484.6,71.9 485.6,71 486.3,69.7 L487.9,70.6 C486.9,72.5 485.1,73.6 482.9,73.6 C479.7,73.6 477.7,71.2 477.7,68.1 C477.7,64.9 479.5,62.3 482.9,62.3 C486.3,62.3 488.2,65.2 488,68.3 L479.5,68.3 Z M486,66.7 C485.7,65.1 484.4,63.9 482.9,63.9 C481.3,63.9 479.9,65.2 479.6,66.7 L486,66.7 Z M494.2,65 C493.9,64.4 493.4,63.9 492.7,63.9 C492.1,63.9 491.4,64.4 491.4,65.1 C491.4,66.1 492.6,66.4 493.9,67 C495.2,67.6 496.4,68.3 496.4,70.1 C496.4,72.1 494.8,73.6 492.8,73.6 C491,73.6 489.6,72.6 489,70.9 L490.6,70.2 C491.1,71.2 491.6,71.9 492.8,71.9 C493.8,71.9 494.5,71.2 494.5,70.3 C494.5,67.9 489.7,68.7 489.7,65.3 C489.7,63.5 491.2,62.3 492.9,62.3 C494.1,62.3 495.3,63.2 495.8,64.3 L494.2,65 Z M390.9,81.7 L404.3,95.8 L404.3,82.5 L406.2,82.5 L406.2,100.5 L392.8,86.5 L392.8,99.8 L390.9,99.8 L390.9,81.7 Z M410.2,94.6 C410.2,96.6 411.6,98.2 413.7,98.2 C415.3,98.2 416.3,97.3 417,96 L418.6,96.9 C417.6,98.8 415.8,99.9 413.6,99.9 C410.4,99.9 408.4,97.5 408.4,94.4 C408.4,91.2 410.2,88.6 413.6,88.6 C417,88.6 418.9,91.5 418.7,94.6 L410.2,94.6 Z M416.7,93.1 C416.4,91.5 415.1,90.3 413.6,90.3 C412,90.3 410.6,91.6 410.3,93.1 L416.7,93.1 Z M422.5,99.6 L420.7,99.6 L420.7,90.6 L419.6,90.6 L419.6,88.9 L420.7,88.9 L420.7,85 L422.5,85 L422.5,88.9 L424.4,88.9 L424.4,90.6 L422.5,90.6 L422.5,99.6 Z" id="Shape" fill-rule="nonzero"></path>
            <path d="M429,96.1 L432.3,88 L435.7,96.1 L438.9,88.8 L441,88.8 L435.7,100.3 L432.4,92.3 L429.1,100.3 L423.8,88.8 L425.9,88.8 L429,96.1 Z M441.3,94.3 C441.3,91.2 443.8,88.6 446.9,88.6 C450,88.6 452.5,91.1 452.5,94.3 C452.5,97.4 450,99.9 446.9,99.9 C443.8,99.9 441.3,97.4 441.3,94.3 Z M443.1,94.2 C443.1,96.4 444.7,98.2 446.9,98.2 C449.1,98.2 450.7,96.4 450.7,94.2 C450.7,92 449.1,90.2 446.9,90.2 C444.7,90.2 443.1,92.1 443.1,94.2 Z M456.2,90 C456.9,89.2 457.4,88.5 458.6,88.5 C459.2,88.5 459.7,88.7 460.2,89 L459.3,90.7 C458.9,90.4 458.7,90.2 458.2,90.2 C456.2,90.2 456.1,92.8 456.1,94.2 L456.1,99.6 L454.3,99.6 L454.3,88.9 L456.1,88.9 L456.1,90 L456.2,90 Z M463.3,92.9 L467.2,88.9 L469.6,88.9 L465,93.5 L470.5,99.7 L468.1,99.7 L463.8,94.8 L463.3,95.3 L463.3,99.7 L461.5,99.7 L461.5,80.9 L463.3,80.9 L463.3,92.9 Z M361.8,0.9 L362.8,0.9 L362.8,102.3 L361.8,102.3 L361.8,0.9 Z" id="Shape" fill-rule="nonzero"></path>
            <path d="M341,95.6 L339.5,95.6 L339.5,94.8 L343.3,94.8 L343.3,95.6 L341.8,95.6 L341.8,99.5 L341,99.5 L341,95.6 Z M344.2,94.9 L345.1,94.9 L346.5,97.1 L347.9,94.9 L348.8,94.9 L348.8,99.6 L348,99.6 L348,96.3 L346.5,98.5 L345,96.3 L345,99.6 L344.2,99.6 L344.2,94.9 Z" id="Shape" fill-rule="nonzero"></path>
        </g>
    </g>
</svg>
