<svg viewbox="0 0 194 57"
    xmlns="http://www.w3.org/2000/svg">
    <g class="light">
        <g fill-rule="nonzero" fill="none">
            <path d="M75.453 43.183a1.33 1.33 0 0 0-1.839-.625c-2.553 1.333-5.523 2.003-8.891 2.003-9.874 0-16.221-6.526-16.221-15.705 0-9.38 6.549-16.416 16.825-16.416 3.254 0 5.847.646 8.17 1.915.692.378 1.565.105 1.88-.623 1.307-3.03 3.016-5.771 5.06-8.15.574-.668.362-1.704-.415-2.112C75.708 1.2 70.69 0 65.227 0 47.494 0 35 12.44 35 28.653 35 44.458 46.789 57 65.024 57c5.823 0 10.897-1.166 15.243-3.497.775-.415.98-1.454.398-2.118a32.368 32.368 0 0 1-5.212-8.202z" fill="#FFF"/>
            <path d="M118.7 49.862C114 54.552 109 57 102.3 57 88.8 57 77 45.171 77 28.551 77 11.624 88.2 0 102 0c6.4 0 11.9 2.447 16.7 7.342V2.8a1.36 1.36 0 0 1 1.346-1.372h10.608A1.36 1.36 0 0 1 132 2.8v51.4c0 .757-.603 1.371-1.346 1.371h-10.608a1.36 1.36 0 0 1-1.346-1.372v-4.337zM90.4 28.449c0 9.278 6 16.111 14.3 16.111 8.2 0 14.6-6.323 14.6-16.213 0-9.482-6.2-15.907-14.6-15.907-8.8 0-14.3 7.138-14.3 16.009zm61.125-21.587C156.71 2.523 161.49 0 167.49 0 177.56 0 186 6.862 186 18.368v35.274c0 .75-.613 1.358-1.369 1.358h-10.787a1.364 1.364 0 0 1-1.369-1.358V29.67c0-10.596-.915-17.358-9.153-17.358-3.763 0-7.017 1.817-9.153 5.146-2.746 4.34-2.643 9.184-2.643 14.735v21.449c0 .75-.614 1.358-1.37 1.358H139.37a1.364 1.364 0 0 1-1.37-1.358V2.772c0-.75.613-1.36 1.369-1.36h10.788c.755 0 1.369.61 1.369 1.36v4.09h-.001z" fill="#FFF"/>
            <path d="M75.453 43.183a1.33 1.33 0 0 0-1.839-.625c-2.553 1.333-5.523 2.003-8.891 2.003-9.874 0-16.221-6.526-16.221-15.705 0-9.38 6.549-16.416 16.825-16.416 3.254 0 5.847.646 8.17 1.915.692.378 1.565.105 1.88-.623 1.307-3.03 3.016-5.771 5.06-8.15.574-.668.362-1.704-.415-2.112C75.708 1.2 70.69 0 65.227 0 47.494 0 35 12.44 35 28.653 35 44.458 46.789 57 65.024 57c5.823 0 10.897-1.166 15.243-3.497.775-.415.98-1.454.398-2.118a32.368 32.368 0 0 1-5.212-8.202z" fill="#fff"/>
            <path d="M118.7 49.862C114 54.552 109 57 102.3 57 88.8 57 77 45.171 77 28.551 77 11.624 88.2 0 102 0c6.4 0 11.9 2.447 16.7 7.342V2.8a1.36 1.36 0 0 1 1.346-1.372h10.608A1.36 1.36 0 0 1 132 2.8v51.4c0 .757-.603 1.371-1.346 1.371h-10.608a1.36 1.36 0 0 1-1.346-1.372v-4.337zM90.4 28.449c0 9.278 6 16.111 14.3 16.111 8.2 0 14.6-6.323 14.6-16.213 0-9.482-6.2-15.907-14.6-15.907-8.8 0-14.3 7.138-14.3 16.009zm61.125-21.587C156.71 2.523 161.49 0 167.49 0 177.56 0 186 6.862 186 18.368v35.274c0 .75-.613 1.358-1.369 1.358h-10.787a1.364 1.364 0 0 1-1.369-1.358V29.67c0-10.596-.915-17.358-9.153-17.358-3.763 0-7.017 1.817-9.153 5.146-2.746 4.34-2.643 9.184-2.643 14.735v21.449c0 .75-.614 1.358-1.37 1.358H139.37a1.364 1.364 0 0 1-1.37-1.358V2.772c0-.75.613-1.36 1.369-1.36h10.788c.755 0 1.369.61 1.369 1.36v4.09h-.001z" fill="#fff"/>
            <path d="M17 27.648C17 32.266 13.2 36 8.5 36 3.6 36 0 31.775 0 26.959 0 22.439 3.9 19 8.5 19c4.8 0 8.5 3.93 8.5 8.648zM29.544 0H18.456C17.652 0 17 .631 17 1.409v17.403c2.84 2.357 4.646 5.848 4.646 9.752 0 3.904-1.807 7.395-4.646 9.752v17.275c0 .778.652 1.409 1.456 1.409h11.088c.804 0 1.456-.631 1.456-1.409V1.41C31 .63 30.348 0 29.544 0z" fill="#4C9C2E"/>
            <g fill="#fff">
                <path d="M189.167 52.545H188V52h3v.545h-1.167V55h-.666v-2.455zM191 52h.545l.955 1.5.955-1.5H194v3h-.545v-2.182l-.955 1.5-.955-1.363V55H191z"/>
            </g>
        </g>
    </g>
    <g class="dark">
        <g fill-rule="nonzero" fill="none">
            <path d="M75.453 43.183a1.33 1.33 0 0 0-1.839-.625c-2.553 1.333-5.523 2.003-8.891 2.003-9.874 0-16.221-6.526-16.221-15.705 0-9.38 6.549-16.416 16.825-16.416 3.254 0 5.847.646 8.17 1.915.692.378 1.565.105 1.88-.623 1.307-3.03 3.016-5.771 5.06-8.15.574-.668.362-1.704-.415-2.112C75.708 1.2 70.69 0 65.227 0 47.494 0 35 12.44 35 28.653 35 44.458 46.789 57 65.024 57c5.823 0 10.897-1.166 15.243-3.497.775-.415.98-1.454.398-2.118a32.368 32.368 0 0 1-5.212-8.202z" fill="#FFF"/>
            <path d="M118.7 49.862C114 54.552 109 57 102.3 57 88.8 57 77 45.171 77 28.551 77 11.624 88.2 0 102 0c6.4 0 11.9 2.447 16.7 7.342V2.8a1.36 1.36 0 0 1 1.346-1.372h10.608A1.36 1.36 0 0 1 132 2.8v51.4c0 .757-.603 1.371-1.346 1.371h-10.608a1.36 1.36 0 0 1-1.346-1.372v-4.337zM90.4 28.449c0 9.278 6 16.111 14.3 16.111 8.2 0 14.6-6.323 14.6-16.213 0-9.482-6.2-15.907-14.6-15.907-8.8 0-14.3 7.138-14.3 16.009zm61.125-21.587C156.71 2.523 161.49 0 167.49 0 177.56 0 186 6.862 186 18.368v35.274c0 .75-.613 1.358-1.369 1.358h-10.787a1.364 1.364 0 0 1-1.369-1.358V29.67c0-10.596-.915-17.358-9.153-17.358-3.763 0-7.017 1.817-9.153 5.146-2.746 4.34-2.643 9.184-2.643 14.735v21.449c0 .75-.614 1.358-1.37 1.358H139.37a1.364 1.364 0 0 1-1.37-1.358V2.772c0-.75.613-1.36 1.369-1.36h10.788c.755 0 1.369.61 1.369 1.36v4.09h-.001z" fill="#FFF"/>
            <path d="M75.453 43.183a1.33 1.33 0 0 0-1.839-.625c-2.553 1.333-5.523 2.003-8.891 2.003-9.874 0-16.221-6.526-16.221-15.705 0-9.38 6.549-16.416 16.825-16.416 3.254 0 5.847.646 8.17 1.915.692.378 1.565.105 1.88-.623 1.307-3.03 3.016-5.771 5.06-8.15.574-.668.362-1.704-.415-2.112C75.708 1.2 70.69 0 65.227 0 47.494 0 35 12.44 35 28.653 35 44.458 46.789 57 65.024 57c5.823 0 10.897-1.166 15.243-3.497.775-.415.98-1.454.398-2.118a32.368 32.368 0 0 1-5.212-8.202z" fill="#0081C3"/>
            <path d="M118.7 49.862C114 54.552 109 57 102.3 57 88.8 57 77 45.171 77 28.551 77 11.624 88.2 0 102 0c6.4 0 11.9 2.447 16.7 7.342V2.8a1.36 1.36 0 0 1 1.346-1.372h10.608A1.36 1.36 0 0 1 132 2.8v51.4c0 .757-.603 1.371-1.346 1.371h-10.608a1.36 1.36 0 0 1-1.346-1.372v-4.337zM90.4 28.449c0 9.278 6 16.111 14.3 16.111 8.2 0 14.6-6.323 14.6-16.213 0-9.482-6.2-15.907-14.6-15.907-8.8 0-14.3 7.138-14.3 16.009zm61.125-21.587C156.71 2.523 161.49 0 167.49 0 177.56 0 186 6.862 186 18.368v35.274c0 .75-.613 1.358-1.369 1.358h-10.787a1.364 1.364 0 0 1-1.369-1.358V29.67c0-10.596-.915-17.358-9.153-17.358-3.763 0-7.017 1.817-9.153 5.146-2.746 4.34-2.643 9.184-2.643 14.735v21.449c0 .75-.614 1.358-1.37 1.358H139.37a1.364 1.364 0 0 1-1.37-1.358V2.772c0-.75.613-1.36 1.369-1.36h10.788c.755 0 1.369.61 1.369 1.36v4.09h-.001z" fill="#0081C3"/>
            <path d="M17 27.648C17 32.266 13.2 36 8.5 36 3.6 36 0 31.775 0 26.959 0 22.439 3.9 19 8.5 19c4.8 0 8.5 3.93 8.5 8.648zM29.544 0H18.456C17.652 0 17 .631 17 1.409v17.403c2.84 2.357 4.646 5.848 4.646 9.752 0 3.904-1.807 7.395-4.646 9.752v17.275c0 .778.652 1.409 1.456 1.409h11.088c.804 0 1.456-.631 1.456-1.409V1.41C31 .63 30.348 0 29.544 0z" fill="#4C9C2E"/>
            <g fill="#0081C3">
                <path d="M189.167 52.545H188V52h3v.545h-1.167V55h-.666v-2.455zM191 52h.545l.955 1.5.955-1.5H194v3h-.545v-2.182l-.955 1.5-.955-1.363V55H191z"/>
            </g>
        </g>
    </g>
</svg>
