<?xml version="1.0" standalone="no"?>
<!DOCTYPE svg PUBLIC "-//W3C//DTD SVG 20010904//EN"
 "http://www.w3.org/TR/2001/REC-SVG-20010904/DTD/svg10.dtd">
<svg version="1.0" xmlns="http://www.w3.org/2000/svg"
 width="260.000000pt" height="260.000000pt" viewBox="0 0 260.000000 260.000000"
 preserveAspectRatio="xMidYMid meet">
<metadata>
Created by potrace 1.11, written by Peter Selinger 2001-2013
</metadata>
<g transform="translate(0.000000,260.000000) scale(0.100000,-0.100000)"
fill="#000000" stroke="none">
<path d="M1167 2292 c-15 -16 -17 -54 -17 -327 l0 -308 46 -49 c132 -142 151
-362 44 -526 -20 -31 -49 -68 -64 -81 l-26 -24 0 -307 c0 -285 1 -308 18 -323
16 -15 47 -17 230 -17 207 0 211 0 226 22 14 20 16 128 16 968 0 840 -2 948
-16 968 -15 22 -19 22 -228 22 -194 0 -214 -2 -229 -18z"/>
<path d="M762 1636 c-172 -56 -246 -232 -169 -400 64 -139 206 -204 352 -162
80 24 166 108 189 186 31 105 10 207 -60 289 -72 83 -207 121 -312 87z"/>
</g>
</svg>
